<svg xmlns="http://www.w3.org/2000/svg" width="992" height="527" fill="none" viewBox="0 0 992 527">
  <path fill="#D0D4D7" d="M662.092 106.666a.281.281 0 1 0 .144.544c47.481-12.63 91.812-24.806 129.89-33.475.585-.32 1.166-.653 1.75-.976-38.516 8.697-83.519 21.072-131.784 33.907Zm212.907-45.57a.28.28 0 0 0 .278-.285.28.28 0 0 0-.285-.278c-20.813.244-47.802 4.766-79.182 11.792-.577.323-1.155.646-1.734.967 32.158-7.26 59.767-11.952 80.923-12.197Z"/>
  <path fill="#D0D4D7" d="M792.126 73.733c-29.384 16.084-60.188 27.832-91.569 36.372a.282.282 0 0 0 .147.543c32.017-8.712 63.437-20.772 93.371-37.356a423.23 423.23 0 0 0 1.735-.967c28.035-15.728 54.748-35.46 79.385-60.21a.28.28 0 1 0-.399-.398c-25.083 25.2-52.321 45.189-80.92 61.042-.584.323-1.165.654-1.75.974Z"/>
  <path fill="#C1BDBB" d="M170.235 433.725c-20.961-6.956-40.687.596-55.499 10.292 4.75 2.344 10.162 5.226 15.022 8.334 13.028-.586 25.443-.947 36.318-.947 1.592 0 3.15.008 4.672.023-.392-3.893-.55-8.501-.551-13.438 0-1.399.014-2.823.038-4.264Zm613.898-11.23a146.47 146.47 0 0 1-6.329 6.732c-12.432 12.374-26.087 21.111-40.478 23.348a193.274 193.274 0 0 1-34.939 3.199c-2.782 0-5.466-.062-8.049-.172 2.331.507 4.561 1.03 6.729 1.553 12.299 2.962 22.601 5.887 38.937 5.89 4.868 0 10.273-.261 16.423-.862 17.78-1.738 49.422-6.306 62.302-8.239l-14.815-30.339c-.413-.02-7.983-4.954-19.781-1.11Zm107.821 37.636c1.54 1.388 2.909 2.785 4.381 4.095 1.962 1.748 4.096 3.347 7.098 4.631 4.001 1.708 9.58 2.859 18.309 2.859.832 0 1.694-.01 2.585-.031a811.278 811.278 0 0 1 19.524-.235l1.571.002c-6.665-19.187-35.869-31.003-69.933-38.274l10.985 22.922c2.177 1.246 3.924 2.629 5.48 4.031Z"/>
  <path fill="#C1BDBB" d="m803.486 423.656 14.526 30.314c12.793-1.796 24.553-3.069 37.373-3.069 3.604 0 7.291.1 11.109.318.016 0 20.506 5.253 20.521 5.253l-11.329-23.297c-17.933-2.893-55.781-8.334-72.2-9.519Z"/>
  <path fill="#BAD7F0" d="M388.785 233.47a23.526 23.526 0 0 0-6.914-16.69 23.527 23.527 0 0 0-16.689-6.913 23.522 23.522 0 0 0-16.69 6.913 23.526 23.526 0 0 0-6.882 17.896c13.175 3.988 27.036 9.577 40.176 15.564l.085-.081a23.524 23.524 0 0 0 6.914-16.689Z"/>
  <path fill="#1A1A1A" d="M341.61 234.675a23.53 23.53 0 0 1 6.882-17.895 23.53 23.53 0 0 1 16.69-6.914 23.532 23.532 0 0 1 16.69 6.914 23.527 23.527 0 0 1 6.913 16.689 23.528 23.528 0 0 1-6.913 16.691l-.085.08c.545.248 1.088.497 1.629.746 4.367-4.545 7.057-10.715 7.057-17.517 0-13.968-11.323-25.291-25.291-25.291s-25.291 11.323-25.291 25.291c0 .235.012.466.017.699.566.166 1.133.335 1.702.507Z"/>
  <path fill="#C1BDBB" d="M172.468 282.991c5.382-3.167 25.427-14.773 49.587-26.451-12.971-5.316-25.978-8.808-35.569-7.146-15.85 2.745-31.698 13.36-42.5 22.088a296.967 296.967 0 0 1 3.656 11.509h24.826Zm-42.155.844h15.819a292.758 292.758 0 0 0-3.543-11.211c-7.533 6.218-12.276 11.211-12.276 11.211Z"/>
  <path fill="#fff" d="M225.234 187.819s.529-.271 1.488-.59a9.868 9.868 0 0 0-.815-.884 52.984 52.984 0 0 1-.717 1.397l.044.077Zm3.288 19.467c-4.836-7.6-2.833-18.737-2.833-18.737l-.456-.73c-.323.13-.679.217-1.05.284-.001 1.685-.142 6.003-1.349 10.679 1.067 10.917 4.795 28.812 16.805 49.622a476.744 476.744 0 0 1 5.17-2.243c-7.011-9.612-13.743-22.59-16.287-38.875Zm-.998-17.44.008-.233c-.85-.48-1.435-.822-1.688-.973.264.161.861.548 1.68 1.206Zm-3.303-4.442a1.146 1.146 0 0 0-.4.047c.341.536.681 1.095 1.018 1.677-.17-.411-.391-.994-.618-1.724Z"/>
  <path fill="#fff" d="M225.689 188.549s-2.002 11.138 2.833 18.738c2.26 3.553 6.012 6.333 12.165 6.84-2.932-14.526-9.849-21.62-13.163-24.28a16.504 16.504 0 0 0-1.681-1.206 10.416 10.416 0 0 1-.154-.092Zm17.324-.031c5.937.201 11.92-.115 14.979-1.791-14.09-18.997-31.509.216-31.509.216s.276.043.777.116c2.939-.871 8.8-1.793 15.753 1.459Zm-17.824-.776c.094-.175.353-.665.718-1.398 2.159-4.347 7.992-17.281 4.751-24.284-9.402 8.85-7.833 18.849-6.437 23.344.226.73.447 1.312.618 1.724.116.203.233.405.35.614Z"/>
  <path fill="#fff" d="m225.689 188.549.154.092c.254.15.839.493 1.69.973 5.424 3.064 21.437 11.593 28.347 9.629-4.419-5.539-8.827-8.835-12.867-10.724-6.953-3.252-12.814-2.332-15.752-1.46-.192.057-.372.113-.539.169-.959.319-1.488.591-1.488.591l.455.73Zm-2.539-.73a11.8 11.8 0 0 1 1.024-.469s.011.273.01.753c.37-.067.727-.154 1.05-.284l-.045-.077c-.116-.208-.233-.411-.35-.614a46.129 46.129 0 0 0-1.018-1.677c-12.042-18.876-27.171-9.327-27.171-9.327s12.222 8.547 21.376 11.274c2.697.022 4.713.349 5.124.421Z"/>
  <path fill="#fff" d="M223.149 187.819c-.41-.072-2.426-.399-5.124-.422-6.979-.059-18.519 1.932-18.606 15.723 4.389-.636 11.805-5.774 17.197-9.92 2.304-2.96 5.07-4.639 6.533-5.381Z"/>
  <path fill="#fff" d="M224.184 188.102c.001-.48-.01-.752-.01-.752s-.39.147-1.024.469c-1.464.742-4.231 2.422-6.534 5.381-3.028 3.89-5.254 9.995-2.656 19.128 5.008-2.992 7.568-8.477 8.875-13.547 1.206-4.676 1.348-8.993 1.349-10.679Zm47.763 94.889c.467 0 .845.378.845.844h60.903c0-.466.378-.844.844-.844h33.704c.466 0 .844.378.844.844h57.177a386.727 386.727 0 0 1 6.681-7.084c-11.307-6.521-29.502-16.55-49.529-25.766a403.51 403.51 0 0 0-1.629-.745c-13.14-5.987-27.002-11.576-40.177-15.564a203.12 203.12 0 0 0-1.702-.508c-11.55-3.39-22.521-5.495-31.948-5.495-16.872 0-40.375 7.775-63.152 17.488a447.477 447.477 0 0 0-5.168 2.243 554.602 554.602 0 0 0-17.584 8.136c-24.162 11.678-44.206 23.284-49.588 26.451h99.479ZM141.621 462.284c1.247 1.67 2.067 3.362 2.203 5.087l.002.065c.001.282-.119.536-.249.698a1.645 1.645 0 0 1-.419.366c-.29.179-.608.3-.997.42-.773.233-1.819.429-3.141.614-2.638.366-6.359.667-10.821.909-8.922.481-20.794.722-32.67.722-9.141 0-18.283-.143-26.077-.427-7.797-.287-14.229-.712-18.022-1.293-1.087-.167-1.958-.344-2.621-.553-.356-.114-.652-.23-.923-.401a1.6 1.6 0 0 1-.406-.357 1.14 1.14 0 0 1-.249-.698l.003-.065c.136-1.725.956-3.417 2.203-5.087.771-1.031 1.714-2.057 2.788-3.078a3087.544 3087.544 0 0 0-50.094 4.536l-.146.014c.234.477.584.971 1.069 1.482.794.84 1.94 1.708 3.423 2.575 2.97 1.736 7.28 3.464 12.799 5.141 11.04 3.358 26.917 6.53 46.808 9.485 39.788 5.913 95.65 10.971 161.331 15.084 131.365 8.227 302.014 12.679 462.089 12.679 93.823 0 158.492-3.205 203.022-7.733 44.527-4.526 68.921-10.383 82.141-15.641 8.817-3.5 12.639-6.738 14.19-9.011.889-1.301 1.064-2.276 1.066-2.9 0-.15-.012-.276-.027-.386l-.262-.019c-.563-.039-1.4-.095-2.492-.162-2.185-.135-5.39-.314-9.472-.493a776.998 776.998 0 0 0-33.819-.718c-6.085 0-12.613.067-19.484.233-.904.022-1.779.032-2.626.032-7.486 0-12.795-.83-16.846-2.188-4.05-1.356-6.826-3.252-9.17-5.278-1.564-1.35-2.942-2.751-4.409-4.103-1.956-1.803-4.064-3.522-7.008-4.987-3.923-1.949-9.364-3.457-17.91-3.944-3.786-.215-7.44-.315-11.013-.315-14.802 0-28.194 1.71-43.549 3.978-15.354 2.266-32.662 5.089-55.245 7.296-6.199.606-11.659.87-16.588.87-16.544.002-27.086-2.987-39.332-5.937-12.251-2.951-26.261-5.888-50.029-5.891-3.367 0-6.93.06-10.71.186-57.423 1.927-116.137 5.606-149.133 5.607-4.489 0-8.503-.069-11.978-.22-20.055-.868-63.479-4.363-99.434-4.363-15.911-.002-30.363.688-40.606 2.574-14.641 2.692-35.718 3.918-58.224 3.92-29.633-.001-61.714-2.132-84.702-5.906-6.905-1.134-17.323-1.612-29.779-1.611-10.194 0-21.761.318-33.924.844 3.945 2.704 7.348 5.52 9.469 8.348Zm654.733 8.037c30.495-.601 50.556 6.219 22.579 20.335-27.976 14.116-141.343 3.538-269.736 5.143-128.393 1.604-174.936-17.654-174.936-17.654-3.21-15.247 138.825 1.605 182.234-7.861 43.408-9.465 86.59-5.699 120.443.037 33.854 5.736 88.923.601 119.416 0Z"/>
  <path fill="#1A1A1A" d="M991.301 473.347a.84.84 0 0 0-.685-.456c-.017-.002-18.025-1.386-45.194-1.438l-1.571-.002c-6.098 0-12.638.068-19.524.234-.891.021-1.753.031-2.585.031-8.728 0-14.308-1.15-18.308-2.859-3.002-1.283-5.137-2.882-7.099-4.63-1.472-1.311-2.841-2.708-4.381-4.096-1.555-1.402-3.303-2.785-5.48-4.031a28.236 28.236 0 0 0-2.474-1.255c-.333-.149-.662-.298-1.014-.441-3.589-1.454-8.204-2.545-14.509-3.047a81.494 81.494 0 0 0-1.936-.135c-.016 0-.031-.002-.047-.003a195.294 195.294 0 0 0-11.109-.317c-12.819 0-24.579 1.272-37.373 3.068-.582.082-1.167.164-1.753.248-1.541.22-3.093.445-4.669.679-2.69.396-5.441.811-8.264 1.235l-1.747.262c-12.88 1.933-27.372 4.051-45.152 5.79-6.15.6-11.555.861-16.423.861-16.336-.003-26.638-2.927-38.937-5.89a304.199 304.199 0 0 0-6.729-1.553c-8.36-1.818-18.041-3.431-30.998-4.08l-.829-.039c-1.6-.075-3.25-.134-4.952-.177-.769-.021-1.547-.038-2.338-.051a283.262 283.262 0 0 0-4.579-.038c-3.386 0-6.967.06-10.765.187l-2.556.087-2.475.086c-55.823 1.966-112.115 5.433-144.047 5.432-4.471 0-8.463-.068-11.904-.216-11.528-.499-30.859-1.874-52.073-2.949l-1.687-.084c-15.085-.75-31.034-1.334-45.748-1.334-15.964.002-30.471.683-40.911 2.603-14.456 2.661-35.48 3.893-57.919 3.892-29.55.001-61.581-2.131-84.429-5.883-5.845-.958-13.989-1.445-23.679-1.588a445.044 445.044 0 0 0-6.373-.046c-10.874 0-23.289.361-36.316.948.68.435 1.352.874 2.007 1.317.131.089.256.179.385.268 12.164-.526 23.73-.845 33.924-.845 12.456-.001 22.874.477 29.778 1.612 22.989 3.774 55.069 5.905 84.703 5.905 22.506-.001 43.584-1.228 58.224-3.92 10.244-1.886 24.695-2.576 40.606-2.574 35.955 0 79.38 3.495 99.435 4.364 3.475.151 7.489.219 11.977.219 32.997-.001 91.71-3.68 149.134-5.607 3.78-.126 7.342-.185 10.709-.185 23.768.003 37.779 2.94 50.029 5.89 12.246 2.951 22.789 5.939 39.333 5.937 4.928 0 10.388-.264 16.588-.869 22.583-2.207 39.891-5.03 55.244-7.297 15.355-2.268 28.747-3.977 43.549-3.977 3.573 0 7.227.099 11.013.315 8.546.487 13.988 1.994 17.911 3.944 2.944 1.464 5.052 3.183 7.008 4.987 1.467 1.351 2.845 2.752 4.409 4.103 2.344 2.026 5.118 3.922 9.169 5.277 4.051 1.358 9.361 2.189 16.847 2.189.847 0 1.721-.011 2.626-.033a812.624 812.624 0 0 1 19.483-.233c13.995 0 25.658.359 33.819.718 4.081.179 7.287.359 9.472.493 1.092.067 1.929.123 2.492.163l.263.018c.015.111.027.236.027.386-.003.625-.177 1.599-1.066 2.9-1.551 2.273-5.373 5.512-14.191 9.012-13.22 5.258-37.613 11.115-82.14 15.64-44.53 4.528-109.2 7.733-203.023 7.733-160.074 0-330.724-4.451-462.088-12.678-65.681-4.113-121.544-9.172-161.331-15.085-19.891-2.954-35.768-6.127-46.808-9.485-5.52-1.676-9.83-3.404-12.8-5.14-1.483-.868-2.63-1.736-3.424-2.575-.485-.511-.834-1.006-1.068-1.482l.145-.015c4.95-.494 24.709-2.44 50.095-4.535a40.947 40.947 0 0 1 2.117-1.868c-30.58 2.501-53.58 4.845-53.583 4.845a.84.84 0 0 0-.743 1.004c.23 1.145.865 2.213 1.812 3.212 1.841 1.934 4.876 3.691 9.056 5.409 7.834 3.206 19.72 6.208 35.143 9.041 53.961 9.905 151.185 17.658 266.765 22.944 115.574 5.285 249.48 8.097 376.712 8.097 143.029-.002 218.38-7.441 258.053-15.699 19.839-4.133 30.76-8.461 36.804-12.231 3.02-1.888 4.826-3.641 5.888-5.188 1.064-1.544 1.366-2.89 1.363-3.856 0-.923-.265-1.481-.311-1.57Z"/>
  <path fill="#000" d="M265.766 516.742c-.696-.355-1.603-.598-2.757-.81-1.726-.31-3.989-.52-6.675-.656-2.686-.135-5.791-.193-9.174-.193-23.954.001-61.932 2.944-61.943 2.944a.844.844 0 0 0-.363 1.571c4.56 2.678 10.681 4.473 17.55 5.621 6.867 1.145 14.481 1.633 21.999 1.633 9.905 0 19.639-.846 27.273-2.17 3.818-.663 7.109-1.444 9.654-2.31 1.274-.434 2.36-.889 3.244-1.376.883-.489 1.572-.998 2.038-1.63l.001-.001c.2-.276.355-.62.356-1.01a1.49 1.49 0 0 0-.209-.754c-.248-.407-.6-.652-.994-.859Zm-2.006 2.775c-1.331.736-3.411 1.482-6.02 2.157-7.84 2.037-20.467 3.491-33.337 3.489-7.444 0-14.976-.484-21.721-1.609-5.468-.91-10.419-2.248-14.373-4.064 9.382-.683 39.017-2.719 58.851-2.718 5.465-.001 10.189.155 13.5.53 1.652.186 2.956.431 3.772.711.403.133.681.282.799.378-.225.307-.723.719-1.471 1.126Zm60.606.607h-23.129a.844.844 0 0 0 0 1.688h23.129a.844.844 0 0 0 0-1.688Z"/>
  <path fill="#fff" d="M740.025 42.775s.591-26.921-29.1-20.903c10.031-27.645-50.098-29.652-43.907-2.77-16.278-10.03-60.613-.401-46.671 23.673h119.678ZM247.874 208.352c0 1.441.135 2.609.301 2.609.165 0 .301-1.168.301-2.609 0-1.442-.136-2.61-.301-2.61-.166 0-.301 1.168-.301 2.61Z"/>
  <path fill="#000" d="M272.791 283.835a.844.844 0 0 0-.844-.844H147.566a.844.844 0 1 0 0 1.688h124.381a.844.844 0 0 0 .844-.844Zm61.748.844h33.704a.844.844 0 0 0 0-1.688h-33.704a.844.844 0 0 0 0 1.688Zm-79.443 17.562h48.75a.844.844 0 0 0 0-1.689h-48.75a.845.845 0 0 0 0 1.689Zm40.683 14.409c0 .466.378.844.844.844h15.046a.844.844 0 0 0 0-1.688h-15.046a.844.844 0 0 0-.844.844Z"/>
  <path fill="#fff" d="M485.462 92.162c.05-.498.084-.999.084-1.506 0-10.784-11.503-19.527-25.693-19.527a33.6 33.6 0 0 0-5.604.47 11.15 11.15 0 0 0 .458-3.146c0-7.957-8.487-14.407-18.957-14.407-9.576 0-17.489 5.396-18.772 12.405a39.52 39.52 0 0 0-3.998-.208c-16.508 0-29.892 10.17-29.892 22.717 0 1.088.107 2.156.302 3.202h102.072Zm-95.833 16.05c-3.089-3.612-27.003 1.605-27.003 1.605s30.092 2.006 27.003-1.605Zm129.61-8.226s-33.148-5.416-33.693 0c-.545 5.417 33.693 0 33.693 0Zm117.025-43.094s-35.219-5.656-32.756 1.165c2.463 6.821 32.756-1.165 32.756-1.165Zm93.688-4.304c.4 3.41 31.094 0 31.094 0s-31.496-3.41-31.094 0Zm-53.014 417.733c-33.853-5.736-77.034-9.502-120.443-.037-43.408 9.466-185.444-7.386-182.234 7.861 0 0 46.543 19.258 174.937 17.654 128.393-1.605 241.759 8.973 269.736-5.143 27.976-14.116 7.914-20.936-22.579-20.335-30.493.601-85.563 5.736-119.417 0Z"/>
  <path fill="#D0D4D7" d="M279.677 161.975c17.565 1.616 36.247 2.526 56.044 2.526 5.15 0 10.374-.062 15.676-.188 43.459-1.04 89.718-7.13 136.361-15.875a.282.282 0 0 0-.104-.554c-46.623 8.743-92.853 14.828-136.27 15.866a658.56 658.56 0 0 1-15.663.188c-19.78 0-38.444-.909-55.992-2.524-25.799-2.374-49.184-6.273-70.165-11.045-.628.05-1.253.095-1.88.144 21.454 4.961 45.444 9.019 71.993 11.462ZM123.94 121.888c-17.289-7.889-30.244-15.377-38.877-20.893-4.315-2.758-7.55-5.021-9.705-6.596a104.851 104.851 0 0 1-2.423-1.818 61.78 61.78 0 0 1-.803-.636.282.282 0 0 0-.358.435c.026.022 44.64 36.668 134.09 57.706l1.864-.141c-34.53-7.991-62.46-18.327-83.788-28.057Z"/>
  <path fill="#D0D4D7" d="M45.041 150.859c.006 0 32.355 2.723 79.18 2.723 24.672 0 53.367-.761 83.463-3.069.628-.049 1.253-.094 1.881-.144 31.065-2.445 63.562-6.555 94.64-13.202a.281.281 0 0 0-.118-.551c-31.645 6.77-64.771 10.903-96.359 13.328-.622.049-1.243.096-1.864.142-29.43 2.203-57.469 2.933-81.643 2.932-23.401 0-43.186-.68-57.12-1.36-6.966-.34-12.47-.68-16.232-.935-1.88-.128-3.326-.234-4.301-.309-.976-.074-1.478-.116-1.48-.116a.28.28 0 0 0-.303.256.283.283 0 0 0 .257.305Z"/>
  <path fill="#fff" d="M375.393 404.271c7.994-5.36 18.081-12.794 28.732-21.037 21.3-16.484 44.867-36.219 58.531-49.134 3.902-3.688 6.998-6.822 8.982-9.139.978-1.14 1.683-2.087 2.067-2.755 9.92-9.393 12.122-11.877 24.482-24.103 6.634-7.025 17.008-17.056 22.486-22.963 6.321-6.814-19.07-19.473-19.07-19.473-3.446-.549-25.063-.233-28.261-.232-4.704 0-9.109.626-13.149 1.965-4.04 1.339-7.716 3.389-10.98 6.258-11.443 10.056-24.314 23.996-37.296 39.436-12.983 15.44-26.081 32.382-38.006 48.457-20.044 27.022-36.771 51.593-44.075 62.485a3027.589 3027.589 0 0 0 43.167-8.186c.775-.505 1.569-1.028 2.39-1.579Z"/>
  <path fill="#1A1A1A" d="M461.029 337.758c3.542-3.291 6.539-6.213 8.827-8.632 1.145-1.21 2.112-2.294 2.884-3.242.353-.434 50.841-50.418 51.113-50.794-.23-.411-.636-1.124-.863-1.535-.074-.134-.001.252.005.1.003-.07-.798-.482-.795-.552-.383.669-50.4 51.304-51.379 52.444-1.984 2.316-5.079 5.452-8.982 9.139-13.664 12.916-37.231 32.65-58.532 49.134-10.65 8.242-20.738 15.676-28.731 21.037a205.86 205.86 0 0 1-2.39 1.58c1.449-.286 2.897-.575 4.344-.863 15.582-10.555 38.375-28.319 58.091-44.775 10.066-8.402 19.326-16.459 26.408-23.041Zm-53.825-32.051c-35.008 42.115-70.154 93.864-80.5 109.336l2.315-.421c7.305-10.893 24.03-35.463 44.075-62.485 11.925-16.076 25.023-33.018 38.006-48.457 12.982-15.44 25.853-29.38 37.296-39.436 3.263-2.869 6.94-4.919 10.98-6.259 4.04-1.338 18.136-2.641 22.841-2.641 3.197-.001 15.217.97 18.665 1.52l2.333-1.805c-3.22-.475-18.443-1.367-21.471-1.367-4.854 0-18.66 1.285-22.899 2.691-4.239 1.403-8.128 3.571-11.565 6.592-4.589 4.035-9.394 8.677-14.335 13.776a383.315 383.315 0 0 0-6.681 7.084c-6.249 6.783-12.651 14.162-19.06 21.872Z"/>
  <path fill="#BAD7F0" d="M480.005 290.311c-3.928 10.149-5.553 20.903-5.996 31.932 8.906 16.081 19.114 32.412 29.707 46.512 6.356-1.515 12.631-3.234 18.906-4.694 28.857-6.714 55.358-12.125 71.304-14.401 4.561-.65 8.215-1.317 10.804-1.317.219 0 .648-.041.853-.036 7.028.185 14.99 1.09 22.069 2.462-.082-.317.052-1.154-.027-1.474-.023-.092-.117-.32-.109-.413.052-.556-.012-1.067.059-1.622-.339-.307-1.474-.838-1.829-1.155a753.268 753.268 0 0 0-29.423-25.068l-82.396-67.831-.013-.002a.866.866 0 0 1-.19-.023l-.022-.008a.97.97 0 0 1-.14-.05s-14.884-1.327-26.082 20.098c-2.836 5.426-5.449 11.235-7.465 17.062l-.01.028Z"/>
  <path fill="#1A1A1A" d="M514.825 252.149c-.115-.095-.237-.197-.386-.215-21.789-2.571-33.821 31.451-36.015 37.786-4.016 10.383-5.658 21.331-6.104 32.485-.002.07-.006.139-.009.208a.852.852 0 0 0 .105.442c.227.411.458.821.687 1.232 8.576 15.382 18.053 30.151 28.181 43.734.2.27.542.392.868.315l.043-.011a.818.818 0 0 0 .468-1.287c-10.267-13.767-19.874-28.761-28.541-44.388a.854.854 0 0 1-.104-.442c.456-10.947 2.086-21.62 5.986-31.697l.011-.027c2.015-5.827 4.484-11.631 7.596-16.958.002-.002.002-.002.002-.005.067-.14 9.503-20.234 26.11-20.14.182.001.36.118.501.232 6.694 5.455 90.837 74.776 94.687 78.03a756.258 756.258 0 0 1 16.737 14.573c.166.149 1.509 1.337 1.699 1.159.119-.111.466-.34.545-.504.52-1.082.086-1.063-.009-1.147-9.128-8.02-100.909-83.485-113.058-93.375Z"/>
  <path fill="#fff" d="M426.608 436.228c2.466-14.752 7.839-28.234 11.042-42.133-91.278 21.715-227.211 42.082-227.232 42.088a.844.844 0 0 1-.885-.465c0-.001-.209-.431-.59-1.208a1146.093 1146.093 0 0 0-7.1-14.197c-4.336-8.52-9.662-18.684-13.585-25.205a19.448 19.448 0 0 0-3.141-3.936c-1.215-1.168-2.561-2.122-3.887-2.684-.884-.375-1.756-.576-2.581-.575a4.616 4.616 0 0 0-2.072.477c-.611.303-1.212.773-1.792 1.442l-.098.942a579.07 579.07 0 0 0-.331 3.376c-.274 2.887-.64 6.957-1.006 11.689-.732 9.463-1.463 21.579-1.463 32.15 0 3.858.097 7.509.327 10.747.066.943.145 1.847.236 2.714 9.688.143 17.833.63 23.678 1.588 22.848 3.751 54.88 5.884 84.428 5.883 22.44.001 43.463-1.231 57.919-3.893 10.44-1.919 24.948-2.6 40.913-2.601 14.713 0 30.661.583 45.746 1.332.025-6.011.564-11.962 1.473-17.527l.001-.004Z"/>
  <path fill="#1A1A1A" d="M426.608 436.228v.003-.003Zm-254.721 1.761c0-10.572.73-22.686 1.463-32.15a669.896 669.896 0 0 1 1.337-15.065c.043-.425.076-.739.098-.942.58-.67 1.181-1.139 1.792-1.442a4.61 4.61 0 0 1 2.072-.477c.825-.001 1.696.2 2.581.575 1.326.562 2.672 1.516 3.888 2.684a19.464 19.464 0 0 1 3.14 3.935c3.923 6.522 9.249 16.686 13.586 25.206a1196.061 1196.061 0 0 1 7.099 14.197l.59 1.207c.162.332.518.52.884.466.021-.006 135.956-20.374 227.234-42.089.14-.61.269-1.222.401-1.833-19.07 4.552-40.13 9.048-61.522 13.313-1.447.288-2.895.577-4.344.863a3055.697 3055.697 0 0 1-43.167 8.185l-2.315.422a3937.835 3937.835 0 0 1-33.406 5.921c-43.669 7.551-77.619 12.714-82.519 13.455-.88-1.798-3.811-7.762-7.431-14.873-4.345-8.537-9.675-18.71-13.643-25.31-1.219-2.024-2.894-3.992-4.8-5.485-.954-.745-1.965-1.373-3.015-1.818-1.05-.444-2.142-.71-3.241-.71a6.318 6.318 0 0 0-2.82.651c-.906.448-1.753 1.134-2.511 2.065a.852.852 0 0 0-.184.443c-.001.015-2.562 23.849-2.899 44.342a256.437 256.437 0 0 0-.037 4.264c.001 4.937.158 9.545.551 13.438l1.7.022a83.77 83.77 0 0 1-.236-2.713c-.229-3.237-.326-6.889-.326-10.747Z"/>
  <path fill="#000" d="M604.17 387.67c2.85 2.424 7.16 4.124 13.505 4.119a.843.843 0 0 0 0-1.688c-4.036 0-7.098-.713-9.427-1.812-3.488-1.651-5.381-4.164-6.453-6.675-1.065-2.51-1.265-5.014-1.265-6.483a13.994 13.994 0 0 1 .053-1.231l.006-.062.002-.012v-.001a.845.845 0 0 0-1.676-.209c-.004.029-.073.594-.073 1.515.001 1.078.094 2.643.507 4.4.619 2.631 1.97 5.717 4.821 8.139Z"/>
  <path fill="#BAD7F0" d="M667.088 396.459c-10.017-3.444-19.886-9.508-27.669-19.897-4.755-6.344-8.725-14.301-11.499-24.224-7.266-1.451-14.583-2.359-21.769-2.544a18.75 18.75 0 0 0-.592-.008c-2.436-.001-6.047.349-10.565.995-4.519.644-9.953 1.582-16.079 2.749-12.253 2.335-27.278 5.586-43.344 9.247-31.916 7.273-67.937 16.162-94.568 22.702-2.558 17.444-9.808 33.447-12.729 51.027v-.003a110.694 110.694 0 0 0-1.451 17.34c21.212 1.075 40.544 2.45 52.071 2.949 3.442.149 7.434.218 11.906.218 31.931.001 88.224-3.467 144.046-5.433l51.236-51.235c-6.069-.534-12.562-1.671-18.994-3.883Zm-68.173-22.844v.001a.845.845 0 1 1 1.675.209v.001l-.001.012-.006.061a13.961 13.961 0 0 0-.053 1.231c0 1.469.2 3.974 1.265 6.484 1.072 2.511 2.965 5.025 6.453 6.675 2.329 1.099 5.391 1.812 9.427 1.812a.843.843 0 0 1 0 1.688c-6.346.005-10.655-1.696-13.505-4.12-2.851-2.422-4.202-5.508-4.821-8.139a19.433 19.433 0 0 1-.507-4.4c0-.92.069-1.486.073-1.515Z"/>
  <path fill="#1A1A1A" d="M428.274 436.503v.003c2.921-17.58 10.171-33.584 12.729-51.028 26.631-6.539 62.651-15.429 94.568-22.701 16.066-3.662 31.09-6.913 43.343-9.247 6.127-1.167 11.56-2.105 16.079-2.75 4.518-.645 8.129-.996 10.565-.995.206 0 .403.002.592.008 3.962.103 7.965.425 11.976.936 3.264.416 6.534.957 9.794 1.608-.167-.597-.329-1.202-.488-1.814-7.079-1.372-14.211-2.233-21.239-2.418a25.838 25.838 0 0 0-.635-.008c-2.588.001-6.242.362-10.803 1.011-15.946 2.276-42.927 8.124-71.785 14.839a3630.03 3630.03 0 0 0-20.788 4.903c-22.265 5.313-44.336 10.754-62.126 15.123a.841.841 0 0 0-.636.702 104.638 104.638 0 0 1-1.367 7.586c-.132.611-.262 1.222-.402 1.832-3.203 13.9-8.577 27.382-11.043 42.135v.002a112.36 112.36 0 0 0-1.473 17.528l1.687.084c.02-5.938.553-11.832 1.452-17.339Z"/>
  <path fill="#000" d="M499.146 278.856a.863.863 0 0 1 .181-.217l.02-.021a.849.849 0 0 1 .163-.1c.017-.009.034-.012.051-.019a.831.831 0 0 1 .309-.063h103.677c-.216-.435-.43-.868-.64-1.302h-108.04a.842.842 0 0 1-.801-.576l-30.931-92.916-1.67 4.672 30.306 91.035h7.211l.073-.281a.785.785 0 0 1 .091-.212Zm-36.233-98.603c.015-.005.029-.012.043-.015-.015.003-.028.01-.043.015Zm-.243.123c.022-.015.043-.03.066-.043a.677.677 0 0 0-.066.043Zm-.176.168c.014-.017.029-.031.044-.048-.015.017-.03.031-.044.048Z"/>
  <path fill="#000" d="m482.506 256.864 4.969 14.926.705 2.119 2.181 6.551a.842.842 0 0 0 .801.578h7.381l.439-1.688h-7.211l-30.306-91.036 1.67-4.672-.773-2.32a.846.846 0 0 1 .014-.564l-.008.013-2.591 7.25a.85.85 0 0 0-.006.55l22.134 66.489.601 1.804Z"/>
  <path fill="#fff" d="m499.234 285.095 72 34.529 2.165-5.549-72.964-33.605-1.201 4.625Z"/>
  <path fill="#1A1A1A" d="m497.877 286.317 73.449 35.223a.848.848 0 0 1-.333-.285.843.843 0 0 1-.089-.783l2.496-6.397-73.881-34.027a.846.846 0 0 1-.472-.949.853.853 0 0 1 .008-.031l-.073.282-.439 1.688-1.117 4.305c-.102.39.089.8.451.974Zm75.523 27.758-2.165 5.549-72-34.529 1.201-4.626 72.964 33.606Zm-73.78-35.596Zm-.11.039a.845.845 0 0 0-.162.101.856.856 0 0 1 .213-.119c-.016.006-.034.009-.051.018Zm-.331.287Z"/>
  <path fill="#fff" d="M605.737 280.125H503.723l70.937 32.672h83.961l-52.884-32.672Zm-59.92 16.336-26.578-12.626h52.621c2.755 3.603 5.379 7.441 7.857 11.401l-33.9 1.225Z"/>
  <path fill="#C1BDBB" d="M628.119 293.844c-5.693-3.324-11.053-7.052-16.285-10.009h-92.595l26.578 12.625 35.27-1.275-.031-.053 47.063-1.288Z"/>
  <path fill="#000" d="m575.052 314.485-2.127 5.449h83.619c-1.758-1.698.248-2.236 1.196-5.449h-82.688Z"/>
  <path fill="#000" d="M659.27 313.165a.834.834 0 0 0-.472-.335l-.022-.008a.81.81 0 0 0-.19-.023l-.013-.002h-84.098a.848.848 0 0 0-.787.537l-.288.741-2.496 6.397a.84.84 0 0 0 .561 1.118l.023.008a.843.843 0 0 0 .189.023l.014.002h84.097a.847.847 0 0 0 .787-.537l.289-.741 2.496-6.397a.846.846 0 0 0-.09-.783Zm-4.058 6.769h-82.286l2.126-5.448h82.285l-2.125 5.448Z"/>
  <path fill="#fff" d="m601.341 272.632-30.146-90.733H464.333l31.143 93.547h106.867c-.384-1.07-1.002-2.814-1.002-2.814Zm-103.226 0a.844.844 0 0 1-.803-.577l-10.408-31.266-18.298-54.965a.848.848 0 0 1 .116-.76.848.848 0 0 1 .686-.351h99.149c.365 0 .686.231.801.577l13.937 41.865c.415.549 13.901 44.937 14.44 45.477h-99.62Z"/>
  <path fill="#1A1A1A" d="M503.724 280.124h102.012c-.284-.564-33.13-99.336-33.13-99.336a.843.843 0 0 0-.801-.577H463.164a.839.839 0 0 0-.207.026c-.015.004-.029.011-.043.016a.858.858 0 0 0-.178.078.975.975 0 0 0-.197.165l-.045.047c-.004.007-.011.012-.015.018a.855.855 0 0 0-.103.196.84.84 0 0 0-.013.564l.773 2.321 30.931 92.916a.841.841 0 0 0 .801.576h108.41c-.276-.565-.548-1.127-.818-1.689H495.476l-31.142-93.546h106.862l31.711 95.235c.304.611.411.898.594 1.28l-103.629.022h-.001a.836.836 0 0 0-.309.063.847.847 0 0 0-.214.12c-.008.006-.013.013-.02.02a.867.867 0 0 0-.148.166c-.012.018-.023.033-.033.051a.841.841 0 0 0-.1.243.844.844 0 0 0 .472.948l73.881 34.028.288-.742a.848.848 0 0 1 .787-.536h18.966-18.781l-70.936-32.673Z"/>
  <path fill="#fff" d="m470.579 186.401 17.667 53.072c7.821-2.398 16.106-4.284 24.184-4.285a46.578 46.578 0 0 1 5.357.301c1.887.217 3.752.555 5.586 1.04.072.019.143.04.215.06a35.124 35.124 0 0 1 5.293 1.898c.852.386 1.695.807 2.525 1.272 5.483 2.991 10.942 5.856 16.516 7.966 3.929 1.488 7.914 2.59 12.007 3.117 13.135 2.418 30.871 4.965 30.943 4.995l-22.923-69.436h-97.37Z"/>
  <path fill="#1A1A1A" d="M517.787 235.489Zm13.62 4.27c5.483 2.991 10.942 5.856 16.515 7.967 3.929 1.488 7.914 2.589 12.007 3.116-4.093-.527-8.077-1.628-12.007-3.116-5.573-2.111-11.032-4.976-16.515-7.967Zm-7.819-3.17Zm7.819 3.17Z"/>
  <path fill="#000" d="m530.599 241.242-.009-.005c-5.253-2.941-10.999-4.199-16.964-4.346a52.922 52.922 0 0 0-1.196-.014c-7.801-.002-15.925 1.831-23.65 4.199l9.944 29.868h97.136c-4.543-14.964-2.382-17.547-35.239-18.308-4.577-.493-8.991-1.699-13.297-3.331-5.704-2.161-11.227-5.064-16.725-8.063Z"/>
  <path fill="#000" d="M597.734 272.632c-.671-3.202-14.842-46.01-14.44-45.478l-13.935-41.864a.842.842 0 0 0-.802-.577h-99.149a.848.848 0 0 0-.685.35.847.847 0 0 0-.116.761l18.297 54.966 10.409 31.264a.845.845 0 0 0 .802.578s99.696-.027 99.619 0Zm-99.011-1.688-9.943-29.868c7.726-2.368 15.85-4.201 23.65-4.199.399 0 .798.004 1.196.014 5.965.146 11.712 1.405 16.964 4.346l.008.005c5.499 2.999 11.021 5.902 16.725 8.062 4.307 1.632 8.72 2.838 13.297 3.332-.045-.115 8.148 1.054 16.14 2.971 7.807 1.873 15.58 4.676 15.58 4.676l-1.467-4.446c-.03-.092-3.765-.692-8.63-1.448-9.132-1.418-22.251-3.381-22.313-3.546-4.093-.528-8.08-1.629-12.009-3.117-5.573-2.111-11.031-4.975-16.514-7.966a33.71 33.71 0 0 0-3.754-1.8 35.055 35.055 0 0 0-4.065-1.37c-.072-.02-.143-.043-.215-.062a39.56 39.56 0 0 0-5.586-1.039 47.007 47.007 0 0 0-5.357-.301c-8.077.001-16.362 1.888-24.183 4.286l-17.668-53.072h97.37l27.911 84.542h-97.137Z"/>
  <path fill="#fff" d="M786.413 223.012a32.014 32.014 0 0 1-10.099-2.762c-1.434-.659-2.498-1.393-3.253-2.233-.755-.835-1.179-1.791-1.304-2.765-.132-1.009.031-2.018.339-3.018.31-1.001.767-2.004 1.272-3.02 1.011-2.03 2.214-4.131 2.886-6.233.451-1.401.668-2.787.485-4.167-.136-1.022-.488-2.05-1.159-3.114-.533-.844-1.005-1.465-1.404-1.888-.4-.424-.725-.64-.926-.716a.54.54 0 0 0-.276-.047.533.533 0 0 0-.245.112c-.106.078-.24.213-.382.405-.284.385-.587.989-.879 1.703-.59 1.433-1.154 3.293-1.879 4.927-.488 1.089-1.04 2.093-1.821 2.832-.447.418-.988.75-1.618.886-.179.039-.356.07-.53.093-.717.094-1.408.057-2.037-.169a2.895 2.895 0 0 1-1.54-1.265 3.613 3.613 0 0 1-.451-1.372c-.111-.847-.005-1.82.312-2.952.32-1.131.858-2.424 1.649-3.904 1.356-2.535 3.461-5.626 6.52-9.344a98.7 98.7 0 0 1-2.075-1.544c-10.031-2.779-17.261-7.586-22.097-11.915a49.678 49.678 0 0 1-3.581-3.543 51.945 51.945 0 0 0-1.486 2.665c-5.004 9.697-7.344 21.622-6.037 31.462.651 4.925 2.209 9.318 4.744 12.671 2.541 3.352 6.032 5.694 10.717 6.587 2.59.383 4.517 1.41 5.819 2.87 1.311 1.464 1.973 3.308 2.228 5.24.466 3.576-.398 7.531-1.35 10.628-.368 1.189-.865 7.638-1.198 8.495 8.855-.346 19.309-4.828 31.042-1.721-.015-.116-.036-.234-.051-.35-1.132-8.559-1.033-16.358-.335-23.534Z"/>
  <path fill="#1A1A1A" d="M786.413 223.011c-.699 7.176-.797 14.975.335 23.535.015.115.036.234.051.35.589.155 1.182.318 1.777.485-.051-.352-.108-.708-.154-1.057-1.114-8.427-1.014-16.1-.323-23.183a32.202 32.202 0 0 1-1.686-.13Zm-30.67 25.509c.334-.857.844-7.209 1.212-8.398.952-3.097 1.816-7.052 1.349-10.629-.254-1.931-.916-3.775-2.227-5.24-1.302-1.459-3.229-2.486-5.819-2.869-4.685-.893-8.175-3.235-10.716-6.587-2.536-3.354-4.094-7.746-4.745-12.671-1.308-9.84 1.034-21.766 6.038-31.462.469-.912.97-1.796 1.485-2.666-.425-.465-.812-.91-1.172-1.337-2.077 3.415-3.808 7.171-5.149 11.079-2.785 8.13-3.892 16.904-2.876 24.607.68 5.139 2.31 9.811 5.072 13.467 2.756 3.658 6.67 6.272 11.749 7.229l.035.006c2.31.343 3.815 1.191 4.84 2.331 1.023 1.141 1.585 2.632 1.811 4.334.423 3.145-.365 6.938-1.288 9.909-.46 1.487-.387 2.97-.758 3.879-.002.004-.737 5.346-.74 5.35.611-.037 1.274-.308 1.899-.332Z"/>
  <path fill="#000" d="M766.365 192.883c-1.527 2.414-2.423 4.359-2.835 5.826-.278.977-.337 1.738-.264 2.271.042.32.127.558.232.736.106.177.229.301.388.403.309.2.818.307 1.512.214.126-.017.258-.04.395-.069.333-.073.663-.279 1.016-.67.35-.387.695-.947 1.015-1.606.644-1.318 1.189-3.014 1.76-4.537.385-1.019.776-1.961 1.284-2.716.292-.429.628-.81 1.079-1.077.239-.142.513-.245.806-.283.37-.05.757.007 1.115.149.359.142.697.361 1.031.646.668.574 1.343 1.42 2.108 2.626.797 1.258 1.241 2.538 1.407 3.797.169 1.276.055 2.524-.224 3.722-.278 1.198-.72 2.351-1.22 3.46-1.001 2.213-2.236 4.269-2.949 6.078-.479 1.206-.713 2.278-.591 3.178.091.655.342 1.245.888 1.859.546.61 1.41 1.233 2.701 1.825a30.469 30.469 0 0 0 16.714 2.522c2.069-.273 3.526-.689 4.126-.879a54.397 54.397 0 0 0 1.134-2.475 73.515 73.515 0 0 0 2.7-7.331c1.077-3.483 2.058-7.617 2.504-11.98-9.13-.689-17.655-3.68-25.431-8.001a84.635 84.635 0 0 1-7.315-4.585c-2.163 2.624-3.839 4.922-5.086 6.897Zm-27.853-41.384a19.335 19.335 0 0 0-.098 5.752 20.218 20.218 0 0 0 1.049 4.269c.015.028.034.058.062.105.071.117.18.292.328.519.297.455.751 1.115 1.371 1.925 1.241 1.621 3.15 3.841 5.802 6.215 3.997 3.575 9.679 7.495 17.322 10.246-4.542-3.815-8.719-7.95-12.492-12.123-5.264-5.821-9.743-11.712-13.344-16.908Z"/>
  <path fill="#000" d="M742.32 167.998a49.678 49.678 0 0 0 3.581 3.543c4.836 4.33 12.065 9.136 22.097 11.915a104.016 104.016 0 0 1-3.649-2.927c-7.644-2.751-13.325-6.67-17.323-10.246-2.652-2.373-4.56-4.594-5.801-6.215a30.956 30.956 0 0 1-1.371-1.925 18.358 18.358 0 0 1-.329-.519l-.062-.105a20.218 20.218 0 0 1-1.049-4.269c-.263-1.98-.21-3.925.098-5.751-.452-.652-.89-1.294-1.315-1.923a20.757 20.757 0 0 0-.457 7.895c.206 1.56.587 3.136 1.159 4.692l.057.124c.021.037 1.031 1.814 3.192 4.374.36.427.746.871 1.172 1.337Zm61.877 30.574c-.445 4.363-1.427 8.497-2.504 11.98a73.706 73.706 0 0 1-2.699 7.331 56.064 56.064 0 0 1-.932 2.057c-.083.173-.148.305-.203.417-.599.19-2.058.607-4.126.881a30.485 30.485 0 0 1-16.715-2.523c-1.29-.592-2.154-1.214-2.7-1.825-.546-.614-.796-1.204-.887-1.859-.122-.9.111-1.972.59-3.178.713-1.809 1.948-3.865 2.95-6.078.5-1.109.942-2.262 1.22-3.46s.391-2.446.222-3.722c-.166-1.258-.609-2.539-1.407-3.797-.764-1.206-1.439-2.052-2.107-2.626a3.704 3.704 0 0 0-1.032-.646 2.227 2.227 0 0 0-1.114-.149 2.124 2.124 0 0 0-.806.283c-.451.267-.786.648-1.079 1.077-.508.755-.899 1.697-1.284 2.716-.571 1.523-1.115 3.219-1.759 4.537-.32.659-.665 1.218-1.016 1.606-.353.391-.684.597-1.017.67a5.35 5.35 0 0 1-.393.069c-.695.093-1.204-.015-1.513-.214a1.173 1.173 0 0 1-.388-.403 1.943 1.943 0 0 1-.233-.736c-.072-.533-.012-1.294.265-2.271.412-1.467 1.308-3.411 2.834-5.826 1.248-1.975 2.924-4.273 5.087-6.897-.463-.324-.921-.654-1.378-.985-3.058 3.718-5.164 6.809-6.52 9.344-.791 1.48-1.329 2.773-1.649 3.904-.317 1.132-.423 2.105-.312 2.952.066.507.215.97.451 1.372a2.899 2.899 0 0 0 1.54 1.265c.63.226 1.32.263 2.037.169.175-.023.351-.054.53-.094.63-.136 1.171-.467 1.618-.886.781-.738 1.333-1.742 1.822-2.831.725-1.634 1.287-3.494 1.879-4.928.291-.714.594-1.317.878-1.702.142-.192.275-.327.382-.405a.537.537 0 0 1 .245-.112.54.54 0 0 1 .276.047c.202.076.527.292.925.716.4.423.872 1.044 1.405 1.887.672 1.065 1.023 2.093 1.159 3.115.183 1.38-.034 2.766-.484 4.167-.673 2.102-1.876 4.203-2.887 6.232-.505 1.017-.962 2.02-1.271 3.02-.309 1.001-.472 2.009-.339 3.019.125.974.548 1.929 1.303 2.765.755.84 1.819 1.574 3.253 2.233a32.02 32.02 0 0 0 11.786 2.891 32.263 32.263 0 0 0 5.854-.23c2.95-.391 4.751-1.057 4.798-1.073a.852.852 0 0 0 .454-.402c.016-.031 2.188-4.199 4.099-10.386 1.107-3.585 2.124-7.85 2.58-12.387a49.37 49.37 0 0 1-1.688-.091Z"/>
  <path fill="#BAD7F0" d="M812.374 181.184c-1.299.963-2.636 1.624-4.019 1.809a5.36 5.36 0 0 1-2.539-.262c-1.731-.621-4.77-1.483-8.544-2.638-3.777-1.155-8.304-2.609-13.071-4.441-9.535-3.666-20.043-8.828-27.498-16.219-4.966-4.925-8.578-10.878-9.518-18.003a27.31 27.31 0 0 1-.209-2.301.84.84 0 0 1 .282-.67c.008-.008 4.144-3.69 10.168-8.47.421-.335.853-.675 1.292-1.019-5.253-1.191-10.286-1.59-14.856-.982-5.34.709-10.041 2.759-13.85 6.497a137.502 137.502 0 0 0 3.206 5.675 180.388 180.388 0 0 0 9.996 15.001c8.658 11.686 21.15 25.48 36.372 33.934 10.15 5.637 21.488 8.91 33.768 7.684a32.9 32.9 0 0 0 1.086-.125c3.549-.468 6.181-1.421 8.018-2.702 1.837-1.287 2.906-2.876 3.398-4.787.324-1.275.38-2.701.174-4.261-.496-3.789-2.57-8.344-5.852-13.158a63.05 63.05 0 0 1-1.287 2.022c-2.056 3.079-4.248 5.726-6.517 7.416Z"/>
  <path fill="#1A1A1A" d="M738.512 151.499c3.602 5.196 8.081 11.086 13.344 16.907 3.774 4.173 7.95 8.308 12.492 12.123a98.7 98.7 0 0 0 5.725 4.472 84.782 84.782 0 0 0 8.692 5.57c7.777 4.321 16.302 7.312 25.432 8.001.559.042 1.123.066 1.688.091 2.502.111 5.048.056 7.637-.203.388-.038.768-.083 1.14-.132 2.487-.329 4.6-.888 6.368-1.664 2.65-1.16 4.533-2.834 5.626-4.904 1.097-2.069 1.392-4.485 1.048-7.078-.376-2.829-1.5-5.896-3.215-9.109a54.173 54.173 0 0 0-3.358-5.422 72.919 72.919 0 0 1-.953 1.594c3.282 4.814 5.356 9.369 5.852 13.159.206 1.56.15 2.986-.174 4.261-.492 1.911-1.561 3.5-3.398 4.787-1.837 1.281-4.47 2.233-8.018 2.701-.353.047-.715.089-1.086.126-12.28 1.226-23.618-2.046-33.768-7.684-15.222-8.453-27.714-22.248-36.372-33.934a180.388 180.388 0 0 1-9.996-15.001 139.583 139.583 0 0 1-2.606-4.559c-.256-.469-.454-.84-.6-1.116 3.809-3.738 8.51-5.788 13.849-6.498 4.57-.607 9.604-.208 14.857.984.557-.437 1.131-.882 1.714-1.332-5.878-1.469-11.567-2.013-16.792-1.326-5.842.769-11.108 3.113-15.27 7.422a.843.843 0 0 0-.147.968c.013.024 3.178 6.28 8.974 14.873.425.629.863 1.271 1.315 1.923Z"/>
  <path fill="#BAD7F0" d="m748.709 139.429-.019.017c.038.595.091 1.184.167 1.763.775 5.845 3.452 10.86 7.311 15.206 3.858 4.343 8.9 7.997 14.331 11.052 10.865 6.114 23.258 9.82 30.765 12.068 2.147.644 3.894 1.167 5.122 1.607a3.675 3.675 0 0 0 1.747.177c.81-.107 1.693-.465 2.62-1.064.926-.597 1.888-1.432 2.853-2.449 1.933-2.033 3.871-4.793 5.657-7.809 3.576-6.03 6.557-13.1 7.92-17.511.39-1.257.647-2.3.748-2.999.057-.368.06-.646.045-.739-.048-.382-.261-1.205-.642-2.282a45.846 45.846 0 0 0-1.648-3.991c-1.439-3.101-3.565-6.974-6.422-10.996-5.679-7.996-14.24-16.56-26.028-20.971-3.593.786-7.957 2.75-12.502 5.329-4.645 2.634-9.486 5.896-13.959 9.153-8.95 6.515-16.438 13.009-18.066 14.439Z"/>
  <path fill="#1A1A1A" d="M758.717 128.97c-.438.344-.87.685-1.29 1.019-6.026 4.78-10.161 8.463-10.169 8.47a.84.84 0 0 0-.283.671c.039.779.109 1.547.21 2.301.94 7.125 4.552 13.076 9.518 18.001 7.455 7.392 17.963 12.553 27.497 16.22 4.768 1.832 9.295 3.286 13.072 4.441 3.774 1.154 6.813 2.016 8.544 2.638a5.368 5.368 0 0 0 2.538.261c1.383-.185 2.721-.845 4.019-1.808 2.27-1.691 4.461-4.338 6.518-7.417.437-.655.865-1.333 1.287-2.023.321-.524.64-1.054.952-1.593 2.166-3.747 4.081-7.789 5.549-11.366.978-2.385 1.755-4.56 2.273-6.312.259-.877.453-1.647.576-2.297.06-.325.105-.621.127-.891a3.543 3.543 0 0 0-.005-.758c-.083-.612-.32-1.474-.722-2.622-1.406-3.988-4.84-11.23-10.622-18.511-5.781-7.274-13.918-14.582-24.716-18.561a.85.85 0 0 0-.463-.035c-4.197.875-9.106 3.173-14.172 6.115-6.387 3.714-12.997 8.464-18.524 12.725-.583.45-1.157.895-1.714 1.332Zm22.018-13.133c4.545-2.58 8.908-4.542 12.501-5.328 11.788 4.411 20.351 12.974 26.03 20.97 2.857 4.023 4.982 7.894 6.421 10.996a45.611 45.611 0 0 1 1.647 3.991c.382 1.077.595 1.9.643 2.282.015.092.012.371-.044.74-.102.698-.359 1.741-.749 2.997-1.364 4.411-4.345 11.481-7.92 17.512-1.787 3.015-3.725 5.776-5.658 7.809-.964 1.018-1.927 1.851-2.853 2.449-.927.599-1.81.957-2.62 1.063a3.645 3.645 0 0 1-1.746-.176c-1.229-.44-2.975-.963-5.122-1.607-7.507-2.248-19.901-5.954-30.766-12.068-5.43-3.055-10.472-6.71-14.33-11.052-3.859-4.347-6.537-9.36-7.311-15.206a26.452 26.452 0 0 1-.167-1.763l.019-.017c1.629-1.431 9.116-7.925 18.066-14.439 4.474-3.257 9.315-6.52 13.959-9.153Z"/>
  <path fill="#fff" d="M830.22 342.614c-2.501 5.358-4.695 8.979-7.619 13.828-.031.051 1.23 1.641 1.206 1.695l44.67 93.22c6.304.502 10.92 1.593 14.509 3.047.352.142.681.292 1.014.441l-53.78-112.231Z"/>
  <path fill="#1A1A1A" d="M822.781 356.334c-.299.672-1.038 1.361-1.343 2.033l34.735 71.22 10.368 21.635c.664.038 1.306.084 1.936.135l-45.696-95.023Zm7.439-13.72L884 454.845c.887.397 1.708.818 2.474 1.256l-10.985-22.923-44.444-92.748c-.271.725-.547 1.453-.825 2.184Z"/>
  <path fill="#000" d="M865.23 281.968a5.067 5.067 0 0 0 1.49-3.597 5.065 5.065 0 0 0-1.49-3.596l-1.638-1.638a5.067 5.067 0 0 0-3.598-1.491 5.065 5.065 0 0 0-3.596 1.49l-15.386 15.386h11.114a.845.845 0 0 1 .565 1.471c-.01.009-5.213 4.704-10.276 8.519a112.357 112.357 0 0 1-1.235 7.506l24.05-24.05Z"/>
  <path fill="#000" d="m841.012 288.523 15.385-15.386a5.067 5.067 0 0 1 3.597-1.49 5.071 5.071 0 0 1 3.598 1.49l1.638 1.638a5.07 5.07 0 0 1 1.49 3.597 5.07 5.07 0 0 1-1.49 3.597l-24.05 24.049c-.194.987-.4 1.988-.624 3.013l25.868-25.868a6.76 6.76 0 0 0 1.984-4.791 6.76 6.76 0 0 0-1.984-4.791l-1.639-1.639a6.768 6.768 0 0 0-4.791-1.984c-1.73 0-3.47.664-4.79 1.984l-16.58 16.581h2.388Z"/>
  <path fill="#BAD7F0" d="m658.556 450.308-.998.998c1.703.043 3.352.102 4.952.177l.279-.089a115.511 115.511 0 0 1-4.233-1.086Z"/>
  <path fill="#fff" d="M628.862 349.313c2.74 10.969 6.89 19.539 11.908 26.236 5.042 6.726 10.96 11.571 17.241 15.053 9.666 5.361 20.206 7.481 29.636 8.173l58.357-58.355-.241-.503a5.666 5.666 0 0 1-.56-2.453 5.69 5.69 0 0 1 3.229-5.13l4.058-1.943a5.646 5.646 0 0 1 2.452-.559c.495-.001.983.07 1.454.194l43.839-43.837c1.252-4.61 1.936-8.965 1.932-12.958 0-4.925-1.029-9.285-3.273-12.951-2.247-3.666-5.715-6.671-10.73-8.857-15.574-6.781-29.04-8.929-39.877-8.93-8.376 0-15.18 1.288-20.164 2.72 0 0-95.107 88.594-95.312 88.592-2.07 5.143-3.451 10.333-3.949 15.508Z"/>
  <path fill="#1A1A1A" d="M728.454 245.107c-.103.012 11.456-2.613 19.833-2.613 10.836.001 24.304 2.148 39.878 8.929 5.014 2.186 8.483 5.192 10.73 8.857 2.243 3.667 3.272 8.027 3.273 12.951.003 3.993-.681 8.348-1.933 12.958l2.318-2.319c.844-3.718 1.301-7.279 1.303-10.639.001-5.155-1.082-9.847-3.521-13.832-2.438-3.986-6.223-7.231-11.496-9.523-.225-.099-.446-.187-.67-.282-.57-.244-1.134-.483-1.698-.714-11.224-4.619-21.356-6.875-30.18-7.693a86.103 86.103 0 0 0-8.004-.381c-8.26 0-15.03 1.225-20.095 2.633.022-.003.045-.007.069-.009 0 0 .657 1.623.193 1.677Z"/>
  <path fill="#1A1A1A" d="M627.355 347.627c-.072.555-.139 1.11-.191 1.665a.843.843 0 0 0 .021.283c.079.32.165.632.247.949.159.612.32 1.216.487 1.813 2.775 9.924 6.744 17.88 11.499 24.225 7.784 10.389 17.653 16.452 27.67 19.896 6.432 2.212 12.924 3.35 18.994 3.884l1.565-1.567c-9.431-.692-19.97-2.813-29.636-8.173-6.282-3.483-12.2-8.326-17.241-15.052-5.019-6.697-9.168-15.269-11.908-26.238.498-5.174 3.156-12.188 5.227-17.331-.286-.003 17.042-35.946 95.305-87.186 1.064-.696.777-.236.826-.281-.927-.777.042-2.592-2.216-1.141-77.973 51.968-95.122 87.43-95.297 87.423-1.539 3.921-4.383 10.848-5.055 14.828a53.146 53.146 0 0 0-.297 2.003Z"/>
  <path fill="#BAD7F0" d="M659.931 448.932c2.093.561 4.908 1.246 8.378 1.933 8.139 1.609 19.844 3.22 34.077 3.22 10.342 0 22.018-.85 34.634-3.17l.023-.004c10.417-1.61 20.552-6.789 30.156-14.446 5.861-4.671 25.516-25.279 32.343-37.359l-34.254-55.498-105.357 105.324Zm58.053-27.686a.563.563 0 1 1-.739-.848 403.613 403.613 0 0 0 5.074-4.505.562.562 0 1 1 .754.835 390.57 390.57 0 0 1-5.089 4.518Zm-21.13 17.159a.562.562 0 1 1-.677-.899 344.985 344.985 0 0 0 5.385-4.131.562.562 0 1 1 .693.886 358.56 358.56 0 0 1-5.401 4.144Zm15.965-12.728a378.975 378.975 0 0 1-5.243 4.34.563.563 0 1 1-.71-.874 377.716 377.716 0 0 0 5.227-4.326.564.564 0 0 1 .726.86Zm-32.709 24.425c-1.869 1.19-2.883 1.783-2.889 1.787a.564.564 0 0 1-.567-.973l.182-.108c.121-.073.304-.182.545-.329.482-.293 1.196-.736 2.124-1.327a.564.564 0 0 1 .605.95Zm4.898-3.901a.563.563 0 0 1 .148-.783 283.741 283.741 0 0 0 5.555-3.894.562.562 0 1 1 .657.915 278.271 278.271 0 0 1-5.577 3.908.563.563 0 0 1-.783-.146Zm43.077-34.074a.563.563 0 1 1-.769-.824 399.284 399.284 0 0 0 4.922-4.671.562.562 0 0 1 .782.81 416.629 416.629 0 0 1-4.935 4.685Zm9.791-9.45a.563.563 0 1 1-.794-.796 407.064 407.064 0 0 0 4.765-4.83.563.563 0 1 1 .808.784 416.963 416.963 0 0 1-4.779 4.842Zm8.658-10.533a412.67 412.67 0 0 0 4.607-4.982.562.562 0 1 1 .832.758 421.743 421.743 0 0 1-4.619 4.994.563.563 0 1 1-.82-.77Zm14.368-15.228a.563.563 0 0 1 .063.794 421.185 421.185 0 0 1-4.454 5.141.562.562 0 1 1-.845-.743 426.678 426.678 0 0 0 4.442-5.128.563.563 0 0 1 .794-.064Z"/>
  <path fill="#BAD7F0" d="M773.308 360.68a405.975 405.975 0 0 0 3.722-4.91.562.562 0 1 1 .902.674 438.456 438.456 0 0 1-4.077 5.376l21.162 44.163c16.108-22.638 29.102-50.148 37.164-73.733 4.198-12.271 7.053-23.478 8.337-32.349-1.371.972-2.684 1.827-3.842 2.448a.832.832 0 0 1-.443.099c-7.611-.401-13.613-.534-18.234-.534-2.241 0-4.149.032-5.765.079-.502.959-1.008 1.913-1.514 2.862a.562.562 0 0 1-.761.23.561.561 0 0 1-.233-.76c.406-.759.808-1.523 1.211-2.288a94.534 94.534 0 0 0-4.363.252l-41.405 41.406 8.139 16.985Zm12.576-15.275a425.681 425.681 0 0 1-3.931 5.552.562.562 0 1 1-.912-.659c1.31-1.82 2.618-3.665 3.919-5.536a.564.564 0 0 1 .924.643Zm17.267-29.258a401.104 401.104 0 0 0 3.346-5.9.563.563 0 0 1 .985.548 424.014 424.014 0 0 1-3.356 5.917.564.564 0 0 1-.975-.565Zm-6.989 11.628a407.223 407.223 0 0 0 3.543-5.785.563.563 0 0 1 .965.58 389.726 389.726 0 0 1-3.553 5.8l-.001.001a.562.562 0 1 1-.954-.596Zm-2.861 5.557a.561.561 0 0 1 .166.777 410.975 410.975 0 0 1-3.744 5.68.562.562 0 1 1-.934-.627 408.674 408.674 0 0 0 3.734-5.664.564.564 0 0 1 .778-.166Z"/>
  <path fill="#1A1A1A" d="M737.326 452.575c14.392-2.237 28.046-10.974 40.478-23.348a145.952 145.952 0 0 0 6.329-6.733c.26-.293 11.582-14.442 11.84-14.738l-.78-1.575c-5.398 6.248-18.132 23.047-27.678 30.051-9.903 7.266-20.053 13.069-30.47 14.678l-.025.005a191.537 191.537 0 0 1-34.633 3.17c-14.233 0-25.938-1.612-34.077-3.221a130.228 130.228 0 0 1-8.379-1.932l-1.374 1.375c1.144.319 2.564.689 4.233 1.086l.55.128c12.957.65 22.638 2.263 30.998 4.08 2.583.11 5.267.173 8.049.173 10.434 0 22.214-.859 34.939-3.199Z"/>
  <path fill="#1A1A1A" d="M841.18 306.018c.522-2.651.938-5.164 1.235-7.506-.264.2-.528.397-.792.59-.371.275-.739.54-1.105.799-1.284 8.871-4.14 20.078-8.338 32.349-8.061 23.585-21.055 51.096-37.162 73.734l.839 1.751c10.484-14.601 19.647-31.234 27.045-47.58.304-.673.606-1.346.905-2.018l.073-.163a319.696 319.696 0 0 0 7.165-17.544c2.514-6.732 4.67-13.24 6.43-19.338a191.075 191.075 0 0 0 3.08-12.062c.225-1.025.431-2.025.625-3.012ZM679.506 449.154c-.928.591-1.643 1.033-2.124 1.326-.241.147-.424.256-.545.329l-.182.108a.562.562 0 0 0 .567.972c.006-.004 1.019-.596 2.889-1.787a.562.562 0 1 0-.605-.948Zm123.851-132.238a.563.563 0 0 0 .769-.205 403.3 403.3 0 0 0 3.356-5.916.563.563 0 0 0-.984-.548 415.933 415.933 0 0 1-3.346 5.9.56.56 0 0 0 .205.769Zm-7.016 11.633a.562.562 0 0 0 .775-.179l.001-.001a389.726 389.726 0 0 0 3.553-5.8.562.562 0 1 0-.965-.579 407.095 407.095 0 0 1-3.543 5.784.561.561 0 0 0 .179.775Zm-18.524 27.105a.563.563 0 0 0-.787.115 428.011 428.011 0 0 1-3.722 4.911l.546 1.139a430.951 430.951 0 0 0 4.078-5.376.565.565 0 0 0-.115-.789Zm-86.449 86.785a.563.563 0 0 0-.656-.915 284.127 284.127 0 0 1-5.555 3.895.562.562 0 1 0 .634.93 280.255 280.255 0 0 0 5.577-3.91Zm55.987-49.524a422.548 422.548 0 0 0 4.62-4.995.564.564 0 0 0-.834-.758 412.06 412.06 0 0 1-4.607 4.982.564.564 0 0 0 .821.771Zm-45.004 40.556a.562.562 0 0 0-.789-.096 349.869 349.869 0 0 1-5.384 4.131.563.563 0 0 0 .676.899 358.456 358.456 0 0 0 5.402-4.144.562.562 0 0 0 .095-.79Zm30.683-26.824a.564.564 0 0 0-.796-.015 406.764 406.764 0 0 1-4.921 4.672.564.564 0 0 0 .769.823 416.865 416.865 0 0 0 4.934-4.684.563.563 0 0 0 .014-.796Zm-20.939 18.17a383.928 383.928 0 0 1-5.228 4.327.562.562 0 1 0 .711.874 386.644 386.644 0 0 0 5.241-4.341.562.562 0 1 0-.724-.86Zm72.865-80.056a419.446 419.446 0 0 1-3.92 5.537.564.564 0 0 0 .913.659 419 419 0 0 0 3.931-5.552.564.564 0 0 0-.924-.644Zm-61.845 71.173a.564.564 0 0 0-.795-.041 388.511 388.511 0 0 1-5.075 4.506.564.564 0 0 0 .741.849 406.18 406.18 0 0 0 5.088-4.519.563.563 0 0 0 .041-.795Zm32.602-33.032a.563.563 0 0 0 .795-.051 438.06 438.06 0 0 0 4.454-5.141.563.563 0 1 0-.857-.73 426.523 426.523 0 0 1-4.442 5.127.563.563 0 0 0 .05.795Zm-13.073 14.137a.562.562 0 0 0-.796.012 414.899 414.899 0 0 1-4.766 4.83.562.562 0 1 0 .794.797c1.58-1.575 3.174-3.19 4.779-4.843a.563.563 0 0 0-.011-.796Zm46.144-57.878a.564.564 0 0 0 .935.628 426.604 426.604 0 0 0 3.745-5.679.563.563 0 0 0-.945-.612 408.562 408.562 0 0 1-3.735 5.663Zm21.17-34.075a.563.563 0 0 0 .762-.231c.507-.95 1.011-1.904 1.513-2.862-.457.014-.886.028-1.296.044-.403.764-.805 1.529-1.21 2.287a.562.562 0 0 0 .231.762Z"/>
  <path fill="#fff" d="M836.075 300.748c1.136-.626 2.484-1.513 3.901-2.535a107.799 107.799 0 0 0 4.55-3.493 186.238 186.238 0 0 0 5.367-4.51h-31.241l-10.256 10.257c2.119-.125 5.259-.242 9.603-.242 4.602 0 10.557.131 18.076.523Z"/>
  <path fill="#1A1A1A" d="M818.652 290.211h31.242a188.074 188.074 0 0 1-5.368 4.509 108.456 108.456 0 0 1-4.549 3.494c-1.418 1.021-2.766 1.909-3.902 2.535-7.52-.392-13.474-.524-18.077-.524-4.344 0-7.483.118-9.602.242l-1.822 1.823a94.262 94.262 0 0 1 4.364-.253c.409-.016.838-.03 1.295-.044 1.617-.047 3.525-.079 5.765-.079 4.621 0 10.624.133 18.235.533a.833.833 0 0 0 .443-.098c1.158-.622 2.47-1.476 3.841-2.448.367-.259.735-.524 1.106-.799.264-.193.528-.39.792-.59 5.063-3.815 10.266-8.51 10.276-8.519a.844.844 0 0 0-.565-1.47h-31.785l-1.689 1.688Z"/>
  <path fill="#000" d="m759.401 333.534 4.994 8.546 56.955-56.955a5.06 5.06 0 0 0 1.49-3.596 5.065 5.065 0 0 0-1.49-3.597l-1.638-1.639a5.07 5.07 0 0 0-3.597-1.49 5.06 5.06 0 0 0-3.596 1.49l-54.82 54.753c.705.939 1.235 1.514 1.702 2.488Zm-5.658 19.423-6.966-10.924L637.32 451.491l2.556-.087c3.798-.128 7.379-.187 10.766-.187 1.568 0 3.092.014 4.578.038l98.523-98.298Z"/>
  <path fill="#000" d="m800.235 286.188-43.839 43.838c.606.562.758.738 1.267 1.071l54.855-54.805a5.063 5.063 0 0 1 3.597-1.489c1.304 0 2.6.495 3.596 1.489l1.638 1.64a5.064 5.064 0 0 1 1.491 3.597 5.063 5.063 0 0 1-1.49 3.595l-56.955 56.956.773 1.614 41.406-41.405 1.821-1.822 10.257-10.257 1.689-1.688 2.203-2.203a6.76 6.76 0 0 0 1.984-4.79 6.76 6.76 0 0 0-1.984-4.791l-1.638-1.639a6.77 6.77 0 0 0-9.582 0l-8.771 8.77-2.318 2.319Z"/>
  <path fill="#000" d="m659.931 448.932 105.514-105.44-.844-1.512L655.22 451.255c.791.013 1.57.03 2.338.05l.998-.997 1.375-1.376Zm86.846-106.899-.773-1.614-58.357 58.357-1.566 1.565-51.235 51.235 2.474-.085 109.457-109.458Z"/>
  <path fill="#fff" d="M758.55 333.79a3.997 3.997 0 0 0-5.33-1.877l-4.057 1.944a3.996 3.996 0 0 0-1.877 5.33l56.04 116.944c2.823-.424 5.574-.838 8.263-1.235a854.9 854.9 0 0 1 4.67-.678L758.55 333.79Z"/>
  <path fill="#1A1A1A" d="m795.856 407.734-.839-1.75-21.163-44.165-.546-1.139-8.14-16.985-.773-1.615-4.323-9.02a5.645 5.645 0 0 0-2.024-2.297 5.658 5.658 0 0 0-1.652-.736 5.631 5.631 0 0 0-1.454-.195 5.646 5.646 0 0 0-2.452.559l-4.058 1.943a5.69 5.69 0 0 0-3.229 5.131c0 .823.18 1.662.56 2.452l.24.502.774 1.615 5.722 11.942.774 1.614 30.843 64.361.795 1.661.452.943 16.216 33.84 1.746-.262-56.04-116.946a3.995 3.995 0 0 1 1.877-5.329l4.058-1.944a3.954 3.954 0 0 1 1.722-.395 3.998 3.998 0 0 1 3.608 2.271l57.708 120.428c.586-.084 1.171-.166 1.753-.248l-14.526-30.314-7.629-15.922Z"/>
  <path fill="#000" d="M757.838 341.669a1.862 1.862 0 0 0-1.864-1.864 1.867 1.867 0 0 0-1.865 1.864 1.868 1.868 0 0 0 1.865 1.865 1.869 1.869 0 0 0 1.864-1.865Z"/>
  <path fill="#000" d="M759.526 341.67a3.552 3.552 0 1 0-7.105 0 3.553 3.553 0 0 0 7.105 0Zm-3.552 1.864a1.866 1.866 0 0 1-1.864-1.864 1.867 1.867 0 0 1 1.864-1.864 1.86 1.86 0 0 1 1.864 1.864 1.867 1.867 0 0 1-1.864 1.864Z"/>
  <path fill="#fff" d="M573.865 227.608c-2.703-2.737-6.247-6.245-9.591-9.318-2.229-2.047-4.373-3.903-6.101-5.196-1.861-1.393-4.159-2.659-6.53-3.629-2.371-.97-4.817-1.644-6.954-1.877-1.425-.157-2.71-.114-3.728.136-.764.186-1.37.483-1.811.874-.441.394-.74.875-.898 1.553a.681.681 0 0 0-.002.336c.026.11.084.234.199.382.114.148.284.314.507.486.446.345 1.095.704 1.85 1.063 1.513.722 3.435 1.446 5.134 2.37 1.134.619 2.181 1.326 2.946 2.257.435.531.775 1.144.943 1.835.063.255.102.518.115.789l-.001.001a7.016 7.016 0 0 1-.258 2.211c-.188.684-.45 1.318-.721 1.925-.547 1.214-1.118 2.326-1.349 3.498a5.73 5.73 0 0 0 .057 2.543c.207.85.624 1.817 1.363 2.94s1.802 2.399 3.283 3.852c2.894 2.839 5.32 4.847 7.294 6.267a48.172 48.172 0 0 1 3.363-4.54c2.307-2.753 5.202-3.498 7.643-5.111 1.628-1.074 3.847-1.769 5.405-2.15.195-.047-.639-1.719-.446-1.753-.52-.532-1.092-1.116-1.712-1.744Z"/>
  <path fill="#1A1A1A" d="M565.416 217.047c-2.254-2.069-4.423-3.951-6.232-5.305-2.667-1.994-6.063-3.684-9.412-4.752-1.675-.533-3.338-.909-4.9-1.08-1.563-.17-3.026-.139-4.311.174-.961.234-1.832.633-2.53 1.25a4.525 4.525 0 0 0-1.426 2.442c-.087.372-.085.757.003 1.112.143.585.489 1.059.902 1.452.73.686 1.71 1.2 2.801 1.712 1.632.759 3.521 1.481 5.041 2.34.76.428 1.421.887 1.908 1.372.488.488.797.982.928 1.517.037.151.06.308.068.473.038.776-.114 1.493-.375 2.235-.388 1.112-1.04 2.253-1.524 3.584a8.91 8.91 0 0 0-.512 2.161 7.459 7.459 0 0 0 .186 2.514c.262 1.071.769 2.217 1.593 3.468.825 1.252 1.966 2.612 3.511 4.129 2.988 2.932 5.505 5.011 7.575 6.493.294-.484.594-.962.901-1.431-1.974-1.42-4.401-3.428-7.294-6.267-1.482-1.454-2.544-2.73-3.283-3.853-.74-1.124-1.155-2.089-1.363-2.939a5.725 5.725 0 0 1-.057-2.542c.231-1.173.802-2.285 1.349-3.499.271-.607.533-1.241.72-1.926a6.986 6.986 0 0 0 .26-2.211v-.001a4.253 4.253 0 0 0-.115-.788 4.654 4.654 0 0 0-.942-1.836c-.766-.93-1.812-1.638-2.946-2.257-1.7-.924-3.621-1.647-5.134-2.369-.755-.359-1.405-.719-1.851-1.064a2.8 2.8 0 0 1-.506-.485 1.025 1.025 0 0 1-.2-.383.694.694 0 0 1 .003-.336c.157-.678.456-1.16.897-1.553.441-.391 1.048-.688 1.812-.874 1.018-.25 2.303-.293 3.728-.135 2.137.233 4.582.906 6.953 1.876 2.37.97 4.67 2.237 6.529 3.63 1.729 1.293 3.874 3.148 6.102 5.196 3.345 3.073 6.888 6.581 9.591 9.318.62.628 2.046 2.82 2.566 3.352.776-.14 1.984-.205 2.718-.115-1.376-1.421-4.72-5.09-7.04-7.387a254.173 254.173 0 0 0-6.692-6.412Z"/>
  <path fill="#1A1A1A" d="M594.864 256.483c-3.898-6.134-14.658-26.199-14.733-26.224a7.607 7.607 0 0 0-2.242-.382c-.196-.005-3.932.484-5.744 1.204-2.719 1.082-5.612 2.827-8.431 5.051-1.439 1.136-7.138 6.916-7.954 7.943-.18.228 1.513 5.402 4.506 12.497.242.573 5.766 13.119 9.122 19.801.277.551 11.152 20.137 13.534 23.795 3.779 5.8 13.939 18.28 14.44 18.819a86.631 86.631 0 0 0 5.329 5.271 73.352 73.352 0 0 0 1.87 1.625c5.219 4.39 10.73 7.697 16.49 9.354 4.206 1.206 8.596 1.753 13.079 1.783.599.004 2.21-.021 2.414-.028 9.375-.32 19.084-2.796 28.385-6.313 27.894-10.555 52.17-30.501 52.208-30.528.361-.296 12.14-55.553 12.071-56.014a.845.845 0 0 0-.962-.709l-.067.011c-5.439.838-11.695 3.602-18.602 7.271-10.397 5.529-22.252 13.138-34.639 19.459-12.385 6.325-25.291 11.345-37.705 11.764-10.026.336-19.724-2.278-28.767-9.636-3.341-2.721-6.592-6.1-9.727-10.226a81.223 81.223 0 0 1-3.875-5.588Z"/>
  <path fill="#fff" d="M593.863 256.648c-3.899-6.134-14.339-25.816-14.413-25.841-.701-.236-1.274-.164-2.312.146-.591.177-2.533.437-4.345 1.156-2.719 1.082-5.436 2.865-8.255 5.09-1.439 1.135-6.451 6.498-7.267 7.525-.181.228 1.551 3.956 4.544 11.05.242.573 5.994 13.375 9.35 20.058.277.551 10.759 20.193 13.142 23.851 3.779 5.8 13.973 18.016 14.474 18.555 1.739 1.865 3.424 3.55 5.238 5.186.619.558 1.47 1.308 2.097 1.837 5.218 4.389 10.307 6.837 16.067 8.493 4.206 1.206 7.599 2.05 12.081 2.079.599.005 2.693.007 2.897 0 9.375-.321 18.772-2.961 28.074-6.477 27.893-10.555 53.324-31.285 53.362-31.311.361-.296 11.24-53.685 11.171-54.145-.069-.462.511.587.049.656-.023.003-1.087.304-1.108.31-5.712 1.546-11.691 3.689-18.599 7.358-10.397 5.53-22.159 13.309-34.546 19.631-12.384 6.325-25.459 11.526-37.873 11.945-10.026.336-21.337-3.361-30.38-10.719-3.341-2.721-5.99-6.383-9.124-10.509-1.313-1.728-3.054-3.925-4.324-5.924Z"/>
  <path fill="#1A1A1A" d="M72.66 363.836h45.738a.823.823 0 0 0 .221-.029c6.686-1.821 14.596-4.852 21.311-9.912 6.712-5.053 12.232-12.185 13.974-22.08.51-2.893.739-6.007.74-9.283-.001-6.618-.937-13.893-2.423-21.302a.843.843 0 0 0-.828-.678H39.664a.843.843 0 0 0-.827.678c-1.486 7.409-2.422 14.684-2.423 21.302 0 3.275.23 6.39.74 9.283 1.742 9.895 7.262 17.027 13.974 22.08 6.716 5.06 14.625 8.091 21.31 9.912a.83.83 0 0 0 .223.029Zm-33.843-32.314c-.49-2.774-.715-5.793-.715-8.99 0-6.259.869-13.195 2.26-20.291h110.334c1.392 7.096 2.26 14.032 2.26 20.291 0 3.197-.226 6.217-.715 8.99-.832 4.712-2.549 8.743-4.865 12.212-3.471 5.203-8.301 9.145-13.507 12.123-5.168 2.955-10.7 4.953-15.589 6.291H72.777c-6.531-1.786-14.206-4.754-20.632-9.601-3.232-2.436-6.148-5.344-8.463-8.813-2.315-3.469-4.032-7.5-4.865-12.212Z"/>
  <path fill="#1A1A1A" d="M52.224 459.207c-1.074 1.021-2.016 2.047-2.787 3.077-1.247 1.671-2.066 3.362-2.203 5.087l-.003.065c-.001.283.118.536.249.698.128.162.266.268.406.358.27.171.567.287.922.401.663.209 1.534.385 2.621.552 3.793.581 10.226 1.006 18.023 1.293 7.794.284 16.935.428 26.076.428 11.876 0 23.749-.241 32.67-.722 4.462-.242 8.183-.544 10.821-.91 1.322-.185 2.368-.381 3.141-.614.389-.119.708-.24.998-.42.144-.091.286-.199.419-.366.13-.162.25-.415.249-.698l-.003-.065c-.136-1.725-.956-3.416-2.203-5.087-2.12-2.828-5.523-5.644-9.468-8.348-.13-.089-.254-.178-.385-.267a95.585 95.585 0 0 0-2.008-1.318c-4.861-3.108-10.272-5.99-15.022-8.333a225.724 225.724 0 0 0-12.175-5.576l2.183-72.052c1.93-.179 7.313-.797 13.874-2.583a.825.825 0 0 1-.222.029h-7.594c-1.03.185-1.982.34-2.817.462a68.952 68.952 0 0 1-3.03.375 41.638 41.638 0 0 1-1.02.09l-.066.005a.846.846 0 0 0-.791.816l-2.222 73.389a.844.844 0 0 0 .524.806l.447.187c2.201.92 12.173 5.18 21.664 10.583 4.744 2.699 9.369 5.689 12.821 8.657 1.726 1.484 3.157 2.962 4.162 4.373.91 1.274 1.458 2.482 1.622 3.573a2.894 2.894 0 0 1-.26.098c-.479.163-1.268.339-2.288.499-3.584.569-10.013 1.007-17.815 1.295-7.807.289-17.007.434-26.206.434-11.85 0-23.704-.242-32.578-.721-4.435-.24-8.129-.539-10.68-.895-1.274-.176-2.266-.37-2.884-.559a3.743 3.743 0 0 1-.424-.151c.174-1.172.794-2.479 1.827-3.857 1.98-2.654 5.418-5.505 9.447-8.227 6.046-4.09 13.417-7.922 19.267-10.721a239.71 239.71 0 0 1 7.284-3.336c.908-.397 1.63-.704 2.127-.913l.569-.239.193-.08a.845.845 0 0 0 .525-.806l-2.223-73.389a.845.845 0 0 0-.79-.816l-.067-.005c-.44-.031-3.062-.242-6.87-.927h-7.59a.83.83 0 0 1-.223-.029c6.561 1.786 11.945 2.404 13.875 2.583l2.182 72.052c-2.219.931-10.972 4.681-19.842 9.564-5.13 2.824-10.295 6.024-14.277 9.304l-.035.029c-.75.62-1.459 1.243-2.117 1.868Z"/>
  <path fill="#fff" d="m87.121 364.763.066.004a.846.846 0 0 1 .791.817l2.223 73.389a.845.845 0 0 1-.524.806s-.066.026-.194.08c-.13.053-.32.135-.569.239-.496.209-1.22.516-2.126.913a237.781 237.781 0 0 0-7.285 3.336c-5.85 2.799-13.221 6.63-19.266 10.72-4.03 2.723-7.468 5.574-9.448 8.228-1.033 1.378-1.653 2.685-1.827 3.857.105.045.246.099.424.151.618.189 1.61.382 2.884.558 2.551.356 6.245.656 10.68.896 8.874.479 20.727.721 32.578.721 9.199 0 18.399-.146 26.206-.435 7.802-.288 14.231-.725 17.815-1.294 1.02-.161 1.809-.336 2.288-.499.104-.034.189-.068.26-.099-.164-1.091-.712-2.298-1.622-3.572-1.005-1.411-2.436-2.89-4.162-4.373-3.452-2.969-8.077-5.958-12.821-8.657-9.491-5.403-19.463-9.664-21.664-10.584a59.344 59.344 0 0 0-.447-.186.844.844 0 0 1-.524-.806l2.222-73.389a.847.847 0 0 1 .791-.817l.066-.004.207-.015c.184-.015.458-.039.813-.075a68.952 68.952 0 0 0 3.03-.375 88.493 88.493 0 0 0 2.817-.462H80.251c3.808.685 6.43.896 6.87.927Z"/>
  <path fill="#000" d="M39.665 300.552h1.039c2.191-10.584 5.49-21.434 8.788-30.914a360.936 360.936 0 0 1 3.324-9.145 369.327 369.327 0 0 1 5.607-13.949c.723-1.695 1.31-3.031 1.716-3.943l.158-.355.248-.551h69.967c1.17 2.584 6.767 15.187 12.077 30.929 1.215 3.6 2.414 7.364 3.543 11.211 1.609 5.486 3.072 11.137 4.227 16.717h1.034c.403 0 .749.283.828.678-1.108-5.516-2.522-11.107-4.086-16.551h-.568a.844.844 0 1 1 0-1.688h.075a296.948 296.948 0 0 0-3.657-11.509c-5.941-17.506-12.155-30.964-12.162-30.984a.849.849 0 0 0-.767-.491H60.002a.844.844 0 0 0-.28.053.833.833 0 0 0-.44.366c-.015.025-.034.045-.046.072-.007.017-4.223 9.149-9.029 22.15a349.49 349.49 0 0 0-2.334 6.504c-3.412 9.814-6.831 21.095-9.036 32.078a.844.844 0 0 1 .828-.678Zm86.092-69.613 29.353-36.104a1.689 1.689 0 0 0-2.62-2.131l-29.353 36.104a32.413 32.413 0 0 0-5.91 11.199h3.543a29 29 0 0 1 4.987-9.068Z"/>
  <path fill="#000" d="M120.257 241.696h-3.481c-.589 2.458-.9 4.99-.9 7.552v51.305h3.377v-51.305c0-2.569.344-5.106 1.004-7.552Z"/>
  <path fill="#fff" d="M89.382 236.11c-.927-16.647-14.72-29.524-31.186-29.524-.587 0-1.176.016-1.769.05-16.646.926-29.524 14.719-29.524 31.186 0 .586.017 1.176.05 1.769.736 13.23 9.604 24.072 21.479 27.967.399-1.129.798-2.24 1.193-3.324-10.582-3.429-18.49-13.068-19.148-24.841a28.659 28.659 0 0 1-.043-1.566c0-14.612 11.422-26.842 26.19-27.667a28.402 28.402 0 0 1 1.566-.044c14.613.001 26.843 11.423 27.667 26.191l-.843.047.843-.047c.03.525.044 1.047.044 1.567 0 .718-.035 1.428-.09 2.134h3.54c.047-.705.08-1.414.08-2.13 0-.586-.016-1.176-.05-1.768Z"/>
  <path fill="#fff" d="M59.907 269.065c15.341-.855 27.472-12.638 29.282-27.369h-3.557c-1.787 12.867-12.463 23.092-25.921 23.844a27.613 27.613 0 0 1-8.462-.832 371.778 371.778 0 0 0-1.195 3.333 31.113 31.113 0 0 0 9.853 1.024Z"/>
  <path fill="#1A1A1A" d="M60.001 270.75c16.242-.907 29.069-13.428 30.888-29.054h-1.7c-1.81 14.731-13.94 26.514-29.281 27.369a31.11 31.11 0 0 1-9.854-1.024c-.188.53-.374 1.059-.562 1.597a32.847 32.847 0 0 0 10.51 1.112Zm-11.569-3.192c-11.875-3.895-20.743-14.737-21.48-27.968a31.9 31.9 0 0 1-.049-1.768c0-16.467 12.877-30.26 29.524-31.187a31.81 31.81 0 0 1 1.768-.049c16.467 0 30.26 12.877 31.187 29.524.033.592.049 1.182.049 1.768 0 .716-.033 1.425-.08 2.13h1.691c.046-.705.077-1.414.077-2.13 0-.617-.017-1.239-.052-1.862l-.842.047.842-.047c-.98-17.547-15.51-31.117-32.872-31.118-.617 0-1.238.017-1.862.052-17.547.978-31.118 15.51-31.118 32.872 0 .617.017 1.239.052 1.862.777 13.934 10.105 25.352 22.605 29.467.187-.536.373-1.066.56-1.593Z"/>
  <path fill="#fff" d="m32.125 237.749-.003.078c0 .487.014.979.042 1.472.493 8.869 5.373 16.447 12.413 20.763l13.099-21.938-25.551-.375Zm52.085.202.002-.077c0-.488-.014-.979-.042-1.473-.493-8.868-5.373-16.447-12.413-20.763l-13.099 21.938 25.552.375Zm-38.977-22.706c-7.7 4.414-12.868 12.627-13.095 21.942l25.546.375-12.45-22.317Zm26.045.1a25.902 25.902 0 0 0-14.561-3.499 25.934 25.934 0 0 0-10.994 3.123l12.452 22.319 13.103-21.943Zm-26.22 45.01a25.96 25.96 0 0 0 5.148 2.293c4.807-13 9.024-22.133 9.03-22.15.012-.027.031-.047.046-.072l-1.123-2.014-13.101 21.943Zm14.559 3.498a25.939 25.939 0 0 0 10.995-3.122l-10.314-18.485-.159.355c-.406.912-.992 2.249-1.715 3.943a369.327 369.327 0 0 0-6.59 16.574 25.949 25.949 0 0 0 7.783.735Zm24.313-22.158H60.635L71.1 260.454c6.811-3.905 11.646-10.777 12.83-18.759Zm-25.28-3.556 1.072 1.922a.826.826 0 0 1 .28-.053h24.116c.04-.495.066-.993.078-1.494l-25.546-.375Z"/>
  <path fill="#1A1A1A" d="M59.71 265.54c13.46-.752 24.135-10.977 25.923-23.844H83.93c-1.183 7.982-6.019 14.854-12.83 18.759l.414.741-.49.274-.414-.739a25.937 25.937 0 0 1-12.468 3.164c-2.17 0-4.283-.27-6.309-.777-.193.525-.389 1.054-.584 1.591a27.653 27.653 0 0 0 8.46.831Zm26.146-29.234-.842.047.843-.047c-.825-14.768-13.055-26.19-27.667-26.19-.52 0-1.042.014-1.567.044-14.767.824-26.19 13.054-26.19 27.666 0 .52.015 1.042.044 1.567.657 11.773 8.566 21.412 19.147 24.841.195-.535.389-1.064.582-1.587a25.906 25.906 0 0 1-5.149-2.292l-.434.728-.484-.289.438-.732c-7.04-4.316-11.92-11.894-12.414-20.763a25.93 25.93 0 0 1-.041-1.473l.002-.077-.85-.013.01-.563.853.013c.228-9.315 5.394-17.526 13.096-21.941l-.414-.741.491-.274.413.739a25.92 25.92 0 0 1 10.994-3.123 25.9 25.9 0 0 1 14.56 3.499l.434-.727.484.288-.438.733c7.04 4.316 11.92 11.893 12.414 20.761.027.494.04.986.04 1.473 0 .026 0 .053-.002.078l.85.012-.008.563-.855-.013a26.377 26.377 0 0 1-.078 1.495h1.692c.055-.706.09-1.416.09-2.135 0-.519-.014-1.042-.044-1.567Z"/>
  <path fill="#000" d="m58.334 237.571.325.005 13.099-21.938.437-.732-.483-.289-.434.728-13.102 21.943.158.283Z"/>
  <path fill="#000" d="m58.172 237.569.162.002-.158-.283-12.453-22.319-.412-.739-.491.274.413.741 12.451 22.317.488.007Z"/>
  <path fill="#000" d="m57.926 237.705.24.145.005-.282-.487-.007-25.547-.375-.855-.013-.007.563.849.013 25.551.375.25-.419Z"/>
  <path fill="#000" d="m57.922 237.987.245-.137-.242-.145-.249.419-13.1 21.938-.437.732.484.289.435-.728 13.101-21.943-.237-.425Z"/>
  <path fill="#000" d="m58.162 238.131.005-.281-.246.137.238.425 1.123 2.014a.833.833 0 0 1 .44-.366l-1.072-1.922-.488-.007Zm12.862 23.339.492-.275-.414-.741-10.467-18.759h-.09l-.248.551 10.314 18.485.413.739Z"/>
  <path fill="#000" d="m58.334 237.571-.163-.002-.004.281-.004.282.487.007 25.547.374.854.014.009-.563-.85-.013-25.551-.374-.325-.006Z"/>
  <path fill="#BAD7F0" d="M52.145 352.547c6.426 4.847 14.101 7.815 20.631 9.601h45.504c4.889-1.338 10.421-3.336 15.589-6.291 5.206-2.978 10.036-6.92 13.507-12.123 2.316-3.469 4.033-7.5 4.865-12.212.489-2.773.714-5.794.714-8.99.001-6.259-.867-13.196-2.26-20.291 0 0-14.5-4.792-26.502-7.088-11.516-.907-20.037 1.074-27.65-.962-10.12-2.472-28.61-.409-33.687 1.225-4.294-1.445-22.494 6.825-22.494 6.825-1.392 7.095-2.26 14.032-2.26 20.291 0 3.196.225 6.216.715 8.99.832 4.712 2.55 8.743 4.864 12.212 2.315 3.469 5.232 6.377 8.464 8.813Z"/>
</svg>
