<svg xmlns="http://www.w3.org/2000/svg" width="70" height="68" fill="none" viewBox="0 0 70 68">
  <g clip-path="url(#a)">
    <path fill="#132B3E" d="M59.749 10.312C53.139 3.985 44.349.5 35 .5c-9.349 0-18.138 3.485-24.749 9.812C3.641 16.639 0 25.052 0 34c0 8.948 3.64 17.36 10.251 23.688C16.861 64.015 25.651 67.5 35 67.5c9.349 0 18.138-3.485 24.749-9.812C66.359 51.361 70 42.948 70 34c0-8.948-3.64-17.36-10.251-23.688Zm-1.5 45.94C52.039 62.196 43.782 65.47 35 65.47c-8.782 0-17.039-3.274-23.249-9.218C5.541 50.31 2.121 42.406 2.121 34c0-8.406 3.42-16.309 9.63-22.252C17.961 5.804 26.218 2.53 35 2.53c8.782 0 17.039 3.274 23.249 9.218 6.21 5.943 9.63 13.846 9.63 22.252 0 8.406-3.42 16.309-9.63 22.252Z"/>
    <path fill="#132B3E" d="M56.549 13.375C50.793 7.865 43.14 4.83 35 4.83c-8.14 0-15.793 3.034-21.549 8.544C7.695 18.884 4.525 26.209 4.525 34s3.17 15.116 8.926 20.625C19.207 60.135 26.86 63.17 35 63.17c8.14 0 15.793-3.034 21.549-8.544 5.756-5.509 8.926-12.834 8.926-20.625s-3.17-15.116-8.926-20.625ZM36.06 61.118v-2.213c0-.56-.475-1.015-1.061-1.015s-1.06.454-1.06 1.015v2.212C19.146 60.594 7.214 49.173 6.667 35.015H8.98c.586 0 1.06-.454 1.06-1.015 0-.56-.474-1.015-1.06-1.015H6.668C7.215 18.826 19.148 7.406 33.94 6.883v2.212c0 .56.475 1.015 1.061 1.015s1.06-.454 1.06-1.015V6.883c14.793.523 26.725 11.943 27.272 26.102H61.02c-.586 0-1.06.454-1.06 1.015 0 .56.474 1.015 1.06 1.015h2.312c-.547 14.158-12.479 25.579-27.271 26.102Z"/>
    <path fill="#132B3E" d="M54.232 32.985H43.285l7.348-12.566a.983.983 0 0 0-.176-1.214 1.096 1.096 0 0 0-1.268-.168l-13.128 7.034V15.59c0-.56-.475-1.014-1.061-1.014s-1.06.454-1.06 1.015v11.615l-2.022 1.083a6.85 6.85 0 0 0-.41.22l-.029.015a1.09 1.09 0 0 0-.118.075c-.101.063-.2.128-.298.195L26.7 24.62a1.094 1.094 0 0 0-1.5 0 .984.984 0 0 0 0 1.436l4.363 4.176a6.35 6.35 0 0 0-.524.812l-.017.026-1.12 1.916H15.767c-.586 0-1.06.454-1.06 1.015 0 .56.474 1.015 1.06 1.015h10.946l-7.347 12.566a.983.983 0 0 0 .176 1.213 1.097 1.097 0 0 0 1.268.168l13.128-7.028v10.474c0 .56.475 1.015 1.061 1.015s1.06-.454 1.06-1.015v-11.61l2.173-1.162.046-.028c.228-.122.447-.257.658-.404L43.3 43.38c.208.199.479.298.75.298.272 0 .543-.1.75-.298a.985.985 0 0 0 0-1.435l-4.363-4.176a6.3 6.3 0 0 0 .534-.83l.015-.022 1.112-1.902h12.134c.586 0 1.06-.455 1.06-1.015 0-.56-.474-1.015-1.06-1.015Zm-21.65-2.724.358-.192a4.733 4.733 0 0 1 2.06-.468c2.534 0 4.596 1.973 4.596 4.399S37.534 38.399 35 38.399c-2.534 0-4.596-1.973-4.596-4.4 0-1.576.872-2.962 2.179-3.738Zm8.819 1.79c-.66-1.98-2.295-3.545-4.363-4.177l9.909-5.309-5.546 9.486Zm-12.802 3.898c.66 1.981 2.298 3.548 4.37 4.179l-9.917 5.309 5.547-9.488Z"/>
    <path fill="#132B3E" d="M35 36.098c1.209 0 2.192-.941 2.192-2.098s-.983-2.098-2.192-2.098-2.192.941-2.192 2.098.983 2.098 2.192 2.098Zm0-2.166c.039 0 .07.03.07.068a.07.07 0 0 1-.07.068.07.07 0 0 1-.07-.068.07.07 0 0 1 .07-.068Z"/>
  </g>
  <defs>
    <clipPath id="a">
      <path fill="#fff" d="M0 0h70v67H0z" transform="translate(0 .5)"/>
    </clipPath>
  </defs>
</svg>
