<svg xmlns="http://www.w3.org/2000/svg" width="512" height="512" fill="none" viewBox="0 0 512 512">
  <path fill="#fff" d="M512 0v512H0V0h512Z"/>
  <path fill="#ECECEC" d="M96.802 231.463H18.758s10.688-23.861 22.121-25.352c11.433-1.491 16.901 17.73 16.901 17.73s7.374-6.794 13.173-6.794c5.8 0 10.273 8.948 10.273 8.948s11.6-6.131 15.576 5.468Zm103.867-62.254h-85.738s8.501-23.218 21.584-23.218 17.181 16.027 17.181 16.027 8.827-8.708 16.078-8.708c7.251 0 13.556 11.507 13.556 11.507s10.246-6.189 17.339 4.392Zm13.316 88.314h-40.068s8.953-12.972 16.006-12.972c7.054 0 9.139 8.648 9.139 8.648s4.978-4.035 9.59-3.315c4.612.721 5.333 7.639 5.333 7.639Zm38.175-61.309h-52.72s9.055-17.287 18.88-17.539c9.824-.252 14.988 13.083 14.988 13.083s15.283-12.264 18.852 4.456Zm122.58 28.291h-40.068s8.954-12.972 16.007-12.972c7.054 0 9.138 8.648 9.138 8.648s4.979-4.035 9.59-3.315c4.612.721 5.333 7.639 5.333 7.639Zm148.53 25.157h-85.738s8.501-23.218 21.584-23.218 17.181 16.027 17.181 16.027 8.827-8.708 16.078-8.708c7.25 0 13.556 11.507 13.556 11.507s10.245-6.189 17.339 4.392Zm.526-34.56h-52.722s9.057-17.287 18.881-17.538c9.824-.252 14.988 13.082 14.988 13.082s15.284-12.264 18.853 4.456ZM126.735 346.623c2.789-.673 6.072-.062 6.202-.311.126-.247-.111-1.546.789-1.033.899.513 1.149 1.394 1.732 1.838a.887.887 0 0 0 .139.088c.648.355 1.933.363 2.369 1.136.471.834-1.145.936-1.145.936s1.027 2.119 1.438 4.158c.415 2.039.38 4.985-.914 4.906-1.292-.081-1.878-1.566-2.552-1.649-.675-.083-1.437 1.317-2.614.766-.325-.153-.577-.428-.781-.755-.54-.853-.767-2.065-1.188-2.388-.583-.444-2.422.438-3.461-.701-1.039-1.137.361-1.923-.271-2.704-.633-.786-1.908-.724-2.453-1.702-.547-.976-.08-1.911 2.71-2.585Z"/>
  <path fill="#fff" d="M135.23 351.201c.254 1.687-.017 3.186-.323 4.684-.055.269.458.527.514.254.313-1.531.595-3.072.335-4.796-.045-.301-.572-.447-.526-.142Zm.126-.77c.299.229.547-.097.248-.325-.299-.229-.548.096-.248.325Zm-4.811 2.714c-.159.21.304.565.463.354l3.03-3.991c.159-.21-.305-.564-.465-.354l-3.028 3.991Zm-2.756-2.991c1.57-.813 3.227-1.471 5.206-1.656.308-.029.029-.498-.275-.47-2.017.189-3.715.87-5.313 1.698-.246.128.137.555.382.428Zm-.832.257c.299.229.548-.097.249-.325-.299-.229-.548.096-.249.325Z"/>
  <path fill="#ECECEC" d="M440.834 351.903c-1.499 4.196-5.083 7.945-4.872 8.324.215.375 2.105 1.173.674 1.906-1.433.733-2.79.308-3.865.688a1.377 1.377 0 0 0-.233.106c-1.012.54-2.115 2.204-3.49 2.114-1.485-.099-.242-2.285-.242-2.285s-3.63-.469-6.629-1.668c-3.002-1.195-6.802-3.747-5.6-5.36 1.205-1.611 3.633-1.11 4.315-1.917.681-.806-.491-2.986 1.227-4.047.477-.294 1.047-.386 1.646-.375 1.569.025 3.337.762 4.114.488 1.074-.38 1.491-3.521 3.854-3.903 2.363-.383 2.194 2.105 3.747 1.949 1.559-.156 2.564-1.865 4.298-1.743 1.734.119 2.553 1.523 1.056 5.723Z"/>
  <path fill="#fff" d="M427.659 359.051c-2.409-1.104-4.128-2.731-5.814-4.403-.305-.302-1.076.146-.768.451 1.725 1.709 3.485 3.386 5.949 4.515.429.198 1.068-.364.633-.563Zm.891.817c-.551.195-.341.796.211.602.55-.196.34-.796-.211-.602Zm.566-8.561c-.138-.386-.994-.084-.856.303l2.613 7.331c.138.385.993.084.855-.303l-2.612-7.331Zm6.231-1.038c-.277 2.732-.833 5.445-2.276 8.177-.225.425.623.462.845.042 1.47-2.783 2.03-5.57 2.312-8.351.044-.429-.837-.294-.881.132Zm.374-1.301c-.551.195-.34.795.212.6.551-.195.34-.794-.212-.6Z"/>
  <path fill="#ECECEC" d="M432.272 336.906c-2.943 1.649-6.855 2.006-6.923 2.327-.063.32.618 1.717-.563 1.423-1.183-.295-1.746-1.213-2.547-1.53a1.098 1.098 0 0 0-.187-.056c-.845-.195-2.302.205-3.043-.53-.798-.795 1-1.425 1-1.425s-1.838-2.073-2.953-4.25c-1.118-2.175-2.018-5.522-.528-5.844 1.488-.32 2.626 1.173 3.416 1.052s1.205-1.947 2.713-1.698c.417.069.79.301 1.125.605.883.795 1.526 2.095 2.106 2.324.802.319 2.602-1.266 4.14-.308 1.539.956.204 2.292 1.168 2.975.967.688 2.39.212 3.319 1.145.93.931.7 2.139-2.243 3.79Z"/>
  <path fill="#fff" d="M421.197 334.429c-.825-1.829-.996-3.612-1.127-5.404-.023-.325-.686-.452-.663-.126.134 1.834.305 3.667 1.147 5.537.148.326.791.323.643-.007Zm.102.91c-.411-.162-.59.286-.178.449.411.163.589-.285.178-.449Zm4.581-4.603c.114-.288-.524-.542-.639-.253l-2.156 5.483c-.113.289.525.542.639.253l2.156-5.483Zm4.073 2.508c-1.518 1.421-3.186 2.691-5.367 3.532-.34.131.127.573.463.445 2.222-.857 3.927-2.168 5.472-3.614.239-.223-.332-.585-.568-.363Zm.86-.556c-.411-.163-.589.285-.178.448.411.163.589-.285.178-.448Z"/>
  <path fill="#DDD" d="M116.494 375.323c-.209.437 3.139 4.761 1.883 5.253-1.256.492-9.417-3.174-10.254-3.174-.394 0-2.03.825-3.888 1.631-2.101.91-4.479 1.797-5.646 1.434-2.194-.684 3.047-5.144 2.419-5.417-.628-.274-7.952-2.572-7.22-3.502.732-.93 9.312-.547 9.94-.657.628-.109 1.779-5.634 3.872-5.799a1.65 1.65 0 0 1 .711.114v.002c2.022.755 4.144 4.944 5.253 5.683.577.383 9.94-.765 10.882 0 .942.767-7.743 3.995-7.952 4.432Z"/>
  <path fill="#fff" d="M107.693 365.754c-1.107 0-1.109.9 0 .9 1.107 0 1.109-.9 0-.9Zm.263 1.696c-1.107 0-1.109.9 0 .9 1.107 0 1.109-.9 0-.9Zm.208 1.696c-1.107 0-1.109.9 0 .9 1.107 0 1.109-.9 0-.9Zm.36 1.697c-1.107 0-1.109.9 0 .9 1.108 0 1.109-.9 0-.9Zm.262 1.606c-1.835 0-1.838 1.492 0 1.492 1.835 0 1.838-1.492 0-1.492Zm3.069.05c-1.107 0-1.109.9 0 .9 1.107 0 1.109-.9 0-.9Zm3.331-.292c-1.107 0-1.109.9 0 .9 1.107 0 1.109-.9 0-.9Zm3.383-.45c-1.108 0-1.109.9 0 .9 1.107 0 1.109-.9 0-.9Zm2.965-.464c-1.107 0-1.109.9 0 .9 1.107 0 1.109-.9 0-.9Zm-10.865 2.966c-1.107 0-1.109.9 0 .9 1.107 0 1.109-.9 0-.9Zm1.662 1.441c-1.107 0-1.109.9 0 .9 1.107 0 1.109-.9 0-.9Zm2.023 1.404c-1.107 0-1.109.9 0 .9 1.107 0 1.109-.9 0-.9Zm2.023 1.477c-1.107 0-1.109.9 0 .9 1.107 0 1.109-.9 0-.9Zm-9.619-4.322c-1.107 0-1.109.9 0 .9 1.107 0 1.109-.9 0-.9Zm-1.978 1.332c-1.107 0-1.109.9 0 .9 1.108 0 1.109-.9 0-.9Zm-1.848 1.385c-1.107 0-1.109.9 0 .9 1.107 0 1.109-.9 0-.9Zm-1.954 1.514c-1.106 0-1.108.9 0 .9 1.107 0 1.109-.9 0-.9Zm4.564-5.991c-1.107 0-1.109.9 0 .9 1.107 0 1.109-.9 0-.9Zm-2.982-.204c-1.107 0-1.109.9 0 .9 1.107 0 1.109-.9 0-.9Zm-3.139-.246c-1.107 0-1.109.9 0 .9 1.107 0 1.109-.9 0-.9Zm-2.981-.45c-1.108 0-1.11.9 0 .9 1.106 0 1.108-.9 0-.9Z"/>
  <path fill="#ECECEC" d="M403.127 412.289c0 7.026-65.885 12.722-147.155 12.722-81.272 0-147.156-5.696-147.156-12.722 0-7.027 65.884-12.724 147.156-12.724 81.27 0 147.155 5.697 147.155 12.724Zm110.207-142.857H214.015c-22.598 0-.163 6.096 18.547 6.746 18.709.651 75.321 3.905 75.128 8.134-.195 4.23-29.938 9.129-29.938 15.464 0 6.335 86.625 11.365 90.469 15.032 3.845 3.665-9.318 4.815-3.552 8.662 4.325 2.885 65.535 5.674 91.051 9.686 8.506 1.336-5.179 8.059 8.443 13.625 6.12 2.501 49.171 4.556 49.171 4.556v-81.905Z"/>
  <path fill="#CBCBCB" d="M513.347 269.432h-266.42c-20.115 0-.145 6.154 16.508 6.811 16.654.656 67.044 3.941 66.871 8.211-.172 4.269-26.647 9.215-26.647 15.611 0 6.395 77.103 11.472 80.525 15.175 3.422 3.7-8.295 4.861-3.161 8.744 3.848 2.913 58.332 5.728 81.043 9.778 7.569 1.349-4.61 8.136 7.514 13.755 5.447 2.525 43.767 4.599 43.767 4.599v-82.684Z"/>
  <path fill="#fff" d="M263.503 272.052c.917.288 1.88.369 2.829.496.951.118 1.905.217 2.859.315 1.911.184 3.822.351 5.734.505l11.476.932 22.955 1.887c7.644.722 15.294 1.386 22.917 2.407 1.904.269 3.806.54 5.7.976.961.241 1.859.579 2.75.985.872.423 1.77.899 2.394 1.73.305.411.49.958.4 1.483-.076.523-.34.976-.647 1.361-.626.771-1.417 1.351-2.223 1.876-1.626 1.045-3.377 1.852-5.143 2.603 1.729-.828 3.447-1.701 5.025-2.779.781-.541 1.539-1.141 2.103-1.882.277-.37.494-.788.542-1.221.059-.435-.099-.861-.371-1.21-.555-.708-1.415-1.166-2.266-1.552a15.426 15.426 0 0 0-2.68-.905c-1.855-.39-3.763-.627-5.664-.858-7.613-.891-15.262-1.562-22.908-2.221l-22.937-2.073c-3.821-.37-7.642-.742-11.46-1.153a365.512 365.512 0 0 1-5.72-.682c-.952-.128-1.904-.254-2.853-.405-.944-.166-1.906-.288-2.812-.615Zm78.868 25.222c1.847.567 3.771.809 5.682 1.049 1.915.228 3.837.394 5.759.543 3.846.293 7.7.495 11.553.673 7.707.378 15.42.644 23.133.93 7.713.283 15.426.606 23.136 1.117 1.927.132 3.854.283 5.78.476 1.927.2 3.851.41 5.774.838.477.108.973.246 1.44.442.464.203.94.393 1.371.852.105.121.2.273.26.458.047.189.049.406-.016.578-.12.354-.339.565-.54.748-.416.359-.857.597-1.3.827-1.778.876-3.606 1.495-5.417 2.163-1.81.66-3.618 1.321-5.35 2.118-.863.4-1.711.834-2.485 1.353-.758.517-1.502 1.143-1.778 1.908a1.521 1.521 0 0 0-.091.574c-.006.097.023.193.033.29.02.076.043.142.091.216.187.296.569.564.964.774.807.426 1.72.719 2.631.979 1.836.512 3.727.867 5.622 1.185 7.599 1.221 15.299 1.854 22.977 2.584 7.684.711 15.382 1.314 23.051 2.247 1.916.246 3.83.514 5.734.86.95.177 1.899.37 2.837.621.467.128.933.266 1.388.446.446.18.923.386 1.259.768a5.669 5.669 0 0 1 1.451 2.514c.247.947.255 1.942.089 2.896-.336 1.914-1.208 3.694-2.316 5.265 1.083-1.588 1.922-3.38 2.223-5.279.149-.948.123-1.925-.133-2.844a5.479 5.479 0 0 0-1.449-2.419c-.312-.347-.759-.531-1.2-.702a12.793 12.793 0 0 0-1.373-.415 36.42 36.42 0 0 0-2.826-.57c-1.9-.314-3.813-.549-5.729-.762-7.665-.845-15.365-1.388-23.057-2.024-7.693-.636-15.392-1.278-23.043-2.474-1.91-.316-3.819-.666-5.704-1.185-.941-.268-1.88-.559-2.785-1.032-.445-.245-.909-.52-1.251-1.039a1.443 1.443 0 0 1-.186-.447c-.021-.143-.056-.283-.052-.428-.017-.29.042-.579.129-.847.406-1.074 1.261-1.726 2.066-2.294.828-.558 1.703-1.008 2.586-1.422 1.774-.822 3.593-1.492 5.406-2.159 1.802-.676 3.645-1.286 5.333-2.117.413-.211.826-.44 1.141-.714.155-.134.281-.288.313-.396.033-.099.021-.161-.09-.297-.228-.257-.662-.474-1.077-.646a8.168 8.168 0 0 0-1.323-.409c-1.844-.416-3.765-.636-5.674-.84a186.75 186.75 0 0 0-5.755-.492c-7.691-.55-15.403-.849-23.111-1.224-7.709-.36-15.421-.701-23.128-1.154-3.853-.243-7.704-.513-11.549-.871a139.06 139.06 0 0 1-5.755-.644c-1.908-.272-3.832-.546-5.669-1.146Z"/>
  <path fill="#fff" d="M394.585 294.659c7.714.14 15.424.529 23.12 1.144 3.849.297 7.691.708 11.522 1.219 3.825.546 7.66 1.108 11.397 2.303.926.323 1.854.682 2.711 1.28.212.155.42.328.605.543.094.107.178.23.254.361.059.119.124.231.174.355.215.484.336 1.035.294 1.588-.085 1.13-.783 2.032-1.507 2.707-.741.689-1.57 1.23-2.406 1.733-.839.5-1.694.954-2.531 1.42-.418.234-.832.471-1.223.726-.382.254-.772.538-.986.847-.103.158-.129.274-.089.381.033.116.175.269.328.37.336.222.797.37 1.237.506.9.264 1.843.44 2.786.598 3.789.597 7.642.874 11.486 1.126 3.846.265 7.697.43 11.552.583-7.714-.016-15.438-.123-23.13-1.103-.961-.144-1.922-.302-2.879-.563-.479-.142-.954-.279-1.431-.583-.241-.167-.467-.366-.596-.71-.135-.354-.002-.753.164-.985.341-.487.765-.764 1.174-1.049.415-.275.837-.52 1.259-.76.845-.476 1.691-.932 2.505-1.425.812-.494 1.604-1.022 2.273-1.653.664-.623 1.206-1.389 1.256-2.219a2.564 2.564 0 0 0-.241-1.224c-.04-.1-.097-.198-.143-.294a1.596 1.596 0 0 0-.165-.228 2.828 2.828 0 0 0-.473-.415c-.73-.506-1.623-.854-2.514-1.159-3.612-1.183-7.444-1.776-11.241-2.34-3.81-.546-7.644-.937-11.478-1.33a447.512 447.512 0 0 0-11.521-.971c-3.844-.302-7.692-.543-11.543-.779Z"/>
  <path fill="#25383F" d="m127.454 269.191-64.257.07L0 269.452v.007l63.197.189 64.257.071 128.516.134 128.516-.133 64.259-.07 63.255-.191v-.007l-63.255-.192-64.259-.07-128.516-.133-128.516.134Z"/>
  <path fill="#000" d="M287.426 209.995c-.49-.666-1.021-1.244-1.598-1.839-.596-.581-1.195-1.115-1.986-1.562-.206-.107-.418-.216-.73-.261a1.191 1.191 0 0 0-.262-.003c-.073.009-.122.02-.184.031-.123.02-.225.053-.335.08-.429.119-.822.268-1.212.424-.779.318-1.501.573-2.244.959l.649.076c-.652-.578-1.338-.984-2.064-1.47-.365-.237-.743-.44-1.153-.637a4.699 4.699 0 0 0-.656-.265c-.108-.042-.252-.058-.379-.083-.133-.018-.283-.007-.42-.005-.514.067-.917.241-1.32.423-.397.187-.764.374-1.13.595-.722.46-1.406.936-2.044 1.499.774-.347 1.526-.691 2.299-.999.383-.158.769-.308 1.155-.424.38-.116.777-.233 1.105-.231.259 0 .597.163.934.347.337.189.668.423.992.664.652.478 1.317.891 1.924 1.424l.306.267.343-.191c.696-.387 1.423-.676 2.128-.976.359-.17.721-.334 1.074-.456.086-.027.177-.062.256-.079l.115-.029c.011.001.014-.012.044-.008.095-.003.267.047.428.115.668.295 1.362.747 2.015 1.214.663.467 1.287.909 1.95 1.4Zm-18.349-5.456c-.599-.57-1.222-1.048-1.893-1.533-.688-.469-1.371-.891-2.227-1.194-.222-.069-.45-.14-.765-.13-.073 0-.17.021-.258.043-.071.021-.117.04-.176.062-.118.041-.212.091-.316.137-.402.192-.763.407-1.12.628-.712.448-1.379.825-2.044 1.334l.653-.038c-.743-.456-1.489-.737-2.288-1.089a10.084 10.084 0 0 0-1.246-.427 4.594 4.594 0 0 0-.692-.147c-.113-.023-.258-.014-.387-.016-.134.005-.28.042-.415.068-.494.155-.861.396-1.226.646-.359.253-.688.5-1.01.781-.632.579-1.222 1.167-1.753 1.832.702-.476 1.383-.946 2.091-1.383.349-.222.703-.437 1.063-.619.354-.18.725-.364 1.048-.419.256-.045.617.057.981.18.364.127.731.3 1.092.481.725.358 1.451.649 2.142 1.069l.348.209.304-.247c.618-.502 1.284-.913 1.926-1.331.324-.229.652-.454.979-.635.08-.042.163-.092.238-.122l.109-.049c.011-.001.011-.014.041-.015.094-.02.272-.001.442.038.709.175 1.471.499 2.195.846.734.345 1.425.672 2.164 1.04Zm22.225-28.322a12.446 12.446 0 0 0-1.325-1.073c-.482-.328-.96-.624-1.559-.836-.155-.048-.315-.098-.535-.091a.863.863 0 0 0-.181.03c-.049.015-.082.029-.123.044-.083.028-.149.064-.221.096a7.818 7.818 0 0 0-.784.439c-.499.314-.966.577-1.431.934l.457-.027c-.52-.319-1.042-.516-1.602-.762a7.093 7.093 0 0 0-.872-.299 3.156 3.156 0 0 0-.484-.103c-.08-.016-.181-.009-.271-.011-.094.004-.196.029-.291.047-.346.109-.602.278-.858.453a8.4 8.4 0 0 0-.707.547c-.442.405-.855.816-1.227 1.282.492-.333.968-.662 1.463-.968.245-.156.493-.306.745-.433.248-.126.507-.255.734-.294.178-.031.431.04.686.126.255.089.512.21.764.337.508.25 1.017.454 1.5.748l.243.147.213-.173c.433-.352.899-.639 1.349-.932.227-.161.456-.318.685-.445.056-.029.114-.064.167-.085l.075-.034c.008-.001.009-.01.03-.011.065-.014.19 0 .309.027.496.122 1.029.349 1.536.592.514.241.998.47 1.515.728ZM167.794 223.1c-.418-.4-.855-.734-1.325-1.074-.481-.328-.959-.623-1.559-.835a1.484 1.484 0 0 0-.535-.092.863.863 0 0 0-.181.03c-.049.015-.081.029-.123.044-.082.029-.148.064-.221.096a8.046 8.046 0 0 0-.784.439c-.498.314-.965.578-1.43.934l.456-.026c-.519-.32-1.042-.516-1.601-.763a7.21 7.21 0 0 0-.872-.299 3.32 3.32 0 0 0-.485-.103c-.079-.016-.18-.009-.271-.011-.094.004-.196.03-.29.048-.346.108-.603.277-.859.452-.251.177-.481.35-.707.547-.441.405-.855.816-1.226 1.282.491-.333.967-.662 1.463-.968.245-.156.493-.306.745-.433.247-.126.507-.255.733-.294.179-.031.432.04.686.126.256.089.512.211.765.337.507.251 1.016.455 1.499.748l.244.147.213-.173c.433-.352.899-.639 1.348-.932a7.87 7.87 0 0 1 .685-.444c.056-.03.115-.065.167-.086l.076-.034c.008-.001.008-.01.029-.011.065-.013.19 0 .309.027.497.123 1.03.35 1.537.592.514.241.998.471 1.514.729Z"/>
  <path fill="#BAD7F0" d="M419.331 201.431s5.02 49.041 26.964 112.065c12.654 36.345 37.881 73.656 58.857 101.897l-33.244 1.142s-31.124-70.059-38.566-101.774c-16.588-70.707-16.546-114.262-16.546-114.262l2.535.932Z"/>
  <path fill="#000" fill-opacity=".3" d="M419.331 201.431s5.02 49.041 26.964 112.065c12.654 36.345 37.881 73.656 58.857 101.897l-33.244 1.142s-31.124-70.059-38.566-101.774c-16.588-70.707-16.546-114.262-16.546-114.262l2.535.932Z"/>
  <path fill="#BAD7F0" d="M470.088 371.871c-2.717.26-5.435.433-8.156.591-2.727.165-5.448.266-8.17.367l-.246.008c-.104-.259-.21-.518-.314-.785l.533-.018c2.723-.078 5.444-.164 8.176-.186 2.725-.029 5.449-.044 8.177.023Zm12.629 11.627c-2.602.08-5.189.162-7.786.172l-4.085.038c-1.372-.025-2.736-.019-4.099-.059 1.357-.134 2.718-.221 4.085-.34l4.078-.243c2.432-.155 4.859-.255 7.301-.347.169.257.338.521.506.779Zm13.713 19.934c-.072.011-.152.014-.225.017-2.718.164-5.439.266-8.16.368-2.73.085-5.453.17-8.177.193l-4.086.028c-1.371-.017-2.734-.009-4.098-.05 1.358-.143 2.718-.23 4.085-.34l4.078-.251c2.719-.165 5.442-.269 8.171-.369 2.658-.085 5.325-.166 7.985-.186.142.195.276.396.427.59Zm-17.127-25.202c-.104.004-.217-.001-.319.002l-4.087.029c-1.371-.017-2.734-.01-4.098-.05 1.358-.134 2.718-.22 4.085-.339l4.031-.25c.126.203.253.406.388.608Zm-18.839-32.339c-1.229-.014-2.447-.011-3.677-.057 1.168-.112 2.328-.191 3.497-.287.059.11.12.227.18.344Zm-6.429-4.6c-2.717.261-5.443.435-8.164.592a365.98 365.98 0 0 1-4.064.212c-.087-.252-.176-.496-.264-.749 1.433-.033 2.874-.066 4.307-.076 2.725-.029 5.457-.045 8.185.021Zm-15.289-32.46c-2.216.212-4.441.368-6.66.5-.037-.182-.083-.364-.121-.538 2.254-.013 4.525-.019 6.781.038Zm-1.556-23.745c-1.211-.015-2.424-.004-3.636-.051 1.176-.119 2.36-.2 3.535-.288.036.111.074.229.101.339Zm5.931 28.168c-2.716.261-5.444.427-8.164.584-.604.037-1.2.072-1.804.101-.056-.229-.112-.457-.16-.687l1.944-.018c2.723-.03 5.456-.046 8.184.02Zm-17.389-65.047c-1.588.151-3.185.277-4.774.379-.022-.142-.036-.277-.056-.42 1.609-.007 3.22 0 4.83.041Zm-1.091 3.449c-1.072.1-2.146.184-3.22.261-.01-.102-.03-.206-.041-.308 1.083.001 2.177.02 3.261.047Z"/>
  <path fill="#4B6E80" d="m455.166 145.795-11.942.693 11.961 3.844a46.645 46.645 0 0 1-3.281 15.489l-12.65-1.598 10.499 6.26a48.965 48.965 0 0 1-2.934 4.891l-7.544-1.283 5.334 4.328c-2.119 2.731-4.615 5.445-7.527 8.109l-7.092-4.287 5.125 6.022c-4.802 4.123-10.642 8.122-17.686 11.934l21.761-93.945s5.814 6.828 10.444 17.328l-4.904 1.401 5.969 1.138a70.011 70.011 0 0 1 2.164 6.3l-11.923 2.319 13.243 3.091c.508 2.572.852 5.232.983 7.966Z"/>
  <path fill="#41626C" d="m484.85 183.53-5.648-3.933 4.138 6.39a36.711 36.711 0 0 1-6.157 7.083l-7.525-8.035 3.489 11.144a38.477 38.477 0 0 1-4.794 2.707l-5.111-5.869 1.702 7.327c-2.762 1.032-5.82 1.872-9.22 2.439l-4.999-11.3-.012 11.931a67.652 67.652 0 0 1-5.082.251l-2.107-7.739-2.274 7.674c-6.835-.269-14.625-1.388-23.503-3.597l72.327-33.462s-.278 8.26-5.224 16.989Z"/>
  <path fill="#41626C" d="M417.848 200.116c-10.218-4.231-18.782-8.915-25.933-13.897l5.706-8.171-8.825 5.923a92.593 92.593 0 0 1-7.296-6.059l5.591-8.86-9.152 5.385a76.807 76.807 0 0 1-4.945-5.612l11.569-11.258-16.336 4.538a66.35 66.35 0 0 1-6.719-14.149l-.001-.007 16.171-12.215-18.183 4.903a61.298 61.298 0 0 1-.735-3.973l9.91-4.038-10.382.321a73.127 73.127 0 0 1-.304-9.831l15.249-3.356-14.893-1.842c1.568-15.542 7.232-26.485 7.232-26.485l52.276 108.683Z"/>
  <path fill="#4B6E80" d="m387.627 200.893-.244-9.106-3.759 8.736-.007.002a117.968 117.968 0 0 1-4.511-.578l1.018-6.806-3.432 6.428c-2.461-.416-4.933-.92-7.397-1.528l2.317-8.604-6.543 7.448c-4.613-1.385-9.122-3.17-13.333-5.464l6.694-12.619-10.806 10.154c-3.232-2.14-6.233-4.633-8.876-7.537l7.299-10.817-10.109 7.427a42.392 42.392 0 0 1-3.355-5.28l12.31-12.957-15.524 5.37a51.31 51.31 0 0 1-1.901-8.232l10.586-5.165L327 152.862c-.477-5.768-.209-12.199.946-19.382 0 0 40.203 53.832 89.867 66.62 0 0-13.547 2.071-30.186.793Z"/>
  <path fill="#41626C" d="m401.069 215.476-3.382-2.97 2.3 3.616a42.985 42.985 0 0 1-3.071 1.629l-3.358-4.438.749 5.568a37.456 37.456 0 0 1-4.563 1.478l-2.796-8.517-.78 9.222a35.16 35.16 0 0 1-10.131.011l-1.336-6.841-1.174 6.393a40.383 40.383 0 0 1-4.08-1.101l1.187-8.452-4.22 7.339a50.6 50.6 0 0 1-6.86-3.463l1.887-5.601-3.413 4.649a55.247 55.247 0 0 1-2.254-1.542l1.493-3.272-2.863 2.271c-5.753-4.364-9.128-8.502-9.128-8.502 28.651 11.205 72.63-2.975 72.63-2.975-5.692 7.116-11.346 12.127-16.837 15.498Z"/>
  <path fill="#4B6E80" d="m464.352 220.757-2.169-3.292.629 3.898a31.835 31.835 0 0 1-4.32 1.23l-1.426-6.343-.767 6.731a29.792 29.792 0 0 1-6.827.159l-.806-6.415-2.55 5.927a32.052 32.052 0 0 1-4.526-1.281l1.218-5.417-3.035 4.698a35.24 35.24 0 0 1-3.461-1.683l1.937-6.651-5.546 4.428a50.305 50.305 0 0 1-3.399-2.549l2.268-3.442-3.605 2.314c-3.742-3.251-7.584-7.44-11.467-12.746 0 0 34.167 15.669 58.736 13.426 0 0-4.096 4.197-10.884 7.008Z"/>
  <path fill="#4B6E80" d="m418.669 218.737-4.132-1.149 3.651 2.859a19.102 19.102 0 0 1-1.452 3.357l-3.416-.858 2.711 2.015c-.309.485-.645.94-.997 1.378l-4.565-2.334 3.107 3.906c-1.306 1.252-2.748 2.231-4.212 3l-3.107-2.36 1.52 3.095c-.738.311-1.47.572-2.188.796l-2.18-2.777.88 3.135c-4.159 1.039-7.546.801-7.546.801 15.048-11.248 20.929-33.603 20.929-33.603 2.024 7.992 2.101 14.093.997 18.739Z"/>
  <path fill="#BAD7F0" d="M431.229 213.712c-1.121 5.837-6.763 9.661-12.601 8.538-5.837-1.122-9.659-6.764-8.538-12.601 1.123-5.837 6.765-9.66 12.602-8.538 5.838 1.123 9.659 6.764 8.537 12.601Z"/>
  <path fill="#000" fill-opacity=".2" d="M431.229 213.712c-1.121 5.837-6.763 9.66-12.601 8.538-5.837-1.123-9.659-6.765-8.538-12.602 1.123-5.837 6.765-9.659 12.602-8.537 5.838 1.123 9.659 6.765 8.537 12.601Z"/>
  <path fill="#BAD7F0" d="M423.909 202.572c-1.122 5.837-6.763 9.661-12.601 8.538-5.837-1.121-9.66-6.764-8.538-12.601 1.122-5.837 6.764-9.661 12.602-8.538 5.838 1.122 9.658 6.764 8.537 12.601Z"/>
  <path fill="#000" fill-opacity=".3" d="M423.909 202.573c-1.122 5.837-6.763 9.66-12.601 8.537-5.837-1.121-9.66-6.764-8.538-12.601 1.122-5.837 6.764-9.66 12.602-8.537 5.838 1.122 9.658 6.764 8.537 12.601Z"/>
  <path fill="#BAD7F0" d="M434.844 202.7c-1.122 5.837-6.764 9.659-12.602 8.538-5.837-1.123-9.659-6.763-8.538-12.601 1.124-5.837 6.765-9.661 12.602-8.538 5.838 1.122 9.66 6.764 8.538 12.601Z"/>
  <path fill="#000" fill-opacity=".4" d="M434.844 202.701c-1.122 5.837-6.764 9.659-12.602 8.538-5.837-1.123-9.659-6.764-8.538-12.602 1.124-5.837 6.765-9.66 12.602-8.537 5.838 1.122 9.66 6.764 8.538 12.601Z"/>
  <path fill="#BAD7F0" d="M83.826 194.25s-.354 58.62-20.875 121.038c-11.835 35.994-36.03 73.157-56.195 101.317l32.745.554s29.438-69.499 36.221-100.847c15.12-69.89 10.584-123.021 10.584-123.021l-2.48.959Z"/>
  <path fill="#000" fill-opacity=".3" d="M83.826 194.25s-.354 58.619-20.875 121.037c-11.835 35.994-36.03 73.158-56.195 101.318l32.745.554s29.438-69.499 36.221-100.847c15.12-69.89 10.585-123.022 10.585-123.022l-2.48.96Z"/>
  <path fill="#BAD7F0" d="M48.4 395.46c-.1.254-.208.507-.3.76a314.918 314.918 0 0 1-4.76-.16c-2.721-.11-5.451-.227-8.171-.441 2.725-.121 5.458-.146 8.182-.164 1.68-.02 3.368-.007 5.048.005Zm-2.678-12.11c-1.363.065-2.726.081-4.089.13l-4.085.035c-2.732.033-5.457-.005-8.18-.043l-.23-.004c.172-.26.337-.529.5-.788 2.636.052 5.279.104 7.92.229l4.082.173c1.36.094 2.722.157 4.082.268Zm-4.147-5.366c-1.362.063-2.724.08-4.087.12l-4.086.043c-.318.004-.637.005-.955.008.13-.213.261-.425.393-.637.19.003.382.006.573.017l4.081.181c1.36.094 2.722.156 4.081.268Zm24.761-30.147c-.058.158-.11.309-.167.468a153.13 153.13 0 0 1-5.41-.324c1.858-.08 3.713-.119 5.577-.144Zm2.44-7.23c-.076.237-.16.477-.243.714a157.7 157.7 0 0 1-2.666-.094c-2.723-.11-5.444-.236-8.164-.45 2.726-.113 5.45-.145 8.174-.163.964-.007 1.936-.007 2.899-.007Zm8.684-32.688c-.026.143-.052.295-.087.436a143.79 143.79 0 0 1-4.948-.297 206.35 206.35 0 0 1 5.035-.139Zm3.984-32.051c-1.364.065-2.726.083-4.09.131l-3.75.04c.043-.198.085-.399.129-.588l3.628.157c1.361.087 2.722.149 4.083.26Zm4.268-29.147c-.009.08-.011.168-.02.247-.812-.045-1.623-.107-2.435-.168a124.16 124.16 0 0 1 2.455-.079Zm-7.315 25.161c-1.307.065-2.621.084-3.928.118.026-.127.052-.255.078-.375 1.281.086 2.57.147 3.85.257Z"/>
  <path fill="#41626C" d="m41.668 158.202 9.698-2.689-8.483 6.309a39.275 39.275 0 0 0 6.82 11.444l9.641-4.709-6.66 7.837a40.895 40.895 0 0 0 3.665 3.098l5.658-3.071-3.073 4.896c2.43 1.599 5.154 3.083 8.195 4.414l4.485-5.341-2.446 6.189c4.944 1.978 10.68 3.577 17.325 4.7l-42.84-68.905s-2.777 7.016-3.613 16.635l4.287-.215-4.445 2.527a58.627 58.627 0 0 0-.013 5.605l10.126-1.392-9.708 6.058a45.905 45.905 0 0 0 1.38 6.61Z"/>
  <path fill="#4B6E80" d="m28.123 194.6 3.57-4.559-1.748 6.163a31.033 31.033 0 0 0 6.702 4.174l4.067-8.323-.052 9.826c1.423.422 2.932.758 4.526.992l2.658-5.985.442 6.315a41.64 41.64 0 0 0 8.018-.317l1.227-10.325 2.96 9.593a56.827 56.827 0 0 0 4.15-1.053l-.218-6.745 3.725 5.609c5.432-1.906 11.418-4.73 18.013-8.701l-66.441-9.036s2.265 6.575 8.4 12.372Z"/>
  <path fill="#4B6E80" d="M86.147 191.38c6.68-6.479 11.923-12.8 15.97-18.914l-7-4.619 8.739 1.892a78.1 78.1 0 0 0 3.828-7.002l-7.122-5.195 8.828 1.372a65.33 65.33 0 0 0 2.126-5.923l-12.54-5.216 14.182-1.519a55.842 55.842 0 0 0 .865-13.15l-.001-.006-16.438-4.534 15.742-1.809a50.14 50.14 0 0 0-.658-3.334l-9.005-.085 8.22-2.97a61.627 61.627 0 0 0-2.812-7.783l-12.969 2.108 11.078-6.063c-6.049-11.669-13.876-18.468-13.876-18.468L86.148 191.38Z"/>
  <path fill="#41626C" d="m110.443 183.912-2.254-7.326 5.347 5.955.006-.001a99.476 99.476 0 0 0 3.441-1.674l-2.643-5.151 4.465 4.202a84.889 84.889 0 0 0 5.487-3.208l-4.161-6.237 7.219 4.18c3.306-2.344 6.422-4.98 9.161-7.942l-8.729-8.26 11.345 5.189c2.001-2.575 3.724-5.368 5.051-8.395l-8.728-6.66 10.056 3.202a35.33 35.33 0 0 0 1.255-5.111l-13.297-7.021 13.82.107a43.053 43.053 0 0 0-.698-7.073l-9.828-1.272 9.109-2.098c-1.171-4.727-3.114-9.783-5.967-15.198 0 0-17.579 53.728-53.737 77.275 0 0 11.358-1.99 24.28-7.483Z"/>
  <path fill="#4B6E80" d="m103.759 198.864 1.848-3.305-.808 3.515a36.45 36.45 0 0 0 2.893.428l1.416-4.463.97 4.625c1.392.053 2.739.009 4.034-.108l-.175-7.541 3.21 7.095a29.578 29.578 0 0 0 8.038-2.838l-.863-5.8 2.727 4.74a33.634 33.634 0 0 0 2.926-2.02l-3.315-6.371 5.409 4.636a42.569 42.569 0 0 0 4.468-4.675l-3.071-3.911 4.013 2.729a48.33 48.33 0 0 0 1.354-1.856l-2.104-2.176 2.909.995c3.336-5.077 4.851-9.306 4.851-9.306-19.575 16.936-58.438 18.047-58.438 18.047 6.514 4.046 12.405 6.43 17.708 7.56Z"/>
  <path fill="#41626C" d="m53.39 218.923.978-3.169.407 3.296c1.206.079 2.472.081 3.78-.02l-.338-5.46 2.2 5.257a25.001 25.001 0 0 0 5.554-1.475l-.855-5.372 3.453 4.189c1.12-.59 2.236-1.28 3.354-2.097l-2.255-4.091 3.555 3.083c.81-.653 1.61-1.379 2.4-2.173l-3.128-4.918 5.522 2.275a42.564 42.564 0 0 0 2.148-2.858l-2.642-2.248 3.457 1.022c2.26-3.505 4.38-7.792 6.27-12.991 0 0-23.924 20.685-44.3 24.643 0 0 4.294 2.429 10.44 3.107Zm41.932-5.258 3.738-3.328-2.356 4.872a22.215 22.215 0 0 0 3.247 2.773l3.138-2.654-1.805 3.505c.573.35 1.159.653 1.752.932l3.584-4.791-1.248 5.689c2.012.641 4.028.925 5.957.979l2.042-4.068-.002 4.024a28.774 28.774 0 0 0 2.702-.289l.858-4.031.688 3.736c4.893-1.047 8.319-3.035 8.319-3.035-21.549-4.057-39.197-24.464-39.197-24.464 1.984 9.415 5.04 15.848 8.583 20.15Z"/>
  <path fill="#BAD7F0" d="M76.621 206.608a8.137 8.137 0 1 0 15.976-3.1 8.137 8.137 0 0 0-15.976 3.1Z"/>
  <path fill="#000" fill-opacity=".2" d="M76.622 206.608a8.136 8.136 0 1 0 6.438-9.536 8.135 8.135 0 0 0-6.438 9.536Z"/>
  <path fill="#BAD7F0" d="M82.143 198.178a8.136 8.136 0 0 0 9.536 6.438 8.136 8.136 0 1 0-9.536-6.438Z"/>
  <path fill="#000" fill-opacity=".3" d="M82.143 198.178a8.136 8.136 0 0 0 9.536 6.438 8.136 8.136 0 1 0-9.536-6.438Z"/>
  <path fill="#BAD7F0" d="M73.877 198.291a8.136 8.136 0 1 0 15.974-3.1 8.136 8.136 0 0 0-15.974 3.1Z"/>
  <path fill="#000" fill-opacity=".4" d="M73.877 198.291a8.136 8.136 0 1 0 15.974-3.1 8.136 8.136 0 0 0-15.974 3.1Z"/>
  <path fill="#000" d="M446.108 400.868c-2.001-.269-4.237-.534-5.663-2.105-1.315-1.448-2.368-3.455-1.819-5.456.157-.57.351-.906.931-.553.884.541 1.436 1.712 1.967 2.557.689 1.099 1.427 2.134 2.31 3.087.615.663 1.296 1.262 1.927 1.91.081.079.16.163.237.247.03.029.06.062.089.094a.56.56 0 0 0 .056.012.1.1 0 0 1 .075.056.107.107 0 0 1 .01.036c.001.062-.042.126-.12.115Z"/>
  <path fill="#fff" d="M446.229 400.754c-1.742-.329-3.642-.571-4.837-1.996-.552-.659-.97-1.453-1.285-2.248-.146-.364-.583-1.447-.266-1.795.574-.629 2.165 2.604 2.406 2.929.906 1.216 2.154 2.058 3.516 2.665.081.079.158.161.235.246-.979-.393-1.905-.921-2.707-1.608-1.113-.952-1.617-2.163-2.412-3.35-.171-.258-.677-1.108-.995-.687-.208.278.212 1.338.303 1.566.301.753.7 1.504 1.214 2.135 1.184 1.455 3.07 1.734 4.818 2.106a.106.106 0 0 1 .01.037Z"/>
  <path fill="#000" d="M446.997 402.269c-.031.073-.058.147-.088.221 0 .003-.002.004-.004.006a.053.053 0 0 1-.042.035c-.042.009-.089-.018-.097-.058-.006-.014-.002-.03.007-.048l.014-.03.033-.062-.003-.007c.001-.007-.001-.016-.002-.024-.127-1.376-.03-2.765-.176-4.145-.139-1.317-.37-2.624-.405-3.949-.023-.836.108-4.988 1.809-4.177.753.359 1.1 1.598 1.283 2.335.245.989.278 2.019.16 3.028-.292 2.495-1.584 4.591-2.489 6.875Z"/>
  <path fill="#fff" d="M448.431 397.317c.181-.921.271-1.862.185-2.8-.028-.326-.161-1.882-.673-1.932-.329-.035-.496.599-.56.807-.267.883-.132 1.855-.107 2.763.055 1.852-.054 3.695-.27 5.529-.034.112-.073.225-.105.337-.031.093-.057.187-.086.28-.008.034-.02.064-.028.097l-.023.075c.01.04.058.067.097.058.023-.072.048-.143.07-.217-.007.063-.017.121-.025.184 0-.003.003-.003.004-.007l.068-.181.017-.042c.018-.101.032-.203.045-.302.499-1.541 1.079-3.06 1.391-4.649Zm-1.303 3.991c.132-1.071.209-2.148.238-3.229.024-.87.009-1.738-.027-2.608-.021-.492-.043-.983.017-1.474.048-.372.335-1.731.895-.763.404.703.303 2.033.235 2.797-.073.851-.253 1.686-.479 2.51-.258.932-.576 1.849-.879 2.767Z"/>
  <path fill="#000" d="m447.136 407.906-.002-.001c-.035.001-.07-.002-.075-.002-1.802-.404-4.253-.647-5.558-2.108-.965-1.079-1.762-3.022-1.155-4.45.688-1.609 2.612.792 3.129 1.381 1.315 1.5 3.723 5.034 3.713 5.093l.017.037.002.006c.012.032-.029.042-.071.044Z"/>
  <path fill="#fff" d="M447.206 407.863c-.093-.083-.187-.164-.281-.25a46.058 46.058 0 0 1-3.064-3.011c-.248-.264-1.982-2.434-2.401-1.836-.252.363.285 1.279.455 1.586a5.62 5.62 0 0 0 1.169 1.468c1.083.962 2.524 1.376 3.833 1.974.062.024.123.054.185.084a.193.193 0 0 0 .031.027l.003.001c.041-.003.081-.013.07-.043Zm-3.418-1.649a5.76 5.76 0 0 1-1.388-1.328c-.254-.342-1.145-1.614-.781-2.012.191-.211.295-.062.561.129.122.088.238.185.348.286.27.253.51.536.755.809a42.499 42.499 0 0 0 3.625 3.614c-1.032-.523-2.162-.853-3.12-1.498Z"/>
  <path fill="#000" d="M451.094 404.729c-.818 2-2.251 3.711-4.044 4.908a.115.115 0 0 1-.037.014c-.037.007-.073-.018-.088-.051-.017-.032-.012-.075.027-.104.036-.023.072-.05.108-.075.724-2.42 1.476-4.821 2.153-7.255.159-.574 1.252-4.211 2.29-3.41.642.494.428 2.025.371 2.719a10.962 10.962 0 0 1-.78 3.254Z"/>
  <path fill="#fff" d="M451 401.303c-.025-.216-.097-.448-.353-.342-.491.201-.965 1.919-1.122 2.39-.646 1.94-1.444 3.777-2.259 5.644l-.205.476-.135.128c.016.036.051.057.086.051.009-.015.015-.033.024-.047.06-.057.124-.115.182-.175v-.003a12.884 12.884 0 0 0 2.399-3.198c.398-.751.712-1.537.947-2.353.218-.75.54-1.782.436-2.571Zm-3.765 7.988c-.027.031-.058.057-.084.088.032-.065.065-.126.095-.19.713-1.406 1.363-2.856 1.887-4.346.267-.757.484-1.528.777-2.273.122-.315.442-1.221.74-1.327.287-.106.227.258.22.472-.008.154-.055.429-.075.571-.419 2.706-1.683 5.091-3.56 7.005Z"/>
  <path fill="#000" d="m446.441 415.016-.364-.062c.049-.321.097-.642.142-.962.178-1.297.346-2.598.49-3.901a47.08 47.08 0 0 0 .208-2.296c.001-.061.005-.121.009-.184.005-.062.006-.128.008-.193.081-1.661.007-3.31-.438-4.959a25.204 25.204 0 0 0-.494-1.606c-.018-.052-.038-.102-.053-.152-.005-.013-.009-.027-.017-.041-.015-.053-.035-.105-.055-.159-.014-.041-.028-.077-.043-.117-.588-1.624-1.309-3.202-1.976-4.781a85.004 85.004 0 0 1-.57-1.361.433.433 0 0 1-.034-.082.84.84 0 0 1-.043-.097c-.837-2.005-1.653-4.023-2.539-6.001-.035-.073.083-.112.115-.039.602 1.313 1.236 2.614 1.863 3.921.084.172.166.348.251.52.166.346.329.688.492 1.033.326.69.646 1.379.955 2.076.871 1.952 1.792 3.931 2.421 5.985.046.153.09.307.133.463.028.097.056.192.077.288.032.11.061.225.089.336.491 1.99.452 3.946.244 5.933-.013.138-.028.278-.045.418l-.02.194a1.095 1.095 0 0 0-.012.102c-.008.043-.012.087-.017.133v.002c-.006.032-.008.067-.014.101-.013.118-.031.236-.044.357-.17 1.3-.356 2.595-.548 3.888-.06.412-.116.827-.171 1.243Z"/>
  <path fill="#000" d="M439.589 389.775c-.766-1.507-1.569-4.485.143-5.67.687-.478 1.517-.396 2.105.201.678.693.846 1.811.946 2.731.272 2.456.309 4.917.757 7.355.013.015.037.208.049.262.008.05-.071.057-.08.007-.016-.079-.029-.158-.044-.238-1.389-1.42-2.968-2.859-3.876-4.648Z"/>
  <path fill="#fff" d="M443.553 394.398c-.008-.012-.011-.029-.019-.044a16.96 16.96 0 0 1-.634-1.889c-.362-1.333-.578-2.704-.774-4.078-.074-.529-.37-3.111-1.415-2.281-.441.349-.512 1.09-.541 1.606-.05.828.098 1.652.37 2.435.547 1.554 1.589 2.838 2.714 4.014.05.056.102.109.153.162a4.946 4.946 0 0 0 .044.112c.005.01.01.018.018.023.029.02.072.01.083-.021a.048.048 0 0 0 .001-.039Zm-.342-.336c-.899-.998-1.759-2.064-2.321-3.289a7.081 7.081 0 0 1-.594-2.016 5.87 5.87 0 0 1-.043-.937c.008-.231.03-.47.078-.696.102-.503.406-1.02.713-1.021.381-.005.467.232.639.699.059.156.104.318.143.481.098.407.157.823.213 1.235.096.686.195 1.368.32 2.049.082.462.178.922.291 1.377.192.783.428 1.553.728 2.304a7.579 7.579 0 0 1-.167-.186Z"/>
  <path fill="#41626C" d="M469.168 383.938c-.411 1.946-.952 3.862-1.514 5.768-.317 1.082-.648 2.16-.965 3.245-.348 1.193-.813 2.399-.588 3.652.001.001.006.001.006.003a.877.877 0 0 1-.002.171.079.079 0 0 1-.015.019c-.066.074-.222.06-.25-.066-.007-.029-.01-.057-.016-.084-.005-.009-.012-.017-.017-.027-.183-.297-.27-.844-.338-1.056a26.102 26.102 0 0 1-.736-2.927c-.394-2.02-.561-4.088-.441-6.147a20.78 20.78 0 0 1 1.036-5.416c.471-1.399 1.15-3.487 2.309-4.49 1.048-.904 1.717.745 1.927 1.57.472 1.873-.008 3.943-.396 5.785Z"/>
  <path fill="#fff" d="M467.762 379.616c-.718-.061-1.435 2.211-1.775 3.19a19.985 19.985 0 0 0-1.022 4.772c-.277 2.927.05 5.858.758 8.698.027.113.054.23.085.344.004.011.012.018.016.028.007.025.01.052.016.08.027.126.186.146.252.068a10.017 10.017 0 0 1-.048-.733 10.22 10.22 0 0 1-.009-.654c.004-2.369.545-4.748 1.041-7.058.579-2.712 1.636-8.65.686-8.735Zm-1.898 16.244c.008.322.032.643.065.959a35.411 35.411 0 0 1-.156-.703c-.546-2.523-.858-5.095-.712-7.678.077-1.448.302-2.892.683-4.296.206-.756.454-1.493.749-2.213.127-.303.812-2.195 1.247-2.062.305.095.23 1.847.231 1.884-.011.348-.04.7-.075 1.051-.07.722-.182 1.439-.302 2.151-.27 1.546-.626 3.08-.944 4.618-.427 2.049-.852 4.184-.786 6.289Z"/>
  <path fill="#41626C" d="M480.003 390.329c-1.535 2.457-3.919 4.236-6.353 5.727-1.305.799-2.646 1.536-3.967 2.303-1.107.641-2.438 1.308-3.445 2.214a5.291 5.291 0 0 0-.884.992c-.019.023-.042.034-.066.033-.017.038-.031.074-.052.11-.013.025-.055.017-.05-.015.007-.041.019-.086.025-.126.001-.005.001-.006.004-.01-.021-.03-.025-.064 0-.099a.156.156 0 0 1 .026-.039c.008-.042.017-.084.027-.125.63-2.972 2.988-5.828 4.96-7.988 1.961-2.153 4.336-4.019 7.167-4.843.713-.206 2.341-.805 2.994-.184.597.566-.06 1.53-.386 2.05Z"/>
  <path fill="#fff" d="M477.966 390.168c-.573-.679-2.545.711-3.037 1.032-1.496.973-2.826 2.172-4.126 3.382-2.129 1.997-4.056 4.096-5.462 6.627l-.001.005c-.025.026-.045.053-.072.078-.013.045-.02.084-.027.126a.175.175 0 0 0-.028.038c-.025.034-.019.073.002.102.034-.033.066-.068.099-.098a17.28 17.28 0 0 1 .922-.886c1.875-1.706 4.036-3.092 6.125-4.549 1.449-1.014 2.871-2.098 4.105-3.365.317-.322 1.981-1.922 1.5-2.492Zm-.692 1.326c-1.773 2.446-4.624 4.1-7.068 5.784-1.655 1.135-3.284 2.327-4.685 3.75 1.345-2.228 3.171-4.182 5.038-5.952 1.077-1.022 2.179-2.028 3.364-2.922.635-.484 1.301-.956 2.005-1.343.318-.176.954-.499 1.329-.578.894-.182.32.841.017 1.261Z"/>
  <path fill="#41626C" d="M464.417 407.645c-.028.043-.086.066-.142.064.011.019.022.032.03.049a.047.047 0 0 1-.011.064c-.019.016-.046.018-.065-.006-2.224-2.684-4.315-5.891-5.25-9.275-.392-1.427-.587-2.913-.502-4.394.059-1.013.177-3.051 1.104-3.714 1.866-1.332 2.918 5.08 3.075 6.046.284 1.764.42 3.547.67 5.313.274 1.934.691 3.843 1.104 5.752a.133.133 0 0 1-.013.101Z"/>
  <path fill="#fff" d="M464.417 407.642c-.082-.167-.16-.334-.233-.506-1.273-2.782-2.023-5.602-2.419-8.702-.19-1.493-.34-3.042-.783-4.487-.112-.36-.432-1.737-1.065-1.109-.327.326-.296 2.883-.233 3.547.147 1.518.537 3.006 1.046 4.434a30.619 30.619 0 0 0 3.44 6.817c.041.063.081.127.122.186.019-.012.031-.039.014-.064-.008-.014-.02-.03-.028-.049.055-.001.113-.023.139-.067Zm-3.074-5.694c-.572-1.392-1.047-2.842-1.317-4.328a15.282 15.282 0 0 1-.217-1.791c-.024-.471-.044-.947.001-1.413.107-1.145.223-1.435.419-1.459.12-.013.274.123.554.838.178.452.287.959.371 1.436.121.692.218 1.384.307 2.082.18 1.392.342 2.791.626 4.164.4 1.962 1.045 3.9 1.952 5.693-1.033-1.667-1.949-3.391-2.696-5.222Z"/>
  <path fill="#41626C" d="M472.735 402.286c-.336 1.196-1.079 2.251-1.88 3.184-1.612 1.872-3.6 3.375-5.339 5.128-.259.261-.513.528-.761.804-.025.03-.243.431-.238.398.001-.009.043-.164.117-.428l.002-.003c.366-1.3 1.534-5.219 2.742-7.172.744-1.2 1.594-2.426 2.613-3.412.489-.467 1.633-1.472 2.404-1.167.829.33.516 2.045.34 2.668Z"/>
  <path fill="#fff" d="M471.517 401.37c-.8-.597-3.311 3.111-3.645 3.589a24.818 24.818 0 0 0-2.99 5.725 19.27 19.27 0 0 0-.247.687c-.073.266-.119.419-.12.428.014.001.216-.365.242-.398.041-.048.086-.095.127-.142.207-.227.421-.447.631-.659 1.066-1.337 2.159-2.657 3.199-4.018.751-.981 1.448-1.994 2.034-3.086.131-.247 1.119-1.865.769-2.126Zm-.335 1.077c-1.489 3.283-4.17 5.744-6.298 8.591l-.104.139c.036-.086.066-.174.101-.259a28.208 28.208 0 0 1 2.407-4.774c.58-.918 1.22-1.803 1.908-2.646.366-.443.741-.969 1.165-1.36.19-.177.731-.642.893-.541.232.14.025.632-.072.85Z"/>
  <path fill="#41626C" d="M483.591 375.062c-3 5.557-9.819 7.685-13.147 13.005l-.017.028c-.102.162-.199.327-.294.496-.047.082-.151.068-.192.013-.019-.025-.023-.058-.003-.096.021-.041.045-.081.07-.12.74-3.433 2.467-6.883 4.384-9.802 1.669-2.538 3.856-4.858 6.712-6.027.703-.289 2.082-.908 2.788-.271.75.673.071 2.09-.301 2.774Z"/>
  <path fill="#fff" d="M481.308 375.118c-.298-.264-.807-.018-1.094.101a9.67 9.67 0 0 0-2.015 1.14c-1.292.921-2.383 2.099-3.345 3.357-1.615 2.118-3.141 4.464-4.198 6.956a19.43 19.43 0 0 0-.648 1.717c-.024.071-.044.143-.067.216.041.053.144.067.192-.013.088-.167.185-.319.282-.482.005-.012.014-.025.026-.044.594-1.104 1.264-2.155 2.069-3.137 1.238-1.511 2.724-2.807 4.14-4.141.561-.522 5.697-4.767 4.658-5.67Zm-.513 1.3c-.879 1.292-2.156 2.298-3.286 3.362-1.141 1.077-2.294 2.138-3.418 3.231a21.883 21.883 0 0 0-2.452 2.815 17.044 17.044 0 0 0-1.61 2.662c.343-.961.763-1.897 1.225-2.805a.09.09 0 0 1 .023-.031c.832-1.618 1.829-3.162 2.847-4.645l.036-.058c.907-1.313 1.908-2.58 3.107-3.642.652-.575 1.355-1.1 2.122-1.514.872-.464 1.623-.751 1.806-.468.121.195-.139.716-.4 1.093Z"/>
  <path fill="#41626C" d="M474.246 381.081a195.45 195.45 0 0 0-2.606 4.745c-.405.748-.804 1.496-1.198 2.241-.012.018-.023.03-.029.043-.142.268-.29.542-.432.811-1.302 2.438-2.718 4.928-3.609 7.554-.465 1.372-.763 2.82-.969 4.284-.018.151-.041.301-.064.451v.004c-.007.082-.018.164-.025.247a1.22 1.22 0 0 0-.016.137c-.154 1.263-.241 2.533-.324 3.768-.113 1.726-.113 3.447-.093 5.166-.004.05-.004.1.001.151-.002.079 0 .156-.003.234l.004.122c-.001.073.003.147.001.22.008.552.012 1.106.011 1.663l-.526-.045c-.208-1.685-.253-3.423-.205-5.136-.001-.036.003-.068.006-.105a8.322 8.322 0 0 1 .013-.5 84.622 84.622 0 0 1 .108-2.085c.189-2.82.471-5.749 1.327-8.457a9.656 9.656 0 0 1 .105-.318c.013-.053.03-.106.049-.16l.091-.255c.054-.153.114-.304.172-.451l.052-.133c.926-2.347 2.266-4.585 3.496-6.758a92.043 92.043 0 0 1 1.074-1.847c.197-.329.4-.661.598-.989a.074.074 0 0 1 .021-.03c.941-1.554 1.914-3.088 2.847-4.647.042-.07.166.001.123.075Z"/>
  <path fill="#000" d="M12.508 400.906c-2-.268-4.237-.534-5.662-2.105-1.316-1.448-2.368-3.454-1.818-5.455.157-.57.35-.907.931-.553.883.541 1.435 1.711 1.966 2.557.69 1.099 1.427 2.134 2.31 3.086.615.663 1.296 1.263 1.928 1.911.081.079.16.162.236.247.03.029.06.062.09.094.018.004.037.009.056.012.039.007.062.03.074.056.005.011.01.023.009.036.003.061-.042.126-.12.114Z"/>
  <path fill="#fff" d="M12.628 400.792c-1.742-.328-3.641-.571-4.836-1.995-.552-.66-.97-1.453-1.286-2.249-.145-.364-.583-1.447-.266-1.794.575-.63 2.165 2.604 2.406 2.929.907 1.216 2.154 2.057 3.516 2.664.081.079.16.161.236.246-.979-.392-1.905-.921-2.708-1.608-1.113-.952-1.616-2.163-2.412-3.35-.17-.257-.677-1.108-.993-.686-.21.277.21 1.337.301 1.565.302.754.7 1.504 1.214 2.135 1.186 1.456 3.07 1.734 4.819 2.107a.08.08 0 0 1 .009.036Z"/>
  <path fill="#000" d="M13.397 402.307c-.031.074-.058.148-.087.222 0 .003-.004.003-.005.006a.053.053 0 0 1-.042.034c-.042.01-.09-.018-.098-.058-.005-.013-.001-.03.008-.047l.014-.03c.01-.021.023-.042.032-.063l-.003-.006v-.025c-.128-1.375-.031-2.765-.177-4.145-.139-1.316-.37-2.624-.405-3.949-.024-.835.109-4.988 1.81-4.176.752.359 1.099 1.598 1.281 2.335.246.988.278 2.019.16 3.027-.292 2.496-1.582 4.591-2.488 6.875Z"/>
  <path fill="#fff" d="M14.832 397.355c.18-.921.271-1.862.184-2.8-.027-.325-.16-1.882-.672-1.932-.33-.035-.495.599-.56.808-.268.883-.133 1.855-.107 2.763.054 1.852-.055 3.695-.27 5.529-.035.111-.073.225-.105.337-.032.093-.057.187-.086.279l-.03.098a3.696 3.696 0 0 0-.021.075c.01.039.058.067.098.057l.068-.216c-.007.063-.016.121-.025.183 0-.003.003-.002.004-.006l.07-.181a.614.614 0 0 1 .017-.042c.017-.101.03-.204.044-.303.498-1.541 1.078-3.06 1.391-4.649Zm-1.304 3.992c.133-1.071.21-2.149.239-3.229.025-.871.008-1.739-.027-2.608-.02-.493-.044-.984.017-1.474.048-.373.334-1.732.895-.764.403.703.303 2.034.235 2.798-.073.851-.253 1.686-.48 2.509-.258.933-.576 1.85-.879 2.768Z"/>
  <path fill="#000" d="M13.535 407.944h-.002a.52.52 0 0 1-.075-.003c-1.8-.403-4.251-.646-5.558-2.107-.965-1.079-1.762-3.022-1.155-4.451.69-1.609 2.613.793 3.13 1.381 1.315 1.5 3.721 5.034 3.711 5.093.005.013.012.025.018.037l.003.007c.011.032-.03.041-.072.043Z"/>
  <path fill="#fff" d="M13.606 407.901c-.093-.082-.187-.163-.28-.249a46.047 46.047 0 0 1-3.065-3.012c-.247-.263-1.981-2.433-2.4-1.835-.253.362.284 1.279.454 1.586a5.686 5.686 0 0 0 1.17 1.468c1.082.962 2.523 1.376 3.833 1.974.063.024.123.054.184.083a.22.22 0 0 0 .031.028h.003c.042-.003.081-.012.07-.043Zm-3.418-1.649a5.743 5.743 0 0 1-1.387-1.328c-.255-.341-1.144-1.613-.782-2.011.192-.212.296-.062.562.128.121.088.237.186.347.287.271.252.51.536.755.809a42.488 42.488 0 0 0 3.627 3.613c-1.034-.522-2.164-.852-3.122-1.498Z"/>
  <path fill="#000" d="M17.494 404.768c-.818 1.999-2.25 3.71-4.045 4.907a.1.1 0 0 1-.037.014c-.038.007-.071-.017-.088-.05a.08.08 0 0 1 .028-.104c.036-.023.072-.051.108-.076.724-2.42 1.475-4.82 2.153-7.255.159-.573 1.25-4.21 2.289-3.41.642.494.429 2.025.372 2.719a10.995 10.995 0 0 1-.78 3.255Z"/>
  <path fill="#fff" d="M17.4 401.342c-.025-.217-.097-.448-.353-.343-.49.202-.965 1.919-1.122 2.39-.646 1.941-1.444 3.777-2.259 5.645l-.205.476-.135.128c.016.035.05.056.085.05.01-.014.016-.033.025-.046.06-.057.124-.115.182-.175v-.003a12.887 12.887 0 0 0 2.4-3.199 12.25 12.25 0 0 0 .946-2.353c.218-.749.54-1.781.437-2.57Zm-3.765 7.988c-.027.03-.057.057-.085.088.034-.066.066-.126.096-.191.713-1.406 1.363-2.855 1.887-4.345.266-.757.484-1.528.776-2.274.123-.315.444-1.221.74-1.326.288-.106.23.258.221.472-.008.154-.055.429-.075.57-.418 2.707-1.683 5.092-3.56 7.006Z"/>
  <path fill="#000" d="m12.84 415.055-.364-.062c.05-.322.098-.642.142-.962.178-1.298.346-2.598.49-3.902a46 46 0 0 0 .202-2.22c.001-.025.002-.051.006-.075a3.33 3.33 0 0 1 .01-.184c.004-.062.005-.128.007-.194.081-1.661.008-3.31-.437-4.958a24.683 24.683 0 0 0-.495-1.607c-.017-.051-.037-.101-.053-.152-.005-.013-.009-.027-.016-.04-.016-.054-.036-.106-.055-.16l-.043-.117c-.59-1.623-1.309-3.202-1.977-4.781a107.094 107.094 0 0 1-.604-1.442.856.856 0 0 1-.043-.098c-.837-2.005-1.653-4.023-2.538-6-.036-.073.082-.112.114-.04.603 1.314 1.237 2.615 1.863 3.921.085.173.167.348.25.521.167.346.33.687.494 1.033.325.689.645 1.378.954 2.075.871 1.953 1.792 3.931 2.421 5.986.047.153.09.306.133.463.028.097.056.192.078.288.032.11.06.224.088.336.491 1.99.452 3.945.245 5.933-.014.137-.028.278-.046.418-.007.061-.012.129-.02.193a.922.922 0 0 0-.011.103 1.963 1.963 0 0 0-.017.133v.002c-.006.031-.008.066-.014.101-.014.117-.031.235-.045.356a205.826 205.826 0 0 1-.548 3.889c-.06.411-.116.827-.17 1.243Z"/>
  <path fill="#000" d="M5.99 389.814c-.766-1.508-1.57-4.486.142-5.67.687-.478 1.517-.396 2.104.2.68.693.846 1.811.947 2.732.272 2.455.31 4.917.756 7.354.014.016.039.209.05.262.009.05-.07.057-.08.008l-.044-.238c-1.389-1.42-2.967-2.86-3.875-4.648Z"/>
  <path fill="#fff" d="M9.954 394.437c-.008-.013-.012-.03-.018-.044-.252-.62-.46-1.247-.635-1.889-.363-1.333-.579-2.704-.775-4.079-.074-.529-.368-3.11-1.414-2.281-.44.35-.513 1.09-.541 1.606-.05.829.099 1.652.37 2.435.547 1.555 1.59 2.839 2.713 4.015.051.056.102.109.153.162l.027.067a.284.284 0 0 0 .018.045c.004.01.009.018.018.022.028.02.072.011.083-.02a.045.045 0 0 0 0-.039Zm-.343-.337c-.898-.998-1.76-2.064-2.32-3.289a7.046 7.046 0 0 1-.595-2.016 5.84 5.84 0 0 1-.042-.936c.008-.231.03-.47.078-.696.101-.503.406-1.02.713-1.022.381-.004.468.233.638.7.06.155.104.318.143.481.1.406.158.822.214 1.235.096.686.195 1.368.319 2.049.083.461.179.922.291 1.376.193.784.43 1.554.73 2.305a6.764 6.764 0 0 1-.169-.187Z"/>
  <path fill="#41626C" d="M58.32 386.346c-.769 1.834-1.66 3.613-2.57 5.38-.514 1.003-1.044 1.999-1.559 3.006-.565 1.106-1.248 2.202-1.264 3.474.003.002.007.004.007.006a.714.714 0 0 1-.035.167.07.07 0 0 1-.018.016c-.078.06-.23.019-.234-.111 0-.03.003-.059.002-.086-.003-.011-.01-.019-.013-.03-.123-.326-.108-.881-.133-1.101a25.87 25.87 0 0 1-.173-3.012c-.007-2.059.217-4.122.723-6.121a20.807 20.807 0 0 1 2.034-5.124c.726-1.286 1.785-3.21 3.11-3.978 1.202-.692 1.548 1.056 1.6 1.905.111 1.928-.748 3.872-1.477 5.609Z"/>
  <path fill="#fff" d="M57.752 381.834c-.694-.195-1.826 1.903-2.345 2.799a20.117 20.117 0 0 0-1.9 4.497c-.821 2.822-1.051 5.763-.89 8.685.005.116.01.236.02.354.002.01.008.021.01.03.002.026 0 .053 0 .082.002.129.156.177.235.113.022-.246.051-.485.09-.726.033-.22.069-.434.115-.646.448-2.326 1.428-4.561 2.349-6.736 1.079-2.555 3.233-8.189 2.316-8.452Zm-4.919 15.6c-.05.317-.088.636-.115.953-.009-.24-.017-.482-.022-.721-.061-2.58.117-5.164.745-7.674a20.514 20.514 0 0 1 1.477-4.09 18.88 18.88 0 0 1 1.153-2.034c.18-.273 1.21-2.004 1.612-1.79.282.15-.122 1.856-.127 1.893-.076.339-.172.679-.272 1.019a30.77 30.77 0 0 1-.701 2.055c-.555 1.469-1.192 2.909-1.795 4.359-.804 1.932-1.624 3.95-1.955 6.03Z"/>
  <path fill="#41626C" d="M67.76 394.657c-1.97 2.124-4.646 3.425-7.317 4.432-1.431.539-2.887 1.01-4.33 1.515-1.207.422-2.64.827-3.799 1.527a5.33 5.33 0 0 0-1.053.807.078.078 0 0 1-.071.022c-.023.034-.045.067-.073.098-.017.023-.057.007-.046-.024.014-.038.035-.081.05-.119l.004-.009a.081.081 0 0 1 .02-.098.257.257 0 0 1 .033-.033 1.75 1.75 0 0 1 .05-.118c1.178-2.8 4.028-5.161 6.371-6.914 2.33-1.744 5.015-3.132 7.95-3.409.739-.068 2.452-.35 2.977.383.48.668-.347 1.491-.766 1.94Z"/>
  <path fill="#fff" d="M65.792 394.117c-.435-.774-2.634.217-3.178.441-1.652.675-3.183 1.602-4.687 2.548-2.467 1.559-4.756 3.262-6.612 5.483v.005c-.03.019-.056.042-.086.062-.022.041-.036.08-.051.118-.013.011-.025.021-.033.032a.084.084 0 0 0-.02.102c.04-.027.078-.057.117-.079a17.722 17.722 0 0 1 1.072-.698c2.163-1.322 4.547-2.276 6.872-3.315 1.612-.723 3.213-1.522 4.664-2.534.372-.258 2.307-1.515 1.942-2.165Zm-.93 1.173c-2.2 2.068-5.31 3.158-8.028 4.353-1.84.803-3.664 1.665-5.306 2.8 1.739-1.936 3.9-3.511 6.066-4.899 1.248-.801 2.522-1.582 3.854-2.237.713-.357 1.456-.696 2.22-.943.346-.113 1.031-.311 1.414-.318.914-.011.157.887-.22 1.244Z"/>
  <path fill="#41626C" d="M49.198 408.735c-.035.037-.097.05-.15.036.006.02.014.036.02.055a.046.046 0 0 1-.024.059c-.022.012-.048.009-.063-.018-1.68-3.052-3.13-6.596-3.41-10.096-.12-1.475-.03-2.97.33-4.41.248-.983.748-2.963 1.782-3.44 2.083-.957 1.913 5.539 1.884 6.518-.051 1.784-.254 3.56-.34 5.342-.093 1.952-.044 3.906.002 5.857a.132.132 0 0 1-.031.097Z"/>
  <path fill="#fff" d="M49.199 408.734a8.95 8.95 0 0 1-.134-.544c-.728-2.971-.935-5.882-.74-8.999.093-1.503.237-3.052.074-4.555-.043-.374-.099-1.787-.838-1.29-.384.26-.832 2.778-.895 3.442-.141 1.517-.038 3.052.194 4.55a30.652 30.652 0 0 0 2.096 7.341c.028.071.057.141.085.206a.044.044 0 0 0 .027-.06c-.005-.015-.015-.031-.02-.052.056.011.116-.001.15-.039Zm-1.95-6.172c-.3-1.475-.495-2.989-.48-4.498a15.32 15.32 0 0 1 .125-1.8c.064-.467.134-.937.265-1.385.32-1.106.49-1.369.686-1.357.12.01.246.174.387.928.09.478.101.995.094 1.479a44.71 44.71 0 0 1-.09 2.104c-.084 1.401-.188 2.804-.167 4.205.024 2.003.293 4.028.847 5.96-.7-1.831-1.277-3.698-1.666-5.636Z"/>
  <path fill="#41626C" d="M58.374 405.036c-.555 1.11-1.482 2.008-2.443 2.774-1.937 1.536-4.172 2.636-6.208 4.031a23.7 23.7 0 0 0-.899.647c-.031.027-.32.38-.308.348.002-.008.072-.155.195-.399l.002-.002c.603-1.208 2.488-4.838 4.042-6.528.955-1.04 2.02-2.084 3.206-2.861.569-.367 1.882-1.14 2.58-.694.754.479.123 2.105-.167 2.684Z"/>
  <path fill="#fff" d="M57.35 403.906c-.675-.736-3.835 2.434-4.254 2.84a24.85 24.85 0 0 0-4.013 5.061c-.13.206-.25.415-.372.629-.122.246-.195.389-.197.396.013.004.28-.316.312-.345.049-.039.102-.077.15-.115.248-.184.497-.36.744-.529 1.299-1.112 2.62-2.203 3.898-3.346.921-.822 1.797-1.686 2.576-2.647.176-.218 1.451-1.622 1.155-1.944Zm-.53.994c-2.08 2.946-5.175 4.858-7.801 7.256l-.13.116c.051-.077.098-.158.148-.235a28.337 28.337 0 0 1 3.262-4.238 26.946 26.946 0 0 1 2.373-2.239c.44-.366.909-.812 1.4-1.118.219-.138.838-.493.977-.362.202.179-.094.625-.23.82Z"/>
  <path fill="#41626C" d="M74.155 380.337c-3.991 4.894-11.09 5.703-15.36 10.301-.007.011-.014.018-.02.026-.13.139-.257.284-.382.432-.062.071-.162.037-.192-.024-.014-.028-.012-.062.016-.096.027-.035.06-.071.091-.104 1.373-3.232 3.716-6.297 6.148-8.803 2.116-2.179 4.7-4.047 7.726-4.658.745-.152 2.215-.501 2.79.257.61.804-.325 2.066-.817 2.669Z"/>
  <path fill="#fff" d="M71.903 379.963c-.244-.316-.79-.168-1.094-.106-.756.15-1.5.416-2.195.74-1.443.662-2.733 1.614-3.915 2.668-1.985 1.776-3.923 3.794-5.431 6.043a19.858 19.858 0 0 0-.959 1.565c-.037.066-.071.133-.109.198.031.062.132.095.193.027.117-.148.242-.282.368-.423.008-.012.019-.022.033-.036.792-.973 1.647-1.881 2.623-2.693 1.499-1.251 3.201-2.245 4.843-3.29.648-.409 6.492-3.611 5.643-4.693Zm-.75 1.18c-1.105 1.103-2.55 1.852-3.86 2.684-1.323.842-2.655 1.671-3.963 2.531a22.106 22.106 0 0 0-2.938 2.303 17.168 17.168 0 0 0-2.082 2.313 23.952 23.952 0 0 1 1.731-2.524.076.076 0 0 1 .027-.026c1.12-1.433 2.39-2.763 3.67-4.027l.048-.05c1.137-1.119 2.358-2.177 3.736-2.994.748-.443 1.536-.826 2.368-1.089.944-.292 1.734-.431 1.861-.119.084.214-.27.675-.598.998Z"/>
  <path fill="#41626C" d="M63.845 384.492a199.594 199.594 0 0 0-3.453 4.169c-.538.659-1.07 1.32-1.597 1.977a.268.268 0 0 0-.034.038c-.191.238-.387.478-.578.715-1.737 2.151-3.597 4.33-4.965 6.741-.716 1.262-1.281 2.626-1.76 4.024-.044.146-.094.288-.143.432l-.002.005c-.023.08-.05.158-.072.237-.017.044-.03.087-.042.131-.387 1.21-.714 2.443-1.026 3.641-.437 1.674-.76 3.365-1.063 5.056a.817.817 0 0 0-.026.149c-.017.076-.03.154-.047.23l-.02.119c-.014.073-.026.145-.042.217a94.258 94.258 0 0 1-.3 1.633l-.508-.142c.114-1.693.395-3.408.765-5.081a.78.78 0 0 1 .024-.104c.031-.163.067-.327.108-.488.042-.202.088-.399.14-.598.115-.482.235-.959.358-1.43.715-2.732 1.542-5.557 2.89-8.055l.116-.207a.743.743 0 0 1 .048-.086c.023-.051.052-.1.08-.15l.138-.232c.081-.139.167-.276.252-.41.025-.04.05-.081.077-.121 1.35-2.131 3.088-4.077 4.704-5.981.297-.349.595-.694.897-1.038.166-.192.336-.382.504-.574l.774-.859a.08.08 0 0 1 .027-.027c1.217-1.349 2.46-2.671 3.67-4.026.055-.061.162.031.106.095Z"/>
  <path fill="#BAD7F0" d="M-.047 419.285h59.395s.222-5.126-1.877-6.975c-2.1-1.847-4.124-2.308-4.805-2.71-.681-.402-2.961-2.147-4.492-3.593-1.532-1.447-3.744-3.616-4.88-3.817-1.133-.2-6.354-1.007-7.432-.685-1.077.322-6.905 4.065-7.531 4.226-.625.161-11.87 4.185-12.891 4.339-1.021.154-6.854 1.371-9.417 2.485-3.517 1.526-6.07 6.73-6.07 6.73Z"/>
  <path fill="#000" fill-opacity=".2" d="M-.047 419.285h59.395s.222-5.126-1.877-6.975c-2.1-1.847-4.124-2.308-4.805-2.71-.681-.402-2.961-2.147-4.492-3.593-1.532-1.447-3.744-3.616-4.88-3.817-1.133-.2-6.354-1.007-7.432-.685-1.077.322-6.905 4.065-7.531 4.226-.625.161-11.87 4.185-12.891 4.339-1.021.154-6.854 1.371-9.417 2.485-3.517 1.526-6.07 6.73-6.07 6.73Z"/>
  <path fill="#BAD7F0" d="M17.447 409.464c2.608.105 6.47 2.148 7.235 2.464 1.123.464 7.886-1.206 10.552-1.407 2.667-.203 3.516-3.133 3.355-3.606-.162-.473 2.914-1.317 2.53-2.448-.225-.661-7.164-1.981-7.164-1.981-2.127 1.218-5.18 3.131-5.622 3.246-.487.125-7.347 2.569-10.886 3.732Zm28.139.143c-.052-.78-2.978-2.126-3.744-2.002-.766.124-2.255 1.242-2.468 1.677-.212.435-1.19 2.547-.254 2.561.936.014 2.723-1.191 3.701-1.236.979-.045 2.807-.358 2.765-1Zm-22.009 3.011c.185-.486-2.532-1.432-3.238-1.342-.706.089-1.387 1.114-.763 1.385.624.271 1.54-.11 2.018 0 .478.11 1.842.327 1.983-.043Zm427.666 4.059h60.744s-2.849-3.988-5.985-4.844c-3.135-.854-10.26-3.42-11.542-4.844-1.282-1.425-12.112-6.699-16.243-6.556-4.133.142-10.974 4.846-11.972 5.985-.997 1.141-4.487 5.415-5.627 5.772-1.141.356-6.566 1.21-9.375 4.487Z"/>
  <path fill="#000" fill-opacity=".2" d="M451.243 416.677h60.745s-2.849-3.989-5.985-4.845c-3.135-.854-10.26-3.42-11.542-4.844-1.282-1.425-12.113-6.698-16.244-6.555-4.133.142-10.973 4.845-11.971 5.984-.997 1.141-4.488 5.415-5.628 5.772-1.141.356-6.566 1.211-9.375 4.488Z"/>
  <path fill="#BAD7F0" d="M500.047 409.995c-1.074.205-2.585.405-3.509.308-.489-.053-5.251-2.392-7.004-2.626-1.752-.235-11.241-.642-11.936-1.69-.521-.784 3.102-3.257 5.484-4.547 4.726 1.575 10.465 4.532 11.378 5.547.661.732 2.865 1.766 5.278 2.713.105.103.208.203.309.295Zm-15.906-.278c-.005-.528 3.15-.922 3.88-.807.728.117 3.849 1.466 3.237 1.724-.612.259-2.042.473-3.062.395-1.021-.078-4.049-.719-4.055-1.312ZM60.273 422.018H46.839c-1.446 0 1.652-4.473 2.918-5.127 1.265-.653 4.577-.28 5.393.438.816.716 4.264 3.008 4.687 3.389.602.542.436 1.3.436 1.3Zm439.348 5.534c.879 0 .182-1.012-.185-1.293-.366-.281-2.124-1.049-2.783-.995-.659.055-1.28.913-2.05 1.142-.769.231-2.015.89-1.832 1.146h6.85Zm-37.831-5.88h-26.388s-.098-3.217.834-4.376c.933-1.159 1.833-1.448 2.136-1.7.303-.252 1.314-1.347 1.995-2.254.68-.907 1.664-2.269 2.168-2.395.504-.126 2.823-.631 3.302-.43.479.202 3.066 2.551 3.345 2.651.278.102 5.274 2.626 5.728 2.723.453.096 3.044.86 4.183 1.558 1.562.957 2.697 4.223 2.697 4.223ZM85.164 261.996s85.96 61.817 128.731 66.739c42.288 4.865 142.928.168 164.437-4.328 21.509-4.495 52.478-24.068 52.478-24.068s-41.68 71.321-71.108 81.545c-29.429 10.225-140.128 10.852-172.121 3.809-73.019-16.075-102.417-123.697-102.417-123.697Z"/>
  <path fill="#000" fill-opacity=".4" d="M85.164 261.995s85.96 61.818 128.731 66.74c42.288 4.865 142.928.168 164.437-4.328 21.509-4.495 52.478-24.068 52.478-24.068s-41.68 71.321-71.108 81.545c-29.429 10.225-140.128 10.851-172.121 3.808-73.019-16.075-102.417-123.697-102.417-123.697Z"/>
  <path fill="#BAD7F0" d="M85.163 261.996s-4.703-2.671-5.568-3.71c-.866-1.038-1.817-4.846-1.817-4.846l1.36-2.476s.716 4.554 1.495 5.939c.78 1.384 4.53 5.093 4.53 5.093Z"/>
  <path fill="#BAD7F0" d="M85.164 261.996s-3.795-.702-4.703-1.676c-.91-.973-2.204-3.439-2.204-3.439l-.62 1.719s1.59 3.214 2.66 3.603c1.072.389 4.867-.207 4.867-.207Zm345.646 38.343s5.383-2.628 6.161-3.579c.78-.952 3.051-5.019 3.051-5.019l.845 2.077s-1.905 3.893-3.116 4.457c-1.211.562-6.941 2.064-6.941 2.064Z"/>
  <path fill="#BAD7F0" d="m439.019 287.538.722 2.471s-3.305 5.799-4.053 6.361c-.751.563-4.878 3.969-4.878 3.969s3.86-4.315 4.466-5.657c.606-1.341 3.743-7.144 3.743-7.144Z"/>
  <path fill="#000" fill-opacity=".4" d="m86.929 263.25 10.392 11.78 10.423 11.751c6.99 7.794 13.946 15.627 21.229 23.134 1.826 1.869 3.657 3.738 5.586 5.481 1.904 1.754 4.119 3.114 6.385 4.407 4.541 2.567 9.289 4.78 14.036 6.974a474.755 474.755 0 0 0 14.396 6.266 632.533 632.533 0 0 0 14.538 5.943 628.27 628.27 0 0 1-14.685-5.584 472.881 472.881 0 0 1-14.498-6.07c-4.796-2.116-9.541-4.355-14.138-6.908-2.28-1.286-4.569-2.676-6.533-4.468-1.963-1.762-3.815-3.62-5.644-5.5-7.254-7.574-14.224-15.396-21.117-23.283a1689.798 1689.798 0 0 1-10.261-11.897l-10.11-12.026Z"/>
  <path fill="#000" fill-opacity=".4" d="m110.632 285.131 7.53 5.921a658.862 658.862 0 0 0 7.549 5.892c5.041 3.905 10.103 7.819 15.406 11.313 2.62 1.766 5.587 2.955 8.517 4.202 2.946 1.214 5.921 2.372 8.896 3.525 5.96 2.28 11.955 4.479 17.951 6.677a465.87 465.87 0 0 1-18.146-6.159c-3.004-1.086-6.002-2.193-8.962-3.407-2.942-1.228-5.954-2.414-8.662-4.202-2.713-1.721-5.283-3.63-7.832-5.559a342.416 342.416 0 0 1-7.564-5.889c-4.971-4.013-9.884-8.097-14.683-12.314Z"/>
  <path fill="#000" fill-opacity=".4" d="M125.861 292.485c2.886 1.969 5.73 3.99 8.592 5.984 1.42 1.011 2.848 2.01 4.288 2.989 1.45.952 2.861 2.013 4.341 2.862 3.012 1.682 6.271 2.943 9.532 4.151a190.706 190.706 0 0 0 9.943 3.247 106.813 106.813 0 0 1-10.111-2.755c-3.328-1.077-6.618-2.314-9.722-4.01-3.057-1.789-5.832-3.887-8.664-5.942-2.789-2.103-5.542-4.256-8.199-6.526Zm304.422 8.183c-3.876 4.202-7.836 8.322-11.838 12.405-4.011 4.074-8.064 8.102-12.283 11.984-1.079.929-2.176 1.923-3.411 2.679-1.21.777-2.433 1.521-3.66 2.255a295.179 295.179 0 0 1-7.425 4.294 556.216 556.216 0 0 1-15.064 8.192l14.763-8.712c2.451-1.468 4.924-2.894 7.358-4.383 1.22-.741 2.432-1.493 3.617-2.27 1.205-.749 2.223-1.699 3.301-2.637 4.236-3.807 8.284-7.848 12.382-11.825l12.26-11.982Z"/>
  <path fill="#000" fill-opacity=".4" d="M410.357 316.667c-4.166 3.136-8.423 6.152-12.845 8.94-1.109.691-2.224 1.376-3.409 1.966-1.186.635-2.47.977-3.703 1.401-1.247.399-2.511.736-3.771 1.088-1.271.305-2.534.653-3.813.923a192.056 192.056 0 0 1-15.437 2.629c-5.176.663-10.367 1.191-15.574 1.49 2.589-.315 5.174-.624 7.755-.986a324.76 324.76 0 0 0 7.735-1.098c5.145-.796 10.282-1.649 15.353-2.797 1.275-.257 2.529-.59 3.795-.882 1.252-.338 2.51-.661 3.748-1.045 1.232-.41 2.488-.735 3.612-1.326 1.15-.57 2.277-1.221 3.4-1.873 2.237-1.322 4.432-2.723 6.617-4.143 2.197-1.401 4.361-2.851 6.537-4.287Z"/>
  <path fill="#000" fill-opacity=".4" d="M415.29 311.213c-2.973 1.863-5.998 3.638-9.042 5.382a236.898 236.898 0 0 1-9.255 5.026c-.793.375-1.593.78-2.449 1.063-.847.295-1.691.532-2.538.773-1.699.463-3.394.914-5.106 1.3-3.418.8-6.847 1.538-10.298 2.168l10.15-2.75c1.685-.478 3.384-.906 5.059-1.401.834-.25 1.675-.498 2.481-.792.806-.277 1.57-.679 2.355-1.06 3.136-1.536 6.209-3.227 9.313-4.852l4.652-2.451 4.678-2.406Z"/>
  <path fill="#fff" d="M144.273 274.815c-2.205.049-10.219 1.196-15.555 3.521-2.588 1.128-9.677 5.159-8.964 7.212.715 2.054 2.891 1.058 2.891 1.058s-2.741 2.151-1.833 4.152c.907 2.001 4.243.344 4.243.344s-2.653 2.412-1.607 4.345c1.048 1.931 4.123-.299 4.123-.299s-2.529 2.094-.996 3.322c1.844 1.477 6.07-2.908 8.995-4.014.664-.25 13.824-4.123 13.824-4.123l-5.121-15.518Z"/>
  <path fill="#000" d="M127.636 295.151c3.116-3.218 5.034-4.087 9.32-5.129.083-.021.071-.15-.018-.136-4.288.637-6.853 1.381-9.465 5.122-.129.183.015.296.163.143Zm-2.749-3.963c3.529-3.061 5.602-4.021 10.01-5.443.062-.019.034-.128-.03-.112-4.44 1.033-6.982 1.833-10.106 5.354-.141.16-.035.342.126.201Zm-1.939-4.819c3.63-2.716 5.858-3.869 10.314-4.699.105-.02.087-.175-.02-.165-4.627.404-7.419 1.822-10.365 4.745-.201.199-.158.291.071.119Z"/>
  <path fill="#fff" d="M152.583 290.533s-4.187 3.739-6.388 4.975c-2.201 1.238-12.102 2.828-12.567.708-.6-2.735 4.936-4.779 7.776-5.425 0 0-1.395-6.328 2.26-8.654 3.654-2.326 8.919 8.396 8.919 8.396Z"/>
  <path fill="#000" d="M133.711 295.409c1.253-2.889 5.037-3.498 7.747-4.331.206-.063.227-.252.148-.399-.407-2.692-.198-6.606 1.887-8.582.061-.057-.012-.152-.082-.102-2.524 1.815-3.043 5.644-2.408 8.563-2.793.811-6.563 1.588-7.32 4.841a.015.015 0 0 0 .028.01Z"/>
  <path fill="#fff" d="M152.57 312.696c13.86-6.932 30.465-28.445 26.269-34.043-4.076-5.434-25.034-5.328-36.91-3.627-1.741.25 1.458 2.722 2.643 8.801.562 2.878 2.08 10.516 4.411 9.721 1.325-.452 5.687-.64 6.859-.589.961.042-5.551 7.765-8.471 12.859-5.042 8.796 1.413 8.771 5.199 6.878Zm160.608 43.008s27.844 11.369 27.861 11.381c4.975 3.235 9.394 5.982 11.811 7.19.013.008.025.016.04.018.913.457 1.533.69 1.776.633.02-.004.035-.002.049-.009 1.965-.828 28.975-39.827 29.459-41.504.494-1.68-4.258-3.189-6.514-2.512-2.263.689-19.278 10.99-19.278 10.99l-27.993-11.115-17.211 24.928Z"/>
  <path fill="#fff" d="M183.934 326.582c.557.163 16.035 6.012 19.707 6.908 1.097.268 55.527-21.331 69.71-21.621 20.562-.42 79.216 28.017 79.216 28.017l-16.516 25.377s-50.323-20.534-64.224-20.534c-6.951 0-48.682 17.234-69.594 20.681-25.869 4.265-38.08-13.849-38.08-13.849s17.02-21.511 19.781-24.979Z"/>
  <path fill="#4B6E80" d="M183.933 326.582c.557.163 16.035 6.012 19.707 6.908 1.097.268 32.099-13.608 46.348-16.855l9.355 33.206s-36.198 12.122-57.11 15.569c-25.869 4.265-38.08-13.849-38.08-13.849s17.019-21.511 19.78-24.979Z"/>
  <path fill="#000" d="M243.764 320.071c1.27 4.943.836 3.543 2.161 8.472.648 2.412 4.924 18.258 5.923 20.401.022.047.106.024.101-.028-.256-2.352-4.807-18.119-5.502-20.519-1.419-4.902-1.065-3.48-2.539-8.366-.028-.092-.168-.053-.144.04Zm1.545 28.579s-30.577 8.921-37.481 10.819c-3.457.931-6.908 1.89-10.483 2.412-3.628.449-7.242-.308-10.658-1.35-3.427-1.075-6.722-2.51-9.922-4.111a95.38 95.38 0 0 1-9.304-5.34 95.03 95.03 0 0 0 9.39 5.163c3.221 1.54 6.531 2.91 9.948 3.915 3.401.994 6.972 1.7 10.48 1.225 3.499-.546 6.95-1.539 10.383-2.503 13.724-3.984 37.393-10.804 37.393-10.804 1.021-.293 3.666-.493.254.574Z"/>
  <path fill="#000" d="M259.342 349.837s-36.199 12.128-57.11 15.567c-17.478 2.883-28.722-4.45-34.176-9.505l87.232-20.451 4.054 14.389Z"/>
  <path fill="#fff" d="M309.438 374.84s29.245 1.386 29.266 1.392c5.777 1.354 10.866 2.44 13.551 2.755.014.004.027.009.044.005 1.012.12 1.675.13 1.884-.008.017-.01.033-.014.044-.025 1.568-1.447 13.741-47.298 13.628-49.039-.105-1.746-5.087-1.554-6.98-.152-1.896 1.416-14.406 16.879-14.406 16.879l-30.101-.955-6.93 29.148Z"/>
  <path fill="#fff" d="M180.541 330.822c.557.163 22.954 8.248 23.398 9.144.5 1.012 2.558 6.476 3.096 8.111 0 0 64.692-5.524 67.788-5.564 12.534-.162 63.801 3.615 63.801 3.615l-4.683 29.688s-53.081-1.934-72.536-2.048c-16.679-.097-67.416 2.606-67.416 2.606-26.174 1.536-36.829-15.95-36.829-15.95s23.36-29.611 23.381-29.602Z"/>
  <path fill="#000" d="M257.648 343.827c3.68-.375 7.366-.676 11.057-.948 3.684-.238 7.405-.497 11.11-.263 7.397.28 14.778.744 22.166 1.132 7.387.398 14.768.897 22.151 1.346 7.383.479 14.762.985 22.139 1.534l-.119.054 5.521-6.634-5.299 6.812-.045.058-.076-.004c-7.39-.346-14.776-.727-22.163-1.13l-22.153-1.268-22.147-1.331c-3.684-.304-7.368-.089-11.065.05-3.694.155-7.385.379-11.077.592Zm108.117-4.743c-.647 2.963-1.379 5.902-2.122 8.837-.742 2.936-1.552 5.852-2.326 8.781-.835 2.91-1.637 5.828-2.503 8.732l-1.315 4.347c-.465 1.441-.906 2.891-1.396 4.327.316-1.484.681-2.954 1.02-4.431l1.1-4.407c.745-2.936 1.553-5.854 2.328-8.78.837-2.91 1.636-5.83 2.504-8.731.866-2.902 1.746-5.8 2.71-8.675Z"/>
  <path fill="#4B6E80" d="M206.78 339.207c-.368 3.56-.242 7.218.016 10.78.01.14.217.147.221.002.103-3.581.288-7.195.194-10.778-.007-.281-.403-.277-.431-.004Zm-21.691-6.507c-.11-.03-.202.149-.086.19 3.684 1.307 6.832 2.712 10.153 4.267 1.542.721 9.888 5.196 8.244 7.728-.275.423-.816.495-1.54.315-.871-.217-1.786-.905-2.57-1.347a74.794 74.794 0 0 0-5.3-2.725c-3.37-1.556-6.843-2.83-10.463-3.664-.119-.028-.17.139-.055.181 4.816 1.741 9.576 3.609 14.083 6.056 2.167 1.177 5.199 3.581 6.42 1.312 1.244-2.312-3.963-5.985-5.436-6.855-4.11-2.431-8.861-4.188-13.45-5.458Z"/>
  <path fill="#4B6E80" d="M203.665 344.898c.501.465 1.044.889 1.601 1.283.433.308.886.676 1.408.803.1.024.157-.101.11-.177-.294-.472-.806-.813-1.228-1.172-.489-.414-.97-.841-1.471-1.241-.331-.266-.729.218-.42.504Z"/>
  <path fill="#4B6E80" d="M180.541 330.822c.557.163 22.954 8.248 23.398 9.144.5 1.012 2.558 6.476 3.096 8.111 0 0 46.228-5.72 49.323-5.76l-13.946 32.988c-16.679-.096-48.423 1.069-48.423 1.069-26.174 1.536-36.829-15.95-36.829-15.95s23.36-29.611 23.381-29.602Z"/>
  <path fill="#000" d="M248.388 344.592c-2.053 4.673-1.531 3.303-3.532 7.998-.979 2.298-7.399 17.401-7.936 19.705-.012.051.07.084.097.04 1.251-2.008 7.406-17.221 8.341-19.537 1.909-4.732 1.31-3.394 3.167-8.148.034-.089-.098-.145-.137-.058Zm-41.608-5.385c-.368 3.56-.242 7.218.016 10.78.01.14.217.147.221.002.103-3.581.288-7.195.194-10.778-.007-.281-.403-.277-.431-.004Zm-21.691-6.507c-.11-.03-.202.149-.086.19 3.684 1.307 6.832 2.712 10.153 4.267 1.542.721 9.888 5.196 8.244 7.728-.275.423-.816.495-1.54.315-.871-.217-1.786-.905-2.57-1.347a74.794 74.794 0 0 0-5.3-2.725c-3.37-1.556-6.843-2.83-10.463-3.664-.119-.028-.17.139-.055.181 4.816 1.741 9.576 3.609 14.083 6.056 2.167 1.177 5.199 3.581 6.42 1.312 1.244-2.312-3.963-5.985-5.436-6.855-4.11-2.431-8.861-4.188-13.45-5.458Z"/>
  <path fill="#000" d="M203.665 344.898c.501.465 1.044.889 1.601 1.283.433.308.886.676 1.408.803.1.024.157-.101.11-.177-.294-.472-.806-.813-1.228-1.172-.489-.414-.97-.841-1.471-1.241-.331-.266-.729.218-.42.504Z"/>
  <path fill="#fff" d="M183.934 326.582c-.406 10.882-26.398 33.855-26.774 33.842-1.013-.038-19.995-23.792-20.226-46.97-.04-4.085 4.854-8.386 8.468-8.445 8.091-.133 30.373 17.505 32.089 18.303 3.18 1.48 6.456 2.922 6.443 3.27Z"/>
  <path fill="#000" d="M172.783 328.81c.017.265.135.497.258.718.122.222.273.428.44.614.327.369.724.727 1.129.995.19.136.459.213.494.155.081-.003-.01-.274-.166-.454-.318-.37-.721-.73-1.216-.898.544.02 1.034.325 1.436.699.099.101.198.208.267.357.072.127.112.401-.069.566-.175.17-.411.14-.552.097a1.783 1.783 0 0 1-.403-.188 4.468 4.468 0 0 1-1.185-1.124c-.283-.453-.557-.994-.433-1.537Zm-13.884-14.667c.428.384 1.016.426 1.315.093.298-.332.194-.913-.233-1.297-.428-.384-1.017-.426-1.315-.093-.299.332-.195.913.233 1.297Zm-10.125 10.098a1.04 1.04 0 1 0 1.39-1.546 1.04 1.04 0 0 0-1.39 1.546Zm11.284-12.764c-.618-.234-4.563-2.455-5.693-3.378-.016-.012-.155-.225.001-.158.736.314 1.484.71 2.068 1.075-.042-.041-.284-.66-.435-.954-.011-.022.01-.041.028-.025.255.23.681 1.066.804 1.184.028.027 2.701 1.672 3.27 2.104.305.231.122.214-.043.152Z"/>
  <path fill="#fff" d="M149.961 312.222c-1.895 1.865-7.739.796-10.899-1.03-.215-.125-3.989-8.1-4.9-9.602-.19-.308 10.824-3.441 10.824-3.441s.983 3.715 2.589 6.323c.137.217 4.216 5.946 2.386 7.75Z"/>
  <path fill="#000" d="m144.988 298.146-.002.011c.017.052.074.27.177.612.178.584.478 1.525.89 2.555.406 1.036.918 2.167 1.524 3.146.039.075.091.141.132.206l.021.03c.084.118.189.279.312.471-.254.21-.551.41-.886.608-5.205 3.001-10.759-2.251-12.705-4.379.056-.026.115-.046.181-.07a20.44 20.44 0 0 1 1.088-.396c.113-.037.225-.072.345-.113.718-.238 1.581-.505 2.479-.785.295-.092.59-.183.896-.271.647-.192 1.302-.387 1.909-.57.263-.071.523-.148.764-.222.265-.081.535-.155.777-.23a8.85 8.85 0 0 0 .359-.104c.065-.014.117-.032.171-.047.358-.105.664-.194.91-.263.183-.053.329-.093.436-.127.093-.023.152-.043.186-.047.013-.008.019-.012.03-.01l.006-.005Z"/>
  <path fill="#fff" d="M126.709 290.664c.699 4.027 7.643 13.167 11.263 14.156 5.248 1.432 11.3-1.242 11.883-6.967.563-5.55-8.697-17.302-12.505-17.938-5.607-.936-11.675 4.801-10.641 10.749Z"/>
  <path fill="#000" d="M132.361 298.954c2.126-2.082-1.226-6.358-1.226-6.358s3.08-4.163.93-7.438c0 0 5.635-1.162 7.405-4.813 1.769-3.65-1.812-6.184-2.757-6.55-.947-.367-1.268 2.336-1.268 2.336s-1.875-1.582-2.515-1.305c-.641.276-.119 1.829-.119 1.829s-4.672 2.243-7.778 5.443c-3.108 3.198-1.558 7.959-1.558 7.959s-1.356 2.025-.745 3.761c.61 1.734 8.276 6.464 9.631 5.136Z"/>
  <path fill="#000" d="M130.299 293.462c3.199-2.38 3.247-6.091 1.019-9.205-.027-.04.024-.082.057-.047 2.378 2.607 2.758 7.721-.982 9.402-.09.041-.178-.089-.094-.15Zm-6.797-3.531c.025-.04.09-.007.074.038-.436 1.139-1.076 2.297-.93 3.563.175 1.527 1.433 2.531 2.65 3.279 1.885 1.159 4.619 2.385 6.873 1.953.128-.026.159.169.033.2-2.594.631-6.073-1.027-8.061-2.616-2.226-1.778-2.087-4.158-.639-6.417Zm12.436-7.001c1.98-.462 3.863-2.231 4.255-4.275.476-2.49-1.511-3.9-3.549-4.704-.1-.04-.072-.215.042-.192 2.108.4 4.04 2.243 3.875 4.511-.171 2.345-2.394 4.435-4.575 4.946-.182.044-.23-.243-.048-.286Z"/>
  <path fill="#fff" d="M133.069 297.766s-3.954-2.056-5.006-.482c-1.049 1.574 3.099 5.379 5.162 5.123 2.061-.259 1.862-2.171 1.862-2.171l-2.018-2.47Z"/>
  <path fill="#000" d="M129.28 298.344c-.028.012-.013.054.016.051 1.467-.141 2.687.649 3.74 1.58-.594-.261-1.211-.25-1.589.491-.02.039.036.073.066.047.441-.364.844-.465 1.385-.243.384.158.731.428 1.071.664.112.078.278-.081.172-.184l-.025-.023c-.773-1.558-3.096-3.092-4.836-2.383Zm7.672-7.864c.225-.271.388-.558.583-.849.221-.328.431-.567.431-.979.001-.221-.232-.448-.447-.469-.5-.048-.871.287-1.151.672-.306.417-.435.815-.408 1.331.026.499.694.65.992.294Zm5.97-4.708c-.333.114-.66.166-1.002.245-.385.088-.682.2-1.068.053-.207-.078-.336-.376-.279-.584.134-.486.578-.713 1.038-.839.498-.137.917-.115 1.389.093.458.201.361.881-.078 1.032Zm-.218 11.657c.257.037.556.13.798-.016.231-.141.416-.427.56-.65.013-.022.049-.016.051.012a1.05 1.05 0 0 1-.55.922c-.32.157-.641.014-.899-.196-.037-.029.002-.078.04-.072Zm-.707-2.481a2.648 2.648 0 0 0 2.12-.088c.287-.132.556-.314.795-.525a.96.96 0 0 0 .136-.124c.041-.039.078-.074.121-.121.066-.064.062-.155.024-.232l-.003-.005c-.018-.023-.031-.041-.053-.061l-.004-.005-.041-.052a21.332 21.332 0 0 0-.921-1.195c.241-.041 1.437-.29 1.238-.533-1.648-2.001-3.481-4.227-5.543-5.87-.065-.057-.16.036-.103.101 1.508 1.985 3.355 3.693 4.901 5.662-.367.101-.984.239-1.233.429-.053.07 1.151 1.335 1.285 1.569 0 0 .008.009.012.026-.736.696-1.527.896-2.713.925-.073-.002-.092.077-.018.099Z"/>
  <path fill="#000" d="M144.444 294.525s-.007.892-.443 1.528a1.41 1.41 0 0 1-.661.549c-.598.233-.946-.219-1.14-.679-.162-.378-.216-.768-.216-.768s1.233.153 2.46-.63Z"/>
  <path fill="#FF9EBF" d="M144.001 296.052c-.16.235-.37.435-.661.549-.598.233-.946-.219-1.141-.679.578-.336 1.376-.359 1.802.13Z"/>
  <path fill="#000" d="M138.755 292.709c.153.124.347.221.574.253.227.035.473-.059.647-.208a.772.772 0 0 0 .242-.645 1.369 1.369 0 0 0-.217-.58 2.425 2.425 0 0 0-.229-.293 1.646 1.646 0 0 0-.625-.446c.137.134.253.281.351.435.098.146.178.291.248.442.141.315.182.648-.025.811-.202.19-.503.161-.806-.013-.296-.167-.578-.403-.86-.647.16.339.39.648.7.891Zm6.149-4.452c.073.184.105.398.07.624a.856.856 0 0 1-.396.555.765.765 0 0 1-.687.035 1.312 1.312 0 0 1-.487-.38 2.457 2.457 0 0 1-.211-.307 1.667 1.667 0 0 1-.236-.731 3.207 3.207 0 0 0 .655.835c.258.231.563.37.781.222.242-.135.304-.432.23-.772-.071-.334-.209-.674-.357-1.016.275.254.501.567.638.935Z"/>
  <path fill="#000" d="M139.256 280.808c1.217.867 2.334 1.869 3.392 2.926 1.057 1.062 2.021 2.212 2.928 3.405a27.396 27.396 0 0 1 2.367 3.82c.694 1.329 1.202 2.748 1.596 4.186-.552-1.388-1.124-2.758-1.867-4.044-.73-1.288-1.51-2.551-2.416-3.725a40.265 40.265 0 0 0-2.828-3.431 45.144 45.144 0 0 0-3.172-3.137Z"/>
  <path fill="#fff" d="M187.005 322.386c.02 1.674 5.861 2.964 13.047 2.881 7.185-.083 12.995-1.508 12.976-3.181-.02-1.675-5.861-2.966-13.046-2.883-7.186.083-12.996 1.508-12.977 3.183Z"/>
  <path fill="#BAD7F0" d="M189.797 321.802c.005.458.951.865 2.504 1.161h.007c.596.123 1.283.22 2.036.303 1.63.178 3.586.266 5.69.242 2.628-.031 5.012-.235 6.82-.549a15.352 15.352 0 0 0 2.014-.462c.866-.278 1.36-.597 1.356-.931-.003-.235-.254-.461-.701-.659-.414-.184-.997-.354-1.719-.49-1.88-.384-4.68-.599-7.812-.563-2.772.032-5.278.257-7.111.599-.732.133-1.351.29-1.845.452-.795.271-1.243.577-1.239.897Zm23.156.026c.02.033.035.066.047.1 0-.02-.001-.04-.014-.06-.007-.014-.02-.026-.033-.04Zm-15.824-2.523a66.667 66.667 0 0 1 3.189-.102c-.111-.006-.222-.004-.333-.003-.981.011-1.941.048-2.856.105Z"/>
  <path fill="#BAD7F0" d="M183.873 332.514c-.01.738.037 1.484.111 2.221.094.738.233 1.469.417 2.193.199.723.455 1.426.764 2.109.315.677.675 1.34 1.108 1.956.439.616.929 1.191 1.47 1.708 1.091 1.046 2.402 1.841 3.788 2.388 1.386.559 2.853.85 4.306 1.01 1.46.159 2.924.142 4.375.093 2.896-.072 5.845-.472 8.519-1.667a13.367 13.367 0 0 0 3.646-2.41 13.056 13.056 0 0 0 2.666-3.508 9.856 9.856 0 0 0 .826-2.081c.193-.722.31-1.462.373-2.196.12-1.484.012-2.961-.207-4.41-.22-1.455-.577-2.876-1.011-4.269a33.856 33.856 0 0 0-.736-2.059 20.158 20.158 0 0 0-.43-1.007c-.154-.332-.296-.652-.502-.988v-.008h-.007v-.005l-.006-.008v-.006c-.007-.006-.014-.019-.02-.025-.285-.357-.615-.536-.937-.741-2.32-1.052-7.345-1.949-12.071-1.895-7.438.086-11.095 1.606-11.746 1.896-.331.14-.649.293-.961.473-.163.087-.312.188-.461.288-.078.059-.156.106-.227.173a1.41 1.41 0 0 0-.104.091l-.051.047c-.019.02-.026.02-.065.067l-.006.013c-.225.348-.366.658-.532.993-.152.329-.299.664-.439 1.006-.28.676-.534 1.358-.755 2.055a25.184 25.184 0 0 0-.936 4.299c-.091.726-.14 1.465-.159 2.204Zm3.068-10.129c.019-.04.045-.079.063-.118.007-.013.013-.027.02-.032v-.008c.204-1.003 2.488-1.899 5.875-2.454.111-.021.221-.042.339-.056a26.74 26.74 0 0 1 2.272-.282c.497-.051.992-.089 1.489-.121.039 0 .085-.008.131-.008a66.626 66.626 0 0 1 4.399-.103c.601.006 1.163.026 1.713.058.242.018.484.028.719.044 1.957.115 3.717.35 5.146.661.013-.001.02.005.033.005.02.007.033.007.052.013 2.131.473 3.531 1.123 3.787 1.859.04.032.1.084.047.058 0-.006-.006-.006-.006-.006-.007-.006-.021-.02-.034-.026-.007-.013-.02-.026-.032-.04a.72.72 0 0 1 .046.098c0 .007.007.013.007.02.02.033.034.065.053.097a.08.08 0 0 1-.032.039v.007c.001 1.204-2.994 2.271-7.335 2.811-.026.007-.052.007-.078.007-.686.1-1.378.167-2.064.221-.437.038-.869.062-1.3.073-.713.035-1.443.056-2.195.065-7.06.081-12.814-1.159-13.036-2.791l-.02-.02c-.02-.026-.039-.046-.059-.071Z"/>
  <path fill="#fff" d="M188.463 327.384c.063.229.07.438.068.644a3.612 3.612 0 0 1-.241 1.164c-.075.188-.16.373-.295.569a1.505 1.505 0 0 1-.176-.64c-.013-.212.004-.42.047-.624.044-.203.113-.399.206-.588.097-.186.212-.368.391-.525Zm.068 8.698c.119.206.181.405.231.605.046.199.07.397.081.594.011.197.003.394-.018.594-.025.2-.061.4-.141.626a1.497 1.497 0 0 1-.333-.573 2.313 2.313 0 0 1-.113-.616 2.565 2.565 0 0 1 .048-.622 1.76 1.76 0 0 1 .245-.608Zm3.357 3.734c.12.206.181.406.23.605a3.492 3.492 0 0 1 .064 1.188c-.024.201-.06.4-.14.625a1.5 1.5 0 0 1-.333-.572 2.353 2.353 0 0 1-.113-.617c-.01-.207.006-.414.048-.62.047-.206.111-.411.244-.609Zm-.764-7.99c.093.22.128.426.152.629a3.553 3.553 0 0 1-.088 1.186 2.842 2.842 0 0 1-.22.603 1.499 1.499 0 0 1-.257-.61 2.437 2.437 0 0 1 .093-1.235c.072-.198.163-.393.32-.573Zm2.531-3.114c.093.22.128.425.152.629a3.604 3.604 0 0 1-.088 1.186c-.05.197-.112.389-.22.603a1.51 1.51 0 0 1-.257-.61 2.426 2.426 0 0 1 .093-1.236 1.73 1.73 0 0 1 .32-.572Zm13.65-1.355c.184.153.303.331.406.515a2.415 2.415 0 0 1 .286 1.206 1.484 1.484 0 0 1-.157.643 2.738 2.738 0 0 1-.311-.559 3.563 3.563 0 0 1-.274-1.159 2.235 2.235 0 0 1 .05-.646Zm5.841 7.826c.138.194.209.399.261.603a2.44 2.44 0 0 1-.031 1.238 1.494 1.494 0 0 1-.316.582 2.82 2.82 0 0 1-.158-.621 3.413 3.413 0 0 1-.035-.595c.005-.197.024-.394.065-.595.045-.2.1-.403.214-.612Zm-3.236 3.417c.139.194.209.397.261.601a2.405 2.405 0 0 1-.03 1.238 1.492 1.492 0 0 1-.318.582 2.877 2.877 0 0 1-.158-.621 3.599 3.599 0 0 1 .032-1.19c.044-.2.1-.401.213-.61Zm2.03-8.937c.162.175.258.368.336.563a2.463 2.463 0 0 1 .127 1.233c-.039.21-.101.423-.24.617a2.896 2.896 0 0 1-.237-.596 3.584 3.584 0 0 1-.12-1.184c.017-.204.049-.411.134-.633Zm-18.185 6.126c.128.189.194.378.245.566a2.476 2.476 0 0 1 .016 1.14 1.755 1.755 0 0 1-.229.574 1.776 1.776 0 0 1-.247-.566 2.563 2.563 0 0 1-.016-1.14c.046-.191.108-.383.231-.574Zm6.721-8.119c.128.187.194.377.245.566a2.476 2.476 0 0 1 .015 1.141c-.045.19-.104.381-.228.573a1.765 1.765 0 0 1-.248-.567 2.511 2.511 0 0 1-.071-.569c-.002-.191.014-.38.056-.571.046-.191.108-.382.231-.573Zm-.275 7.696c.129.188.195.377.246.566.046.19.07.379.072.57.004.189-.014.38-.056.57-.045.19-.106.382-.229.573a1.715 1.715 0 0 1-.247-.566 2.457 2.457 0 0 1-.072-.569c-.003-.19.015-.38.057-.571.046-.19.107-.382.229-.573Zm-2.476-4.228c.128.187.194.378.245.566.047.189.071.379.073.569.004.19-.014.381-.056.572-.045.19-.106.381-.23.573a1.728 1.728 0 0 1-.246-.567 2.514 2.514 0 0 1-.015-1.141c.046-.19.105-.381.229-.572Zm-.297 8.064c.129.187.195.378.245.566a2.516 2.516 0 0 1 .017 1.141 1.74 1.74 0 0 1-.23.573 1.75 1.75 0 0 1-.246-.567 2.457 2.457 0 0 1-.072-.569c-.003-.191.015-.38.057-.572.046-.189.107-.381.229-.572Zm6.21 1.729c.129.188.194.378.245.566a2.493 2.493 0 0 1 .018 1.141 1.761 1.761 0 0 1-.231.573 1.73 1.73 0 0 1-.245-.566 2.408 2.408 0 0 1-.074-.569c-.002-.19.015-.381.056-.572.046-.19.108-.381.231-.573Zm-.139-9.874c.128.188.193.378.244.566a2.53 2.53 0 0 1 .017 1.141 1.732 1.732 0 0 1-.23.573 1.776 1.776 0 0 1-.246-.566 2.573 2.573 0 0 1-.015-1.141c.046-.19.106-.381.23-.573Zm3.347 3.408c.129.187.195.376.246.566a2.476 2.476 0 0 1 .015 1.141 1.773 1.773 0 0 1-.228.572 1.751 1.751 0 0 1-.248-.566 2.511 2.511 0 0 1-.071-.569c-.003-.191.014-.38.056-.572.046-.19.108-.381.23-.572Z"/>
  <path fill="#41626C" d="M181.267 316.86c.048.137.114.261.194.377.086.117.186.214.285.31l.04.046.078-.014 3.464-.667c.574-.106 1.155-.216 1.716-.275.137-.015.287-.03.392-.031a.78.78 0 0 1 .244.141c.204.167.403.368.601.581.781.847 1.492 1.788 2.182 2.74.193.28.387.558.573.837.446.675.872 1.362 1.265 2.058h.007c.596.123 1.283.22 2.036.303l-.006-.02a38.139 38.139 0 0 0-2.051-3.793c-.759-1.222-1.558-2.428-2.59-3.495a7.105 7.105 0 0 0-.845-.735c-.304-.218-.666-.43-1.085-.497-.792-.109-1.51.017-2.227.136a28.23 28.23 0 0 0-4.158 1.179.773.773 0 0 0-.153.394c-.017.138-.002.288.038.425Z"/>
  <path fill="#CBCBCB" d="M206.854 322.959a15.207 15.207 0 0 0 2.014-.461c.153-.342.388-.908.655-1.592.889-2.225 2.183-5.698 2.558-6.696.063-.165.095-.263.101-.277l.025-.065-.052-.038a4.835 4.835 0 0 0-.692-.438c-.243-.114-.506-.222-.806-.246l-.086-.005-.037.092c-.02.046-.052.119-.083.21-.388.972-1.688 4.421-2.647 6.975-.411 1.11-.767 2.049-.95 2.541Z"/>
  <path fill="#BAD7F0" d="m201.017 311.098.765.026c.242.003.489 0 .732.018.248.022.49.027.732.063.491.059.969.165 1.442.302.466.146.926.329 1.354.56.427.231.843.515 1.179.837l.04.039.073-.001c.7.005 1.405.035 2.08.205.347.061.675.188 1.01.281.322.134.65.248.959.407.625.301 1.224.66 1.784 1.078a9.712 9.712 0 0 1 1.527 1.403l.066.077.099.012c.282.056.569.085.851.147.275.075.559.132.828.239.544.17 1.056.437 1.544.747.487.314.931.695 1.328 1.121.204.207.383.434.561.674.081.116.168.24.248.363.04.06.072.123.112.189.02.025.04.059.055.091l.026.052c.007.033.006 0 .033.006.013.021.019.039.032.058.013-.02.006-.091-.007-.091l-.02-.052a1.92 1.92 0 0 0-.04-.104c-.033-.071-.061-.136-.095-.201a4.255 4.255 0 0 0-.221-.396 5.274 5.274 0 0 0-.324-.482c-.335-.637-.662-1.267-.989-1.891l-1.56-3.099c-.508-1.014-1.01-2.028-1.526-3.009a161.277 161.277 0 0 0-1.59-2.957l-.126-.219-.234.06-3.006.786c-1.003.267-2 .526-3.004.8-1.988.533-3.961 1.111-5.955 1.657-.007 0-.02.008-.026.008l-.737.196Z"/>
  <path fill="#000" d="M207.333 312.943c1.056-.957 2.161-1.853 3.26-2.754 1.115-.884 2.226-1.772 3.386-2.598-1.056.955-2.16 1.852-3.261 2.752-1.115.884-2.227 1.771-3.385 2.6Zm7.428 3.45c-.212-1.46-.348-2.927-.49-4.393-.119-1.468-.243-2.936-.292-4.411.213 1.46.348 2.927.49 4.393.119 1.469.243 2.937.292 4.411Z"/>
  <path fill="#000" d="M183.873 332.513c-.01.738.037 1.483.111 2.221.094.738.233 1.468.417 2.192.199.723.455 1.426.764 2.109.315.677.675 1.34 1.108 1.956.439.616.929 1.191 1.47 1.708 1.091 1.046 2.402 1.841 3.788 2.388 1.386.559 2.853.85 4.306 1.01 1.46.159 2.924.142 4.375.093 2.896-.072 5.845-.473 8.519-1.667a13.367 13.367 0 0 0 3.646-2.41 13.056 13.056 0 0 0 2.666-3.508 9.856 9.856 0 0 0 .826-2.081c.193-.722.31-1.462.373-2.196.12-1.484.012-2.961-.207-4.41-.22-1.455-.577-2.876-1.011-4.269a33.856 33.856 0 0 0-.736-2.059 19.766 19.766 0 0 0-.43-1.007c-.154-.332-.296-.652-.502-.988v-.007h-.007v-.006l-.006-.007v-.007c-.007-.006-.014-.019-.02-.025-.286-.357-.615-.536-.937-.741-2.32-1.053-7.345-1.949-12.071-1.894-7.438.086-11.095 1.605-11.746 1.895-.331.14-.649.294-.961.474-.163.087-.312.187-.461.287-.078.059-.156.106-.227.173a1.41 1.41 0 0 0-.104.091l-.051.047c-.019.02-.026.02-.065.066l-.006.014c-.225.348-.366.658-.532.993-.152.328-.299.664-.439 1.006-.28.676-.534 1.358-.755 2.055a25.184 25.184 0 0 0-.936 4.299c-.091.726-.14 1.466-.159 2.205Zm3.068-10.129c.019-.041.045-.08.063-.119.007-.013.013-.027.02-.032v-.007c.204-1.003 2.488-1.899 5.875-2.454.111-.022.221-.043.339-.057.751-.126 1.514-.22 2.272-.281.497-.051.992-.09 1.489-.122.039 0 .085-.008.131-.008a66.626 66.626 0 0 1 4.399-.103c.601.006 1.163.026 1.713.058.242.017.484.028.719.044 1.957.115 3.717.35 5.146.661.013-.001.02.005.033.005.02.007.033.007.052.013 2.131.473 3.531 1.123 3.787 1.859.04.031.1.084.047.057 0-.006-.006-.006-.006-.006-.007-.005-.021-.019-.034-.025-.007-.013-.02-.026-.032-.04a.73.73 0 0 1 .046.099c0 .007.007.012.007.019.02.032.034.065.053.097a.08.08 0 0 1-.032.04v.006c.001 1.203-2.994 2.271-7.335 2.811-.026.007-.052.007-.078.007-.686.1-1.378.167-2.064.221-.437.038-.869.062-1.3.073-.713.035-1.443.056-2.195.064-7.06.082-12.815-1.158-13.036-2.79l-.02-.02c-.02-.026-.039-.046-.059-.07Z" opacity=".5"/>
  <path fill="#fff" d="M135.993 315.38c-1.439 12.736-2.694 38.17 3.304 42.442 5.947 4.236 27.173-.503 34.376-2.232 2.373-.569 3.481-19.727.872-19.739-4.426-.021-23.465 4.466-24.549 3.515-.681-.596-3.199-15.809-6.304-24.049-4.036-10.711-7.251-3.894-7.699.063Z"/>
  <path fill="#fff" d="M166.497 337.593s6.047-4.671 10.145-7.54c2.287-1.599 6.452-3.993 8.67-4.4 3.317-.609 17.579-1.038 17.758 2.418.162 3.128-12.138 1.94-12.138 1.94s12.518.102 12.02 3.904c-.498 3.802-14.218.611-14.218.611s12.858.393 11.724 4.234c-.856 2.901-13.443.712-13.443.712s11.05.413 10.297 3.436c-.831 3.34-12.578 2.049-12.578 2.049-3.206 7.36-7.742 9.552-11.156 10.728-.827.285-7.081-18.092-7.081-18.092Z"/>
  <path fill="#000" d="M186.605 329.698c1.471-.04 2.959-.093 4.428-.003a47.22 47.22 0 0 1 4.392.456c3.567.554 5.714 1.46 5.576 1.418-3.281-.979-8.536-1.383-10.006-1.473-1.467-.088-2.929-.251-4.395-.341-.037-.001-.03-.056.005-.057Zm-.42 5.3c1.881.03 3.748-.012 5.628.099 1.87.112 3.635.381 5.493.621.143.017.086.088-.059.076-1.866-.166-3.603-.174-5.471-.317-1.861-.143-3.73-.358-5.595-.434-.029-.001-.025-.045.004-.045Zm-1.178 4.484c2.876-.104 5.766.325 8.592.811.141.024.058.108-.088.091-2.852-.323-5.084-.597-8.501-.802-.053-.003-.064-.098-.003-.1Zm-39.351-17.734 2.058 8.609a248.81 248.81 0 0 0 1.071 4.29c.371 1.417.714 2.875 1.216 4.211.048.146.195.363.121.251.117.02.317.014.487.007.357-.018.722-.049 1.085-.088a77.142 77.142 0 0 0 2.185-.276l4.375-.63 8.74-1.369-.087.039c2.688-2.041 5.418-4.023 8.238-5.873a84.189 84.189 0 0 1 4.301-2.663c1.462-.835 2.957-1.64 4.553-2.187-1.582.584-3.053 1.421-4.493 2.289a81.459 81.459 0 0 0-4.228 2.758 179.61 179.61 0 0 0-8.128 5.988l-.036.03-.051.009a276.52 276.52 0 0 1-8.722 1.532c-1.459.231-2.916.473-4.383.66-.734.094-1.468.184-2.207.254-.371.037-.741.067-1.121.081-.198.002-.369.016-.618-.024l-.093-.017a.426.426 0 0 1-.173-.115c-.066-.072-.085-.117-.118-.168a2.737 2.737 0 0 1-.128-.282c-.971-2.855-1.517-5.734-2.153-8.624-.624-2.886-1.156-5.79-1.691-8.692Z"/>
  <path fill="#000" d="M146.689 323.045c.096.56.109 1.12.121 1.683-.017.561-.02 1.129-.163 1.681-.037-1.124-.075-2.238.042-3.364Z"/>
  <path fill="#BAD7F0" d="M430.8 300.354c-.639 1.093-41.901 71.385-71.095 81.535-29.43 10.221-140.128 10.846-172.127 3.802C114.562 369.622 85.165 262 85.165 262s64.156 84.796 100.367 95.942c29.478 9.073 159.04 18.074 175.25 11.836 16.063-6.185 69.018-68.26 70.018-69.424Z"/>
  <path fill="#000" d="m85.626 263.594 3.251 6.925 3.213 6.945 6.487 13.854a472.462 472.462 0 0 0 3.269 6.915c.566 1.14 1.105 2.297 1.758 3.381.651 1.088 1.377 2.135 2.123 3.166 1.493 2.063 3.069 4.066 4.67 6.05a258.952 258.952 0 0 0 4.857 5.907c-3.392-3.808-6.704-7.694-9.738-11.804-.757-1.029-1.494-2.072-2.162-3.169-.673-1.094-1.223-2.25-1.801-3.387a449.967 449.967 0 0 1-3.327-6.893l-6.372-13.913-3.148-6.972-3.08-7.005Zm7.644 10.446a604.077 604.077 0 0 1 3.995 6.682l3.946 6.706c.654 1.12 1.308 2.242 1.991 3.337.678 1.08 1.587 2.008 2.479 2.94a59.834 59.834 0 0 0 2.825 2.665c.96.87 1.94 1.719 2.941 2.546-2.081-1.552-4.1-3.192-5.977-4.997-.934-.906-1.847-1.853-2.567-2.964-.699-1.1-1.364-2.213-2.028-3.329a508.135 508.135 0 0 1-3.869-6.755 360.632 360.632 0 0 1-3.736-6.831Zm337.529 26.314a1052.847 1052.847 0 0 1-7.908 11.412c-2.659 3.79-5.353 7.553-8.049 11.316l-4.104 5.602a172.14 172.14 0 0 1-2.098 2.77c-.72.926-1.504 1.767-2.245 2.655-1.492 1.766-2.953 3.559-4.415 5.353l-4.39 5.378c2.811-3.678 5.641-7.34 8.575-10.924.725-.901 1.509-1.766 2.209-2.669a183.85 183.85 0 0 0 2.079-2.775l4.072-5.619 8.122-11.26 8.152-11.239Zm-15.508 19.904a186.552 186.552 0 0 1-3.419 4.545c-1.161 1.498-2.352 2.973-3.537 4.452-1.211 1.458-2.411 2.927-3.66 4.354-1.251 1.423-2.507 2.852-3.908 4.134a36.158 36.158 0 0 0 1.869-2.139c.613-.72 1.212-1.455 1.809-2.19l3.588-4.406 3.605-4.394a359.638 359.638 0 0 1 3.653-4.356Z"/>
</svg>
