<svg xmlns="http://www.w3.org/2000/svg" width="28" height="32" fill="none" viewBox="0 0 28 32">
  <path fill="#D9E6F3" d="M18.307 1.227C18.307.548 17.83 0 17.239 0h-6.65C9.997 0 9.52.548 9.52 1.227v3.226h8.786V1.227ZM14.37 9.545l9.35 3.513-.733-6.137H4.835l-.733 6.17 9.61-3.54a.917.917 0 0 1 .659-.006ZM27.405 29.42l-2.63-2.469c-.726-.822-1.68-1.312-2.703-1.37-1.045-.06-2.061.326-2.868 1.096-.676.653-1.715.634-2.414-.039-1.624-1.567-4.015-1.489-5.554.183-.71.77-1.8.79-2.533.052-.813-.823-1.858-1.247-2.937-1.182-1.056.06-2.044.568-2.777 1.443L.405 29.667c-.483.47-.545 1.313-.125 1.861.625.823 1.42.366 1.618.144 0 0 2.693-2.644 2.721-2.677.687-.842 1.817-.908 2.573-.144.784.79 1.789 1.221 2.828 1.195 1.045-.02 2.034-.483 2.795-1.306.698-.757 1.772-.79 2.504-.085.744.719 1.687 1.123 2.664 1.136a3.8 3.8 0 0 0 2.692-1.09c.738-.705 1.84-.64 2.51.15.029.033 2.772 2.612 2.772 2.612.489.457 1.216.379 1.613-.19.398-.567.324-1.397-.165-1.854Z"/>
  <path fill="#D9E6F3" d="m22.527 15.2-7.44-2.795v10.518a6.106 6.106 0 0 1 2.936 1.423c1.107-.94 2.453-1.449 3.834-1.449.107 0 .93.072 1.226.137l2.687-6.62-3.158-1.182-.085-.033ZM5.96 23.001c1.442 0 2.833.555 3.97 1.567.868-.835 1.908-1.39 3.015-1.619V12.411l-10.887 4.01 2.72 6.704c.284-.058 1.08-.124 1.181-.124Z"/>
</svg>
