<svg xmlns="http://www.w3.org/2000/svg" width="14" height="16" fill="none" viewBox="0 0 14 16">
  <path fill="#D9E6F3" d="M9.21.614C9.21.274 8.97 0 8.674 0H5.327C5.03 0 4.79.274 4.79.614v1.612h4.42V.614ZM7.23 4.773l4.704 1.756-.369-3.069H2.433l-.369 3.085 4.835-1.77a.464.464 0 0 1 .331-.002Zm6.558 9.937-1.323-1.234c-.365-.412-.845-.656-1.36-.686a1.927 1.927 0 0 0-1.443.549c-.34.326-.863.316-1.214-.02-.818-.783-2.02-.744-2.795.091a.86.86 0 0 1-1.274.027c-.41-.412-.935-.624-1.478-.591a1.966 1.966 0 0 0-1.397.721l-1.3 1.267a.721.721 0 0 0-.063.93c.314.412.714.183.814.072 0 0 1.355-1.322 1.369-1.338.346-.422.914-.454 1.294-.072.395.395.9.61 1.423.597.526-.01 1.023-.242 1.406-.653a.862.862 0 0 1 1.26-.042c.375.359.85.561 1.34.568a1.92 1.92 0 0 0 1.355-.545c.372-.353.926-.32 1.263.075.015.016 1.395 1.306 1.395 1.306a.529.529 0 0 0 .811-.095c.2-.284.163-.699-.083-.927Z"/>
  <path fill="#D9E6F3" d="M11.334 7.6 7.59 6.203v5.259a3.08 3.08 0 0 1 1.478.711 2.99 2.99 0 0 1 1.928-.725c.055 0 .47.036.618.07l1.351-3.311-1.588-.591-.043-.016Zm-8.336 3.9c.726 0 1.426.278 1.998.784a3.1 3.1 0 0 1 1.517-.81V6.207L1.035 8.21l1.369 3.353c.143-.03.543-.062.594-.062Z"/>
</svg>
