<svg xmlns="http://www.w3.org/2000/svg" width="24" height="25" fill="none" viewBox="0 0 24 25">
  <g clip-path="url(#a)">
    <path fill="#fff" d="M0 .891h24v24H0z"/>
    <path fill="#0857A0" d="M12 3.052c3.206 0 3.586.014 4.847.07 1.172.052 1.805.249 2.226.413.558.216.961.478 1.378.895.422.422.68.82.896 1.379.164.421.36 1.059.412 2.226.057 1.266.07 1.645.07 4.847 0 3.206-.013 3.586-.07 4.847-.051 1.172-.248 1.805-.412 2.226a3.71 3.71 0 0 1-.896 1.379 3.69 3.69 0 0 1-1.378.895c-.421.164-1.059.36-2.226.412-1.266.057-1.645.07-4.847.07-3.206 0-3.586-.013-4.847-.07-1.172-.051-1.805-.248-2.226-.412a3.71 3.71 0 0 1-1.379-.895 3.69 3.69 0 0 1-.895-1.379c-.164-.421-.36-1.059-.412-2.226-.057-1.266-.07-1.645-.07-4.847 0-3.206.013-3.586.07-4.847.051-1.172.248-1.805.412-2.226.216-.558.478-.961.895-1.379a3.69 3.69 0 0 1 1.379-.895c.421-.164 1.059-.36 2.226-.412 1.261-.057 1.64-.07 4.847-.07Zm0-2.16c-3.258 0-3.666.013-4.945.07-1.275.056-2.152.262-2.911.557a5.857 5.857 0 0 0-2.128 1.388A5.88 5.88 0 0 0 .628 5.03C.333 5.794.127 6.666.07 7.941.014 9.226 0 9.634 0 12.891c0 3.258.014 3.666.07 4.946.057 1.275.263 2.151.558 2.91.31.793.717 1.463 1.388 2.129a5.866 5.866 0 0 0 2.123 1.383c.764.295 1.636.501 2.911.557 1.28.057 1.688.07 4.945.07 3.258 0 3.666-.013 4.946-.07 1.275-.056 2.151-.262 2.91-.557a5.866 5.866 0 0 0 2.124-1.383 5.867 5.867 0 0 0 1.383-2.124c.295-.764.501-1.636.558-2.91.056-1.28.07-1.688.07-4.946s-.014-3.666-.07-4.945c-.057-1.275-.263-2.152-.558-2.911a5.62 5.62 0 0 0-1.374-2.133 5.866 5.866 0 0 0-2.123-1.383c-.764-.295-1.636-.501-2.911-.558C15.666.906 15.258.891 12 .891Z"/>
    <path fill="#0857A0" d="M12 6.727a6.166 6.166 0 0 0-6.164 6.164A6.166 6.166 0 0 0 12 19.055a6.166 6.166 0 0 0 6.164-6.164A6.166 6.166 0 0 0 12 6.727Zm0 10.163a3.999 3.999 0 1 1 .001-7.998A3.999 3.999 0 0 1 12 16.89Zm7.847-10.406a1.44 1.44 0 1 1-2.879-.001 1.44 1.44 0 0 1 2.879 0Z"/>
  </g>
  <defs>
    <clipPath id="a">
      <path fill="#fff" d="M0 0h24v24H0z" transform="translate(0 .891)"/>
    </clipPath>
  </defs>
</svg>
