<svg xmlns="http://www.w3.org/2000/svg" width="571" height="543" fill="none" viewBox="0 0 571 543">
  <path fill="#A6D1F6" d="m233.484 457.293 35.004-2.294 1.223 30.935-35.003 2.293-1.224-30.934Z"/>
  <path fill="#20262B" d="m284.014 485.51-.216-.397c15.712-7.662 20.884-15.757 19.433-18.815-.799-1.684-1.837-2.559-3.084-2.6-1.036-.035-2.231.471-3.591 1.511-1.63 4.129-6.42 10.748-14.474 20.024l-.389-.248c5.964-10.529 10.749-17.164 14.479-20.054.545-1.414.686-2.499.42-3.251-.208-.59-.672-.96-1.419-1.129-1.013-.229-1.97-.067-2.925.498-3.195 1.889-6.101 8.272-8.638 18.971l-.459-.099c2.601-10.972 5.496-17.269 8.848-19.252 1.052-.622 2.157-.807 3.283-.551.906.206 1.495.683 1.756 1.42.253.718.185 1.689-.211 2.916 1.234-.837 2.342-1.234 3.337-1.202 1.442.047 2.618 1.011 3.496 2.862 1.57 3.31-3.487 11.517-19.646 19.396Zm11.772-19.671c-3.302 2.879-7.474 8.65-12.478 17.264 6.566-7.692 10.736-13.466 12.478-17.264Z"/>
  <path fill="#5280AC" d="m233.116 480.796 41.951-12.64c3.126 6.022 7.64 10.525 13.54 13.508 8.851 4.476 22.804 8.27 29.112 27.6l-55.968 1.392-7.786-6.687-.553 5.994-23.062.832 2.766-29.999Z"/>
  <path fill="#D9DFE6" d="m271.226 483.588-.225-.392 13.583-7.013.225.392-13.583 7.013Zm5.402 2.734-.225-.392 13.583-7.014.225.393-13.583 7.013Zm5.4 2.734-.225-.392 13.583-7.014.225.393-13.583 7.013Z"/>
  <path fill="#A6D1F6" d="M167.967 451.436h29.999v31.018h-29.999v-31.018Z"/>
  <path fill="#5280AC" d="m168.284 470.25-1.422 4.268a82.24 82.24 0 0 0-4.233 26.023v11.362h41.666l-1.135-17.104a82.228 82.228 0 0 0-2.394-14.961l-2.455-9.588h-30.027Z"/>
  <path fill="#D9DFE6" d="M194.229 491.096h-23.684v-.446h23.684v.446Zm0-6.204h-23.684v-.446h23.684v.446Zm0-7.089h-23.684v-.446h23.684v.446Z"/>
  <path fill="#223C5D" d="m243.904 150.622 8.623 11.852c9.139 22.852 14.38 41.102 15.723 54.752 3.211 32.639 5.7 115.013 7.466 247.12h-48.445l-.426-133.308-3.896-95.054-6.595 95.591-6.483 132.771h-48.422c4.096-142.134 9.008-225.626 14.733-250.476 2.733-11.862 10.365-28.994 22.896-51.392l-.513-11.856h45.339Z"/>
  <path fill="#D9DFE6" d="m165.658 464.358-.47-.022 11.719-220.416a71.557 71.557 0 0 1 4.27-20.808l2.739-7.483a83.557 83.557 0 0 0 1.723-5.241l7.66-26.224.455.119-7.662 26.224a83.112 83.112 0 0 1-1.731 5.268l-2.738 7.484a71.084 71.084 0 0 0-4.245 20.684l-11.72 220.415Zm57.523-225.736-.464-.079 5.126-26.988.462.08-5.124 26.987Z"/>
  <path fill="#D9DFE6" d="m235.277 464.358-12.563-234.043.47-.023 12.562 234.044-.469.022Z"/>
  <path fill="#A6D1F6" d="m138.753 133.959-.331-.325.045-.054 16.639-17.095 18.512 25.539c-13.121 13.507-20.898 21.062-23.342 22.688a15.3 15.3 0 0 1-2.387 1.28c-20.579 7.317-20.305-23.642-9.17-32.076m167.745.389 27.996-35.74c-1.342-2.72-2.179-5.63-2.51-8.73l-2.337-9.083c-.284-1.106.39-2.233 1.536-2.568 1.148-.336 2.373.234 2.797 1.301l2.605 6.557 1.373-1.815a64.738 64.738 0 0 0 8.127-14.146l2.38-5.716c.427-1.026 1.627-1.553 2.728-1.197 1.091.352 1.681 1.47 1.327 2.51l-3.275 9.605a61.684 61.684 0 0 1-2.078 5.285l-.394.863a15.394 15.394 0 0 0 4.456-5.54l4.253-8.998c.517-1.093 1.855-1.6 3.024-1.147 1.16.452 1.718 1.707 1.251 2.811l-5.178 12.24-1.372 3.317a32.13 32.13 0 0 0 4.376-6.77l3.371-7.03c.504-1.051 1.787-1.543 2.918-1.118 1.04.391 1.571 1.478 1.235 2.475l-.07.178-4.132 9.186c-.2.445-.404.887-.612 1.328l-2.414 5.127 1.675-1.616a49.994 49.994 0 0 0 4.222-4.613l1.109-1.377c.446-.555 1.283-.661 1.868-.237l.051.039c.617.495.766 1.34.353 2l-.937 1.497a41.801 41.801 0 0 1-3.692 5.02l-3.737 4.36-8.146 11.798-26.473 49.417c-1.55 3.257-7.917 10.72-12.224 13.407-4.306 2.687-11.795.981-15.582-1.261-2.524-1.494-10.711-8.659-24.559-21.491l17.085-26.43 17.606 16.302Z"/>
  <path fill="#17263A" d="m343.082 101.215-.426-.19c1.635-3.329 1.975-6.241 1.01-8.659-.997-2.497-3.423-4.557-7.209-6.119l.188-.41c3.906 1.612 6.418 3.757 7.461 6.371 1.012 2.535.667 5.565-1.024 9.007Zm14.305-12.758c-3.895-3.117-8.426-5.456-13.468-6.951l.141-.426c5.102 1.513 9.687 3.88 13.629 7.036l-.302.341Z"/>
  <path fill="#17263A" d="m346.614 82.072-.424-.195c1.602-3.157 2.624-5.548 3.039-7.107l.457.11c-.422 1.587-1.457 4.007-3.072 7.192Zm6.185 2.734-.427-.19 2.929-5.96.426.188-2.928 5.963Zm4.952 3.574-.426-.188 3.486-7.097.426.189-3.486 7.096Zm-52.611 56.555-.465-.062 1.556-10.598.466.061-1.557 10.599Z"/>
  <path fill="#4F81AF" d="M194.84 85.559h52.522c3.37 0 6.687.791 9.656 2.306 3 1.53 5.763 3.448 8.208 5.7l31.026 28.571-23.264 23.531-13.158-8.624 2.789 32.217c.446 5.164-1.083 10.308-4.309 14.488-7.779 5.194-18.796 7.791-33.052 7.791-14.255 0-25.917-2.287-34.985-6.86-4.094-4.797-6.337-10.779-6.356-16.952l-.096-30.684-11.052 9.436-25.9-24.343 27.373-26.223a55.217 55.217 0 0 1 9.398-7.228c3.34-2.041 7.228-3.126 11.2-3.126Z"/>
  <path fill="#4E7EAB" d="m257.572 120.032 24.882 16.057-9.466 9.578-13.145-8.615-2.271-17.02Zm-60.203 4.802c-4.605 25.563-.253 46.243 13.057 51.683 18.417 7.529 37.124 8.145 49.402 4.977a20.748 20.748 0 0 1-1.267 1.922l-.251.332c-7.779 5.194-18.796 7.791-33.052 7.791-14.255 0-25.917-2.287-34.985-6.86-4.094-4.797-6.339-10.78-6.361-16.955l-.091-30.681-1.148.979 14.696-13.188Z"/>
  <path fill="#17263A" d="m182.522 139.063-.341-.307 16.393-16.419.342.308-16.394 16.418Zm77.073-1.996-2.257-19.845.467-.047 2.257 19.845-.467.047Z"/>
  <path fill="#D9DFE6" d="m174.644 142.447-25.86-23.979.329-.319 25.86 23.978-.329.32Zm96.327 1.361-.349-.3 22.51-23.625.348.3-22.509 23.625Z"/>
  <path fill="#A6D1F6" d="M427.761 139.423c10.347 8.661 7.752 32.845-6.557 27.848a15.541 15.541 0 0 1-4.146-2.895l-16.068-15.598-1.404-1.366 5.333-5.225 12.002-11.751 2.433 2.017 8.108 6.72.034.033.265.217Zm-49.225 317.124 37.194-1.638 1.742 28.171-37.194 1.638-1.742-28.171Z"/>
  <path fill="#20262B" d="m432.654 482.901-.185-.411c13.087-5.338 19.114-10.952 20.392-14.426.351-.953.351-1.783.001-2.401-.896-1.583-2.003-2.372-3.383-2.413-1.101-.032-2.36.417-3.781 1.341-1.688 3.749-6.685 9.708-15.103 18.033l-.37-.272c6.202-9.519 11.196-15.501 15.117-18.078.51-1.173.658-2.096.444-2.766-.199-.616-.719-1.003-1.59-1.182-4.682-.965-8.734 4.943-12.043 17.556l-.456-.108c1.68-6.401 3.574-11.148 5.633-14.108 2.103-3.025 4.446-4.295 6.965-3.777 1.038.213 1.692.715 1.94 1.489.206.642.126 1.471-.244 2.495 1.288-.745 2.457-1.101 3.501-1.068 1.542.044 2.815.934 3.785 2.647.413.731.424 1.685.029 2.76-1.31 3.563-7.425 9.293-20.652 14.689Zm12.278-17.777c-3.483 2.572-7.855 7.786-13.072 15.591 6.899-6.939 11.269-12.155 13.072-15.591Z"/>
  <path fill="#223C5D" d="m378.479 477.934 44.437-10.967c3.411 5.522 8.276 9.678 14.593 12.47 9.477 4.187 24.371 7.819 31.355 25.493l-59.505.549-8.377-6.186-.501 5.449-24.515.461 2.513-27.269Z"/>
  <path fill="#D9DFE6" d="m419.026 480.988-.195-.407 14.346-6.209.195.407-14.346 6.209Zm5.783 2.557-.195-.406 14.346-6.21.195.407-14.346 6.209Zm5.783 2.558-.195-.406 14.347-6.209.195.406-14.347 6.209Z"/>
  <path fill="#A6D1F6" d="M307.147 454.728h31.941v28.195h-31.941v-28.195Z"/>
  <path fill="#223C5D" d="m307.485 471.829-.359.917a82.377 82.377 0 0 0-5.663 29.979v6.966h44.363l-1.06-13.639a82.34 82.34 0 0 0-3.229-17.284l-2.083-6.939h-31.969Z"/>
  <path fill="#D9DFE6" d="M335.108 490.798h-25.216v-.445h25.216v.445Zm0-5.639h-25.216v-.446h25.216v.446Zm0-6.444h-25.216v-.447h25.216v.447Z"/>
  <path fill="#5FADF1" d="m325.196 174.721-1.672 9.084c-14.109 24.967-22.781 55.32-26.011 91.061-3.231 35.742-6.23 98.867-8.995 189.373h64.587l5.041-215.951 9.321 215.951h67.65c-7.829-93.44-14.422-156.564-19.782-189.373-5.359-32.808-14.034-63.162-26.024-91.061l-2.913-9.889-61.202.805Z"/>
  <path fill="#4F9FD8" d="m358.132 248.858-.604-22.277 1.282 6.71c20.725 108.947 31.647 185.931 32.765 230.95h-24.108l-9.321-215.953-.014.57Z"/>
  <path fill="#D9DFE6" d="M301.228 463.551c-.035-75.177 2.481-136.693 7.48-182.841 5.001-46.171 12.629-78.271 22.674-95.41l.411.217c-10.014 17.086-17.623 49.129-22.617 95.239-4.996 46.133-7.512 107.633-7.478 182.795h-.47Z"/>
  <path fill="#D9DFE6" d="M311.874 463.551c-.034-75.177 2.482-136.693 7.481-182.841 5-46.171 12.629-78.271 22.674-95.41l.411.217c-10.014 17.086-17.623 49.129-22.617 95.239-4.996 46.133-7.512 107.633-7.478 182.795h-.471Z"/>
  <path fill="#223C5D" d="m342.201 106.574 5.669-2.741 53.704 100.045-5.343 3.35-54.03-100.654Z"/>
  <path fill="#000" d="m395.26 192.116 1.753 3.266-6.632.949-1.471-2.741 6.35-1.474Z"/>
  <path fill="#B0E7FD" d="m316.726 110.446 17.073-4.792a95.393 95.393 0 0 1 20.373-3.389l13.748-.776a95.745 95.745 0 0 1 15.999.437l.167.019c5.28.588 10.203 2.832 13.988 6.376l23.587 22.082-21.451 19.073-10.605-7.883-1.453 33.139c-.196 4.481-2.58 8.619-6.448 11.194-9.782 3.529-20.495 5.715-32.137 6.563-11.641.848-20.639-.409-26.991-3.769-3.485-3.82-5.326-8.747-5.155-13.798l.643-18.954-4.552 9.581-32.24-7.028 17.126-35.907c1.578-3.307 4.224-6.053 7.555-7.837a53.283 53.283 0 0 1 10.773-4.331Z"/>
  <path fill="#1878D1" d="m317.89 156.409 3.381-10.59.001 1.165c.098 18.841 3.076 28.635 10.75 29.379l.726.069c12.097 1.106 40.962 2.143 54.958-5.124l.612-.327-.166 3.751c-.192 4.372-2.466 8.417-6.168 11.004l-.28.19c-9.782 3.529-20.495 5.715-32.137 6.563-11.641.848-20.639-.409-26.991-3.769-3.485-3.82-5.326-8.747-5.155-13.798l.643-18.954-.174.441Z"/>
  <path fill="#223C5D" d="m329.193 113.062 54.878 102.233-5.669 2.743-54.696-101.896 5.487-3.08Z"/>
  <path fill="#92BCE1" d="m369.518 101.567-.037.094-.141.333c-2.097 4.782-8.442 11.641-21.914 12.858-9.699.876-16.21-1.637-19.532-7.539l5.905-1.659a95.393 95.393 0 0 1 20.373-3.389l10.172-.574a79.763 79.763 0 0 1 5.174-.124Z"/>
  <path fill="#0857A0" d="m356.218 201.85 46.553-10.382 3.12 7.186c4.57 10.526-.715 22.575-11.805 26.913-.81.317-1.638.587-2.482.809-13.338 3.503-27.273-3.319-31.997-15.667l-3.389-8.859Z"/>
  <path fill="#000" d="M384.97 225.025c-8.779 0-16.975-5.212-20.044-13.408l-2.919-7.795 37.735-8.6 2.7 6.355c1.787 4.206 1.741 8.822-.128 12.995-1.869 4.174-5.34 7.406-9.771 9.103-.595.227-1.207.427-1.823.591a22.186 22.186 0 0 1-5.75.759Zm-22.344-20.885 2.743 7.328c3.651 9.752 14.732 15.185 25.222 12.369.6-.16 1.197-.355 1.776-.577 4.315-1.652 7.694-4.798 9.514-8.862 1.82-4.064 1.865-8.559.125-12.654l-2.548-5.998-36.832 8.394Z"/>
  <path fill="#223C5D" d="m326.339 107.747 43.814 81.62a118.39 118.39 0 0 1-6.418 1.347l-43.6-81.226 6.204-1.741Z"/>
  <path fill="#17263A" d="m318.118 156.466-.455-.114 3.574-12.752.455.115-3.574 12.751Z"/>
  <path fill="#1878D1" d="M389.605 141.593v-9.427l17.301 11.324-6.696 5.986-10.605-7.883Z"/>
  <path fill="#17263A" d="M389.841 143.038h-.472v-15.573h.472v15.573Z"/>
  <path fill="#D9DFE6" d="M344.137 115.579c-7.14 0-12.651-2.724-16.439-8.144l.392-.246c4.918 7.038 12.839 9.414 23.543 7.063 9.505-2.087 15.266-6.444 17.126-12.948l.453.116c-1.908 6.675-7.786 11.139-17.473 13.267-2.708.595-5.244.892-7.602.892Zm-30.948 46.985-31.968-6.815.103-.436 31.968 6.815-.103.436Zm85.232-14.933-.331-.318 21.369-20.006.331.317-21.369 20.007Z"/>
  <path fill="#A6D1F6" d="M295.201 198.056c-5.55 5.073-17.113 9.171-22.366.217a18.872 18.872 0 0 1 .685-13.051l11.055-25.962 28.527 6.157-9.935 22.255-.069.151-.125.282-2.376 4.781m61.383-5.735.274.456-2.159-.131.023-.444 1.862.119Zm6.064.824-3.986-.249 3.997.021-.011.228Zm8.702 12.043c0 .076-.012.152-.023.228l-10.849.52-.023-.455 10.883-.509.012.216Z"/>
  <path fill="#223C5D" d="M354.861 41.768c-9.226-6.917-17.535-7.59-24.922-2.021-7.388 5.57-9.904 13.416-7.547 23.539.774 5.397-.053 11.106-2.482 17.127-3.644 9.033-6.003 27.987 24.655 26.492 30.658-1.495 44.143-15.275 29.964-32.408-3.635-4.11-5.714-7.98-6.235-11.613-.783-5.451-4.92-22.038-13.433-21.116Z"/>
  <path fill="#92BCE1" d="M329.42 71.339c-2.14-1.85-3.941-2.304-5.404-1.367-2.194 1.407.458 9.614 7.54 7.178 4.722-1.626 4.011-3.562-2.136-5.811Zm32.765-3.767c1.55-2.247 3.168-3.07 4.851-2.472 2.526.898 2.283 9.417-5.274 8.56-5.039-.573-4.898-2.602.423-6.088Zm-24.55 16.034 16.78-1.821 5.099 23.089c-3.815 2.038-8.219 3.902-10.677 4.169-2.458.267-5.991.188-9.636-1.964l-1.566-23.473Z"/>
  <path fill="#A6D1F6" d="M326.326 62.246c1.799 7.321 3.371 12.353 4.72 15.091 4.112 8.353 10.433 12.727 16.325 12.455 13.186-.61 16.487-18.155 14.833-29.664-4.254-2.23-7.287-5.447-9.099-9.648-3.041-.931-6.53 1.19-10.467 6.364-3.936 5.172-9.374 6.973-16.312 5.402Z"/>
  <path fill="#223C5D" d="m349.355 60.058 5.554.446a.838.838 0 0 1 .777.86l-.001.018a.815.815 0 0 1-.893.744l-5.555-.447a.839.839 0 0 1-.777-.86l.001-.017c.033-.45.43-.78.894-.744Zm-11.184 1.322-5.258 1.6a.77.77 0 0 0-.507.997l.007.016c.161.43.64.667 1.078.534l5.258-1.6a.77.77 0 0 0 .5-1.013.886.886 0 0 0-1.078-.533Z"/>
  <path fill="#17263A" d="M351.58 67.35c.731-.078 1.41.433 1.515 1.142.105.708-.404 1.347-1.136 1.426-.732.078-1.411-.433-1.515-1.141-.105-.71.404-1.348 1.136-1.427Zm-13.535 1.552c.732-.079 1.409.433 1.514 1.141.105.709-.403 1.348-1.135 1.426-.732.079-1.411-.432-1.515-1.14-.105-.71.404-1.348 1.136-1.427Z"/>
  <path fill="#D9DFE6" d="m340.846 79.825 10.713-1.141c-.779 3.63-2.307 5.567-4.586 5.81-2.28.243-4.322-1.313-6.127-4.669Zm12.141-6.208c-3.042.325-5.88-1.84-6.33-4.828-.449-2.987 1.659-5.683 4.7-6.008 3.041-.326 5.88 1.84 6.33 4.828.449 2.988-1.659 5.682-4.7 6.008Zm-1.562-10.388c-2.79.298-4.725 2.77-4.313 5.512.412 2.74 3.017 4.726 5.807 4.428 2.79-.299 4.724-2.77 4.311-5.511-.412-2.741-3.016-4.728-5.805-4.43Zm-12.876 12.043c-3.041.325-5.881-1.84-6.33-4.827-.449-2.988 1.659-5.684 4.701-6.01 3.041-.325 5.88 1.841 6.329 4.829.449 2.988-1.658 5.682-4.7 6.008Zm-1.562-10.388c-2.79.298-4.724 2.77-4.312 5.512.412 2.74 3.017 4.726 5.807 4.428 2.79-.299 4.723-2.77 4.311-5.511-.412-2.741-3.016-4.728-5.806-4.43Z"/>
  <path fill="#D9DFE6" d="M357.65 67.802a.244.244 0 0 1-.252-.156.222.222 0 0 1 .137-.291l5.751-1.92a.244.244 0 0 1 .302.146.221.221 0 0 1-.137.292l-5.752 1.919a.238.238 0 0 1-.049.01Zm-25.3 2.942a.226.226 0 0 1-.085-.007l-4.717-1.233a.238.238 0 0 1-.176-.28.225.225 0 0 1 .28-.16l4.717 1.233a.236.236 0 0 1 .175.279.221.221 0 0 1-.194.168Zm14.437-1.681-3.595.393a.243.243 0 0 1-.265-.208.228.228 0 0 1 .202-.259l3.595-.392a.24.24 0 0 1 .263.208.226.226 0 0 1-.2.258Z"/>
  <path fill="#17263A" d="M346.391 76.716c-.895.097-1.59-.087-2.064-.547-.617-.598-.842-1.615-.691-3.11l.456.059c-.135 1.33.05 2.25.551 2.738.367.356.935.495 1.683.414l.065.446Z"/>
  <path fill="#223C5D" d="M333.464 63.88c-2.502.27-5.034-.105-7.239-1.237l.211-.403c5.936 3.052 14.355.392 17.663-5.58 2.225-4.016 5.296-6.293 9.128-6.766l.21-.026.053.202c1.624 6.19 4.721 9.554 9.208 10.001l-.036.454c-4.658-.465-7.878-3.878-9.572-10.15-3.582.51-6.466 2.7-8.577 6.51-2.195 3.961-6.57 6.511-11.049 6.994Z"/>
  <path fill="#17263A" d="m375.898 186.234-.033.005-10.612 2.089-.104-.468 10.648-2.082.05.222.051.234Zm-10.651-11.295.029.237-.011.001.029.237-3.974.308-1.801.133-2.151.172-.057-.462 1.856-.141 6.08-.485Zm-59.998 9.05.048.333.011.123a32.36 32.36 0 0 0-2.043.22l-.269.038c-.381.054-.772.121-1.149.197-6.013 1.109-11.803 3.83-17.274 8.129l-.294-.356c4.192-3.29 8.559-5.675 13.082-7.129l.056-.008a35.213 35.213 0 0 1 3.636-.955 32.388 32.388 0 0 1 3.72-.548c.157-.022.317-.033.476-.044Z"/>
  <path fill="#A6D1F6" d="m376.087 178.363-8.409 2.361 6.83-.268c.025.007.047.004.07.001 1.242-.009 2.289.965 2.318 2.175l.013.336a4.795 4.795 0 0 1-1.227 3.369l-.05-.218-10.619 2.047.104.458 10.583-2.054c.108 1.727-.913 3.324-2.561 3.976l-7.854 3.091 9.703.737c.829.061 1.505.695 1.578 1.505l.006.033c.053.757-.536 1.404-1.314 1.436l-6.485.265a71.74 71.74 0 0 1-15.789-1.081l-1.354-.233c-6.031-1.082-12.204-.548-17.85 1.542l-32.771 12.131c-7.43 2.75-15.903 1.342-22.167-3.676l-.013-.009a21.039 21.039 0 0 1-5.706-7.088c-.107-7.09 14.447-11.713 24.258-14.028-4.536 1.459-8.92 3.84-13.136 7.119l.293.352c5.501-4.284 11.312-7.004 17.336-8.125l1.152-.198.269-.039a32.468 32.468 0 0 1 2.046-.225l-.01-.122.236-.034 35.593-5.98 11.123-3.503 4.493-1.632 2.085 2.613-1.853.142.056.453 2.147-.173.076.102 1.721-.235 3.966-.309-.029-.232.011-.001 10.614-1.552c.056-.009.114-.006.17-.014 1.173-.077 2.223.784 2.332 1.927.127 1.308-.701 2.495-1.985 2.858ZM490.263 96.9c-.33.338-.519.79-.518 1.252a1.694 1.694 0 0 0 .892 1.472c.323.179.678.295 1.032.334a2.935 2.935 0 0 0 2.372-.84 1.828 1.828 0 0 0 .54 1.565l.04.037c.328.3.741.478 1.162.524a2.203 2.203 0 0 0 1.726-.57l1.01-.924c-3.867 5.296-6.306 8.482-7.315 9.548-1.288 1.366-3.818 1.584-7.58.666l-39.997 52.04a19.554 19.554 0 0 1-13.641 7.524 15.972 15.972 0 0 1-3.382-.04 15.297 15.297 0 0 1-6.516-2.352c-4.752-6.008 4.974-20.505 9.855-27.053l-1.306 9.084.454.05 1.354-9.42-.221-.024 2.115-2.034 41.654-40.002a33.862 33.862 0 0 0 7.2-10l.812-1.738c.841-1.777 2.987-2.61 4.8-1.839.202.088.401.187.585.317l-.139.183 6.822 5.157c.518.387.593 1.12.181 1.636a1.267 1.267 0 0 1-.371.312c-1.17.62-2.521.702-3.711.21l-3.676-1.514.197.506c1.833 4.632.666 8.673-3.481 12.002l.287.35c4.162-3.35 5.453-7.398 3.812-12.032l2.666 1.106c1.329.541 2.827.452 4.12-.242.196-.11.375-.256.512-.428.576-.718.463-1.73-.248-2.27l-2.01-1.518L502.68 73.79c.586-.794 1.7-1.024 2.529-.526a1.736 1.736 0 0 1 .575 2.416l-9.273 15.261-.21-.187-6.038 6.146Z"/>
  <path fill="#A6D1F6" d="m489.972 92.815-2.634-1.103c1.629 4.62.361 8.657-3.743 11.995l-.284-.349c4.089-3.319 5.234-7.347 3.416-11.966l-.196-.504 3.633 1.51c1.176.492 2.51.41 3.664-.208.145-.083.271-.19.366-.31.406-.515.331-1.247-.182-1.632l-6.745-5.144.136-.182 10.136-14.302c.511-.71 1.482-.899 2.195-.436.743.488.987 1.436.586 2.235l-8.052 15.925-.139.28.18-.253 1.988 1.514c.702.538.815 1.548.248 2.263a1.74 1.74 0 0 1-.504.427c-1.276.692-2.755.78-4.069.24Zm10.318 5.244-.833 1.144c-.242.337-.481.664-.708.981l-1.017.926a2.22 2.22 0 0 1-1.735.572 2.08 2.08 0 0 1-1.169-.525l-.04-.037a1.83 1.83 0 0 1-.543-1.57 2.956 2.956 0 0 1-2.385.843 2.797 2.797 0 0 1-1.038-.334 1.495 1.495 0 0 1-.349-.247 1.69 1.69 0 0 1-.547-1.228 1.8 1.8 0 0 1 .521-1.255l6.075-6.163.21.188-.147.238.092.065 2.776 1.934.144.104.041.026c1.395 1.001 1.683 2.918.652 4.338Z"/>
  <path fill="#17263A" d="M494.634 92.108a1.745 1.745 0 0 1-.508.427c-1.285.693-2.775.781-4.097.24l-2.651-1.104c1.635 4.626.355 8.668-3.78 12.011l-.286-.35c4.121-3.323 5.277-7.356 3.451-11.981l-.197-.505 3.657 1.511c1.183.493 2.527.41 3.689-.208a1.27 1.27 0 0 0 .369-.31c.409-.516.334-1.248-.182-1.635l-6.787-5.15.138-.182.149-.18 4.746 3.607.041.026 2 1.516c.707.539.82 1.55.248 2.267Zm5.137 1.772-4.192 4.282-1.339 1.363-.012.01-.002.01a2.952 2.952 0 0 1-2.383.843 2.815 2.815 0 0 1-1.037-.333 1.7 1.7 0 0 1-.895-1.475 1.798 1.798 0 0 1 .521-1.255l6.069-6.16.21.188.13.114-.185.19-5.894 5.969a1.287 1.287 0 0 0 .014 1.853c.08.074.172.14.268.183.932.509 2.111.33 2.868-.448l5.517-5.625.014-.02.129.124.199.187Z"/>
  <path fill="#17263A" d="m499.728 99.359-.879.812-1.022.929a2.228 2.228 0 0 1-1.743.574 2.081 2.081 0 0 1-1.175-.526l-.04-.037a1.833 1.833 0 0 1-.545-1.575l.001-.011c.059-.403.251-.792.58-1.099l.53-.518.25.237.069.074-.53.518c-.584.579-.602 1.484-.023 2.045l.029.036c.634.567 1.637.554 2.28-.04l1.901-1.741.149.148.168.174Zm-69.579 40.054-1.222 9.366-.442-.051 1.222-9.365.442.05Z"/>
  <path fill="#A6D1F6" d="M149.099 165.191c-2.997 1.9-7.248 3.396-10.813 2.856a8.2 8.2 0 0 1-1.814-.497c-4.724-1.914-12.441-8.185-14.621-11.137l-35.964-44.257-10.355-10.255-4.525-3.657a45.322 45.322 0 0 1-4.62-4.328l-1.218-1.311c-.534-.582-.57-1.448-.085-2.038l.048-.05c.473-.523 1.294-.56 1.845-.09l1.365 1.17a52.62 52.62 0 0 0 5.04 3.835l1.203.795 1.034 1.367.184-.122.181.142c3.1-3.752 6.972-6.853 11.509-9.19l-.223-.4c-.66.336-1.304.704-1.936 1.082-2.191-2.807-3.656-4.968-4.387-6.429l-.127.06-4.927-8.475a1.952 1.952 0 0 1 .748-2.716 2.227 2.227 0 0 1 2.88.715l3.506 5.24a69.093 69.093 0 0 0 10.826 12.575l1.525 1.393c-3.392 2.27-5.347 4.808-5.795 7.552-.446 2.689.529 5.617 2.892 8.722l.368-.256c-2.28-3.005-3.226-5.826-2.804-8.38.43-2.643 2.33-5.098 5.654-7.292l-.13-.182 1.121-6.927c.185-1.125 1.24-1.908 2.417-1.771 1.178.137 2.061 1.127 2.028 2.277l-.337 9.372c.336 3.12.147 6.139-.568 9.061l28.274 24.951 6.273 5.528-.227.073 3.75 10.199.431-.142-3.621-9.885c8.463 8.611 21.036 23.62 13.995 30.822Z"/>
  <path fill="#A6D1F6" d="m87.256 88.482.226.404c-4.477 2.329-8.283 5.428-11.314 9.184l-.181-.144-.182.122-1.044-1.376.763.514-3.449-4.677c-.29-.385-.57-.771-.838-1.159l-.044-.06-5.994-8.416-.107-.163c-.542-.941-.278-2.104.628-2.67.987-.61 2.326-.346 3.04.607l4.777 6.417a35.223 35.223 0 0 0 5.693 5.971l-.257-.389-1.791-2.668-1.305-1.92-6.367-9.354c-.69-1.011-.434-2.361.572-2.996 1.013-.658 2.4-.376 3.142.617l6.063 8.218a16.519 16.519 0 0 0 5.112 4.537c.125.073.248.135.373.208l-.563-.794a68.043 68.043 0 0 1-3.158-4.89l-.268-.454.125-.06c.744 1.469 2.227 3.644 4.439 6.47a32.242 32.242 0 0 1 1.91-1.08Zm8.264 3.373.129.182c-3.23 2.182-5.065 4.629-5.46 7.268-.387 2.551.567 5.372 2.828 8.381l-.357.255c-2.344-3.109-3.327-6.037-2.918-8.722.411-2.741 2.299-5.272 5.595-7.528l.17.154.012.01Z"/>
  <path fill="#17263A" d="M90.186 99.307c-.39 2.55.563 5.371 2.824 8.378l-.358.255c-2.344-3.107-3.326-6.035-2.913-8.72.414-2.74 2.305-5.271 5.608-7.53.009-.011.03-.014.04-.026l.13.181.012.01.13.182c-3.237 2.183-5.076 4.63-5.473 7.27Zm-2.718-10.57c-4.522 2.342-8.367 5.46-11.428 9.242l-.184-.145-.184-.145c.067-.075.123-.149.19-.224a33.859 33.859 0 0 1 3.786-3.927c.106-.113.227-.206.338-.287a34.51 34.51 0 0 1 4.933-3.598c.121-.093.256-.166.392-.238a32.54 32.54 0 0 1 1.929-1.086l.228.408Z"/>
  <path fill="#17263A" d="m85.516 89.533-.367.267a.534.534 0 0 1-.072-.101c-.196-.24-.37-.483-.552-.713-1.867-2.476-3.157-4.419-3.836-5.766l.278-.134.124-.06c.731 1.462 2.19 3.626 4.37 6.437.014.02.04.05.055.07Zm-5.89 4.063-4.076-5.398.363-.26 4.076 5.399-.363.258Zm-3.791 4.149-.178.132-.18.122-1.031-1.37-3.818-5.057.338-.241.02-.014 4.677 6.196.172.231Zm63.018 46.159-.417.142-3.673-10.168.22-.072.063-.02.146-.051.115.314 3.546 9.855Z"/>
  <path fill="#223C5D" d="M210.312 54.265c-2.288-6.93-2.019-11.293.81-13.093 2.413-9.405 9.586-14.911 21.52-16.52 17.901-2.41 21.972 5.955 22.267 9.352.296 3.397-1.275 9.242-6.621 11.158.51 5.074-1.003 9.646-4.535 13.714l-33.441-4.611Z"/>
  <path fill="#223C5D" d="M217.59 36.167c.318 3.322 1.979 5.63 4.983 6.926 4.508 1.944-7.538 11.025-8.558 4.275-.679-4.5.512-8.234 3.575-11.201Zm37.349-1.947c.243 2.801-.778 7.279-4.146 9.808-1.95 1.177-2.809 1.915-7.563 1.558-.65-.049-1.113.438-1.931.407 6.405-3.033 9.835-6.156 10.29-9.367.594-4.2-1.055-9.03-6.204-11.407 7.304 1.831 9.347 6.631 9.554 9Z"/>
  <path fill="#92BCE1" d="M212.918 55.374c-1.046-2.256-2.422-3.476-4.125-3.66-2.556-.278-4.162 7.52 3.116 10.783l1.009-7.123Zm29.862 4.222c1.209-2.01 2.664-2.922 4.366-2.737 2.552.277 2.585 8.25-5.373 9.858l1.007-7.12Zm-25.907 12.838 17.267 1.867-2.001 14.037c-.664 4.655-5.068 8.012-9.836 7.496-4.769-.515-8.095-4.707-7.432-9.362l2.002-14.037Z"/>
  <path fill="#A6D1F6" d="m213.025 50.114-1.318 12.124a18.754 18.754 0 0 0 2.991 12.4l.854 1.291c1.82 2.754 4.819 4.552 8.196 4.917 3.404.368 6.854-.63 9.558-2.767l1.595-1.26c3.75-2.961 6.274-7.14 7.086-11.728l2.698-15.24a5.236 5.236 0 0 0-1.403-4.585c-11.497.047-19.407-1.433-23.729-4.444-3.638 1.85-6.101 5.357-6.528 9.292Z"/>
  <path fill="#223C5D" d="m233.191 50.558 4.66 1.423c.384.117.588.52.455.9l-.005.011a.791.791 0 0 1-.965.478l-4.659-1.424a.692.692 0 0 1-.455-.898l.004-.013a.79.79 0 0 1 .965-.477Zm-9.952-1.172-4.925.406a.754.754 0 0 0-.697.777v.012a.73.73 0 0 0 .801.666l4.924-.407a.752.752 0 0 0 .697-.776l-.001-.013a.726.726 0 0 0-.799-.665Z"/>
  <path fill="#17263A" d="M233.485 57.326a1.12 1.12 0 0 1 1.009 1.277c-.094.636-.697 1.096-1.348 1.026a1.12 1.12 0 0 1-1.008-1.278c.093-.636.697-1.094 1.347-1.025Zm-12.03-1.373a1.12 1.12 0 0 1 1.009 1.277c-.094.636-.697 1.096-1.348 1.026a1.12 1.12 0 0 1-1.008-1.278c.093-.636.696-1.095 1.347-1.025Z"/>
  <path fill="#D9DFE6" d="m221.176 68.427 9.52 1.01c-1.607 3.012-3.423 4.41-5.448 4.195-2.026-.215-3.382-1.95-4.072-5.205Zm11.853-5.364c-2.716-.29-4.598-2.716-4.194-5.408.403-2.693 2.941-4.65 5.657-4.36 2.717.29 4.598 2.717 4.195 5.41-.404 2.693-2.941 4.647-5.658 4.358Zm1.396-9.32c-2.465-.262-4.768 1.514-5.134 3.96-.367 2.446 1.34 4.65 3.805 4.913 2.465.263 4.768-1.514 5.135-3.96a4.27 4.27 0 0 0-3.806-4.913Zm-14.229 7.855c-2.716-.29-4.598-2.715-4.194-5.408.403-2.693 2.941-4.649 5.658-4.36 2.716.29 4.598 2.717 4.194 5.41-.403 2.693-2.941 4.648-5.658 4.358Zm1.397-9.32c-2.466-.262-4.769 1.514-5.135 3.96-.367 2.446 1.34 4.65 3.805 4.913 2.466.263 4.769-1.514 5.135-3.96a4.27 4.27 0 0 0-3.805-4.912Z"/>
  <path fill="#D9DFE6" d="M238.541 59.002a.22.22 0 0 1-.196-.182.24.24 0 0 1 .192-.27l5.33-1.057a.225.225 0 0 1 .269.178.24.24 0 0 1-.193.27L238.614 59a.235.235 0 0 1-.073.003Zm-22.512-2.612a.23.23 0 0 1-.103-.038l-3.65-2.453a.22.22 0 0 1-.05-.315.24.24 0 0 1 .325-.061l3.649 2.452a.22.22 0 0 1 .051.315.245.245 0 0 1-.222.1Zm12.885 1.463-3.195-.346a.226.226 0 0 1-.2-.257.242.242 0 0 1 .264-.208l3.194.346c.129.014.219.13.202.258a.243.243 0 0 1-.265.207Z"/>
  <path fill="#17263A" d="M226.51 66.748c-.8-.086-1.355-.38-1.651-.872-.387-.644-.324-1.581.193-2.864l.424.154c-.455 1.129-.529 1.96-.221 2.472.223.37.666.593 1.319.664l-.064.446Z"/>
  <path fill="#D9DFE6" d="M222.074 96.083c-.373-.04-.758-.101-1.155-.186-4.637-.993-6.692-4.567-6.106-10.621l.465.029c-.568 5.879 1.314 9.198 5.754 10.15 3.365.72 5.869-.355 7.377-1.385 2.074-1.414 3.38-3.482 3.556-4.71l.462.05c-.189 1.324-1.57 3.538-3.756 5.029a9.7 9.7 0 0 1-6.597 1.644Z"/>
</svg>
