<svg xmlns="http://www.w3.org/2000/svg" width="1800" height="1217" fill="none" viewBox="0 0 1800 1217">
  <path stroke="#17263A" stroke-miterlimit="10" stroke-width="3" d="M1622.24 1181.96H177.758v-.96H1622.24v.96Z"/>
  <path fill="#E4E5E6" d="M570.534 729.762c2.123-2.842-89.923-148.303-89.923-148.303l-65.858-10.429-67.806 88.818-28.791-13.515-201.391 78.836-141.11-180.245-21.528 22.441-56.557-84.27-36.278 80.6-55.992 139.091-37.878-28.315-105.181 107.23h1006.16s-99.99-49.097-97.867-51.939Z"/>
  <path fill="#D7D8D9" d="M1220.85 119.034c1.74-12.628-16.09-23.015-29.48-24.093-6.38-.517-13.01.461-19.06-1.647-13.11-4.567-18.34-21.502-31.14-26.895-9.56-4.035-20.56-.443-29.83 4.221s-18.43 10.536-28.79 11.2c-9.01.576-18.79-2.763-26.67 1.635-5.87 3.28-8.95 10.045-14.36 14.039-5.3 3.905-12.2 4.732-18.78 5.089-6.56.36-13.37.426-19.35 3.165-5.984 2.739-10.931 9.065-9.691 15.527l227.151-2.241Z"/>
  <path fill="#D7D8D9" d="M1139.28 552.581c2.21-16.064-20.46-29.276-37.5-30.649-8.12-.655-16.56.587-24.25-2.096-16.67-5.809-23.34-27.353-39.61-34.213-12.16-5.133-26.16-.564-37.953 5.369-11.793 5.936-23.447 13.405-36.618 14.246-11.459.735-23.904-3.516-33.932 2.084-7.468 4.171-11.383 12.78-18.27 17.86-6.736 4.968-15.524 6.018-23.881 6.473-8.36.455-17.015.541-24.625 4.024-7.61 3.486-13.909 11.533-12.327 19.754l288.966-2.852Z" opacity=".567"/>
  <path fill="#D7D8D9" d="M982.126 49.112c1.562-11.338-14.441-20.664-26.461-21.632-5.733-.463-11.691.413-17.122-1.479-11.766-4.103-16.468-19.305-27.954-24.149-8.584-3.622-18.465-.399-26.789 3.79-8.321 4.189-16.546 9.461-25.847 10.054-8.085.52-16.867-2.48-23.946 1.47-5.272 2.943-8.035 9.021-12.894 12.605-4.753 3.507-10.958 4.25-16.856 4.572-5.901.319-12.008.378-17.38 2.84-5.37 2.459-9.816 8.139-8.7 13.942l203.949-2.013Z"/>
  <path stroke="#41576C" stroke-width="3.238" d="M10.693 625.809c-.006-.467 8.678-.965 19.391-1.114 10.717-.152 19.41.103 19.417.57.007.466-8.674.965-19.394 1.117-10.714.149-19.407-.107-19.414-.573Zm1743.467-100.51c0-.467 4.35-.842 9.71-.842 5.37 0 9.71.375 9.71.842 0 .466-4.34.841-9.71.841-5.36 0-9.71-.375-9.71-.841Zm-77.62 0c0-.467 8.69-.842 19.4-.842 10.72 0 19.41.375 19.41.842 0 .466-8.69.841-19.41.841-10.71 0-19.4-.375-19.4-.841Z"/>
  <path fill="#41576B" d="M1651.14 420.058c0-17.571-15.88-31.432-34.07-28.02-11.44 2.147-20.56 11.491-22.57 22.959-1.25 7.166.23 13.913 3.5 19.479h-.02l.09.104c1.09 1.845 2.47 3.166 3.85 5.105l16.57 21.949c2.06 2.733 6.16 2.733 8.23 0l16.29-21.589s3.04-3.626 4.14-5.488l.06-.081h-.01a28.34 28.34 0 0 0 3.94-14.418Zm-28.54 12.423c-6.93 0-12.56-5.624-12.56-12.559s5.63-12.559 12.56-12.559c6.94 0 12.56 5.624 12.56 12.559s-5.62 12.559-12.56 12.559Z"/>
  <path stroke="#41576C" stroke-width="3.238" d="M1598.91 525.299c0-.467 8.69-.842 19.4-.842 10.72 0 19.41.375 19.41.842 0 .466-8.69.841-19.41.841-10.71 0-19.4-.375-19.4-.841Zm-77.62 0c0-.467 8.69-.842 19.4-.842 10.72 0 19.41.375 19.41.842 0 .466-8.69.841-19.41.841-10.71 0-19.4-.375-19.4-.841Zm-77.63 0c0-.467 8.69-.842 19.41-.842s19.4.375 19.4.842c0 .466-8.68.841-19.4.841-10.72 0-19.41-.375-19.41-.841Zm-77.58-1.72c.06-.466 8.71.133 19.4.522 10.69.414 19.37.715 19.37 1.197.01.447-8.7.904-19.44.489-10.75-.391-19.39-1.748-19.33-2.208Z"/>
  <path stroke="#41576C" stroke-width="3.241" d="M1297.45 492.166c.41-.34 5.81 6.531 14.45 12.731 8.59 6.236 16.7 9.493 16.48 9.999-.08.197-2.2-.386-5.45-1.778s-7.63-3.675-12.03-6.854c-8.87-6.385-13.8-13.9-13.45-14.098Z"/>
  <path stroke="#41576C" stroke-width="3.238" d="M1276.26 418.808c.41.01.97 8.642 2.27 19.246 1.28 10.6 3.12 19.06 2.67 19.183-.44.13-3.06-8.262-4.34-18.979-1.31-10.682-1.12-19.469-.6-19.45Z"/>
  <path stroke="#41576C" stroke-width="3.241" d="M1247.98 348.128c.3-.292 6.46 6.009 12.14 15.22 5.73 9.189 8.54 17.562 8.13 17.698-.47.191-3.92-7.771-9.56-16.81-5.59-9.066-11.1-15.778-10.71-16.108Z"/>
  <path stroke="#41576C" stroke-width="3.238" d="M1184.25 305.477c.11-.418 8.65 1.751 18.35 6.517 9.72 4.731 16.69 10.092 16.44 10.439-.28.414-7.59-4.258-17.18-8.92-9.57-4.705-17.76-7.564-17.61-8.036Z"/>
  <path fill="#41576B" d="M1155.3 208.596c0-14.216-12.84-25.429-27.56-22.667-9.25 1.739-16.63 9.293-18.25 18.57-1.01 5.797.18 11.253 2.83 15.757h-.01l.06.084c.89 1.493 2 2.558 3.12 4.125l13.4 17.758c1.67 2.208 4.99 2.208 6.66 0l13.18-17.463s2.45-2.93 3.35-4.439l.05-.065h-.01a22.968 22.968 0 0 0 3.18-11.66Zm-23.08 10.047c-5.61 0-10.16-4.546-10.16-10.158 0-5.611 4.55-10.161 10.16-10.161s10.16 4.55 10.16 10.161c0 5.612-4.55 10.158-10.16 10.158Z"/>
  <path stroke="#41576C" stroke-width="3.241" d="M1107.47 302.514c-.12-.427 8.35-2.814 19.13-3.597 5.37-.421 10.29-.34 13.78-.172 3.51.165 5.69.337 5.69.57 0 .233-2.17.483-5.68.625-3.54.136-8.34.243-13.66.657-10.63.774-19.16 2.393-19.26 1.917Z"/>
  <path stroke="#41576C" stroke-width="3.238" d="M1040.03 338.803c-.33-.285 5.47-6.929 14.19-13.333 8.69-6.447 16.72-10.073 16.9-9.684.23.443-7.34 4.685-15.9 11.037-8.59 6.311-14.84 12.333-15.19 11.98Zm-33.91 68.281c-.42-.019.04-8.852 3.22-19.216 3.14-10.38 7.65-17.976 8.01-17.762.46.226-3.32 8.055-6.39 18.258-3.13 10.179-4.33 18.785-4.84 18.72Zm-1.76 77.584c-.47-.007-.72-8.7-.57-19.417.16-10.717.66-19.398 1.12-19.391.47.006.72 8.7.57 19.417-.16 10.714-.66 19.397-1.12 19.391Zm-1.12 77.619c-.47-.007-.72-8.7-.57-19.417.16-10.717.66-19.398 1.13-19.391.46.006.71 8.7.56 19.417-.15 10.714-.66 19.397-1.12 19.391Zm-1.12 77.612c-.47-.006-.72-8.699-.57-19.416.16-10.718.66-19.398 1.12-19.392.46.007.72 8.7.57 19.417-.16 10.714-.66 19.398-1.12 19.391Zm-21.423 73.155c-.415-.295 4.491-7.46 9.121-17.047 4.685-9.565 7.249-17.866 7.732-17.724.417.091-1.451 8.726-6.214 18.459-4.717 9.749-10.309 16.577-10.639 16.312Z"/>
  <path stroke="#41576C" stroke-width="3.241" d="M919.837 759.402c-.178-.472 7.881-3.694 17.209-8.836 9.36-5.106 16.383-10.199 16.687-9.8.279.33-6.378 6.096-15.875 11.277-9.467 5.219-17.892 7.77-18.021 7.359Z"/>
  <path stroke="#41576C" stroke-width="3.238" d="M843.279 768.406c.01-.437 8.687-.796 19.407-.806 2.626.013 5.126.026 7.551.042 2.114-.029 4.151-.058 6.139-.084 3.503.003 5.689.123 5.705.356.019.23-2.134.535-5.65.836-2.004.142-4.06.291-6.188.443-2.328.091-4.876.081-7.557.091-10.71.01-19.413-.385-19.407-.878Zm-73.306-22.369c.276-.421 7.638 4.176 17.319 8.635 9.658 4.507 17.912 7.194 17.766 7.673-.104.418-8.674-1.573-18.478-6.145-9.817-4.526-16.859-9.82-16.607-10.163Z"/>
  <path stroke="#41576C" stroke-width="3.241" d="M721.565 686.97c.473-.178 3.701 7.881 9.115 17.05 5.371 9.199 10.791 15.982 10.399 16.306-.307.288-6.391-6.1-11.853-15.454-5.504-9.325-8.069-17.776-7.661-17.902Z"/>
  <path stroke="#41576C" stroke-width="3.238" d="M714.196 610.232c.467 0 .842 8.69.842 19.404 0 10.723-.382 19.404-.819 19.407-.495.003-.865-8.69-.865-19.407 0-10.714.376-19.404.842-19.404Z"/>
  <path stroke="#41576C" stroke-width="3.241" d="M714.196 532.606c.467 0 .842 8.69.842 19.404 0 10.72-.375 19.411-.842 19.411-.466 0-.842-8.691-.842-19.411 0-10.714.376-19.404.842-19.404Z"/>
  <path stroke="#41576C" stroke-width="3.238" d="M714.196 454.984c.467 0 .842 8.69.842 19.404 0 10.72-.375 19.41-.842 19.41-.466 0-.842-8.69-.842-19.41 0-10.714.376-19.404.842-19.404Z"/>
  <path stroke="#41576C" stroke-width="3.241" d="M714.196 377.358c.467 0 .842 8.691.842 19.404 0 10.721-.375 19.411-.842 19.411-.466 0-.842-8.69-.842-19.411 0-10.713.376-19.404.842-19.404Z"/>
  <path stroke="#41576C" stroke-width="3.238" d="M714.031 299.739c.233-.013.502 2.15.748 5.679.178 3.517.256 8.363.262 13.725 0 10.717-.379 19.404-.845 19.404-.466 0-.842-8.687-.842-19.404-.006-5.358.101-10.212.23-13.721.058-3.491.214-5.67.447-5.683Zm-29.282-70.334c.301-.301 6.582 5.896 12.349 15.056 5.812 9.14 8.667 17.497 8.263 17.636-.463.194-3.967-7.748-9.688-16.736-5.672-9.011-11.306-15.619-10.924-15.956Zm-65.206-40.109c.091-.421 8.719 1.33 18.643 5.614 9.95 4.241 17.141 9.328 16.898 9.681-.262.427-7.758-3.953-17.565-8.133-9.781-4.226-18.106-6.68-17.976-7.162Z"/>
  <path fill="#689FCF" d="M607.512 77.504c0-27.359-24.722-48.94-53.044-43.627-17.816 3.342-32.017 17.892-35.138 35.748-1.951 11.156.353 21.662 5.445 30.328h-.025l.131.161c1.704 2.874 3.841 4.93 5.999 7.95l25.791 34.175c3.216 4.255 9.604 4.255 12.815 0l25.367-33.615s4.739-5.646 6.453-8.545l.096-.126h-.02c3.871-6.594 6.13-14.247 6.13-22.449Zm-44.429 19.343c-10.798 0-19.56-8.756-19.56-19.555 0-10.798 8.762-19.555 19.56-19.555 10.804 0 19.555 8.757 19.555 19.555 0 10.799-8.751 19.555-19.555 19.555Z"/>
  <path stroke="#689FCF" stroke-width="16.433" d="M542.5 186.777c-.103-.431 8.425-2.603 19.217-3.128 5.397-.291 10.263-.078 13.767.049 3.513.152 5.685.362 5.685.595 0 .233-2.172.447-5.685.599-3.52.182-8.367.149-13.68.437-10.646.518-19.21 1.927-19.304 1.448Z"/>
  <path fill="#66B7FF" d="M474.135 221.317c-.314-.294 5.666-6.773 14.547-12.948 8.859-6.213 16.976-9.632 17.147-9.24.224.45-7.456 4.5-16.179 10.623-8.755 6.077-15.169 11.928-15.515 11.565Z"/>
  <path stroke="#41576C" stroke-width="3.241" d="M474.135 221.317c-.314-.294 5.666-6.773 14.547-12.948 8.859-6.213 16.976-9.632 17.147-9.24.224.45-7.456 4.5-16.179 10.623-8.755 6.077-15.169 11.928-15.515 11.565Z"/>
  <path fill="#66B7FF" d="M438.215 288.556c-.421-.036.317-8.842 3.814-19.093 3.451-10.274 8.188-17.727 8.544-17.5.451.239-3.558 7.945-6.945 18.041-3.441 10.072-4.911 18.63-5.413 18.552Z"/>
  <path stroke="#41576C" stroke-width="3.238" d="M438.215 288.556c-.421-.036.317-8.842 3.814-19.093 3.451-10.274 8.188-17.727 8.544-17.5.451.239-3.558 7.945-6.945 18.041-3.441 10.072-4.911 18.63-5.413 18.552Z"/>
  <path fill="#66B7FF" d="M436.884 366.114c-.466 0-.842-8.687-.842-19.401 0-10.72.376-19.407.842-19.407.467 0 .842 8.687.842 19.407 0 10.714-.375 19.401-.842 19.401Z"/>
  <path stroke="#41576C" stroke-width="3.241" d="M436.884 366.114c-.466 0-.842-8.687-.842-19.401 0-10.72.376-19.407.842-19.407.467 0 .842 8.687.842 19.407 0 10.714-.375 19.401-.842 19.401Z"/>
  <path fill="#66B7FF" d="M436.884 443.739c-.466 0-.842-8.687-.842-19.404s.376-19.404.842-19.404c.467 0 .842 8.687.842 19.404s-.375 19.404-.842 19.404Z"/>
  <path stroke="#41576C" stroke-width="3.238" d="M436.884 443.739c-.466 0-.842-8.687-.842-19.404s.376-19.404.842-19.404c.467 0 .842 8.687.842 19.404s-.375 19.404-.842 19.404Z"/>
  <path fill="#66B7FF" d="M434.909 521.245c-.488-.094.988-8.651 1.114-19.297.033-10.695.386-19.401.858-19.398.46.007.861 8.677.829 19.424-.133 10.833-2.383 19.381-2.801 19.271Z"/>
  <path stroke="#41576C" stroke-width="3.238" d="M434.909 521.245c-.488-.094.988-8.651 1.114-19.297.033-10.695.386-19.401.858-19.398.46.007.861 8.677.829 19.424-.133 10.833-2.383 19.381-2.801 19.271Z"/>
  <path fill="#66B7FF" d="M396.849 587.328c-.337-.379 6.032-6.282 12.773-14.525 6.787-8.214 11.287-15.635 11.721-15.383.385.191-3.523 8.105-10.419 16.452-6.851 8.376-13.809 13.789-14.075 13.456Z"/>
  <path stroke="#41576C" stroke-width="3.238" d="M396.849 587.328c-.337-.379 6.032-6.282 12.773-14.525 6.787-8.214 11.287-15.635 11.721-15.383.385.191-3.523 8.105-10.419 16.452-6.851 8.376-13.809 13.789-14.075 13.456Z"/>
  <path fill="#66B7FF" d="M327.548 619.952c-.078-.496 8.457-2.053 18.643-5.197 10.202-3.095 18.135-6.612 18.352-6.158.2.379-7.512 4.63-17.86 7.77-10.328 3.186-19.09 4.012-19.135 3.585Z"/>
  <path stroke="#41576C" stroke-width="3.238" d="M327.548 619.952c-.078-.496 8.457-2.053 18.643-5.197 10.202-3.095 18.135-6.612 18.352-6.158.2.379-7.512 4.63-17.86 7.77-10.328 3.186-19.09 4.012-19.135 3.585Z"/>
  <path fill="#66B7FF" d="M250.017 622.545c-.007-.466 8.677-.965 19.391-1.114 10.72-.152 19.41.104 19.417.57.006.466-8.674.965-19.391 1.117-10.718.149-19.411-.107-19.417-.573Z"/>
  <path stroke="#41576C" stroke-width="3.238" d="M250.017 622.545c-.007-.466 8.677-.965 19.391-1.114 10.72-.152 19.41.104 19.417.57.006.466-8.674.965-19.391 1.117-10.718.149-19.411-.107-19.417-.573Zm-77.616 1.088c-.007-.466 8.677-.965 19.391-1.114 10.72-.152 19.41.104 19.417.57.006.466-8.674.965-19.391 1.114-10.717.152-19.411-.104-19.417-.57Z"/>
  <path fill="#66B7FF" d="M94.785 624.721c-.007-.467 8.677-.965 19.391-1.117 10.72-.149 19.41.107 19.417.573.006.466-8.674.965-19.391 1.114-10.717.152-19.41-.104-19.417-.57Z"/>
  <path stroke="#41576C" stroke-width="3.238" d="M94.785 624.721c-.007-.467 8.677-.965 19.391-1.117 10.72-.149 19.41.107 19.417.573.006.466-8.674.965-19.391 1.114-10.717.152-19.41-.104-19.417-.57Z"/>
  <path fill="#41576C" d="M136.591 514.795c0-14.214-12.841-25.426-27.557-22.664-9.253 1.739-16.629 9.292-18.251 18.568-1.014 5.799.184 11.252 2.826 15.755h-.01l.066.085c.887 1.492 1.994 2.557 3.114 4.125l13.401 17.755c1.668 2.209 4.987 2.209 6.654 0l13.181-17.461s2.457-2.93 3.351-4.439l.049-.065h-.01a22.927 22.927 0 0 0 3.186-11.659Zm-23.079 10.047c-5.611 0-10.16-4.546-10.16-10.157s4.549-10.16 10.16-10.16 10.154 4.549 10.154 10.16-4.543 10.157-10.154 10.157Z"/>
  <path stroke="#9EA3A7" stroke-linecap="round" stroke-linejoin="round" d="M353.404 867.556H515.68" opacity=".967"/>
  <path stroke="#9EA3A7" stroke-linecap="round" stroke-linejoin="round" d="M1352.45 833.086h-216.94" opacity=".033"/>
  <path fill="#D7D8D9" d="M630.75 1001.17c3.645-71.928 2.056-46.92 5.699-118.846l128.253-71.465 115.308 45.345 20.282 32.85c12.281 19.887 29.124 36.522 49.026 48.782 24.653 15.183 57.902 39.034 69.952 63.334H630.75Z"/>
  <path fill="#B8CADA" d="M990.992 870.913c-3.434 2.283-5.561 6.211-6.254 10.279-.696 4.068-.073 8.263 1.105 12.213 2.277 7.65 8.119 14.741 14.008 20.127 5.549-6.91 5.279-17.19 4.809-22.396-.74-8.226-7.063-22.646-13.668-20.223Zm3.514 56.867c.266-4.602-2.434-9.111-6.358-11.527-3.924-2.413-8.888-2.845-13.349-1.691-2.061.532-4.213 1.542-5.104 3.481-.831 1.808-.305 4.031.914 5.607 1.22 1.574 3.023 2.596 4.868 3.341 6.335 2.559 12.934 3.872 19.029.789Z"/>
  <path fill="#000" d="M1007.21 950.21c.04-.016-.16-.565-.52-1.558-.41-1.089-.94-2.499-1.57-4.195-1.37-3.492-3.23-8.515-6.947-13.052-3.671-4.529-8.221-7.536-11.822-8.789-1.793-.649-3.314-.957-4.372-1.069-.527-.078-.944-.07-1.22-.088-.282-.008-.427-.003-.427.018-.024.136 2.374.138 5.873 1.522 3.497 1.329 7.908 4.32 11.52 8.773 3.645 4.44 5.545 9.384 7.015 12.839.72 1.746 1.31 3.16 1.74 4.124.43.967.69 1.491.73 1.475Z"/>
  <path fill="#000" d="M994.84 882.323c-.018.003-.002.246.045.712.063.526.14 1.201.239 2.032.219 1.767.569 4.315 1.027 7.463.912 6.29 2.296 14.965 4.039 24.507 1.75 9.545 3.52 18.149 4.9 24.358.68 3.101 1.26 5.61 1.68 7.335.2.816.36 1.472.49 1.988.12.451.19.686.21.683.02-.005-.01-.248-.1-.709-.1-.519-.22-1.186-.39-2.012-.37-1.811-.87-4.312-1.5-7.374-1.26-6.225-2.98-14.834-4.72-24.374a1250.757 1250.757 0 0 1-4.208-24.467c-.498-3.08-.91-5.603-1.204-7.427-.141-.831-.258-1.498-.349-2.019-.083-.461-.138-.701-.159-.696Z"/>
  <path fill="#B8CADA" d="M1006.73 930.503c-.19-9.714 4.65-19.389 12.54-25.056 2.01-1.446 4.75-2.645 6.85-1.332 2.1 1.313 2.22 4.323 1.74 6.754-1.99 10.113-10.69 18.559-20.86 20.247"/>
  <path fill="#000" d="M1019.53 913.04c-.03-.031-.48.273-1.29.857-.41.289-.9.647-1.43 1.121-.52.474-1.17.964-1.78 1.618-.63.636-1.33 1.313-1.99 2.136-.7.784-1.36 1.692-2.05 2.656-1.32 1.957-2.59 4.242-3.58 6.793a33.978 33.978 0 0 0-1.82 7.46c-.11 1.178-.22 2.298-.2 3.351-.04 1.053.05 2.027.11 2.916.04.894.22 1.688.32 2.386.09.704.24 1.296.37 1.778.25.967.4 1.492.44 1.482.13-.026-.48-2.155-.72-5.675-.04-.881-.1-1.842-.04-2.879 0-1.034.12-2.134.25-3.291.32-2.301.9-4.805 1.84-7.322.96-2.507 2.2-4.756 3.48-6.7.66-.956 1.29-1.863 1.97-2.647.63-.823 1.31-1.512 1.91-2.158 2.46-2.527 4.28-3.78 4.21-3.882Z"/>
  <path fill="#E4E5E6" d="m1677.45 1001.17 64.73-68.272 53.07 2.986 37.58 14.852 23.83 50.434"/>
  <path fill="#D7D8D9" d="m1795.26 935.884-54.98 65.286h-62.83l64.73-68.272 53.08 2.986Z"/>
  <path fill="#000" d="M1856.66 1001.17c.02-.01-.1-.34-.36-.96-.3-.7-.7-1.599-1.19-2.717-1.13-2.475-2.7-5.93-4.68-10.282-4.16-8.938-10.03-21.551-17.09-36.714l-.09-.204-.21-.086-37.54-14.938-.1-.042-.11-.005c-8.19-.464-16.73-.951-25.48-1.449-9.53-.529-18.8-1.048-27.59-1.535l-.31-.018-.21.224c-18.44 19.595-34.54 36.691-46.11 48.985-5.65 6.079-10.19 10.965-13.41 14.425l-3.55 3.909c-.8.897-1.21 1.377-1.18 1.407.03.03.49-.4 1.35-1.246.92-.93 2.15-2.18 3.71-3.754 3.29-3.398 7.93-8.193 13.69-14.157 11.66-12.21 27.88-29.194 46.46-48.659l-.51.205c8.79.498 18.06 1.027 27.59 1.569l25.48 1.418-.21-.045c13.64 5.352 26.36 10.35 37.61 14.769l-.31-.289c7.24 15.079 13.25 27.623 17.52 36.514 2.1 4.292 3.77 7.702 4.97 10.144.55 1.092 1 1.965 1.34 2.651.32.6.49.9.52.88Z"/>
  <path fill="#E4E5E6" d="m1254.53 924.093 62.54-35.63 109.8 39.995 88.71 72.712-313.8-1.592 52.75-75.485Z"/>
  <path fill="#D7D8D9" d="m1515.58 1001.17-112.53-65.287-148.52-11.791 65.04-38.504 107.3 42.869 88.71 72.713Zm-161.67-.82-56.19-38.508-51.26-3.648 42.87 9.519 22.23 32.417 42.35.22Z"/>
  <path fill="#000" d="M1515.58 1001.17c.01-.01-.12-.14-.39-.38l-1.21-1.056c-1.13-.956-2.72-2.3-4.75-4.02-4.25-3.533-10.36-8.62-18.07-15.038-15.64-12.893-37.74-31.122-63.9-52.695l-.07-.058-.09-.036c-23.56-9.566-50.18-20.377-78.28-31.785-9.83-3.982-19.47-7.887-28.86-11.686l-.31-.128-.29.175c-23.75 14.269-45.82 27.539-65.12 39.14l-.11.065-.07.099c-15.77 22.748-28.88 41.65-38.09 54.931-4.52 6.582-8.08 11.77-10.56 15.379-1.16 1.735-2.08 3.091-2.74 4.071-.61.925-.89 1.43-.89 1.43s.38-.435 1.04-1.329c.69-.956 1.65-2.278 2.88-3.974 2.53-3.565 6.18-8.693 10.81-15.199 9.31-13.214 22.55-32.019 38.49-54.655l-.17.162c19.33-11.549 41.44-24.762 65.22-38.971l-.6.047c9.39 3.807 19.04 7.717 28.86 11.699 28.11 11.366 54.76 22.139 78.33 31.665l-.16-.094c26.29 21.419 48.5 39.519 64.21 52.313 7.81 6.306 13.99 11.3 18.29 14.771 2.09 1.66 3.72 2.953 4.88 3.878.53.409.94.719 1.27.979.29.21.44.32.45.3Z"/>
  <path fill="#000" d="M1244.71 958.069c-.01.086 1.43.271 4.06.534l11.19 1.006c9.72.748 22.88 1.761 37.71 2.905l-.33-.114c1.98 1.355 4.05 2.783 6.17 4.234 13.81 9.467 26.36 17.972 35.48 24.072l10.84 7.168c1.18.75 2.17 1.376 2.99 1.892.69.424 1.06.624 1.09.584.02-.04-.3-.32-.94-.808-.78-.576-1.72-1.269-2.84-2.103l-10.6-7.523c-8.98-6.303-21.44-14.935-35.25-24.402-2.12-1.446-4.2-2.872-6.18-4.227l-.15-.104-.18-.013c-14.85-.967-28.01-1.827-37.74-2.463-4.6-.242-8.38-.443-11.23-.594-2.64-.109-4.08-.13-4.09-.044Z"/>
  <path fill="#E4E5E6" d="m958.858 963.728 37.572-14.855 62.64 11.374 30.35 40.813-148.632.11 18.07-37.442Z"/>
  <path fill="#D7D8D9" d="M1059.07 960.247c-1.83-.331-100.213 3.482-100.213 3.482l37.572-14.856 62.641 11.374Z"/>
  <path fill="#000" d="M1089.42 1001.06c.03-.02-.14-.3-.48-.81-.42-.596-.93-1.337-1.56-2.246l-6.05-8.403c-5.35-7.301-12.85-17.521-21.79-29.708l-.14-.185-.23-.044c-13.67-2.509-29.62-5.435-46.6-8.549l-16.021-2.898-.188-.037-.177.071-37.53 14.962-.203.081-.091.192c-5.347 11.301-9.771 20.662-12.932 27.34-1.47 3.192-2.645 5.737-3.51 7.616-.352.808-.644 1.472-.884 2.018-.19.46-.273.7-.247.71.026.02.159-.2.401-.64l1.029-1.945c.933-1.842 2.194-4.346 3.781-7.483l13.36-27.133-.297.273c10.965-4.297 23.756-9.313 37.616-14.746l-.368.037c5.201.949 10.561 1.923 16.011 2.916 16.99 3.057 32.96 5.925 46.64 8.382l-.37-.226c9.1 12.064 16.73 22.182 22.18 29.413 2.65 3.445 4.77 6.201 6.32 8.205.68.868 1.24 1.572 1.7 2.137.39.48.6.72.63.7Z"/>
  <path fill="#D7D8D9" d="M899.196 1001.17c-3.645-71.928-2.056-46.92-5.699-118.846l-128.253-71.465-115.308 45.345-20.281 32.85c-12.281 19.887-29.124 36.522-49.026 48.782-24.653 15.183-57.9 39.034-69.951 63.334h388.518Z"/>
  <path fill="#D7D8D9" d="M675.669 650.67c9.123 64.955 18.242 129.907 27.365 194.86l7.125.232c-4.542-66.183-9.384-133.686-34.49-195.092Zm76-9.125c-19.113 20.937-26.803 49.741-31.642 77.677-6.866 39.615-7.488 86.39-5.43 126.541l9.988.222c-4.049-69.354 5.329-138.461 27.084-204.44Zm-70.967 124.407c-2.197-9.652-4.709-19.472-10.22-27.696-7.444-11.108-19.572-18.133-31.777-23.602-12.202-5.469-25.038-9.842-36.063-17.414 12.301 20.173 40.225 25.541 54.444 44.406 7.074 9.388 10.009 21.164 12.784 32.587 6.043 24.908 9.766 46.465 15.811 71.373h8.091c-2.668-27.068-7.033-53.136-13.07-79.654Zm51.173 79.811s6.854-77.39 11.935-91.599c5.079-14.209 53.117-53.469 52.653-51.622-.461 1.847-36.026 44.806-41.107 53.579-5.081 8.776-13.858 89.642-13.858 89.642h-9.623Z"/>
  <path fill="#B8CADA" d="M538.956 870.913c3.434 2.283 5.561 6.211 6.254 10.279.696 4.068.073 8.263-1.105 12.213-2.277 7.65-8.119 14.741-14.008 20.127-5.55-6.91-5.276-17.19-4.81-22.396.737-8.226 7.064-22.646 13.669-20.223Zm-3.515 56.867c-.266-4.602 2.434-9.111 6.358-11.527 3.924-2.413 8.888-2.845 13.349-1.691 2.061.532 4.213 1.542 5.104 3.481.831 1.808.305 4.031-.914 5.607-1.22 1.574-3.023 2.596-4.868 3.341-6.335 2.559-12.934 3.872-19.029.789Z"/>
  <path fill="#000" d="M522.741 950.21c-.039-.016.153-.565.518-1.558.409-1.089.939-2.499 1.572-4.195 1.37-3.492 3.228-8.515 6.944-13.052 3.671-4.529 8.221-7.536 11.822-8.789 1.793-.649 3.314-.957 4.372-1.069.527-.078.944-.07 1.22-.088.282-.008.427-.003.427.018.024.136-2.374.138-5.873 1.522-3.497 1.329-7.908 4.32-11.52 8.773-3.643 4.44-5.545 9.384-7.015 12.839-.722 1.746-1.308 3.16-1.74 4.124-.43.967-.691 1.491-.727 1.475Z"/>
  <path fill="#000" d="M535.108 882.323c.018.003.002.246-.045.712-.063.526-.14 1.201-.239 2.032a382.463 382.463 0 0 1-1.027 7.463c-.912 6.29-2.296 14.965-4.039 24.507-1.748 9.545-3.523 18.149-4.896 24.358a362.763 362.763 0 0 1-1.681 7.335l-.495 1.988c-.12.451-.192.686-.213.683-.016-.005.015-.248.101-.709.099-.519.227-1.186.389-2.012.37-1.811.877-4.312 1.5-7.374a1248.808 1248.808 0 0 0 4.727-24.374 1263.988 1263.988 0 0 0 4.206-24.467c.498-3.08.91-5.603 1.204-7.427.141-.831.258-1.498.349-2.019.083-.461.138-.701.159-.696Z"/>
  <path fill="#B8CADA" d="M523.22 930.503c.188-9.714-4.656-19.389-12.541-25.056-2.009-1.446-4.755-2.645-6.853-1.332-2.1 1.313-2.217 4.323-1.74 6.754 1.996 10.113 10.693 18.559 20.863 20.247"/>
  <path fill="#000" d="M510.42 913.04c.023-.031.48.273 1.29.857.404.289.9.647 1.426 1.121.524.474 1.175.964 1.782 1.618.625.636 1.331 1.313 1.988 2.136.701.784 1.361 1.692 2.046 2.656 1.324 1.957 2.598 4.242 3.58 6.793a33.494 33.494 0 0 1 1.824 7.46c.112 1.178.224 2.298.198 3.351.044 1.053-.044 2.027-.112 2.916-.034.894-.219 1.688-.313 2.386a14.45 14.45 0 0 1-.37 1.778c-.248.967-.404 1.492-.44 1.482-.128-.026.482-2.155.714-5.675.042-.881.104-1.842.044-2.879.003-1.034-.125-2.134-.25-3.291a34.794 34.794 0 0 0-1.837-7.322c-.964-2.507-2.202-4.756-3.479-6.7-.665-.956-1.295-1.863-1.975-2.647-.631-.823-1.308-1.512-1.91-2.158-2.462-2.527-4.282-3.78-4.206-3.882Z"/>
  <path fill="#E4E5E6" d="m275.417 924.093-62.535-35.63-109.802 39.995-88.714 72.712 313.798-1.592-52.747-75.485Z"/>
  <path fill="#D7D8D9" d="m14.366 1001.17 112.53-65.287 148.52-11.791-65.041-38.504-107.295 42.869-88.714 72.713Zm161.671-.82 56.193-38.508 51.257-3.648-42.87 9.519-22.226 32.417-42.354.22Z"/>
  <path fill="#000" d="M14.366 1001.17c-.008-.01.12-.14.388-.38.315-.27.709-.62 1.209-1.056l4.756-4.02 18.073-15.038c15.632-12.893 37.739-31.122 63.9-52.695l.07-.058.086-.036 78.276-31.785a78058.87 78058.87 0 0 1 28.866-11.686l.31-.128.287.175c23.746 14.269 45.821 27.539 65.122 39.14l.107.065.07.099 38.093 54.931c4.516 6.582 8.078 11.77 10.556 15.379l2.738 4.071c.612.925.891 1.43.891 1.43s-.375-.435-1.034-1.329c-.696-.956-1.652-2.278-2.882-3.974l-10.811-15.199c-9.305-13.214-22.547-32.019-38.489-54.655l.174.162c-19.332-11.549-41.444-24.762-65.226-38.971l.597.047c-9.388 3.807-19.032 7.717-28.858 11.699-28.111 11.366-54.754 22.139-78.323 31.665l.159-.094-64.21 52.313-18.295 14.771c-2.087 1.66-3.716 2.953-4.875 3.878-.53.409-.944.719-1.272.979-.29.21-.443.32-.453.3Z"/>
  <path fill="#000" d="M285.239 958.069c.003.086-1.433.271-4.06.534l-11.196 1.006c-9.717.748-22.876 1.761-37.708 2.905l.331-.114-6.17 4.234c-13.813 9.467-26.36 17.972-35.48 24.072-4.44 2.937-8.098 5.357-10.839 7.168-1.183.75-2.169 1.376-2.987 1.892-.69.424-1.068.624-1.094.584-.023-.04.3-.32.941-.808.776-.576 1.715-1.269 2.843-2.103 2.679-1.902 6.253-4.443 10.594-7.523 8.979-6.303 21.44-14.935 35.256-24.402 2.116-1.446 4.2-2.872 6.175-4.227l.154-.104.18-.013c14.845-.967 28.011-1.827 37.741-2.463 4.597-.242 8.375-.443 11.223-.594 2.64-.109 4.088-.13 4.096-.044Z"/>
  <path fill="#E4E5E6" d="m571.089 963.728-37.572-14.855-62.636 11.374-30.354 40.813 148.632.11-18.07-37.442Z"/>
  <path fill="#D7D8D9" d="M470.882 960.247c1.824-.331 100.208 3.482 100.208 3.482l-37.572-14.856-62.636 11.374Z"/>
  <path fill="#000" d="M440.528 1001.06c-.026-.02.141-.3.482-.81l1.558-2.246c1.48-2.056 3.505-4.875 6.048-8.403 5.355-7.301 12.849-17.521 21.789-29.708l.138-.185.234-.044c13.667-2.509 29.625-5.435 46.604-8.549 5.462-.99 10.813-1.957 16.017-2.898l.188-.037.177.071 37.53 14.962.203.081.091.192c5.347 11.301 9.771 20.662 12.932 27.34 1.47 3.192 2.645 5.737 3.51 7.616.352.808.644 1.472.884 2.018.19.46.273.7.247.71-.026.02-.159-.2-.401-.64l-1.029-1.945c-.933-1.842-2.194-4.346-3.781-7.483l-13.36-27.133.297.273c-10.965-4.297-23.756-9.313-37.616-14.746l.368.037c-5.201.949-10.556 1.923-16.012 2.916-16.992 3.057-32.961 5.925-46.638 8.382l.368-.226-22.183 29.413c-2.647 3.445-4.763 6.201-6.311 8.205-.688.868-1.248 1.572-1.704 2.137-.388.48-.604.72-.63.7Z"/>
  <path stroke="#000" stroke-miterlimit="10" stroke-width="2" d="M-896.296 1001.17H2403.36"/>
  <path fill="#20262B" d="M928.477 444.595c4.596-4.305 11.701-5.58 15.14-10.904 3.8-5.886 1.448-14.146 4.501-20.473 2.498-5.178 8.039-7.956 11.685-12.356 5.229-6.309 6.049-15.206 6.407-23.488.88-20.397.42-41.088 5.246-60.894 4.826-19.806 15.954-39.166 33.864-47.97l66.61-1.162c9.8 7.618 15.18 19.978 17.51 32.383 2.33 12.405 1.99 25.148 2.59 37.766.6 12.621 2.25 25.54 8.12 36.638 4.15 7.844 10.24 14.446 14.56 22.192 4.22 7.554 6.69 16.336 5.81 24.997-.89 8.661-5.45 17.112-12.78 21.471-7.79 4.634-17.55 4.204-26.23 1.8-3.72-1.029-9.05-.467-14.5.096-8.01.827-16.3 1.652-20.2-2.549-3.75-4.048-11.02-10.702-16.53-17.48l-56.423 123.099c-5.363 10.59-21.098 11.478-30.25 4.134-9.149-7.346-12.757-19.892-13.776-31.784-1.021-11.892-.003-23.996-2.317-35.694-1.359-6.859-3.85-13.484-4.611-20.439-.764-6.955.542-14.674 5.574-19.383Z"/>
  <path fill="#D7D8D9" d="M1004.8 417.376s30.95 65.328 42.49 73.605c11.55 8.28 12.44 13.49 15.99 7.689 3.55-5.803 11.1-64.325 11.1-64.325l.97-37.359 19.34 2.321s35.03 108.633 35.34 125.076c.31 16.443 7.87 92.719 7.87 92.719s-19.87 5.936-33.7 4.567c-13.83-1.369-75.71-8.125-75.71-8.125l-17.62-7.54-15.56-184.038 9.49-4.59Z"/>
  <path fill="#90C2ED" d="M1009.77 589.468c-.02.047.41.189 1.23.42.98.254 2.17.568 3.62.949 1.57.42 3.5.869 5.76 1.302 2.26.456 4.83 1.004 7.7 1.434 5.71 1.006 12.57 1.82 20.2 2.564 7.63.674 16.04 1.198 24.86 1.546 17.67.643 33.65.817 45.2 1.229 5.78.194 10.46.368 13.68.537 1.5.054 2.73.098 3.73.137.85.016 1.3.003 1.3-.044s-.44-.124-1.28-.228l-3.71-.392c-3.22-.327-7.9-.648-13.68-.967-11.56-.654-27.55-.978-45.18-1.621-8.82-.35-17.2-.834-24.82-1.436-7.61-.674-14.45-1.385-20.16-2.269-2.87-.368-5.44-.848-7.7-1.232-2.27-.36-4.21-.733-5.79-1.073-1.47-.28-2.68-.514-3.67-.701-.84-.148-1.28-.202-1.29-.155Zm.51-22.133c0 .047.42.106 1.24.179l3.57.246 13.14.656c11.1.498 26.44 1.089 43.38 1.657 16.95.571 32.29 1.012 43.39 1.261l13.16.228c1.43-.003 2.61-.006 3.58-.006.82-.018 1.25-.049 1.25-.093 0-.047-.42-.109-1.24-.179-.97-.067-2.15-.147-3.57-.246-3.31-.166-7.75-.389-13.15-.656-11.09-.498-26.43-1.09-43.38-1.66-16.94-.568-32.28-1.009-43.39-1.258-5.4-.096-9.84-.171-13.15-.228-1.43.003-2.61.006-3.58.006-.82.018-1.25.046-1.25.093Zm-4.04-31.698c-.01.044.39.218 1.18.506l3.48 1.2c3.02 1.053 7.47 2.329 13.01 3.703 5.54 1.382 12.21 2.697 19.67 3.812a272.85 272.85 0 0 0 24.42 2.319c17.39.799 33.14.041 44.49-.76 5.68-.407 10.26-.814 13.43-1.154l3.64-.42c.84-.109 1.27-.189 1.27-.236 0-.047-.45-.057-1.29-.034l-3.66.163c-3.37.184-7.92.43-13.44.726-11.36.56-27.07 1.162-44.38.366-8.65-.43-16.87-1.221-24.31-2.204-7.44-1.04-14.1-2.251-19.64-3.511-5.54-1.247-10.01-2.378-13.07-3.273l-3.54-.956c-.81-.205-1.25-.291-1.26-.247Zm-.99-28.334c-.01.104 1.72.397 4.84.97 3.11.583 7.6 1.548 13.09 2.948 5.5 1.385 12 3.254 19.27 5.17 7.28 1.896 15.36 3.851 24.02 4.764 17.42 1.94 33.24-1.602 43.86-5.697 5.33-2.059 9.48-4.143 12.25-5.759 1.41-.757 2.43-1.474 3.15-1.917.71-.459 1.07-.718 1.04-.759-.05-.099-1.59.768-4.43 2.212-2.82 1.463-7 3.399-12.33 5.323-10.6 3.827-26.23 7.165-43.4 5.254-8.56-.9-16.59-2.8-23.86-4.626-7.27-1.844-13.81-3.622-19.35-4.893-5.55-1.286-10.08-2.114-13.23-2.539-1.57-.236-2.81-.324-3.64-.41-.83-.073-1.27-.088-1.28-.041Zm56.7-6.505c.06.236 3.4-.895 9.02-.853 2.8-.023 6.14.203 9.88.335 3.73.104 7.96.075 12.22-1.071 8.56-2.259 15.09-7.162 19.56-10.637 2.25-1.781 3.99-3.301 5.18-4.369 1.19-1.074 1.81-1.706 1.76-1.779-.13-.163-2.91 2.017-7.48 5.38-4.59 3.262-11.1 7.93-19.34 10.093-4.09 1.105-8.17 1.174-11.87 1.138-3.71-.062-7.09-.189-9.93-.044-2.85.122-5.14.514-6.68.939-1.54.412-2.35.801-2.32.868Zm-59.65-26.457c-.09.153 2.57 1.893 7.05 4.401 4.47 2.508 10.78 5.738 17.93 8.878 7.15 3.135 13.79 5.578 18.64 7.16 4.86 1.584 7.92 2.355 7.97 2.186.06-.189-2.9-1.281-7.66-3.088a399.767 399.767 0 0 1-18.44-7.5c-7.11-3.125-13.45-6.202-18.02-8.484-4.56-2.282-7.38-3.724-7.47-3.553Zm1.12-23.607c-.19.322 4.97 3.877 11.52 7.943s12.01 7.102 12.2 6.783c.19-.319-4.97-3.874-11.53-7.943-6.55-4.066-12.01-7.102-12.19-6.783Zm110.01 5.775c-.12-.174-2.34 1.372-6.05 3.597-3.71 2.23-8.99 5.048-15.11 7.452a102.236 102.236 0 0 1-16.09 4.777c-4.22.882-6.87 1.244-6.85 1.454.01.161 2.71.135 7.01-.513 4.29-.643 10.19-2.028 16.4-4.455 6.21-2.443 11.5-5.44 15.12-7.901 3.64-2.461 5.66-4.287 5.57-4.411Zm-6.12-33.317c-.05-.166-2.04.197-5.17 1.149-3.13.949-7.37 2.552-11.86 4.792-4.48 2.253-8.32 4.709-10.98 6.656-2.65 1.947-4.16 3.338-4.06 3.478.24.335 6.75-4.504 15.62-8.918 8.84-4.465 16.56-6.758 16.45-7.157Zm-34.78-153.68c-11.39-11.433-21.06-13.614-32.16-14.029-16.82-.633-34.76 4.761-46.81 16.853-11.058 11.101-15.858 27.585-15.732 43.478.043 5.606 2.34 10.681 4.528 15.818 2.186 5.137 8.962 11.124 14.078 13.056 5.116 1.934 6.906.003 10.486-4.229 2.18-2.588 3.17-5.987 4.15-9.265 4.13-13.852 9.11-27.705 17.57-39.286 8.47-11.581 20.91-20.758 34.93-22.223"/>
  <path fill="#20262B" d="M1082.99 299.289c1.47-10.876-2.57-22.384-10.46-29.777-5.95-5.57-13.73-8.739-21.63-10.274-10.62-2.061-22.05-1.234-31.51 4.131-9.46 5.363-16.55 15.725-16.51 26.836.01 5.044 1.42 10.149.35 15.071-.46 2.139-1.38 4.393-.59 6.426.72 1.864 2.77 2.917 4.72 2.943 1.95.023 3.81-.798 5.51-1.776 5.81-3.327 10.38-8.49 14.83-13.565l55.29-.015Z"/>
  <path fill="#000" d="M1030.82 267.235c0 .423 7.27-.738 15.4 2.521 8.19 3.125 12.87 8.957 13.14 8.635.11-.091-.88-1.66-3.01-3.716-2.12-2.056-5.49-4.478-9.68-6.125-4.2-1.631-8.28-2.124-11.19-2.036-2.93.08-4.68.581-4.66.721Z"/>
  <path fill="#000" d="M1050.28 266.56c-.15.358 3.79 1.722 6.73 5.728 3.04 3.939 3.33 8.207 3.7 8.15.15-.003.31-1.078.01-2.792-.15-.911-.46-1.994-.95-3.128a15.642 15.642 0 0 0-1.76-3.018c-1.6-2.116-3.57-3.539-5.1-4.25-1.54-.724-2.59-.835-2.63-.69Z"/>
  <path fill="#8DACC8" d="M1018.82 410.603s50.45-13.939 50.51-13.241l6.14-.025 5.44 92.695-20.63 27.287-21.22-20.353-34.82-52.925-1.94-20.849-.92-4.169 17.44-8.42Z"/>
  <path fill="#8DACC8" d="m1059.58 280.089-51.15 11.74c-4.53.998-7.56 5.396-6.98 10.121l15.5 105.111c1.06 7.18 4.39 13.8 9.47 18.836l5.36 5.303c12.21 12.089 32.83 7.593 38.52-8.829.4-1.146.64-2.14.7-2.918.02-.97.18-1.631.1-2.44.2-8.35-1.44-16.053-1.44-16.053-.86-9.434-1.27-13.301-1.25-13.215 0 0 18.98-5.417 20.3-31.789.66-13.116-2.16-34.195-5.01-51.364-2.57-15.455-9.21-27.794-24.12-24.503Z"/>
  <path fill="#779BBA" d="M1068.41 387.744s-16.85 2.984-34.73-5.565c0 0 10.35 17.024 35.34 11.833l-.61-6.268Z"/>
  <path fill="#0C0C0C" d="M1076.92 322.618c.16 1.164-.66 2.264-1.84 2.461-1.18.193-2.27-.589-2.43-1.754-.16-1.164.67-2.266 1.85-2.461 1.17-.197 2.26.589 2.42 1.754Zm3.46-6.539c-.36.477-3-1.118-6.48-.726-3.48.337-5.84 2.459-6.27 2.062-.2-.174.13-1.001 1.15-1.955 1.01-.949 2.79-1.961 4.96-2.189 2.17-.226 4.08.397 5.21 1.12 1.16.729 1.61 1.473 1.43 1.688Zm-37.97 10.591c.17 1.165-.66 2.265-1.84 2.462-1.18.193-2.26-.589-2.43-1.754-.16-1.165.67-2.266 1.85-2.463 1.18-.195 2.26.591 2.42 1.755Zm3.83-6.175c-.35.477-3-1.118-6.48-.726-3.48.337-5.84 2.459-6.26 2.062-.21-.174.11-1.002 1.14-1.956 1.01-.952 2.8-1.96 4.97-2.191 2.16-.223 4.07.397 5.21 1.123 1.15.729 1.6 1.473 1.42 1.688Zm15.38 25.161c-.04-.202 2.09-.822 5.54-1.67.88-.192 1.7-.465 1.79-1.105.14-.682-.33-1.628-.88-2.642-1.06-2.121-2.17-4.344-3.34-6.675-4.68-9.506-8.16-17.366-7.79-17.555.37-.189 4.47 7.362 9.14 16.871 1.14 2.347 2.22 4.584 3.25 6.726.44 1.001 1.14 2.117.83 3.535-.17.71-.77 1.276-1.32 1.496-.56.244-1.06.308-1.49.381-3.51.583-5.69.84-5.73.638Z"/>
  <path fill="#70A1CB" d="M1061.04 354.441c-1.43-1.564-3.71-2.259-5.87-1.779-1.49.335-2.94 1.25-3.72 2.614-.79 1.364-.8 3.185.16 4.297 1.08 1.255 3.08 1.353 4.69.687 1.61-.666 2.92-1.95 4.16-3.218.34-.35.69-.716.89-1.167.19-.451.18-1.011-.15-1.333"/>
  <path fill="#0C0C0C" d="M1051.63 349.253c.57-.096.98 3.788 4.5 6.192 3.51 2.414 7.49 1.536 7.58 2.075.07.239-.82.853-2.52 1.086-1.66.241-4.15-.042-6.3-1.512-2.15-1.475-3.23-3.637-3.52-5.219-.32-1.608 0-2.617.26-2.622Zm-5.93-39.643c-.24 1.011-3.76.93-7.79 1.882-4.05.871-7.21 2.461-7.85 1.647-.28-.389.2-1.369 1.43-2.456 1.22-1.087 3.23-2.209 5.66-2.759 2.42-.545 4.71-.389 6.26.07 1.56.456 2.4 1.139 2.29 1.616Zm32.05-9.068c-.53.879-3.01.298-5.9.573-2.89.174-5.27 1.13-5.92.342-.29-.386.01-1.242 1-2.129.97-.884 2.67-1.701 4.65-1.859 1.99-.15 3.78.397 4.87 1.12 1.11.723 1.53 1.525 1.3 1.953Z"/>
  <path fill="#8DACC8" d="M1013.1 344.616c-.2-1.929-2.85-6.247-4.73-6.34-5.04-.251-13.92 1.135-12.664 14.08 1.719 17.695 18.634 12.271 18.614 11.76-.01-.399-.51-12.833-1.22-19.5Z"/>
  <path fill="#779BBA" d="M1008.41 357.952c-.07-.049-.27.247-.75.537-.47.283-1.31.532-2.24.278-1.89-.498-3.7-3.309-4.1-6.491-.2-1.605-.02-3.174.41-4.502.4-1.348 1.13-2.333 2.03-2.595.89-.311 1.59.187 1.85.661.28.472.2.837.3.858.05.039.34-.334.13-1.05a1.991 1.991 0 0 0-.79-1.04c-.44-.303-1.07-.418-1.7-.28-1.32.231-2.39 1.608-2.86 3.065-.55 1.47-.789 3.237-.56 5.039.45 3.555 2.55 6.708 5.11 7.193 1.24.2 2.22-.28 2.7-.749.49-.493.54-.898.47-.924Z"/>
  <path fill="#20262B" d="M1059.59 279.037c-.44 8.7-9.22 9.021-16.95 12.579-4.13 1.901-9.25 2.938-11.34 7.066-2.14 4.214.08 9.663-1.86 13.975-2.69 5.98-11.91 6.905-13.7 13.227-.79 2.759.17 5.816-.66 8.562-1.1 3.661-5.33 5.689-8.99 4.997-3.67-.695-6.665-3.576-8.453-6.939-1.79-3.363-2.546-7.191-3.202-10.964-1.286-7.424-2.266-15.055-.932-22.469 2.799-15.538 21.327-38.917 36.667-39.791"/>
  <path fill="#8DACC8" d="m922.21 1068.11-38.378 52.63-24.78-14.89 32.923-47.75 30.235 10.01Z"/>
  <path fill="#0857A0" d="m1010.29 765.184-23.612 138.093-104.333 160.853 37.85 22.26 123.455-153.576 114.61-229.287-57.56 2.154-86.65 1.186-3.76 58.317Z"/>
  <path stroke="#7697B6" stroke-miterlimit="10" stroke-width="2" d="m1010.29 765.184-23.612 138.093-104.333 160.853 37.85 22.26 123.455-153.576 114.61-229.287-57.56 2.154-86.65 1.186-3.76 58.317Z"/>
  <path fill="#D7D8D9" d="m893.637 1116.62-1.916 5.94s27.339 35.61 26.457 50.54l-80.885-68.06 24.798-22.15c5.097 15.15 15.044 26.55 31.546 33.73Z"/>
  <path fill="#17263A" d="M836.63 1105.54c-.762-.66 5.145-3.78 5.145-3.78s68.306 64.84 69.265 65.1c3.71 1.01 18.176 11.57-3.318 7.93-1.429-.25-70.33-68.59-71.092-69.25Z"/>
  <path fill="#fff" d="M861.348 1097.4c-1.723-1.02-4.211-.47-5.303 1.21-1.092 1.68-.555 4.22 1.151 5.27 1.704 1.05 4.715.48 5.612-1.31.895-1.79.101-4.74-1.807-5.35"/>
  <path fill="#17263A" d="M891.561 1119.13c-.361.33-2.167-1.22-4.915-1.8-2.734-.66-5.089-.05-5.251-.51-.236-.37 2.351-1.89 5.661-1.12 3.323.73 4.898 3.2 4.505 3.43Zm3.968 10.33c-.264.41-2.288-.49-4.89-.22-2.607.21-4.491 1.46-4.806 1.11-.364-.27 1.46-2.49 4.699-2.77 3.239-.31 5.325 1.55 4.997 1.88Zm-4.989 12.87c-.373-.24.918-2.4 3.683-3.39 2.761-1 5.071-.12 4.919.3-.1.47-2.132.44-4.391 1.27-2.277.8-3.848 2.13-4.211 1.82Z"/>
  <path fill="#8DACC8" d="m1168.02 1088.86 6.99 61.29-37.34-2.11-6.52-61.75 36.87 2.57Z"/>
  <path fill="#0857A0" d="m1127.05 764.315-22.98-58.246-74.03.658-66.403.05 56.533 51.348 25.11 40.445 66.74 123.801 10.68 190.089 56.8-1.32 5.36-199.183-57.81-147.642Z"/>
  <path stroke="#7697B6" stroke-miterlimit="10" stroke-width="2" d="m1127.05 764.315-22.98-58.246-74.03.658-66.403.05 56.533 51.348 25.11 40.445 66.74 123.801 10.68 190.089 56.8-1.32 5.36-199.183-57.81-147.642Z"/>
  <path fill="#D7D8D9" d="m1181.18 1143.95-.1 2.96s48.1 21.99 48.26 31.54l-96.99-4.09 2.73-33.14c14.13 7.47 29.19 8.89 46.1 2.73Z"/>
  <path fill="#17263A" d="m1132.35 1174.36.66-7.97 92.71 6.84s4.24 2.11 3.62 5.22l-96.99-4.09Z"/>
  <path fill="#fff" d="M1144.45 1152.24c-1.9.45-3.29 2.57-2.93 4.54.35 1.97 2.43 3.43 4.33 3.02 1.91-.42 3.65-2.9 3.09-4.82-.57-1.91-3.1-3.5-4.85-2.63"/>
  <path fill="#17263A" d="M1181.41 1147.21c-.04.48-2.42.6-4.81 2.07-2.44 1.41-3.73 3.47-4.15 3.25-.44-.11.39-2.99 3.33-4.71 2.91-1.76 5.75-1.06 5.63-.61Zm9.99 4.75c.08.48-2 1.22-3.7 3.21-1.75 1.95-2.25 4.15-2.72 4.12-.45.05-.66-2.81 1.5-5.25 2.13-2.46 4.93-2.54 4.92-2.08Zm5.24 12.77c-.43.09-.99-2.38.34-4.99 1.31-2.63 3.59-3.58 3.77-3.17.25.41-1.24 1.78-2.3 3.94-1.11 2.14-1.34 4.19-1.81 4.22Z"/>
  <path fill="#0857A0" d="m980.712 707.635 4.057-109.186 26.101 4.735 17.62 7.541 30.05 3.266 37.04 3.97 31.2-.268 16.93-2.587 17.74 97.342-51.34 7.039-41.56 2.238-50.17-5.275-37.668-8.815Z"/>
  <path fill="#17263A" d="M1109.71 646.472c.32.049.96-5.575-.65-12.268-1.57-6.703-4.65-11.399-4.91-11.202-.35.195 2.12 5.039 3.63 11.524 1.56 6.467 1.53 11.941 1.93 11.946Zm6.25 1.122c.33.054 1.25-6.193.18-13.837-1.03-7.65-3.6-13.388-3.9-13.243-.37.138 1.59 5.962 2.6 13.433 1.05 7.46.73 13.618 1.12 13.647Zm23.47 9.774c-.17-.15-.98 1.18-3.08 1.82a7.05 7.05 0 0 1-3.71.083c-1.35-.337-2.74-1.185-3.9-2.391-2.36-2.451-3.25-5.632-3.81-7.867-.52-2.274-.78-3.734-.98-3.708-.16.018-.24 1.496.07 3.889.33 2.334 1.13 5.853 3.79 8.638 1.31 1.364 2.94 2.326 4.57 2.655 1.63.332 3.14.078 4.28-.402 2.34-1.011 2.91-2.701 2.77-2.717Zm-95.62-34.676c-.25-.047-.54 3.143-2.54 7.741-1.93 4.551-5.96 10.491-12.36 14.381-6.42 3.874-13.42 4.605-18.23 4.136-4.88-.436-7.73-1.724-7.81-1.475-.03.073.65.464 1.95.98 1.3.521 3.27 1.1 5.76 1.447 4.93.731 12.27.138 18.99-3.923 6.72-4.079 10.79-10.391 12.56-15.178.91-2.406 1.37-4.45 1.56-5.876.2-1.426.19-2.225.12-2.233Zm2.4 13.746c.34.135 2.05-3.583 3.82-8.305 1.77-4.719 2.93-8.659 2.59-8.794-.33-.132-2.04 3.586-3.82 8.311-1.77 4.719-2.93 8.653-2.59 8.788Zm6.22 4.495c.32.148 2.42-3.921 4.09-9.312 1.68-5.388 2.27-9.952 1.93-10.017-.37-.08-1.53 4.297-3.18 9.605-1.65 5.311-3.18 9.566-2.84 9.724Z"/>
  <path fill="#7697B6" d="m1074.77 392.651 9.86 2.406 10.03-.48s43.94 90.191 46.82 104.002c2.89 13.811 9.43 69.192 9.43 69.192s11.34 26.333 16.13 35.769c4.78 9.434 33.29 82.559 33.29 82.559s3.44 24.674-6.93 26.315c-10.37 1.642-19.82-2.583-27.69.7-7.88 3.28-14.8 4.385-14.8 4.385l-7.34-38.559s-10.79-44.576-13.57-57.155c-2.78-12.582-9.96-38.425-10.76-48.683-.8-10.253.4-40.198-1.19-48.405-1.6-8.205-13.17-12.307-17.55-18.458-4.39-6.153-16.75-38.152-17.95-54.149-1.2-15.999-7.78-59.439-7.78-59.439Z"/>
  <path fill="#17263A" d="M1084.63 395.057c-.09.008-.06 1.331.08 3.724.17 2.386.49 5.839 1.12 10.074 1.19 8.482 3.8 20.055 7.71 32.481 1.69 5.425 3.56 9.369 5.21 14.094l-1.14-1.111c-4.53-4.011-7.48-4.755-11.78-5.989l-.32-.088-.18.246c-1.52 1.955-2 4.183-2.21 6.042-.18 1.888-.03 3.513.17 4.815.21 1.302.49 2.287.72 2.938.23.651.4.976.44.96.11-.036-.37-1.408-.63-3.97-.12-1.276-.18-2.861.06-4.65.26-1.763.43-3.7 1.81-5.383l.12-.168c4.15 1.317 8.67 3.912 13.01 7.833l1.76 1.59-.78-2.28c-1.6-4.738-3.32-9.887-5.01-15.291-3.9-12.382-6.63-23.828-8.04-32.225-.75-4.193-1.2-7.61-1.53-9.975-.3-2.365-.5-3.675-.59-3.667Zm78.65 320.637c.02-.005 0-.238-.07-.687-.09-.526-.2-1.18-.33-1.989-.35-1.841-.82-4.385-1.43-7.608l-5.58-27.917c-4.82-23.636-11.46-56.12-18.78-92.001-3.57-17.991-6.9-35.134-9.53-50.809-1.38-7.842-3.02-15.261-5.19-22.016-2.13-6.768-4.9-12.797-7.8-18.043-5.86-10.486-11.84-18.11-15.9-23.374a330.399 330.399 0 0 0-4.78-5.987c-.52-.622-.94-1.126-1.28-1.53-.3-.34-.45-.506-.47-.49-.02.016.1.21.36.578.32.425.7.956 1.18 1.61 1.11 1.488 2.65 3.54 4.59 6.143 3.93 5.357 9.79 13.057 15.49 23.515 2.83 5.238 5.51 11.212 7.58 17.923 2.1 6.703 3.69 14.073 5.03 21.889 2.56 15.691 5.86 32.87 9.43 50.861 7.18 35.969 14.15 68.432 19.16 91.933 2.51 11.666 4.56 21.146 5.99 27.821.71 3.202 1.27 5.728 1.67 7.559.19.799.34 1.442.46 1.961.11.438.18.661.2.658Z"/>
  <path fill="#7697B6" d="m1172.65 404.044 55.13 5.476c11.61-13.624 32.4-15.515 39.67-3.088l-10.84 1.011s-18.03 39.988-12.38 49.65l13.51-3.436s-3.15 24.257-12.18 28.965c-9.03 4.709-19.63.239-19.63.239l-3.71-9.636s-12.43 18.449-36.36 22.921c-23.93 4.474-55.69-3.462-67.81 4.448l-12-25.639-14.88-78.032 81.48 7.121Z"/>
  <path fill="#17263A" d="M1142.15 439.797c-.08-.037-.52.759-1.25 2.234-.72 1.476-1.72 3.63-2.93 6.302-2.55 5.674-5.8 12.896-9.39 20.883-3.75 8.11-7.3 15.378-10.17 20.465-2.82 5.12-4.98 8.012-4.81 8.147.07.057.67-.619 1.7-1.901 1.01-1.301 2.38-3.258 3.91-5.771 3.1-5.009 6.8-12.252 10.56-20.389a516.383 516.383 0 0 0 9.06-21.066c.98-2.502 1.83-4.655 2.54-6.466.58-1.534.86-2.401.78-2.438Zm-40.98-9.069c-.09-.009-.28.948-.54 2.692-.27 1.741-.52 4.283-.69 7.431-.35 6.287-.09 15.041 1.63 24.479 1.74 9.435 4.6 17.642 7.14 23.323 1.27 2.844 2.4 5.098 3.27 6.598.85 1.509 1.36 2.32 1.44 2.276.2-.113-1.55-3.52-3.85-9.263-2.3-5.733-4.98-13.886-6.7-23.208a126.6 126.6 0 0 1-2-24.194c.1-6.244.52-10.111.3-10.134Zm158.01-27.289c-.04-.052-.8.562-1.75 1.988-.93 1.424-2.1 3.599-3.33 6.369-2.47 5.538-5.29 13.414-7.86 22.273-1.25 4.443-2.44 8.667-3.1 12.664-.66 3.984-.56 7.736.27 10.69.8 2.965 2.19 5.075 3.33 6.301 1.17 1.218 2.01 1.646 2.05 1.59.22-.144-3.15-2.336-4.48-8.143-.68-2.84-.68-6.388.02-10.252.7-3.857 1.93-8.08 3.17-12.492 2.56-8.811 5.23-16.693 7.46-22.268 1.11-2.79 2.13-4.991 2.91-6.466.79-1.467 1.39-2.171 1.31-2.254Z"/>
  <path fill="#8DACC8" d="m1256.03 407.522 89.75-8.343 6.64 25.853s-100.5 34.491-108.58 32.123c-1.49-12.09 3.43-29.323 12.19-49.633Z"/>
  <path fill="#8DACC8" d="M1384.29 396.465c1.57.437 9.81.294 13.18.348 14.08.172 41.68.273 41.68.273l-.24 3.678c-2.37 5.879-37.12 11.279-37.12 11.279l5.89 19.334a7.53 7.53 0 0 1-.03 4.693l-10.35 30.546-2.87-1.243c-4.38-3.14-1.64-10.999-1.64-10.999-4.12-4.534-30-19.266-37.22-22.172-7.22-2.907-10.15-10.286-10.15-10.286l.36-22.737s36.93-3.148 38.51-2.714Z"/>
  <path fill="#779BBA" d="M1369.65 418.482c-.07.025.06.822.65 2.137.59 1.311 1.7 3.108 3.5 4.925 1.78 1.826 4.25 3.631 7.12 5.291 2.86 1.685 6.12 3.272 9.23 5.368 3.09 2.08 5.66 4.638 7.19 7.465 1.53 2.797 2.01 5.895 1.21 8.146-.75 2.338-2.85 3.163-4.12 3.136-1.33-.008-1.92-.651-1.99-.534-.06.001.42.86 1.95 1.057.74.094 1.68-.042 2.65-.546.97-.495 1.89-1.504 2.38-2.786 1.04-2.6.58-6.019-1.01-9.076-1.59-3.095-4.31-5.824-7.52-7.988-3.21-2.167-6.51-3.725-9.36-5.327-2.86-1.577-5.28-3.231-7.08-4.904-3.66-3.336-4.58-6.48-4.8-6.364Z"/>
  <path fill="#779BBA" d="M1390.7 423.114c-.34-.027-.57 4.202 1.53 8.772.95 2.112 2.19 3.834 3.23 4.981l-.09-.434c-.32 1.799-.43 2.942-.24 2.988.19.044.63-1.016 1.19-2.762l.07-.203-.16-.231c-.84-1.233-1.9-2.925-2.8-4.922-1.98-4.285-2.34-8.229-2.73-8.189Zm-11.18-6.492c-.05.173 1.4.546 3.59-.019 1.08-.246 2.32-.666 3.67-.902 1.34-.269 2.74-.071 4.34.347 6.42 1.563 11.7 2.539 11.79 2.175.09-.36-5.04-1.921-11.46-3.485-1.58-.429-3.38-.637-4.88-.253-1.48.336-2.69.856-3.7 1.202-2.01.764-3.32.737-3.35.935Z"/>
  <path fill="#7697B6" d="M1001.06 419.18s13.26 51.572 14.48 54.077c1.21 2.505 16.43 93.29 12.17 109.567-4.26 16.28-32.872 30.611-29.221 50.368 3.651 19.754 13.391 47.301 8.521 71.404-4.87 24.108-19.478 30.368-19.478 30.368l-25.565-18.782s-7.914-30.679-4.871-51.341c3.043-20.659 17.046-41.321 17.046-41.321s8.522-123.966 9.737-125.846c1.218-1.877 5.7-73.157 5.7-73.157l11.481-5.337Z"/>
  <path fill="#000" d="M984.769 732.933c.013.021.219-.104.605-.379.383-.275.94-.703 1.654-1.286 1.43-1.167 3.47-2.976 5.918-5.502a83.96 83.96 0 0 0 8.174-9.909c1.55-1.95 2.72-4.582 3.42-7.385.51-2.86.84-5.922.74-9.122-.09-6.413-1.08-13.354-2.5-20.698-.69-3.677-1.53-7.456-2.37-11.34-.415-1.942-.834-3.911-1.169-5.897-.103-1.014-.209-2.03-.315-3.057a57.474 57.474 0 0 0-.507-3.127c-.802-4.149-1.822-8.337-2.919-12.595l-1.715-6.441c-.575-2.196-1.341-4.302-1.432-6.478-.323-4.424.976-8.939 3.058-13.033 2.072-4.141 4.939-7.875 8.039-11.503 3.09-3.643 6.28-7.182 8.96-11.098 2.72-3.879 4.74-8.267 5.79-12.797 2.08-9.123 1.12-18.144.26-26.463-1.85-16.681-3.52-31.711-4.93-44.376-1.44-12.548-2.61-22.736-3.44-29.901-.42-3.449-.75-6.166-1-8.121-.12-.863-.21-1.559-.29-2.109-.07-.475-.12-.718-.14-.715-.03.002-.02.251.01.731.04.552.09 1.252.16 2.121.18 1.963.44 4.691.76 8.153.72 7.173 1.75 17.379 3.02 29.948 1.32 12.672 2.9 27.712 4.65 44.404.83 8.306 1.72 17.208-.31 26.014-1.03 4.377-2.95 8.546-5.6 12.335-2.62 3.817-5.78 7.323-8.89 10.987-3.115 3.646-6.071 7.492-8.209 11.773-2.148 4.24-3.534 8.998-3.181 13.746.086 1.164.257 2.383.582 3.493.305 1.087.607 2.171.91 3.247l1.725 6.415c1.107 4.242 2.138 8.412 2.945 12.501.194 1.024.373 2.041.509 3.05l.333 3.085c.353 2.049.781 4.025 1.212 5.967.864 3.887 1.714 7.645 2.424 11.301 1.46 7.297 2.5 14.181 2.64 20.493.13 3.158-.16 6.144-.62 8.921-.68 2.738-1.67 5.121-3.21 7.133a87.148 87.148 0 0 1-7.94 9.978c-2.378 2.565-4.351 4.435-5.718 5.661l-1.571 1.387c-.356.309-.535.47-.522.488Z"/>
  <path fill="#9EA3A7" d="M934.102 781.801c23.355 2.164 48.125 10.284 60.821 30.459 11.657 18.529 6.597 42.945 1.131 64.402-5.463 21.46-13.052 45.626-32.719 54.833-11.652 5.456-25.068 4.248-37.732 2.634a813.637 813.637 0 0 1-124.656-25.953c-13.217-3.855-27.579-9.036-34.241-21.362-5.783-10.699-4.132-23.889-2.312-36.041 2.726-18.227 5.451-36.451 8.179-54.678 1.729-11.562 4.265-24.486 13.749-31.016 7.905-5.447 18.225-4.666 27.646-3.606 40.587 4.568 79.924 13.172 120.134 20.328Z"/>
  <path fill="#17263A" d="M952.045 929.077c.012-.166-2.417-.029-6.557-1.124-4.084-1.12-9.934-3.811-15.16-9.531-2.607-2.822-5.068-6.336-6.856-10.532-1.819-4.178-3.002-9.002-3.402-14.154-.87-10.329 1.498-21.855 6.462-32.744 4.932-10.948 11.497-20.393 17.445-28.908 5.915-8.516 12.138-15.629 18.741-19.679 6.561-4.101 12.919-5.193 17.15-5.021 4.282.189 6.515 1.225 6.555 1.066.015-.04-.536-.273-1.611-.667-1.098-.311-2.734-.775-4.913-.921-4.312-.343-10.864.625-17.654 4.723-6.836 4.045-13.247 11.255-19.244 19.768-6.011 8.501-12.655 17.978-17.662 29.082-5.037 11.046-7.436 22.841-6.476 33.417.444 5.275 1.699 10.223 3.614 14.499 1.891 4.308 4.465 7.886 7.179 10.736 5.447 5.779 11.509 8.395 15.703 9.375 4.258.957 6.686.615 6.686.615ZM789.284 767.6c.007.168 2.659-.222 7.387.267 4.73.466 11.443 2.234 19.204 5.801 7.82 3.391 16.646 8.691 27.408 12.469 10.692 3.874 22.984 6.457 35.982 7.808 13.005 1.376 25.449 1.744 36.738 2.196 11.29.44 21.45.885 29.937 1.759 4.244.413 8.074.896 11.428 1.363 3.336.575 6.236.948 8.568 1.442a3332 3332 0 0 0 5.385 1.112c1.235.238 1.89.341 1.901.298.011-.048-.618-.238-1.836-.564-1.344-.339-3.122-.791-5.344-1.359-2.326-.575-5.221-1.026-8.559-1.675a235.827 235.827 0 0 0-11.444-1.566c-8.505-1-18.686-1.545-29.977-2.051-11.292-.519-23.709-.929-36.651-2.299-12.929-1.345-25.118-3.867-35.722-7.637-10.648-3.664-19.516-8.865-27.443-12.177-7.863-3.481-14.723-5.136-19.525-5.445-4.805-.332-7.437.258-7.437.258Z"/>
  <path fill="#17263A" d="M805.864 769.62c-.13-.128-1.209.791-2.847 2.388-.796.827-1.822 1.663-2.793 3.021-.949 1.228-1.531 3.945.573 5.332 1.063.602 2.288.245 3.041-.324.796-.553 1.327-1.462 1.543-2.272.445-1.663.236-3.072.272-4.18-.053-2.258.831-3.364.712-3.485-.101-.208-1.453.958-1.639 3.431-.144 1.182-.077 2.579-.496 3.864-.294 1.213-1.788 2.353-2.793 1.782-.483-.26-.774-.923-.785-1.587-.03-.656.226-1.288.581-1.883.739-1.152 1.752-2.156 2.456-3.046 1.464-1.762 2.308-2.916 2.175-3.041Zm-21.023 53.044c-.017.045.359.245 1.085.586.872.395 1.929.868 3.209 1.44 2.793 1.233 6.878 2.908 11.966 4.879 10.17 3.953 24.414 8.924 40.438 13.431 16.033 4.489 30.772 7.652 41.5 9.565 5.362.959 9.716 1.65 12.738 2.048 1.385.178 2.533.323 3.482.44.795.087 1.22.108 1.226.064.006-.048-.401-.159-1.184-.332-.936-.187-2.07-.417-3.44-.689l-12.647-2.471c-10.662-2.15-25.33-5.449-41.32-9.927-15.982-4.493-30.232-9.308-40.471-13.024-4.959-1.832-9.049-3.346-12.101-4.471-1.31-.482-2.399-.876-3.298-1.204-.758-.262-1.165-.375-1.183-.335Zm51.582 51.464c-.092 0-.146.745-.172 2.097-.05 1.354.08 3.314.425 5.706.325 2.403 1.004 5.215 2.019 8.242 1.077 3.009 2.523 6.219 4.424 9.363a50.931 50.931 0 0 0 6.299 8.142c2.218 2.248 4.387 4.089 6.351 5.425 1.949 1.346 3.608 2.311 4.814 2.847 1.196.557 1.871.823 1.911.739.11-.223-2.492-1.524-6.18-4.367-1.856-1.403-3.909-3.272-6.023-5.516a55.496 55.496 0 0 1-6.057-7.994c-1.851-3.061-3.291-6.17-4.403-9.074-1.051-2.933-1.809-5.65-2.241-7.979-.904-4.653-.927-7.638-1.167-7.631Zm-9.22 12.639c-.295.182 2.121 4.623 6.319 9.117 4.183 4.517 8.39 7.192 8.581 6.901.229-.319-3.544-3.425-7.627-7.837-4.103-4.388-6.953-8.404-7.273-8.181Zm91.783 36.428c.033.352 2.612.205 5.219-1.522 2.623-1.712 3.843-4.054 3.545-4.234-.305-.228-1.868 1.559-4.247 3.097-2.354 1.571-4.589 2.274-4.517 2.659Zm1.722-6.753c.063.368 1.492.393 3.188.058 1.695-.334 3.015-.904 2.949-1.269-.065-.367-1.493-.392-3.188-.058-1.696.335-3.016.904-2.949 1.269Zm-41.639-163.496c6.555-2.856 13.18-1.749 19.781.881 6.156 2.455 12.486 5.018 17.239 9.715 4.756 4.698 7.595 12.115 5.151 18.452l-8.615-1.187c-.241-2.075-.26-7.899-.874-9.89-1.291-4.167-5.327-6.738-9.288-8.331-5.557-2.24-12.917-3.744-18.669-2.005-5.753 1.741-9.715 7.149-10.54 13.245-2.663-.919-5.325-1.838-7.991-2.755 2.449-7.78 6.476-14.932 13.806-18.125Z"/>
  <path fill="#7697B6" d="M995.669 417.579s-36.47 16.166-45.56 24.404c-9.088 8.238-32.773 131.508-32.773 131.508s-13.744 8.023-18.522 20.153c-2.105 5.346.864 16.476 1.871 19.619 3.288 10.272 28.087 16.716 40.59 17.726 12.504 1.011 32.923-17.27 32.923-17.27l2.333-35.56 19.138-160.58Z"/>
  <path fill="#17263A" d="M975.244 492.218c-.045-.008-.191.46-.428 1.364-.259 1.055-.582 2.369-.979 3.969-.813 3.453-1.896 8.475-3.071 14.714-2.419 12.465-4.846 29.844-7.579 48.988-1.402 9.57-2.849 18.668-4.38 26.903-.78 4.113-1.515 8.022-2.296 11.662-.367 1.833-.784 3.549-1.028 5.348-.19 1.764-.187 3.441-.181 5.03.034 3.171.083 6.027-.399 8.444-.476 2.418-1.618 4.259-2.909 5.363-.665.519-1.273.977-1.885 1.227-.577.324-1.09.544-1.528.657-.858.29-1.31.464-1.302.507.009.048.48-.038 1.377-.247.459-.075.997-.257 1.614-.552.65-.221 1.31-.661 2.046-1.187 1.425-1.1 2.737-3.073 3.304-5.606.574-2.529.584-5.452.61-8.612.025-1.575.052-3.226.257-4.901.245-1.634.697-3.419 1.088-5.236.829-3.639 1.604-7.552 2.421-11.671 1.6-8.243 3.087-17.356 4.49-26.939 2.737-19.168 5.011-36.528 7.192-49.012a757.975 757.975 0 0 1 2.659-14.772c.297-1.623.542-2.952.735-4.017.157-.924.216-1.414.172-1.424Z"/>
  <path fill="#8DACC8" d="M918.526 719.403s3.008 22.02 2.672 25.68c-.26 2.804-4.954 18.638-7.142 25.912-.842 2.794-3.677 4.649-6.401 3.825l-.487-.193c-2.721-1.407-2.541-4.491-2.541-4.491s-2.114 3.488-6.14 2.392c-4.032-1.094-3.479-6.338-3.479-6.338s-.299.238-.818.535c-3.411 1.973-7.576-.729-7.358-4.733l.133-2.397s-2.082 2.694-4.825 1.856c-5.257-1.604-2.859-14.119-2.859-14.119l8.925-33.074 19.619-115.593c15.872 2.415 29.91 5.928 39.421 15.488l-28.72 105.25Z"/>
  <path fill="#779BBA" d="M918.255 755.638c-.282-.087-1.563 3.264-2.673 7.538-1.104 4.254-1.909 7.733-1.613 7.823.281.092 1.566-3.259 2.675-7.533 1.105-4.253 1.908-7.731 1.611-7.828Zm-10.185 1.154c-.273-.112-1.612 2.714-2.508 6.449-.912 3.734-1.013 6.864-.722 6.895.311.035.895-2.975 1.789-6.628.877-3.657 1.733-6.601 1.441-6.716Zm3.556-8.233c-.081-.292-1.062-.226-1.922.554-.865.778-1.057 1.768-.785 1.89.28.139.825-.44 1.506-1.041.671-.618 1.296-1.101 1.201-1.403Zm-13.399 3.392c-.298-.06-1.339 3.149-2.321 7.169-.985 4.023-1.547 7.356-1.256 7.444.292.085 1.33-3.124 2.323-7.172.988-4.049 1.551-7.378 1.254-7.441Zm7.056-8.361c.075-.124-.181-.482-.803-.749-.606-.264-1.602-.381-2.59.039-.989.422-1.62 1.23-1.869 1.861-.259.639-.201 1.08-.063 1.113.286.09.874-1.314 2.347-1.931 1.462-.631 2.835-.06 2.978-.333Zm-16.492 2.893c-.302-.045-1.005 2.918-1.572 6.621-.57 3.703-.79 6.743-.489 6.79.3.047 1.005-2.915 1.573-6.621.57-3.703.787-6.743.488-6.79Zm7.778-7.906c.057-.138-.243-.445-.88-.61-.632-.171-1.568-.121-2.473.262-1.795.815-2.704 2.046-2.553 2.258.191.288 1.462-.547 2.957-1.21 1.512-.686 2.823-.437 2.949-.7Z"/>
  <path fill="#17263A" d="M905.718 598.625c-.004.232 2.834.284 7.33.972 4.495.67 10.627 2.16 17.032 4.848a81.582 81.582 0 0 1 15.517 8.704c3.724 2.666 5.861 4.569 6.007 4.401.061-.068-.41-.609-1.329-1.536-.907-.934-2.311-2.188-4.128-3.636-3.619-2.906-9.042-6.428-15.56-9.182-6.526-2.74-12.825-4.111-17.417-4.548-2.296-.229-4.165-.295-5.453-.231-1.291.045-1.998.116-1.999.208Z"/>
  <path fill="#000" d="M989.579 421.698c-.088.01-.05 1.151.101 3.218.169 2.061.479 5.038 1.003 8.697 1.016 7.328 2.947 17.361 5.549 28.317 1.553 6.535 3.135 12.665 4.538 17.968l.4 1.514.68-1.379c1.58-3.223 1.3-6.444 1.91-8.97.51-2.546 1.79-4.642 3.45-5.269 1.67-.643 3.21-.145 3.93.467.77.622.86 1.244.96 1.2.03-.008.01-.15-.06-.425a2.671 2.671 0 0 0-.65-1.058c-.75-.786-2.43-1.492-4.41-.859-2.04.664-3.54 3.029-4.16 5.713-.7 2.689-.56 5.876-2 8.625l1.08.135c-1.31-5.381-2.806-11.498-4.389-17.981-2.599-10.932-4.664-20.893-5.912-28.151l-1.412-8.609c-.305-2.038-.517-3.163-.608-3.153Z"/>
  <path fill="#90C2ED" d="m689.117 995.764-77.584 33.956 50.707 85.06c9.405-17.05-2.811-52.32-2.811-52.32l50.611-19.78-20.923-46.916Z"/>
  <path fill="#17263A" d="m611.532 1029.72 7.954-3.13 42.455 87.25s0 .37-.064.92c-.837 2.5-1.88 4.25-3.181 4.9l-47.164-89.94Z"/>
  <path fill="#E5EAEF" d="M643.35 1034.71c-.198-1.39.36-2.92 1.537-3.78 1.595-1.16 4.034-.93 5.427.42.611.47.954 1.18 1.067 1.98.193 1.36-.288 2.92-1.264 3.82-1.553 1.41-4.743.9-6.039-.72-.401-.5-.64-1.09-.728-1.72Z"/>
  <path fill="#17263A" d="M660.605 1063.77c-.482.19-1.725-2.01-4.256-3.61-2.489-1.66-5.058-1.94-5.059-2.44-.099-.47 3.032-1 6.065.99 3.045 1.96 3.726 4.97 3.25 5.06Zm.221 11.66c-.413.3-2.105-1.34-4.802-2.03-2.675-.77-5.011-.24-5.196-.7-.265-.4 2.357-1.91 5.694-.98 3.34.89 4.75 3.5 4.304 3.71Zm-9.633 10.83c-.287-.37 1.785-2.03 4.904-1.97 3.115.04 5.104 1.76 4.799 2.12-.273.43-2.284-.37-4.845-.37-2.556-.07-4.608.66-4.858.22Zm20.441-28.24c-.519 0-.808-2.38-2.156-4.9-1.291-2.54-3.094-4.17-2.793-4.58.222-.41 2.855.8 4.397 3.78 1.56 2.97 1.023 5.77.552 5.7Zm10.473-7.19c-.188.09-1.296-1.59-2.085-4.71a22.517 22.517 0 0 1-.651-5.59c.007-1.06.089-2.18.266-3.33.093-.56.151-1.2.498-1.91.268-.72 1.391-1.55 2.418-1.3.965.16 1.666.87 1.985 1.54.335.68.443 1.31.544 1.87.203 1.16.287 2.29.276 3.37a17.681 17.681 0 0 1-.986 5.6c-1.101 3.07-2.532 4.58-2.694 4.46-.248-.14.757-1.83 1.476-4.79.356-1.47.606-3.27.55-5.24-.031-.99-.142-2.02-.35-3.07-.18-1.11-.552-1.96-1.122-2.02-.216-.02-.289 0-.496.34-.181.33-.272.85-.363 1.4a26.303 26.303 0 0 0-.351 3.11c-.101 2.01.031 3.82.247 5.32.432 3.03 1.097 4.85.838 4.95Z"/>
  <path fill="#17263A" d="M681.166 1050.53c-.148-.13 1.14-1.77 4.121-3.26a17.62 17.62 0 0 1 5.594-1.65c1.101-.13 2.271-.17 3.479-.07 1.201.14 2.783.25 3.792 1.94.454.91.054 2.01-.47 2.55-.517.59-1.048.89-1.559 1.25a12.191 12.191 0 0 1-3.262 1.4c-2.194.6-4.274.52-5.907.16-3.334-.76-4.756-2.42-4.612-2.53.168-.25 1.8.95 4.839 1.31 1.495.18 3.342.12 5.221-.48.936-.29 1.88-.71 2.759-1.29.966-.59 1.624-1.32 1.353-1.65-.202-.47-1.336-.93-2.325-.96a17.552 17.552 0 0 0-3.154-.03c-2.01.17-3.797.63-5.242 1.18-2.895 1.1-4.444 2.35-4.627 2.13Zm64.106-449.013c2.946 6.064 83.406 224.748 83.406 224.748L703.557 1057.96l-34.127-66.473 69.437-178.306-51.332-116.208-26.638-83.587 84.375-11.869Z"/>
  <path stroke="#334760" stroke-miterlimit="10" stroke-width="2" d="M745.272 601.517c2.946 6.064 83.406 224.748 83.406 224.748L703.557 1057.96l-34.127-66.473 69.437-178.306-51.332-116.208-26.638-83.587 84.375-11.869Z"/>
  <path fill="#90C2ED" d="m691.204 1096.05.028 1.91 1.412 42.7 2.383 32.74 79.974 5.63 31.197-6.52s-13.913-13.65-34.779-16.24l-34.316-18.95-3.309-47.45-42.59 6.18Z"/>
  <path fill="#17263A" d="m808.224 1179.99-33.223-.96-79.974-5.63-.508-6.96 75.179 6 37.515-.75 1.011 8.3Zm-52.356-32.69c.205.47-2.127 1.74-3.64 4.42-1.591 2.62-1.549 5.27-2.058 5.32-.458.16-1.399-3.01.504-6.22 1.874-3.24 5.111-3.99 5.194-3.52Zm-8.679-4.42c.042.49-2.938.77-5.122 3.15-2.211 2.36-2.214 5.31-2.713 5.31-.227.03-.578-.72-.541-1.99.034-1.25.561-3.04 1.919-4.51 1.356-1.47 3.123-2.15 4.389-2.3 1.286-.16 2.069.11 2.068.34Zm-10.585-6.61c-.033.49-2.76.44-5.034 2.3-2.302 1.84-2.766 4.46-3.261 4.4-.231-.01-.457-.73-.254-1.89.195-1.14.921-2.7 2.363-3.87 1.445-1.16 3.149-1.57 4.331-1.54 1.2.02 1.882.38 1.855.6Zm-2.814-14.04c-.096.49-2.666.26-5.353 1.53-2.723 1.19-4.171 3.25-4.626 3.01-.473-.12.523-3.11 3.849-4.6 3.306-1.53 6.333-.37 6.13.06Zm-4.516-8.71c.012.24-2.075.52-5.461.78-1.954.12-3.929.23-5.95.36-1.117 0-2.247.26-3.784-.11-.761-.22-1.53-.69-2.004-1.48-.534-.79-.425-2.02.135-2.71 1.118-1.35 2.406-1.71 3.613-2.16 1.242-.39 2.494-.57 3.684-.61 2.389-.07 4.508.5 6.136 1.23 3.301 1.52 4.471 3.55 4.321 3.62-.221.23-1.672-1.4-4.777-2.47-1.534-.53-3.463-.91-5.57-.77-1.052.08-2.137.28-3.202.63-1.027.36-2.25.9-2.737 1.56-.217.33-.224.54-.069.83.171.3.525.56.94.68.857.26 2.119.13 3.234.14 2.026.01 4.007.01 5.968.02 3.402.06 5.512.22 5.523.46Z"/>
  <path fill="#17263A" d="M731.053 1112.92c-.109.15-1.871-1.07-2.87-4.17-.911-2.97-.666-8.16 4.216-11.18.465-.15 1.112-.1 1.573.22.475.31.713.72.863 1.07.303.73.3 1.33.367 1.87.09 1.13.07 2.22-.037 3.25-.21 2.05-.771 3.83-1.416 5.23-1.302 2.81-2.792 4.09-2.941 3.96-.235-.17.846-1.69 1.762-4.43.456-1.36.847-3.04.956-4.93.056-.94.041-1.93-.068-2.95-.066-.53-.107-1.04-.258-1.35-.207-.35-.146-.26-.267-.26-.198.04-.619.41-.974.77-.357.35-.683.73-.965 1.14-.572.8-.995 1.65-1.283 2.51-.581 1.73-.56 3.43-.297 4.81.563 2.8 1.875 4.27 1.639 4.44Z"/>
  <path fill="#E5EAEF" d="M712.348 1151.66c-.078.18-.169.35-.27.52-1.345 2.23-4.296 2.93-6.594 1.56-2.123-1.26-2.941-3.84-1.993-5.99.077-.17.166-.35.269-.51 1.345-2.23 4.298-2.93 6.592-1.56 2.123 1.26 2.944 3.84 1.996 5.98Z"/>
  <path fill="#17263A" d="m774.759 604.313 14.604 223.449c-.577 24.17-3.644 30.071-7.471 57.396l-28.644 215.222-73.079 1.53 9.724-236.925-34.551-241.286 119.417-19.386Z"/>
  <path stroke="#334760" stroke-miterlimit="10" stroke-width="2" d="m774.759 604.313 14.604 223.449c-.577 24.17-3.644 30.071-7.471 57.396l-28.644 215.222-73.079 1.53 9.724-236.925-34.551-241.286 119.417-19.386Z"/>
  <path fill="#99C7EF" d="m792.39 370.218 39.85 96.724 112.383-10.16 8.746 60.842-132.084 23.41a33.88 33.88 0 0 1-18.377-.888c-11.494-3.852-20.19-13.573-22.96-25.67l-36.243-130.043c-3.3-11.845-10.216-36.21-.683-43.755l-7.966-10.186c15.774-12.491 49.949 16.966 57.334 39.726Z"/>
  <path stroke="#000" stroke-miterlimit="10" d="m792.39 370.218 39.85 96.724 112.383-10.16 8.746 60.842-132.084 23.41a33.88 33.88 0 0 1-18.377-.888c-11.494-3.852-20.19-13.573-22.96-25.67l-36.243-130.043c-3.3-11.845-10.216-36.21-.683-43.755l-7.966-10.186c15.774-12.491 49.949 16.966 57.334 39.726Z"/>
  <path fill="#000" d="M820.491 505.32c-.161.065-1.216-2.163-1.826-6.091-.629-3.903-.555-9.537 1.213-15.373 1.795-5.833 4.873-10.513 7.56-13.361 2.689-2.88 4.796-4.099 4.894-3.952.175.225-1.649 1.771-4.017 4.742-2.377 2.955-5.14 7.504-6.857 13.072-1.687 5.577-1.941 10.92-1.632 14.73.296 3.818.937 6.148.665 6.233Z"/>
  <path fill="#89C2F5" d="M849.65 720.59c-4.291-.001-8.582-1.112-12.428-3.126a27.705 27.705 0 0 1-5.804-4.058c-10.966-9.973-13.028-26.492-14.37-41.484-2.004-22.43-4.012-44.857-6.022-67.291l13.923-2.571c2.838-1.841 6.049-2.666 9.328-2.666 6.539 0 13.34 3.274 17.962 8.257 6.935 7.476 10.032 17.806 12.473 27.833a358.877 358.877 0 0 1 8.572 50.848c.254 2.681.475 5.405.475 8.109 0 3.367-.342 6.698-1.391 9.878-2.645 8.04-9.864 14.168-17.959 15.8a23.986 23.986 0 0 1-4.759.471Z"/>
  <path fill="#18293D" d="M854.35 717.481c-1.094-1.065-1.965-2.782-2.485-4.942-.522-2.162-.849-4.764-1.345-7.588-1.887-11.328-4.608-26.958-7.714-44.198-3.105-17.251-6.009-32.845-8.189-44.12-1.081-5.394-1.978-9.88-2.667-13.332-.668-3.141-1.09-4.868-1.202-4.844-.111.022.095 1.788.569 4.965l2.148 13.433c1.889 11.328 4.609 26.958 7.714 44.206 3.106 17.245 6.008 32.836 8.187 44.108.576 2.819.972 5.369 1.602 7.625.633 2.239 1.682 4.093 2.944 5.175 2.586 2.253 4.745 1.53 4.618 1.484.066-.17-1.958.245-4.18-1.972Z"/>
  <path fill="#18293D" d="M857.126 713.886c-.204-.429-1.292-.311-2.538-.141-1.246.193-2.319.396-2.396.867-.086.455 1.102 1.049 2.628.82 1.533-.219 2.509-1.134 2.306-1.546Zm-4.094-69.579c-7.263 1.732-13.216 2.889-13.159 3.373.055.451 6.176.038 13.531-1.718 7.352-1.732 13.032-4.119 12.889-4.544-.15-.464-5.998 1.173-13.261 2.889Zm6.631 32.555c-7.384 1.409-13.503 2.03-13.468 2.55.023.415 6.227.559 13.773-.876 7.533-1.494 13.264-3.956 13.131-4.355-.15-.494-6.068 1.223-13.436 2.681Zm-24.951-77.468-60.331-259.707-3.687-2.259 15.304 92.917 37.52 173.75 11.194-4.701Z"/>
  <path fill="#99C7EF" d="M647.023 639.334c-2.422-22.021-3.288-107.668-3.288-107.668-3.022-39.896-4.487-83.432-6.796-112.414-2.17-27.284-12.555-57.517-.031-65.563 44.865-28.817 59.801-27.693 59.801-27.693l24.059.327c28.692 2.217 49.906 22.145 54.162 49.417l54.095 254.247-182.002 9.347Z"/>
  <path fill="#3E546A" d="M772.261 340.982c0 273.66-125.76 292.29-125.76 292.29l-.75-13.609c125.921-49.502 112.401-287.567 112.401-287.567s14.109 2.26 14.109 8.886Z"/>
  <path fill="#18293D" d="m672.598 662.449-38.264 22.967c-6.222 3.737-14.21 1.573-17.841-4.827l-13.991-24.648c-3.632-6.398-1.534-14.613 4.687-18.349l38.268-22.968 27.141 47.825Z"/>
  <path stroke="#3E546A" stroke-miterlimit="10" d="m672.598 662.449-38.264 22.967c-6.222 3.737-14.21 1.573-17.841-4.827l-13.991-24.648c-3.632-6.398-1.534-14.613 4.687-18.349l38.268-22.968 27.141 47.825Z"/>
  <path fill="#18293D" d="m621.444 677.77-23.407 15.837-12.463-19.485 23.407-15.832 12.463 19.48Z"/>
  <path fill="#18293D" d="m606.058 693.062-13.517 9.141-16.817-26.292 13.516-9.147c2.726-1.843 6.394-1.063 8.187 1.74l10.321 16.134c1.793 2.81 1.039 6.577-1.69 8.424Zm1.477-55.617-.688-.893c-2.625-3.41-1.638-8.432 2.072-10.52l11.11-6.26c1.659-.933 3.73-.479 4.868 1.066l3.139 4.241-20.501 12.366Z"/>
  <path fill="#18293D" d="m593.893 702.421-2.884 1.952-17.983-28.117 2.883-1.949 17.984 28.114Z"/>
  <path fill="#3E546A" d="M593.506 701.676c-.108.082-1.268-1.285-3.005-3.608-1.736-2.326-4.036-5.617-6.415-9.362-2.379-3.746-4.385-7.232-5.754-9.801-1.376-2.569-2.124-4.213-2.007-4.283.121-.068 1.088 1.443 2.609 3.911l5.982 9.617 6.154 9.497c1.585 2.425 2.55 3.943 2.436 4.029Zm15.492-14.758c-.279.118-2.349-4.814-5.798-10.356-3.425-5.568-6.893-9.582-6.671-9.792.17-.188 4.022 3.581 7.507 9.243 3.511 5.642 5.197 10.822 4.962 10.905Zm9.368-26.09c.147.235-3.483 2.848-8.113 5.836-4.63 2.989-8.49 5.205-8.622 4.96-.132-.248 3.499-2.861 8.112-5.838 4.611-2.974 8.473-5.195 8.623-4.958Z"/>
  <path fill="#3E546A" d="M621.946 665.613c.148.238-3.693 2.924-8.575 6.001-4.884 3.076-8.946 5.367-9.078 5.12-.132-.252 3.71-2.938 8.577-6.005 4.865-3.063 8.929-5.357 9.076-5.116Zm.563 7.563c.141.241-3.173 2.581-7.401 5.223-4.23 2.645-7.775 4.594-7.919 4.35-.141-.241 3.173-2.579 7.403-5.224 4.229-2.642 7.773-4.586 7.917-4.349Z"/>
  <path fill="#3E546A" d="M619.853 679.596c-.156-.13 1.305-1.461 2.284-4.345.992-2.78 1.24-7.411-1.305-11.227-2.605-3.771-6.915-5.127-9.795-5.129-2.97-.052-4.691.902-4.755.705-.023-.049.37-.329 1.166-.675.796-.344 2.026-.683 3.582-.749 3.038-.189 7.743 1.116 10.619 5.268 2.792 4.205 2.361 9.193 1.144 12.062-.6 1.476-1.332 2.55-1.924 3.199-.588.65-.977.933-1.016.891Z"/>
  <path fill="#fff" d="M608.726 629.103c-.1.305 2 4.336 2 4.336l11.563-7.003-2.098-3.964-11.465 6.631Z"/>
  <path fill="#3E546A" d="M653.837 672.755c.067 0-.719.824-2.383.486-1.721-.257-3.381-2.287-4.741-4.712l-11.279-19.176c-1.148-1.842-2.036-3.823-3.19-5.366-1.165-1.627-2.835-2.299-4.659-2.136-1.799.152-3.804-.067-5.283-.986-1.511-.868-2.629-2.138-3.281-3.482-1.304-2.767-.715-5.375-.048-6.81a6.807 6.807 0 0 1 .987-1.581c.281-.314.452-.456.475-.436.076.062-.553.709-1.105 2.172-.534 1.409-.945 3.873.313 6.322 1.234 2.435 4.257 4.439 7.917 3.859.924-.031 1.983-.013 2.976.428.991.419 1.802 1.184 2.463 2.018 1.295 1.726 2.154 3.665 3.304 5.5 4.154 7.28 7.91 13.864 10.999 19.282 1.322 2.518 2.728 4.37 4.243 4.72 1.471.424 2.273-.206 2.292-.102Z"/>
  <path fill="#9ECFF9" d="M844.788 556.949s56.279 3.348 71.937-22.548l-73.861-3.895 1.924 26.443Z"/>
  <path fill="#99C7EF" d="M664.368 366.266c-17.693-12.75-25.959-12.695-25.612-12.465-12.017 7.163-26.351 22.203-27.811 53.4-1.506 32.298 3.645 95.333 8.111 141.438 2.93 30.283 29.951 51.714 59.23 46.985l167.344-27.041-2.767-38.077-149.657-10.682-6.266-110.2s-7.429-32.446-22.572-43.358Z"/>
  <path stroke="#000" stroke-miterlimit="10" d="M664.368 366.266c-17.693-12.75-25.959-12.695-25.612-12.465-12.017 7.163-26.351 22.203-27.811 53.4-1.506 32.298 3.645 95.333 8.111 141.438 2.93 30.283 29.951 51.714 59.23 46.985l167.344-27.041-2.767-38.077-149.657-10.682-6.266-110.2s-7.429-32.446-22.572-43.358Z"/>
  <path fill="#3E546A" d="m766.64 525.534 202.307 13.196c7.367.479 13.998-4.632 15.633-12.041l18.01-81.718c2.01-9.104-4.241-17.902-13.279-18.686l-107.775-9.372c-7.727-.668-14.704 4.837-16.082 12.694l-14.132 80.751-74.897 5.311c-5.172.368-9.327 4.559-9.785 9.865Z"/>
  <path fill="#BCCDDB" d="M940.985 481.412c-1.004 11.621-11.238 20.228-22.859 19.224-11.621-1.003-20.228-11.238-19.224-22.858 1.003-11.621 11.238-20.229 22.858-19.225 11.621 1.004 20.229 11.238 19.225 22.859Z"/>
  <path fill="#6285A6" d="m912.7 499.544-6.852-13.64 14.55-5.769 7.992-8.395 9.949 18.198s-2.648 5.96-10.189 9.12c-6.047 2.533-11.551 1.827-15.45.486Z"/>
  <path fill="#fff" d="M908.957 489.074s-4.366-9.262-4.276-9.886c.091-.624.083-.959.853-.838.769.123 4.175 2.015 4.175 2.015l5.471-1.353 5.986 2.566s5.702-1.887 6.139-1.348c.436.54 4.872 10.737 4.649 11.164-.223.427-.144.805-1.932 1.283-1.789.478-4.001.696-4.001.696l-5.586-2.899-5.879 1.351-5.599-2.751Z"/>
  <path stroke="#fff" stroke-linecap="round" stroke-linejoin="round" stroke-width="3" d="M908.957 489.074s-4.366-9.262-4.276-9.886c.091-.624.083-.959.853-.838.769.123 4.175 2.015 4.175 2.015l5.471-1.353 5.986 2.566s5.702-1.887 6.139-1.348c.436.54 4.872 10.737 4.649 11.164-.223.427-.144.805-1.932 1.283-1.789.478-4.001.696-4.001.696l-5.586-2.899-5.879 1.351-5.599-2.751Z"/>
  <path stroke="#fff" stroke-linecap="round" stroke-linejoin="round" stroke-width="3" d="M917.489 485.005a2.506 2.506 0 0 1-.468-.983c-.1-.507-.301-.996-.469-1.482-.411-1.188-.909-2.343-1.383-3.507-.78-1.912-1.503-3.884-1.647-5.944-.143-2.06.364-4.244 1.776-5.751 1.344-1.435 3.368-2.098 5.335-2.122 1.774-.023 3.626.481 4.883 1.731 1.683 1.674 1.966 4.373 1.323 6.656-.644 2.283-2.067 4.253-3.464 6.171l-1.533 2.105c-.107.147-.232.279-.325.434a28.005 28.005 0 0 1-.999 1.552c-.253.365-.515.723-.786 1.074-.226.295-.517.511-.892.587-.397.079-.823-.049-1.136-.306a1.617 1.617 0 0 1-.215-.215Z"/>
  <path fill="#87C2D8" d="M908.957 489.074s-4.366-9.262-4.276-9.886c.091-.624.083-.959.853-.838.769.123 4.175 2.015 4.175 2.015l5.471-1.353 5.986 2.566s5.702-1.887 6.139-1.348c.436.54 4.872 10.737 4.649 11.164-.223.427-.144.805-1.932 1.283-1.789.478-4.001.696-4.001.696l-5.586-2.899-5.879 1.351-5.599-2.751Z"/>
  <path stroke="#000" stroke-linecap="round" stroke-linejoin="round" stroke-width=".5" d="M908.957 489.074s-4.366-9.262-4.276-9.886c.091-.624.083-.959.853-.838.769.123 4.175 2.015 4.175 2.015l5.471-1.353 5.986 2.566s5.702-1.887 6.139-1.348c.436.54 4.872 10.737 4.649 11.164-.223.427-.144.805-1.932 1.283-1.789.478-4.001.696-4.001.696l-5.586-2.899-5.879 1.351-5.599-2.751Z"/>
  <path fill="#fff" d="M919.659 488.213c.231-.245.812-1.004 1.378-.941.565.063 2.936 1.174 3.561 2.497s1.217 3.28 1.217 3.28-3.369-1.79-3.756-1.991c-.387-.201-1.914-.927-1.992-1.147-.078-.221-.408-1.698-.408-1.698Z"/>
  <path fill="#B0E7FD" d="M912.745 482.876c.313-.219.996-.769 1.702-.559.707.211 1.568 1.01 1.892 1.335.326.325 1.027 1.148 1.447 1.277.422.13 1.349.154 1.814-.289.466-.443 1.058-1.489 1.364-1.593.307-.104 1.037.848 1.314 1.116.277.267 2.994 2.807 3.466 2.941.472.134.178 1.8-.174 2.01-.352.212-1.001.62-2.099-.441-1.098-1.061-1.904-1.633-2.758-1.428-.854.206-.803 1.12-1.528 1.132-.727.012-3.101-.472-3.522-1.205-.419-.734-1.577-2.172-2.033-2.49-.455-.318-.918-.34-.98-.699-.063-.358-.041-1.013.095-1.107Z"/>
  <path stroke="#000" stroke-linecap="round" stroke-linejoin="round" stroke-width=".5" d="M912.745 482.876c.313-.219.996-.769 1.702-.559.707.211 1.568 1.01 1.892 1.335.326.325 1.027 1.148 1.447 1.277.422.13 1.349.154 1.814-.289.466-.443 1.058-1.489 1.364-1.593.307-.104 1.037.848 1.314 1.116.277.267 2.994 2.807 3.466 2.941.472.134.178 1.8-.174 2.01-.352.212-1.001.62-2.099-.441-1.098-1.061-1.904-1.633-2.758-1.428-.854.206-.803 1.12-1.528 1.132-.727.012-3.101-.472-3.522-1.205-.419-.734-1.577-2.172-2.033-2.49-.455-.318-.918-.34-.98-.699-.063-.358-.041-1.013.095-1.107Zm-3.203-2.532 4.826 11.389m6.067-1.26-5.265-11.439m10.989 14.145-5.282-11.626"/>
  <path stroke="#000" stroke-linecap="round" stroke-linejoin="round" stroke-width=".5" d="M910.538 489.712c.043-.191.472-.963 1.152-.931.681.03 1.683.368 1.98.171.295-.199 1.421.01 1.882-1.79m-10.451-6.814c.415.036 1.968.142 2.167.411.2.268 1.164 1.69 1.405 2.128.241.44.603 2.305 2.817 2.052 0 0 .86-.395 1.148-.817m13.179 3.062c.295.082 2.378.177 3.783-1.235m-9.801 2.874c.139-.001 1.54.442 1.984.786.444.346 1.536 1.85 1.739 2.412"/>
  <path fill="#D9DFE6" d="M917.489 485.005a2.506 2.506 0 0 1-.468-.983c-.1-.507-.301-.996-.469-1.482-.411-1.188-.909-2.343-1.383-3.507-.78-1.912-1.503-3.884-1.647-5.944-.143-2.06.364-4.244 1.776-5.751 1.344-1.435 3.368-2.098 5.335-2.122 1.774-.023 3.626.481 4.883 1.731 1.683 1.674 1.966 4.373 1.323 6.656-.644 2.283-2.067 4.253-3.464 6.171l-1.533 2.105c-.107.147-.232.279-.325.434a28.005 28.005 0 0 1-.999 1.552c-.253.365-.515.723-.786 1.074-.226.295-.517.511-.892.587-.397.079-.823-.049-1.136-.306a1.617 1.617 0 0 1-.215-.215Z"/>
  <path stroke="#000" stroke-linecap="round" stroke-linejoin="round" stroke-width=".5" d="M917.489 485.005a2.506 2.506 0 0 1-.468-.983c-.1-.507-.301-.996-.469-1.482-.411-1.188-.909-2.343-1.383-3.507-.78-1.912-1.503-3.884-1.647-5.944-.143-2.06.364-4.244 1.776-5.751 1.344-1.435 3.368-2.098 5.335-2.122 1.774-.023 3.626.481 4.883 1.731 1.683 1.674 1.966 4.373 1.323 6.656-.644 2.283-2.067 4.253-3.464 6.171l-1.533 2.105c-.107.147-.232.279-.325.434a28.005 28.005 0 0 1-.999 1.552c-.253.365-.515.723-.786 1.074-.226.295-.517.511-.892.587-.397.079-.823-.049-1.136-.306a1.617 1.617 0 0 1-.215-.215Z"/>
  <path fill="#fff" d="M923.9 472.557a3.666 3.666 0 1 1-7.306-.63 3.666 3.666 0 0 1 7.306.63Z"/>
  <path stroke="#000" stroke-linecap="round" stroke-linejoin="round" stroke-width=".5" d="M923.9 472.557a3.666 3.666 0 1 1-7.306-.63 3.666 3.666 0 0 1 7.306.63Z"/>
  <path fill="#E5EAEF" d="M976.19 484.359c-.926.635-18.148 20.744-18.148 20.744l7.179-.228-7.259 16.479 21.301-23.176-7.128-.689 4.055-13.13Z"/>
  <path fill="#AAC9D4" d="M974.141 487.746c-.927.636-13.503 15.995-13.503 15.995l6.465-.289-7.789 15.614 17.379-19.88-6.219-.537 3.667-10.903Z"/>
  <path fill="#E5EAEF" d="M884.113 430.435a7.33 7.33 0 0 1 10.535.909c2.652 3.245 2.233 8.098-.936 10.84a7.335 7.335 0 0 1-10.535-.91c-2.651-3.245-2.232-8.098.936-10.839Z"/>
  <path fill="#51ABF9" d="M884.674 431.123a6.472 6.472 0 0 1 9.304.804c2.344 2.863 1.974 7.15-.826 9.569a6.476 6.476 0 0 1-9.304-.803c-2.343-2.863-1.972-7.15.826-9.57Z"/>
  <path fill="#17263A" d="M667.617 234.221c.343 4.145-2.972 7.781-6.672 9.465-3.697 1.687-7.832 2.004-11.732 3.099-3.903 1.092-7.905 3.319-9.361 7.199-1.109 2.968-.413 6.564 1.726 8.862 2.136 2.298 5.597 3.178 8.528 2.171-4.723 2.946-6.055 10.359-2.667 14.848 3.391 4.489 10.709 4.996 14.65 1.017-4.822 6.444-1.885 16.883 4.974 20.93 6.859 4.044 16.033 2.248 22.091-2.979s9.31-13.259 10.426-21.311c1.116-8.052.311-16.238-.496-24.333l-31.467-18.968Zm74.572 72.383c2.972 3.465 8.103 4.767 12.305 3.123 4.202-1.644 7.189-6.127 7.17-10.753 5.159 3.243 12.559 1.945 16.386-2.867 3.824-4.816 3.588-12.531-.528-17.085 3.239 1.997 7.807-.242 9.291-3.815 1.481-3.573.493-7.794-1.465-11.115-1.958-3.322-17.377-10.487-17.377-21.364 0-23.95-3.116-21.828-4.511-40.469"/>
  <path fill="#99CCF9" d="m668.816 217.765 7.517 109.527c1.23 17.882 15.689 31.744 33.12 31.744 19.189 0 34.392-16.69 33.13-36.383a3420.858 3420.858 0 0 0-1.268-18.965s25.781-4.122 26.099-30.632c.181-15.313-2.383-50.057-4.586-76.678-1.484-17.997-16.135-31.81-33.693-31.81h-15.572c-26.817 1.612-47.052 25.667-44.747 53.197Z"/>
  <path fill="#6EB7F6" d="M741.356 303.307s-16.29 1.363-33.604-9.821c0 0 7.943 19.079 33.664 16.689l-.06-6.868Z"/>
  <path fill="#17263A" d="M757.029 230.446c.07 2.001-1.519 3.707-3.55 3.818-2.025.111-3.725-1.412-3.792-3.413-.07-2.001 1.516-3.707 3.544-3.821 2.028-.111 3.731 1.415 3.798 3.416Zm1.358-7.483c-.458.494-3.249-1.628-7.209-1.615-3.957-.049-6.862 2.046-7.291 1.546-.213-.219.251-1.111 1.519-2.059 1.246-.941 3.369-1.861 5.839-1.851 2.466.013 4.542.948 5.737 1.903 1.214.961 1.627 1.857 1.405 2.076Zm-38.55 7.483c.067 2.001-1.523 3.707-3.551 3.818-2.025.111-3.725-1.412-3.795-3.413-.067-2.001 1.522-3.707 3.547-3.821 2.028-.111 3.729 1.415 3.799 3.416Zm-.387-6.721c-.458.494-3.249-1.629-7.209-1.619-3.954-.049-6.863 2.047-7.292 1.55-.213-.222.248-1.112 1.519-2.06 1.246-.945 3.369-1.863 5.839-1.853 2.466.016 4.543.948 5.738 1.906 1.214.961 1.627 1.854 1.405 2.076Zm14.373 30.213c-.019-.232 2.447-.67 6.436-1.193 1.011-.108 1.967-.317 2.139-1.026.238-.752-.185-1.873-.674-3.083-.954-2.517-1.948-5.155-2.994-7.921-4.151-11.279-7.161-20.554-6.716-20.721.442-.17 4.171 8.837 8.322 20.116 1.001 2.782 1.954 5.43 2.866 7.97.382 1.18 1.043 2.521.525 4.08-.27.778-1.014 1.343-1.662 1.523-.648.203-1.221.216-1.72.245-4.015.222-6.506.242-6.522.01Zm-11.656 2.818c.645-.039.652 4.385 4.336 7.523 3.671 3.148 8.254 2.651 8.286 3.269.064.278-1.017.859-2.956.915-1.895.065-4.666-.562-6.916-2.481-2.247-1.925-3.214-4.495-3.36-6.309-.162-1.847.318-2.943.61-2.917Zm-1.694-48.998c-.391 1.108-4.348.586-8.992 1.161-4.66.477-8.407 1.88-9.024.886-.277-.477.378-1.521 1.894-2.593 1.5-1.069 3.897-2.086 6.688-2.406 2.787-.314 5.343.141 7.037.85 1.704.706 2.562 1.576 2.397 2.102Zm36.456 3.416c-.696.922-3.424-.035-6.704-.081-3.284-.163-6.061.621-6.7-.347-.283-.468.156-1.396 1.37-2.272 1.198-.873 3.197-1.586 5.454-1.517 2.254.075 4.208.915 5.346 1.86 1.16.951 1.546 1.906 1.234 2.357Z"/>
  <path fill="#99CCF9" d="M677.506 237.661c-.439-.196-17.711-5.387-17.145 12.737.563 18.124 18.137 13.806 18.15 13.286.016-.52-1.005-26.023-1.005-26.023Z"/>
  <path fill="#6EB7F6" d="M672.916 256.992c-.079-.056-.298.232-.81.493-.499.255-1.364.449-2.295.125-1.882-.641-3.544-3.629-3.732-6.895-.095-1.648.191-3.23.719-4.547.499-1.344 1.303-2.298 2.234-2.501a1.553 1.553 0 0 1 1.84.807c.251.5.15.863.245.892.048.043.369-.317.204-1.059a2.042 2.042 0 0 0-.728-1.114c-.435-.34-1.062-.501-1.714-.406-1.357.141-2.54 1.468-3.118 2.916-.655 1.458-1.017 3.237-.909 5.087.226 3.648 2.148 7.006 4.72 7.679 1.252.291 2.273-.127 2.794-.572.531-.464.614-.872.55-.905Z"/>
  <path fill="#17263A" d="M667.703 237.046c2.686-.667 7.337 1.884 8.484 4.473 1.144 2.586 1.396 5.521 2.54 8.11 1.141 2.589 3.725 4.934 6.414 4.28 1.856-.454 3.184-2.243 3.674-4.139.489-1.896.289-3.897.051-5.845-1.036-8.464-2.768-16.856-3.099-25.382-.331-8.526.848-17.382 5.203-24.643 4.352-7.264 12.346-12.607 20.613-11.92 5.477.454 10.499 3.39 15.941 4.175 6.453.928 13.274-1.412 17.889-6.143.588-.605 3.343-2.468 3.343-2.468 0-.441-.404-4.226-1.856-5.606-10.794-10.265-30.247-13.133-44.503-9.442-14.259 3.691-27.624 14.045-33.759 27.788-6.135 13.744-4.314 32.855-.935 46.762Z"/>
  <path fill="#17263A" d="M705.01 193.789c2.39 3.972 6.656 6.682 11.179 7.107 4.52.422 9.193-1.454 12.238-4.916 1.335 3.426 4.917 5.78 8.502 5.587 3.585-.193 6.911-2.919 7.89-6.473 1.964 1.962 4.008 3.975 6.579 4.943 2.568.968 5.826.602 7.514-1.615 1.716-2.256 1.218-5.695-.47-7.977-1.685-2.285-4.278-3.642-6.853-4.747-8.032-3.449-16.887-5.182-25.514-3.979-8.63 1.2-16.983 5.502-22.374 12.531l1.309-.461Z"/>
  <path fill="#3F3F3F" d="M666.242 231.083s-.004-.006-.007-.016c-.079-.278-1.093-3.809-2.126-8.281-1.109-4.819-2.241-10.729-2.241-14.832 0-5.391 3.137-37.5 35.256-47.599 0 0 8.64-3.39 19.946-3.39 15.451 0 35.882 6.332 46.044 36.323 0 0-7.696-9.414-21.5-10.042-.401-.02-.81-.034-1.223-.04a45.827 45.827 0 0 0-8.745-.866c-1.863 0-3.721.121-5.571.379-6.389.889-12.629 3.478-17.626 7.617-11.91 5.306-24.058 13.878-33.67 26.713-3.096 4.086-5.966 8.741-8.537 14.034Z"/>
  <path fill="#595959" d="M669.063 224.041c10.028-15.78 23.855-28.827 39.398-38.811 15.543-9.991 41.245-19.867 58.962-24.705 5.318-1.448 10.865-2.72 16.284-1.756 5.423.964 10.73 4.675 12.075 10.164 1.685 6.869-10.168 17.467-15.74 21.635-5.569 4.168-16.929 10.282-16.929 10.282s.153-12.74-19.672-15.365c-26.967-3.576-74.378 38.556-74.378 38.556Z"/>
</svg>
