<svg xmlns="http://www.w3.org/2000/svg" width="130" height="32" fill="none" viewBox="0 0 130 32">
  <path fill="#132B3E" d="M18.307 1.227C18.307.548 17.83 0 17.239 0h-6.65C9.997 0 9.52.548 9.52 1.227v3.226h8.786V1.227ZM14.37 9.545l9.35 3.513-.733-6.137H4.835l-.733 6.17 9.61-3.54a.917.917 0 0 1 .659-.006ZM27.405 29.42l-2.63-2.469c-.726-.822-1.68-1.312-2.703-1.37-1.045-.06-2.061.326-2.868 1.096-.676.653-1.715.634-2.414-.039-1.624-1.567-4.015-1.489-5.554.183-.71.77-1.8.79-2.533.052-.813-.823-1.858-1.247-2.937-1.182-1.056.06-2.044.568-2.777 1.443L.405 29.667c-.483.47-.545 1.313-.125 1.861.625.823 1.42.366 1.618.144 0 0 2.693-2.644 2.721-2.677.687-.842 1.817-.908 2.573-.144.784.79 1.789 1.221 2.828 1.195 1.045-.02 2.034-.483 2.795-1.306.698-.757 1.772-.79 2.504-.085.744.719 1.687 1.123 2.664 1.136a3.8 3.8 0 0 0 2.692-1.09c.738-.705 1.84-.64 2.51.15.029.033 2.772 2.612 2.772 2.612.489.457 1.216.379 1.613-.19.398-.567.324-1.397-.165-1.854Z"/>
  <path fill="#132B3E" d="m22.527 15.2-7.44-2.795v10.518a6.105 6.105 0 0 1 2.936 1.423c1.107-.94 2.453-1.449 3.834-1.449.107 0 .93.072 1.226.137l2.687-6.62-3.158-1.182-.085-.033ZM5.96 23.001c1.442 0 2.834.555 3.97 1.567.868-.835 1.908-1.39 3.015-1.619V12.411l-10.887 4.01 2.72 6.704c.284-.058 1.08-.124 1.181-.124Zm38.856 1.215c-.512 0-.936-.112-1.272-.336-.32-.24-.584-.6-.792-1.08L36.704 9.36c-.224-.48-.288-.904-.192-1.272.096-.384.296-.68.6-.888.304-.224.672-.336 1.104-.336.544 0 .96.128 1.248.384.288.24.528.6.72 1.08l5.304 12.264h-1.2l5.304-12.288c.208-.48.456-.84.744-1.08.288-.24.688-.36 1.2-.36.432 0 .784.112 1.056.336.288.208.464.504.528.888.08.368.016.792-.192 1.272L46.88 22.8c-.224.48-.496.84-.816 1.08-.304.224-.72.336-1.248.336Zm14.21.048c-1.263 0-2.367-.248-3.311-.744a5.242 5.242 0 0 1-2.16-2.136c-.512-.928-.768-2.024-.768-3.288 0-.944.144-1.792.432-2.544a5.253 5.253 0 0 1 1.248-1.92 5.412 5.412 0 0 1 1.992-1.224c.768-.288 1.624-.432 2.568-.432 1.264 0 2.36.248 3.288.744a5.246 5.246 0 0 1 2.184 2.112c.528.912.792 2 .792 3.264 0 .96-.152 1.816-.456 2.568a5.487 5.487 0 0 1-1.248 1.944 5.41 5.41 0 0 1-1.992 1.248c-.768.272-1.624.408-2.568.408Zm0-2.712c.529 0 .985-.128 1.369-.384s.688-.632.912-1.128c.224-.512.336-1.16.336-1.944 0-1.168-.24-2.024-.72-2.568-.48-.56-1.112-.84-1.896-.84-.512 0-.968.12-1.368.36-.384.24-.688.616-.912 1.128-.208.496-.312 1.136-.312 1.92 0 1.168.24 2.04.72 2.616.48.56 1.104.84 1.872.84Zm11.404 6.984c-.416 0-.76-.112-1.032-.336a1.329 1.329 0 0 1-.48-.888c-.048-.352.016-.728.192-1.128l1.608-3.552v1.488l-4.248-9.744c-.16-.416-.216-.8-.168-1.152.064-.368.24-.656.528-.864.304-.224.72-.336 1.248-.336.432 0 .776.104 1.032.312.272.192.52.568.744 1.128l2.832 7.2h-.768l2.928-7.224c.224-.544.472-.912.744-1.104.288-.208.672-.312 1.152-.312.416 0 .744.112.984.336.256.208.408.488.456.84.064.352 0 .736-.192 1.152l-5.64 12.792c-.24.544-.512.912-.816 1.104-.288.192-.656.288-1.104.288Zm13.33-4.272c-.863 0-1.64-.168-2.327-.504-.688-.336-1.224-.792-1.608-1.368a3.426 3.426 0 0 1-.576-1.944c0-.864.224-1.544.672-2.04.448-.512 1.176-.872 2.184-1.08 1.008-.224 2.344-.336 4.008-.336h1.272v1.872h-1.248c-.816 0-1.48.048-1.992.144-.496.08-.856.224-1.08.432-.208.208-.312.496-.312.864 0 .448.152.816.456 1.104.32.288.776.432 1.368.432a2.36 2.36 0 0 0 1.224-.312 2.42 2.42 0 0 0 .864-.888c.208-.384.312-.816.312-1.296v-2.76c0-.704-.16-1.2-.48-1.488-.32-.304-.864-.456-1.632-.456-.432 0-.904.056-1.416.168a9.479 9.479 0 0 0-1.656.504c-.352.16-.664.2-.936.12a1.184 1.184 0 0 1-.624-.48 1.468 1.468 0 0 1-.216-.768c0-.288.08-.56.24-.816.16-.272.424-.472.792-.6a10.306 10.306 0 0 1 2.112-.624 11.311 11.311 0 0 1 1.848-.168c1.232 0 2.24.184 3.024.552.8.352 1.4.904 1.8 1.656.4.736.6 1.688.6 2.856v5.328c0 .592-.144 1.048-.432 1.368-.288.32-.704.48-1.248.48s-.968-.16-1.272-.48c-.288-.32-.432-.776-.432-1.368v-.888l.168.144a3.082 3.082 0 0 1-.624 1.416 3.194 3.194 0 0 1-1.176.912c-.48.208-1.032.312-1.656.312Zm15.04 4.32c-.864 0-1.696-.072-2.496-.216a8.419 8.419 0 0 1-2.088-.648c-.368-.16-.632-.368-.792-.624a1.467 1.467 0 0 1-.192-.816c.032-.288.128-.544.288-.768.176-.224.392-.384.648-.48.256-.08.528-.056.816.072.704.32 1.352.528 1.944.624.608.096 1.128.144 1.56.144 1.024 0 1.792-.232 2.304-.696.512-.464.768-1.176.768-2.136v-1.824h.216c-.24.736-.736 1.336-1.488 1.8a4.66 4.66 0 0 1-2.496.696c-1.056 0-1.976-.24-2.76-.72-.784-.496-1.392-1.184-1.824-2.064-.432-.896-.648-1.928-.648-3.096 0-.88.12-1.68.36-2.4a5.64 5.64 0 0 1 1.056-1.848 4.677 4.677 0 0 1 1.656-1.176 5.315 5.315 0 0 1 2.16-.432c.944 0 1.776.232 2.496.696.736.448 1.224 1.04 1.464 1.776l-.24.768v-1.368c0-.592.152-1.04.456-1.344.32-.32.768-.48 1.344-.48.576 0 1.016.16 1.32.48.304.304.456.752.456 1.344v8.784c0 1.968-.544 3.448-1.632 4.44-1.072 1.008-2.624 1.512-4.656 1.512ZM98.872 21c.544 0 1.008-.128 1.392-.384.4-.256.712-.616.936-1.08.224-.48.336-1.048.336-1.704 0-.992-.248-1.76-.744-2.304-.48-.56-1.12-.84-1.92-.84-.544 0-1.016.128-1.416.384-.4.24-.712.6-.936 1.08-.208.464-.312 1.024-.312 1.68 0 .992.24 1.768.72 2.328.48.56 1.128.84 1.944.84Zm15.15 3.264c-1.392 0-2.592-.248-3.6-.744-.992-.512-1.76-1.224-2.304-2.136-.528-.928-.792-2.016-.792-3.264 0-1.216.256-2.28.768-3.192a5.44 5.44 0 0 1 2.136-2.16c.928-.528 1.976-.792 3.144-.792.848 0 1.616.144 2.304.432.688.272 1.28.672 1.776 1.2.496.512.872 1.144 1.128 1.896.256.736.384 1.56.384 2.472 0 .304-.096.536-.288.696-.192.144-.472.216-.84.216h-7.536v-1.872h6.048l-.384.336c0-.656-.096-1.2-.288-1.632-.192-.448-.472-.784-.84-1.008-.352-.224-.792-.336-1.32-.336-.592 0-1.096.136-1.512.408-.416.272-.736.664-.96 1.176-.224.512-.336 1.128-.336 1.848V18c0 1.216.28 2.112.84 2.688.576.576 1.424.864 2.544.864.384 0 .824-.048 1.32-.144.496-.096.96-.248 1.392-.456.368-.176.696-.232.984-.168.288.048.512.176.672.384.16.208.248.448.264.72.032.272-.024.544-.168.816-.144.256-.384.472-.72.648a6.49 6.49 0 0 1-1.848.672c-.672.16-1.328.24-1.968.24Zm8.924-.048c-.608 0-1.072-.16-1.392-.48-.32-.32-.48-.776-.48-1.368v-8.52c0-.592.152-1.04.456-1.344.32-.32.76-.48 1.32-.48.576 0 1.016.16 1.32.48.304.304.456.752.456 1.344v1.248h-.24c.192-.96.616-1.704 1.272-2.232.656-.528 1.504-.824 2.544-.888.4-.032.704.072.912.312.224.224.344.6.36 1.128.032.496-.072.888-.312 1.176-.224.288-.608.464-1.152.528l-.552.048c-.912.08-1.592.344-2.04.792-.432.448-.648 1.096-.648 1.944v4.464c0 .592-.16 1.048-.48 1.368-.304.32-.752.48-1.344.48Z"/>
</svg>
