<svg xmlns="http://www.w3.org/2000/svg" width="81" height="76" fill="none" viewBox="0 0 81 76">
  <path fill="#132B3E" d="M57.744 39.968c-1.507 1.052-3.955 1.052-5.478 0-1.507-1.053-1.523-2.768-.016-3.82 1.507-1.053 3.954-1.053 5.478 0 1.523 1.052 1.54 2.767.016 3.82ZM28.88 16.108c-1.523-1.052-3.97-1.052-5.478 0-1.507 1.053-1.49 2.769.017 3.821 1.523 1.053 3.97 1.053 5.477 0 1.508-1.052 1.491-2.768-.016-3.82Zm49.397 21.988-23.142 16.18c-2.48 1.734-6.532 1.734-9.027 0l-43.207-30C.405 22.541.39 19.715 2.87 17.98L26.012 1.801c2.48-1.735 6.53-1.735 9.027 0l43.19 30c2.512 1.734 2.528 4.56.048 6.296Zm-8.735.702c-.454-.195-.891-.41-1.28-.682-2.528-1.754-2.545-4.6-.033-6.374a6.795 6.795 0 0 1 1.248-.682L35.85 7.707a4.05 4.05 0 0 1-.762.644c-2.512 1.754-6.612 1.754-9.14 0a5.311 5.311 0 0 1-.73-.605l-13.824 9.669c.308.156.6.312.875.507 2.529 1.754 2.545 4.6.033 6.354-.292.195-.6.37-.924.526l33.531 23.294c.162-.136.34-.292.535-.429 2.512-1.754 6.596-1.754 9.14 0 .39.273.714.566.99.878l13.97-9.747Zm-67.856-5.77 45.248 31.423.632.448.908.624c1.28.896 3.338.896 4.619 0l25.946-18.128c1.053-.741 1.053-1.95-.016-2.69-1.07-.741-2.788-.741-3.857 0L50.759 61.76 5.624 30.416c-1.054-.72-2.755-.838-3.857-.156-1.167.741-1.183 2.008-.081 2.768ZM79.072 54.51c-1.07-.74-2.788-.74-3.858 0L50.807 71.585 5.672 40.22c-1.053-.721-2.755-.838-3.857-.156-1.166.741-1.199 1.989-.097 2.749l45.265 31.441.648.449.907.624c1.28.896 3.34.896 4.62 0l25.946-18.129c1.053-.74 1.037-1.949-.032-2.69ZM50.434 34.88c-5.43 3.801-14.246 3.82-19.707.02-5.462-3.782-5.462-9.922-.033-13.723 5.43-3.801 14.246-3.82 19.707-.02 5.462 3.782 5.462 9.942.033 13.723Zm-1.427-7.914-.097-.214a7.293 7.293 0 0 0-1.993-2.066 8.575 8.575 0 0 0-1.053-.624c-.973-.488-2.043-.838-3.226-.936-1.507-.136-2.933.098-4.262.585l-.162.058-1.2-.838c-.194-.136-.502-.136-.68 0l-.762.526c-.194.137-.194.351 0 .488l.94.643c-.21.136-.421.293-.615.429l-.94-.643c-.195-.137-.503-.137-.681 0l-.762.526c-.194.136-.194.35 0 .487l1.135.78c-.195.253-.405.487-.568.76-.794 1.365-.81 2.71.163 4.055a6.87 6.87 0 0 0 1.54 1.481 9.59 9.59 0 0 0 2.009 1.053c.405.156.826.292 1.248.41.42.096.713 0 .875-.274a7.16 7.16 0 0 0 .518-.916c.114-.214.081-.35-.097-.487a.497.497 0 0 0-.194-.098c-.47-.195-.94-.37-1.394-.585a8.348 8.348 0 0 1-1.118-.623 4.11 4.11 0 0 1-.973-.917c-.616-.818-.437-1.598.098-2.378l2.414 1.677c.195.136.503.136.68 0l.763-.526c.194-.137.194-.351 0-.488l-2.658-1.832c.21-.156.421-.293.616-.429l2.657 1.832c.195.137.503.137.681 0l.762-.526c.194-.136.194-.35 0-.487l-2.318-1.599.033-.02c.907-.253 1.815-.33 2.755-.038a5.383 5.383 0 0 1 1.588.76c.34.234.648.507.908.8.308.311.567.662.858.974.05.039.082.078.13.117.178.136.405.156.697.078.438-.117.859-.234 1.28-.37.39-.118.519-.312.405-.605Z"/>
</svg>
