<svg xmlns="http://www.w3.org/2000/svg" width="845" height="733" fill="none" viewBox="0 0 845 733">
  <path fill="#D9DFE6" d="M.005 349.627c-1.178 187.869 191.484 355.72 376.451 379.812 205.139 26.719 337.193-131.674 359.198-159.268 76.553-95.998 161.69-289.916 67.134-436.154C697.699-28.512 448.174-12.255 322.254 23.95 289.245 33.441 1.44 120.851.005 349.627Z"/>
  <path fill="#51AFD0" d="M678.403 132.007c0 9.873-8.003 17.876-17.876 17.876-9.873 0-17.876-8.003-17.876-17.876 0-9.873 8.003-17.876 17.876-17.876 9.873 0 17.876 8.003 17.876 17.876Z"/>
  <path fill="#43A1F4" d="M810.209 510.491c0 16.245-13.169 29.414-29.414 29.414s-29.414-13.169-29.414-29.414 13.169-29.414 29.414-29.414 29.414 13.169 29.414 29.414ZM95.011 645.712c0 11.637-9.433 21.07-21.07 21.07s-21.07-9.433-21.07-21.07 9.433-21.07 21.07-21.07 21.07 9.433 21.07 21.07Z"/>
  <path fill="#0857A0" d="m679.949 258.673-242.682-66.106c-14.174-3.86-28.931 4.577-32.792 18.752l-96.527 354.359c-3.861 14.175 4.577 28.931 18.751 32.792l242.683 66.106c14.174 3.86 28.931-4.576 32.792-18.751l96.527-354.359c3.861-14.175-4.578-28.932-18.752-32.793Z" opacity=".2" style="mix-blend-mode:multiply"/>
  <path fill="#51AFD0" d="m563.01 655.017-242.683-66.106c-14.174-3.861-22.612-18.618-18.751-32.792l96.527-354.359c3.861-14.174 18.618-22.613 32.792-18.752l242.682 66.107c14.174 3.861 22.613 18.617 18.752 32.791l-96.527 354.36c-3.861 14.174-18.618 22.612-32.792 18.751Z"/>
  <path fill="#42719E" d="M519.262 337.108c-46.943-12.787-95.538 15.001-108.325 61.944-12.788 46.946 15 95.54 61.943 108.327 46.946 12.788 95.54-15 108.328-61.946 12.787-46.943-15-95.537-61.946-108.325Zm59.723 83.373c-3.396-8.054-9.229-15.931-16.976-23.117-1.661-15.61-6.791-29.624-14.731-40.37 19.357 15.232 31.166 38.588 31.707 63.487Zm-19.903 16.182a119.693 119.693 0 0 0 2.282-11.484c8.754 5.967 13.936 11.651 14.781 16.132l-17.063-4.648Zm-5.107-1.392-22.327-6.081a217.48 217.48 0 0 0 3.842-17.725c8.071 3.439 15.111 7.023 20.971 10.57a114.752 114.752 0 0 1-2.486 13.236Zm-27.435-7.473-27.219-7.414 5.357-19.667c9.341 2.636 17.979 5.569 25.766 8.664a207.789 207.789 0 0 1-3.904 18.417Zm-20.47-32.19 5.416-19.882c7.58 2.218 14.724 4.988 21.307 8.199-.079 6.296-.594 13.059-1.551 20.119-8.075-3.16-16.6-6.013-25.172-8.436Zm6.807-24.988 7.458-27.38c7.568 4.155 11.841 17.221 12.409 34.84a139.615 139.615 0 0 0-19.867-7.46Zm-5.108-1.392a139.34 139.34 0 0 0-20.904-3.645c9.424-14.897 19.733-23.99 28.362-23.734l-7.458 27.379Zm-1.391 5.107-5.416 19.881c-8.616-2.259-17.409-4.123-25.971-5.495 2.755-6.571 5.742-12.66 8.867-18.126 7.301.572 14.863 1.807 22.52 3.74Zm-6.808 24.991-5.357 19.666-27.217-7.413a207.795 207.795 0 0 1 5.977-17.853c8.28 1.282 17.211 3.134 26.597 5.6Zm-37.681 10.861-22.327-6.081a114.792 114.792 0 0 1 4.57-12.669c6.849-.085 14.735.397 23.434 1.526a217.557 217.557 0 0 0-5.677 17.224Zm-27.434-7.473-17.064-4.648c3-3.433 10.351-5.703 20.921-6.406a119.727 119.727 0 0 0-3.857 11.054Zm-18.455.46 17.063 4.648a119.528 119.528 0 0 0-2.282 11.485c-8.753-5.968-13.937-11.651-14.781-16.133Zm22.17 6.04 22.327 6.081a217.299 217.299 0 0 0-3.843 17.727c-8.07-3.44-15.11-7.024-20.97-10.571a114.768 114.768 0 0 1 2.486-13.237Zm27.435 7.473 27.217 7.414-5.358 19.669c-9.34-2.635-17.977-5.568-25.763-8.663a207.342 207.342 0 0 1 3.904-18.42Zm20.467 32.192-5.415 19.879c-7.58-2.216-14.723-4.988-21.306-8.198.08-6.295.594-13.058 1.551-20.117 8.075 3.16 16.599 6.013 25.17 8.436Zm-6.806 24.986-7.459 27.382c-7.566-4.156-11.839-17.223-12.406-34.842 6.21 2.899 12.858 5.413 19.865 7.46Zm5.108 1.391a139.5 139.5 0 0 0 20.906 3.647c-9.425 14.897-19.734 23.992-28.365 23.736l7.459-27.383Zm1.391-5.107 5.415-19.878c8.617 2.259 17.41 4.123 25.973 5.495-2.755 6.569-5.742 12.659-8.866 18.124-7.302-.572-14.865-1.807-22.522-3.741Zm6.807-24.988 5.358-19.669 27.219 7.414a207.635 207.635 0 0 1-5.978 17.856c-8.281-1.282-17.211-3.135-26.599-5.601Zm37.684-10.863 22.327 6.082a114.792 114.792 0 0 1-4.57 12.669c-6.849.085-14.736-.397-23.435-1.526a217.038 217.038 0 0 0 5.678-17.225Zm27.434 7.473 17.064 4.648c-3.001 3.435-10.35 5.703-20.921 6.407a119.644 119.644 0 0 0 3.857-11.055Zm4.39-22.539c.455-4.78.615-9.495.469-14.1 7.85 8.327 12.88 17.388 14.221 26.326-3.404-4.114-8.462-8.239-14.69-12.226Zm-5.041-3.054c-6.16-3.539-13.179-6.93-20.692-10.07.982-6.794 1.552-13.306 1.731-19.444 7.11 3.902 13.466 8.311 18.871 13.057.458 5.321.499 10.829.09 16.457Zm-18.916-35.445c-.176-12.994-2.259-23.945-6.112-31.697 12.465 9.021 20.902 24.615 23.997 43.2-5.318-4.186-11.315-8.06-17.885-11.503Zm-57.239-15.592c-7.408-.365-14.542-.068-21.249.843 12.093-14.449 27.273-23.61 42.592-25.062-7.252 4.727-14.601 13.109-21.343 24.219Zm-2.969 5.134c-2.958 5.381-5.771 11.284-8.37 17.637-8.068-1.105-15.837-1.743-22.941-1.817a103.988 103.988 0 0 1 8.425-14.138c7.065-1.35 14.779-1.925 22.886-1.682Zm-37.204 15.896c-7.39.276-13.84 1.268-18.861 3.087 5.689-7.024 14.619-12.281 25.608-15.477a111.47 111.47 0 0 0-6.747 12.39Zm-10.646 39.085a111.576 111.576 0 0 0-.469 14.097c-7.849-8.326-12.88-17.385-14.221-26.323 3.405 4.114 8.462 8.239 14.69 12.226Zm5.041 3.054c6.16 3.539 13.179 6.929 20.692 10.069-.982 6.792-1.552 13.306-1.731 19.442-7.11-3.902-13.467-8.31-18.872-13.056a104.17 104.17 0 0 1-.089-16.455Zm18.916 35.442c.176 12.996 2.258 23.948 6.111 31.7-12.466-9.022-20.903-24.617-23.997-43.204 5.319 4.187 11.316 8.061 17.886 11.504Zm57.24 15.592c7.408.365 14.542.068 21.249-.843-12.094 14.449-27.275 23.609-42.593 25.063 7.252-4.727 14.602-13.109 21.344-24.22Zm2.969-5.134c2.958-5.379 5.771-11.282 8.369-17.634 8.067 1.104 15.836 1.742 22.94 1.816a104.144 104.144 0 0 1-8.424 14.136c-7.065 1.35-14.778 1.925-22.885 1.682Zm37.202-15.894c7.39-.278 13.839-1.267 18.86-3.086-5.689 7.021-14.618 12.278-25.605 15.473a111.593 111.593 0 0 0 6.745-12.387Zm-66.398-118.278c-12.294 5.235-23.825 14.711-33.173 27.322-10.321 2.265-19.342 6.094-26.354 11.314 13.094-21.185 35.118-35.326 59.527-38.636Zm-71.875 83.964c3.396 8.054 9.228 15.932 16.975 23.118 1.661 15.612 6.791 29.627 14.731 40.374-19.357-15.234-31.165-38.592-31.706-63.492Zm93.953 80.446c12.293-5.234 23.823-14.712 33.171-27.324 10.321-2.265 19.342-6.095 26.353-11.313-13.094 21.184-35.116 35.325-59.524 38.637Zm-53.862-259.859a8.894 8.894 0 0 0-2.471-4.418c-1.245-1.227-2.834-2.104-4.767-2.63l-7.999-2.178v-.001l-4.545-1.238-8.827 32.403 4.546 1.238 3.424-12.57 7.998 2.179c1.933.527 3.745.583 5.438.166a8.844 8.844 0 0 0 4.365-2.534c1.215-1.273 2.093-2.895 2.631-4.871.538-1.976.607-3.826.207-5.546Zm-4.864 4.277c-.3 1.1-.769 2.016-1.407 2.753-.64.734-1.393 1.232-2.263 1.49-.867.258-1.791.254-2.771-.013l-8.157-2.222 3.048-11.188 8.156 2.221c.98.267 1.777.738 2.392 1.407.617.67 1.013 1.485 1.192 2.443.177.958.114 1.994-.19 3.109Zm20.312-5.146-20.77 29.15 4.902 1.335 4.378-6.442 13.079 3.562.506 7.773 4.902 1.336-3.117-35.657-3.88-1.057Zm-8.826 20.124 9.06-13.331 1.047 16.084-10.107-2.753Zm30.457-4.534c.441-1.618 1.396-2.704 2.862-3.254 1.466-.551 3.307-.524 5.521.079 1.232.336 2.399.897 3.501 1.684 1.104.788 2.146 1.802 3.134 3.043l3.568-2.904a19.985 19.985 0 0 0-2.706-2.763 17.769 17.769 0 0 0-3.014-2.029 16.167 16.167 0 0 0-3.317-1.311c-2.423-.66-4.598-.851-6.522-.578-1.927.275-3.531.998-4.817 2.17-1.287 1.175-2.201 2.763-2.748 4.77l-.006.023c-.623 2.287-.621 4.182.008 5.686.626 1.505 1.556 2.675 2.789 3.512 1.23.84 2.882 1.74 4.95 2.702l.316.157a.436.436 0 0 0 .138.062.426.426 0 0 1 .14.063c1.398.666 2.517 1.289 3.358 1.859.842.574 1.464 1.27 1.873 2.09.406.821.455 1.797.148 2.925l-.006.023c-.433 1.589-1.414 2.644-2.942 3.159-1.531.518-3.47.457-5.817-.182-1.738-.473-3.277-1.181-4.615-2.121a13.225 13.225 0 0 1-3.423-3.517l-3.777 2.704a16.897 16.897 0 0 0 2.792 3.154 17.181 17.181 0 0 0 3.546 2.403l1.974 1.018 2.338.637c2.512.684 4.756.899 6.731.647 1.975-.252 3.622-.951 4.941-2.1s2.247-2.712 2.785-4.688l.011-.043c.579-2.125.594-3.922.044-5.388-.55-1.466-1.408-2.653-2.573-3.561-1.167-.908-2.675-1.829-4.525-2.766-.072-.034-.147-.071-.233-.109a4.727 4.727 0 0 1-.233-.113 1.874 1.874 0 0 0-.158-.077 1.187 1.187 0 0 1-.158-.081c-1.59-.783-2.817-1.455-3.677-2.017-.86-.562-1.519-1.248-1.975-2.058-.458-.811-.535-1.774-.231-2.89l.005-.02Zm28.1 7.654c.441-1.619 1.396-2.705 2.862-3.255 1.466-.55 3.306-.523 5.52.08 1.232.335 2.4.897 3.502 1.684 1.104.789 2.146 1.802 3.134 3.043l3.568-2.904a20.033 20.033 0 0 0-2.706-2.762 17.651 17.651 0 0 0-3.014-2.029 16.178 16.178 0 0 0-3.318-1.312c-2.423-.659-4.597-.85-6.521-.578-1.927.275-3.531.999-4.817 2.171-1.287 1.174-2.202 2.762-2.748 4.768l-.006.023c-.623 2.288-.621 4.183.008 5.687.626 1.504 1.556 2.675 2.789 3.513 1.23.839 2.881 1.739 4.949 2.7l.316.158a.42.42 0 0 0 .139.062.449.449 0 0 1 .14.064c1.398.665 2.517 1.287 3.358 1.858.842.574 1.464 1.27 1.873 2.09.406.822.456 1.797.148 2.926l-.007.023c-.433 1.589-1.413 2.643-2.941 3.159-1.531.518-3.47.457-5.817-.182-1.738-.474-3.277-1.182-4.615-2.121a13.259 13.259 0 0 1-3.423-3.518l-3.777 2.705a16.956 16.956 0 0 0 6.338 5.557l1.974 1.017 2.338.637c2.512.685 4.756.9 6.731.648 1.975-.252 3.621-.952 4.94-2.101 1.319-1.149 2.247-2.711 2.785-4.687l.012-.044c.579-2.125.593-3.922.043-5.388-.55-1.465-1.407-2.652-2.572-3.561-1.167-.908-2.675-1.828-4.525-2.765a9.197 9.197 0 0 0-.233-.111 3.997 3.997 0 0 1-.233-.112 2.28 2.28 0 0 0-.158-.078 1.292 1.292 0 0 1-.158-.079c-1.59-.783-2.817-1.456-3.677-2.018-.861-.561-1.519-1.247-1.975-2.058-.458-.81-.536-1.774-.232-2.889l.006-.021Zm43.839 3.576c-1.245-1.227-2.833-2.102-4.766-2.629l-10.207-2.78-2.338-.637-8.826 32.402 4.546 1.239 3.423-12.57 7.999 2.179c1.933.526 3.745.582 5.438.165a8.835 8.835 0 0 0 4.365-2.533c1.215-1.272 2.093-2.896 2.631-4.872.538-1.976.607-3.825.207-5.544a8.898 8.898 0 0 0-2.472-4.42Zm-2.393 8.695c-.299 1.1-.768 2.017-1.406 2.753-.64.734-1.393 1.232-2.263 1.49-.867.258-1.792.254-2.772-.013l-8.156-2.221 3.047-11.189 8.157 2.223c.98.266 1.777.737 2.392 1.406.617.67 1.013 1.484 1.192 2.442.177.959.113 1.994-.191 3.109Zm29.428-1.427c-1.455-1.459-3.31-2.495-5.568-3.11-2.26-.615-4.385-.664-6.379-.145-1.991.519-3.704 1.553-5.139 3.1-1.435 1.548-2.476 3.512-3.124 5.889l-2.501 9.18c-.648 2.377-.745 4.596-.293 6.658.451 2.063 1.403 3.822 2.856 5.28 1.456 1.456 3.311 2.494 5.571 3.109 2.258.615 4.383.662 6.376.145 1.991-.521 3.705-1.552 5.14-3.102 1.435-1.548 2.476-3.509 3.123-5.886l2.501-9.18c.648-2.377.746-4.599.294-6.661-.452-2.061-1.404-3.82-2.857-5.277Zm-2.052 10.511-2.586 9.494c-.397 1.457-1.023 2.661-1.883 3.617-.858.954-1.878 1.594-3.059 1.92-1.183.324-2.442.303-3.777-.061-1.337-.364-2.434-.986-3.287-1.865-.853-.879-1.408-1.948-1.663-3.205-.257-1.26-.186-2.615.211-4.072l2.586-9.494c.396-1.454 1.023-2.661 1.883-3.615.858-.954 1.879-1.597 3.059-1.919 1.181-.326 2.442-.307 3.779.058 1.335.364 2.43.986 3.285 1.866.853.877 1.408 1.948 1.663 3.205.257 1.259.185 2.616-.211 4.071Zm32.614-2.198c-1.207-1.16-2.748-1.993-4.619-2.503l-10.875-2.962-1.983-.541-8.832 32.424 4.545 1.237 3.734-13.704 6.766 1.842 3.183 15.589 5.392 1.469-3.613-16.233a9.395 9.395 0 0 0 1.814-.223 8.5 8.5 0 0 0 4.204-2.385c1.172-1.205 2.012-2.736 2.518-4.593.506-1.858.563-3.601.171-5.232a8.423 8.423 0 0 0-2.405-4.185Zm-2.6 8.101c-.271.996-.695 1.825-1.267 2.49-.572.666-1.249 1.116-2.031 1.351-.782.233-1.603.232-2.464-.002l-8.491-2.313 2.743-10.07 8.492 2.312c.875.238 1.587.656 2.136 1.251.546.597.898 1.327 1.054 2.191.155.864.099 1.793-.172 2.79Zm33.274-.968-22.865-6.228-1.177 4.323 9.159 2.495-7.648 28.079 4.545 1.239 7.649-28.08 9.16 2.496 1.177-4.324ZM487.503 571.137l-9.752 35.801-59.554-16.223 9.752-35.8 59.554 16.222Z"/>
  <path fill="#51AFD0" d="m483.261 586.707-1.275 4.682-59.554-16.223 1.275-4.681 59.554 16.222Z"/>
  <path fill="#51AFD0" d="M461.435 583.276c-1.004 3.686-5.664 5.626-10.408 4.334-4.744-1.292-7.777-5.328-6.773-9.014 1.004-3.686 5.665-5.625 10.409-4.333 4.744 1.292 7.776 5.327 6.772 9.013Z"/>
  <path fill="#0857A0" d="M552.684 117.667 400.471 73.531l-6.911-2.004c-13.667-3.962-28.096 3.993-32.059 17.661L232.732 533.28c-3.963 13.668 3.976 28.092 17.644 32.055l6.911 2.004L409.5 611.473c13.667 3.963 28.091-3.975 32.054-17.643l81.116-279.749 1.344-4.636 46.309-159.707c3.963-13.668-3.972-28.108-17.639-32.071Z" opacity=".2" style="mix-blend-mode:multiply"/>
  <path fill="#43A1F4" d="m387.703 59.638 159.124 46.14c13.668 3.963 21.602 18.403 17.639 32.071L435.697 581.94c-3.963 13.668-18.385 21.607-32.053 17.644l-159.125-46.14c-13.668-3.963-21.606-18.386-17.643-32.054L355.644 77.3c3.963-13.669 18.391-21.625 32.059-17.662Z"/>
  <path fill="#2C8DE2" d="m387.703 59.638 6.911 2.004L251.43 555.448l-6.911-2.004c-13.668-3.963-21.606-18.386-17.643-32.054L355.644 77.3c3.963-13.669 18.391-21.625 32.059-17.662Z"/>
  <path fill="#A3D4FF" d="M474.113 114.748c36.464 10.573 57.452 48.703 46.879 85.167s-48.704 57.453-85.167 46.88c-36.464-10.573-57.452-48.704-46.879-85.168 10.573-36.464 48.703-57.452 85.167-46.879ZM339.751 250.851l2.321-8.003 177.061 51.341-2.32 8.003-177.062-51.341Z"/>
  <path fill="#2C8DE2" d="m344.338 355.824-50.553 174.347c-1.504 5.188-6.98 8.201-12.167 6.697-5.187-1.504-8.201-6.98-6.697-12.167l50.553-174.347c1.504-5.187 6.979-8.201 12.167-6.697 5.188 1.504 8.201 6.979 6.697 12.167Z"/>
  <path fill="#A3D4FF" d="m364.148 420.748-34.724 119.757c-1.504 5.188-6.98 8.201-12.167 6.697-5.188-1.504-8.201-6.979-6.697-12.167l34.724-119.756c1.504-5.188 6.98-8.201 12.167-6.697 5.187 1.504 8.201 6.979 6.697 12.166Zm60.032-130.079-80.43 277.383-7.139-2.07 80.43-277.383 7.139 2.07Zm4.759 226.715-4.558 15.719-46.874-13.591 4.558-15.72 46.874 13.592Zm12.7-43.801-6.443 22.222-46.874-13.592 6.444-22.222 46.873 13.592Zm-9.696 33.44-2.279 7.86-46.874-13.592 2.28-7.86 46.873 13.592Zm2.3-7.932-1.658 5.717-46.873-13.592 1.657-5.716 46.874 13.591Zm14.648-50.517-4.558 15.72-46.874-13.592 4.558-15.72 46.874 13.592Zm3.004-10.361-2.279 7.86-46.874-13.592 2.28-7.859 46.873 13.591Zm11.457-39.514-6.443 22.222-46.874-13.591 6.444-22.222 46.873 13.591Zm7.252-25.009-4.558 15.72-46.874-13.591 4.559-15.72 46.873 13.591Zm3.004-10.36-2.279 7.86-46.873-13.592 2.279-7.86 46.873 13.592Zm-19.413 66.952-1.658 5.716-46.873-13.591 1.657-5.717 46.874 13.592Z"/>
  <path fill="#2C8DE2" d="m460.363 174.628 41.947-15.057-4.328-7.854-47.727 3.688-10.28-19.553c-1.975-3.585-6.525-4.901-10.11-2.926l-.702.387c-3.585 1.976-4.902 6.525-2.927 10.11l11.051 19.116-28.626 38.396 4.328 7.854 35.17-27.444 19.059 32.969c.435.79.925 1.499 1.457 2.112l-4.783 7.806 1.847 2.491 10.953-8.117 12.713-4.923-1.12-2.892-9.213-.127a11.845 11.845 0 0 0-.99-2.336l-17.719-33.7Zm15.871 43.098.108.245-.15-.222.042-.023Z"/>
  <path fill="#0857A0" d="m460.244 569.107-42.712-290.351-.892-6.063-23.691-161.047c-2.071-14.079-15.286-23.92-29.365-21.848L199.67 113.911c-14.079 2.071-23.9 15.3-21.829 29.379l67.296 457.46c2.071 14.079 15.283 23.903 29.362 21.832l7.119-1.048 156.795-23.065c14.079-2.072 23.902-15.284 21.831-29.362Z" opacity=".2" style="mix-blend-mode:multiply"/>
  <path fill="#fff" d="m188.232 106.279 163.914-24.113c14.079-2.07 27.294 7.77 29.365 21.849l67.295 457.461c2.071 14.079-7.752 27.291-21.831 29.362L263.06 614.95c-14.079 2.071-27.291-7.752-29.362-21.831l-67.295-457.46c-2.071-14.079 7.75-27.309 21.829-29.38Z"/>
  <path fill="#51AFD0" d="m188.232 106.279 7.119-1.047 74.828 508.671-7.119 1.048c-14.079 2.071-27.291-7.753-29.362-21.832l-67.295-457.46c-2.071-14.079 7.75-27.309 21.829-29.38Z"/>
  <path fill="#D9DFE6" d="M289.725 120.526c37.561-5.525 72.489 20.444 78.015 58.005 5.526 37.561-20.445 72.491-58.006 78.016-37.561 5.526-72.489-20.445-78.015-58.006-5.525-37.561 20.445-72.489 58.006-78.015Zm-65.703 179.611-1.212-8.244 182.392-26.831 1.213 8.244-182.393 26.831Z"/>
  <path fill="#51AFD0" d="m271.791 393.724 26.42 179.595c.786 5.344-2.943 10.359-8.287 11.145-5.344.786-10.359-2.942-11.145-8.286l-26.42-179.596c-.786-5.344 2.943-10.359 8.287-11.145 5.344-.786 10.359 2.943 11.145 8.287Z"/>
  <path fill="#D9DFE6" d="m316.775 444.557 18.148 123.361c.786 5.344-2.943 10.359-8.287 11.145-5.344.786-10.359-2.942-11.145-8.286l-18.147-123.361c-.786-5.344 2.942-10.359 8.286-11.145 5.344-.786 10.359 2.942 11.145 8.286Zm.587-143.262 42.033 285.733-7.353 1.082-42.033-285.733 7.353-1.082Zm98.485 204.261 2.382 16.193-48.284 7.103-2.382-16.193 48.284-7.103Zm-6.637-45.119 3.367 22.891-48.284 7.103-3.368-22.891 48.285-7.103Zm5.067 34.447 1.191 8.096-48.284 7.103-1.191-8.096 48.284-7.103Zm-1.202-8.17.867 5.888-48.285 7.103-.866-5.888 48.284-7.103Zm-7.655-52.039 2.382 16.193-48.284 7.103-2.382-16.193 48.284-7.103Zm-1.57-10.672 1.191 8.096-48.284 7.103-1.191-8.096 48.284-7.103Zm-5.987-40.704 3.367 22.891-48.285 7.103-3.367-22.891 48.285-7.103Zm-3.79-25.761 2.382 16.193-48.285 7.103-2.382-16.193 48.285-7.103Zm-1.57-10.673 1.191 8.097-48.285 7.102-1.191-8.096 48.285-7.103Zm10.145 68.967.867 5.889-48.285 7.103-.866-5.889 48.284-7.103Z"/>
  <path fill="#51AFD0" d="m302.085 180.707 31.905-31.118-7.199-5.347-41.884 23.176-17.472-13.517c-3.286-2.441-7.972-1.749-10.413 1.537l-.478.643c-2.441 3.286-1.749 7.971 1.537 10.412l17.992 12.801-10.095 46.816 7.199 5.348 20.595-39.572 31.031 22.076c.724.538 1.463.98 2.202 1.317l-1.109 9.086 2.715 1.5 6.592-11.933 9.52-9.758-2.219-2.166-8.434 3.71a11.79 11.79 0 0 0-1.871-1.713l-30.114-23.298Zm32.336 32.614.2.179-.228-.141.028-.038Z"/>
  <path fill="#0857A0" d="M539.531 569.472 422.655 204.028c-4.675-14.618-20.46-22.753-35.078-18.078l-250.275 80.043c-14.618 4.675-22.753 20.459-18.078 35.077l116.877 365.445c4.675 14.618 20.46 22.753 35.078 18.078l250.275-80.042c14.618-4.676 22.752-20.461 18.077-35.079Z" opacity=".2" style="mix-blend-mode:multiply"/>
  <path fill="#2C7FAB" d="m508.741 599.099-250.275 80.043c-14.618 4.675-30.403-3.46-35.078-18.078L106.512 295.619c-4.675-14.618 3.459-30.403 18.077-35.078l250.275-80.043c14.618-4.675 30.403 3.46 35.078 18.078l116.876 365.445c4.675 14.618-3.459 30.403-18.077 35.078Z"/>
  <path fill="#B0E7FD" d="M289.65 345.354c-48.412 15.483-75.202 67.464-59.719 115.876 15.484 48.414 67.466 75.204 115.878 59.721 48.414-15.484 75.204-67.466 59.72-115.88-15.483-48.412-67.465-75.201-115.879-59.717Zm99.744 39.113c-7.555-5.128-17.146-8.716-28.021-10.609-10.331-12.736-22.794-22.101-35.863-27.004 25.625 2.344 49.253 16.1 63.884 37.613Zm-8.243 25.497a125.119 125.119 0 0 0-4.529-11.361c11.064.252 18.838 2.286 22.126 5.733l-17.597 5.628Zm-5.267 1.685-23.025 7.364a227.372 227.372 0 0 0-6.71-17.719c9.028-1.575 17.237-2.436 24.389-2.659 2 4.145 3.787 8.493 5.346 13.014Zm-28.293 9.048-28.07 8.978-6.487-20.282c9.685-3.001 18.923-5.341 27.507-7.056a216.92 216.92 0 0 1 7.05 18.36Zm-36.242-16.573-6.558-20.504c7.904-2.366 15.741-4 23.336-4.929 3.511 5.563 6.905 11.782 10.08 18.514-8.874 1.822-17.967 4.169-26.858 6.919Zm-8.242-25.77-9.03-28.236c8.996-.661 20.168 8.361 30.683 23.479-7.091.991-14.348 2.567-21.653 4.757Zm-5.268 1.685c-7.219 2.455-14.043 5.381-20.392 8.689-.21-18.414 3.654-32.243 11.362-36.925l9.03 28.236Zm1.684 5.266 6.558 20.503c-8.835 2.919-17.603 6.285-25.886 9.951-1.321-7.325-2.165-14.361-2.534-20.928 6.724-3.65 14.053-6.867 21.862-9.526Zm8.243 25.773 6.487 20.282-28.068 8.976a217.245 217.245 0 0 1-4.913-19.044c7.985-3.585 16.866-7.038 26.494-10.214Zm-26.849 30.943-23.025 7.364a119.78 119.78 0 0 1-3.198-13.701c5.954-3.968 13.14-8.031 21.406-11.987a227.33 227.33 0 0 0 4.817 18.324Zm-28.292 9.048-17.597 5.628c.677-4.715 5.828-10.883 14.692-17.509.758 3.944 1.73 7.91 2.905 11.881Zm-15.913 10.896 17.598-5.628a125.043 125.043 0 0 0 4.529 11.363c-11.064-.254-18.839-2.287-22.127-5.735Zm22.865-7.312 23.025-7.364a226.716 226.716 0 0 0 6.711 17.721c-9.028 1.573-17.237 2.435-24.389 2.658a119.705 119.705 0 0 1-5.347-13.015Zm28.292-9.049 28.068-8.977 6.488 20.285c-9.684 3.001-18.921 5.341-27.504 7.055a216.783 216.783 0 0 1-7.052-18.363Zm36.241 16.577 6.556 20.501c-7.903 2.367-15.739 4-23.333 4.929-3.509-5.562-6.903-11.781-10.078-18.512 8.874-1.821 17.965-4.168 26.855-6.918Zm8.241 25.767 9.031 28.24c-8.994.659-20.167-8.364-30.682-23.483 7.09-.99 14.347-2.567 21.651-4.757Zm5.268-1.684c7.22-2.455 14.045-5.383 20.395-8.691.21 18.415-3.655 32.247-11.364 36.93l-9.031-28.239Zm-1.685-5.267-6.556-20.501c8.836-2.92 17.603-6.284 25.888-9.95 1.32 7.324 2.164 14.359 2.534 20.925-6.725 3.651-14.055 6.868-21.866 9.526Zm-8.241-25.77-6.488-20.284 28.071-8.978a216.769 216.769 0 0 1 4.913 19.047c-7.986 3.585-16.867 7.039-26.496 10.215Zm26.85-30.946 23.026-7.364a119.747 119.747 0 0 1 3.198 13.702c-5.954 3.968-13.14 8.031-21.406 11.987a226.949 226.949 0 0 0-4.818-18.325Zm28.293-9.049 17.597-5.628c-.677 4.716-5.828 10.883-14.692 17.51a124.942 124.942 0 0 0-2.905-11.882Zm-8.968-22.248a116.516 116.516 0 0 0-7.606-12.625c11.614 2.835 21.175 7.917 27.432 14.987-5.323-1.67-12.1-2.409-19.826-2.362Zm-6.154.189c-7.411.401-15.49 1.419-23.86 2.939-3.001-6.513-6.205-12.544-9.538-18.025 8.449-.623 16.527-.373 23.962.714a108.756 108.756 0 0 1 9.436 14.372Zm-36.731-20.31c-7.542-11.287-15.594-19.701-23.378-24.304 16.054.819 32.314 9.689 45.593 24.217-7.041-.645-14.5-.631-22.215.087Zm-59.03 18.879c-6.7 3.892-12.784 8.209-18.144 12.82 2.383-19.538 10.48-36.198 23.08-46.18-3.668 8.266-5.344 19.79-4.936 33.36Zm.317 6.187c.466 6.398 1.358 13.17 2.692 20.216-7.699 3.619-14.87 7.478-21.138 11.452a108.717 108.717 0 0 1-.655-17.181c5.425-5.2 11.858-10.091 19.101-14.487Zm-23.567 35.085c-6.319 4.444-11.41 8.979-14.776 13.428.992-9.39 5.83-19.074 13.644-28.123.057 4.813.44 9.726 1.132 14.695Zm12.891 40.306a116.732 116.732 0 0 0 7.604 12.623c-11.613-2.834-21.172-7.914-27.429-14.985 5.323 1.67 12.1 2.408 19.825 2.362Zm6.154-.189c7.41-.401 15.491-1.419 23.86-2.939 3.001 6.511 6.204 12.543 9.536 18.023-8.45.623-16.526.374-23.962-.713a108.8 108.8 0 0 1-9.434-14.371Zm36.729 20.307c7.543 11.289 15.596 19.705 23.38 24.308-16.055-.82-32.316-9.689-45.596-24.22 7.042.646 14.501.63 22.216-.088Zm59.031-18.879c6.699-3.892 12.783-8.208 18.143-12.82-2.384 19.539-10.48 36.199-23.079 46.182 3.669-8.266 5.344-19.791 4.936-33.362Zm-.317-6.188c-.466-6.396-1.358-13.168-2.692-20.212 7.698-3.619 14.87-7.477 21.138-11.451a108.79 108.79 0 0 1 .655 17.178c-5.425 5.2-11.858 10.089-19.101 14.485Zm23.568-35.081c6.318-4.445 11.408-8.979 14.774-13.428-.994 9.388-5.83 19.072-13.643 28.119a116.582 116.582 0 0 0-1.131-14.691Zm-125.441-65.909c-7.798 11.578-12.515 26.438-13.538 42.806-7.758 7.853-13.487 16.339-16.665 24.9-.569-26.012 10.693-50.927 30.203-67.706Zm-15.252 114.453c7.555 5.128 17.145 8.716 28.02 10.609 10.331 12.738 22.797 22.105 35.866 27.009-25.627-2.346-49.255-16.103-63.886-37.618Zm128.079 17.085c7.798-11.577 12.514-26.438 13.536-42.806 7.758-7.853 13.487-16.339 16.664-24.899.569 26.011-10.691 50.926-30.2 67.705ZM155.908 303.876l4.687-1.499 10.687 33.416-4.687 1.499-10.687-33.416Zm7.527 15.226 10.688-3.418c1.011-.323 1.823-.847 2.436-1.566.616-.72.993-1.584 1.137-2.591.141-1.008.03-2.079-.333-3.213-.368-1.15-.901-2.094-1.601-2.833-.702-.739-1.511-1.227-2.433-1.463-.919-.237-1.885-.196-2.896.127l-10.688 3.418-1.426-4.458 10.525-3.367c1.993-.637 3.884-.774 5.673-.406a9.297 9.297 0 0 1 4.678 2.469c1.328 1.28 2.32 2.939 2.972 4.977.652 2.038.805 3.96.464 5.766a9.247 9.247 0 0 1-2.385 4.701c-1.246 1.328-2.867 2.31-4.86 2.947l-10.526 3.366-1.425-4.456Zm28.805-26.846 4.001-1.28 23.005 29.477-5.056 1.617-17.884-23.995-.64 29.92-5.056 1.617 1.63-37.356Zm.276 23.751 17.582-5.623 1.426 4.459-17.582 5.623-1.426-4.459Zm38.837.954-2.308.231a17.699 17.699 0 0 1-8.714-1.266l1.772-4.519a13.809 13.809 0 0 0 5 1.137c1.707.063 3.458-.192 5.25-.765 2.421-.774 4.155-1.824 5.202-3.148 1.046-1.321 1.306-2.802.782-4.441l-.008-.024c-.372-1.164-.969-1.991-1.792-2.48-.824-.486-1.765-.742-2.83-.766-1.061-.022-2.396.069-4 .28a.493.493 0 0 0-.159.025.46.46 0 0 1-.156.024l-.367.041c-2.359.333-4.318.483-5.873.447-1.557-.033-3.038-.53-4.442-1.492-1.406-.961-2.485-2.621-3.24-4.98l-.008-.023c-.662-2.069-.763-3.981-.303-5.742.461-1.759 1.455-3.306 2.988-4.642 1.531-1.333 3.546-2.402 6.044-3.201a16.85 16.85 0 0 1 3.653-.736 18.44 18.44 0 0 1 3.795.064 20.93 20.93 0 0 1 3.942.882l-1.476 4.575c-1.571-.526-3.061-.822-4.476-.885a11.431 11.431 0 0 0-4.027.514c-2.284.73-3.911 1.753-4.883 3.069s-1.192 2.81-.658 4.48l.007.021c.368 1.15.983 1.951 1.846 2.401.86.451 1.828.677 2.901.68 1.073.003 2.531-.104 4.369-.322a1.42 1.42 0 0 0 .184-.02c.054-.01.117-.017.183-.022.081-.008.171-.018.268-.033.097-.015.185-.025.267-.036 2.154-.231 3.999-.283 5.538-.15 1.537.133 2.963.687 4.279 1.659 1.316.972 2.324 2.555 3.025 4.747l.015.044c.652 2.038.727 3.935.224 5.692-.503 1.757-1.548 3.307-3.136 4.65-1.588 1.343-3.676 2.43-6.267 3.259l-2.411.771Zm28.979-9.268-2.308.231a17.699 17.699 0 0 1-8.714-1.266l1.772-4.519a13.809 13.809 0 0 0 5 1.137c1.707.063 3.458-.192 5.25-.765 2.421-.774 4.155-1.824 5.202-3.148 1.046-1.321 1.306-2.802.782-4.441l-.008-.024c-.372-1.164-.97-1.991-1.793-2.48-.824-.486-1.764-.742-2.829-.766-1.061-.022-2.397.069-4.001.28a.487.487 0 0 0-.158.025.466.466 0 0 1-.157.024l-.366.041c-2.359.333-4.318.483-5.873.447-1.557-.033-3.038-.53-4.442-1.492-1.406-.961-2.485-2.621-3.24-4.98l-.008-.023c-.662-2.069-.763-3.981-.303-5.742.461-1.759 1.455-3.306 2.988-4.642 1.531-1.333 3.545-2.401 6.043-3.2a16.862 16.862 0 0 1 3.654-.737 18.44 18.44 0 0 1 3.795.065c1.289.155 2.603.447 3.942.881l-1.476 4.575c-1.571-.526-3.061-.822-4.476-.885a11.431 11.431 0 0 0-4.027.514c-2.284.73-3.911 1.753-4.883 3.069s-1.192 2.81-.658 4.48l.007.021c.368 1.15.982 1.951 1.845 2.401.86.451 1.829.677 2.902.68 1.073.003 2.531-.104 4.369-.322.067-.003.127-.009.184-.019.054-.01.117-.018.183-.023.081-.008.171-.018.268-.033.097-.015.185-.025.267-.036 2.154-.231 3.999-.283 5.538-.15 1.537.133 2.963.687 4.279 1.659 1.316.972 2.324 2.555 3.025 4.747l.015.045c.652 2.038.727 3.934.224 5.691-.503 1.757-1.548 3.307-3.136 4.65-1.588 1.343-3.676 2.43-6.267 3.259l-2.411.771Zm10.553-40.589 4.688-1.5 10.687 33.417-4.688 1.499-10.687-33.416Zm7.528 15.226 10.688-3.419c1.011-.323 1.823-.846 2.436-1.565.616-.72.992-1.584 1.136-2.591.141-1.008.031-2.079-.332-3.213-.368-1.15-.901-2.094-1.601-2.833-.702-.739-1.511-1.227-2.433-1.463-.919-.237-1.885-.196-2.896.127l-10.689 3.418-1.426-4.458 10.526-3.367c1.993-.637 3.883-.774 5.672-.406a9.3 9.3 0 0 1 4.679 2.469c1.328 1.28 2.319 2.939 2.971 4.977.652 2.038.806 3.96.465 5.766a9.248 9.248 0 0 1-2.386 4.701c-1.246 1.328-2.867 2.31-4.86 2.947l-10.525 3.366-1.425-4.456Zm36.516 6.218c-2.102-.452-3.936-1.451-5.505-3.003-1.568-1.55-2.745-3.551-3.529-6.002l-3.027-9.467c-.784-2.451-.988-4.766-.61-6.938.378-2.172 1.291-4.052 2.741-5.638 1.452-1.589 3.341-2.756 5.672-3.501 2.329-.745 4.544-.89 6.649-.439 2.101.45 3.936 1.45 5.504 3 1.568 1.55 2.745 3.553 3.529 6.004l3.028 9.468c.784 2.451.987 4.763.609 6.935-.377 2.174-1.291 4.052-2.741 5.64-1.453 1.587-3.341 2.753-5.67 3.498-2.331.745-4.546.892-6.65.443Zm8.517-7.157c.85-.956 1.38-2.098 1.589-3.422.211-1.327.074-2.738-.406-4.24l-3.131-9.791c-.48-1.5-1.189-2.731-2.13-3.687-.939-.957-2.033-1.581-3.279-1.864-1.25-.285-2.563-.208-3.94.232-1.379.441-2.496 1.142-3.346 2.098-.851.954-1.381 2.097-1.59 3.421-.211 1.325-.074 2.738.406 4.238l3.131 9.792c.48 1.502 1.188 2.73 2.13 3.689.939.957 2.033 1.578 3.28 1.864 1.247.286 2.563.206 3.942-.235 1.377-.44 2.492-1.138 3.344-2.095Zm6.653-33.249 4.688-1.499 10.694 33.438-4.688 1.499-10.694-33.438Zm6.793 14.191 11.4-3.645c.888-.284 1.607-.752 2.16-1.4.552-.65.889-1.429 1.012-2.338s.023-1.876-.306-2.903c-.329-1.027-.807-1.874-1.435-2.543s-1.352-1.109-2.17-1.321c-.819-.209-1.681-.171-2.583.118l-11.399 3.646-1.426-4.459 11.215-3.586c1.929-.617 3.754-.764 5.471-.433a8.805 8.805 0 0 1 4.487 2.3c1.271 1.207 2.212 2.768 2.825 4.683s.747 3.734.405 5.457a8.885 8.885 0 0 1-2.329 4.48c-1.209 1.266-2.771 2.203-4.686 2.816l-11.215 3.587-1.426-4.459Zm10.195.514 4.328-2.548 13.738 13.49-5.561 1.779-12.505-12.721Zm9.103-23.025 23.58-7.542 1.426 4.459-23.58 7.541-1.426-4.458Zm10.321-.287 4.687-1.499 9.813 30.682-4.688 1.499-9.812-30.682Zm28.364 328.981 11.808 36.921-61.417 19.642-11.809-36.921 61.418-19.642Z"/>
  <path fill="#2C7FAB" d="m400.01 584.573 1.544 4.828-61.417 19.642-1.544-4.827 61.417-19.643Z"/>
  <path fill="#2C7FAB" d="M378.931 593.976c1.216 3.801-1.766 8.15-6.659 9.715-4.893 1.565-9.844-.248-11.06-4.049-1.216-3.801 1.765-8.15 6.658-9.715 4.893-1.565 9.845.248 11.061 4.049Z"/>
</svg>
