<?xml version="1.0" encoding="iso-8859-1"?>
<!-- Uploaded to: SVG Repo, www.svgrepo.com, Generator: SVG Repo Mixer Tools -->
<!DOCTYPE svg PUBLIC "-//W3C//DTD SVG 1.1//EN" "http://www.w3.org/Graphics/SVG/1.1/DTD/svg11.dtd">
<svg fill="#2c7fab" version="1.1" id="Capa_1" xmlns="http://www.w3.org/2000/svg" xmlns:xlink="http://www.w3.org/1999/xlink" 
	 width="800px" height="800px" viewBox="0 0 981 981" xml:space="preserve">
<g>
	<g>
		<path d="M931,381.45h-19v267.1c0,44.1-35.9,80-80,80H198v19c0,27.6,22.4,50,50,50h683c27.6,0,50-22.4,50-50v-316.1
			C981,403.85,958.6,381.45,931,381.45z"/>
		<path d="M832,698.55c27.6,0,50-22.4,50-50v-267.1v-49c0-27.6-22.4-50-50-50h-19v99v168.1c0,44.1-35.9,80-80,80H198H99v19
			c0,27.6,22.4,50,50,50h49H832z"/>
		<path d="M0,233.45v316.1c0,27.6,22.4,50,50,50h19h15h15h99h535c27.6,0,50-22.4,50-50v-168.1v-99v-15v-15v-19c0-27.6-22.4-50-50-50
			H50C22.4,183.45,0,205.85,0,233.45z M286.4,412.95c-12.4,0-22.5-10.1-22.5-22.5c0-3.199,0.7-6.199,1.9-9
			c3.5-7.899,11.4-13.5,20.6-13.5h28.1c7.1-37.8,8.5-69.8,8.8-85.5c0.101-6.5,0-10.2,0-10.4c-0.1-1.6,0.101-3.1,0.3-4.6
			c0.801-4.4,2.801-8.5,6-11.8c1.2-1.2,2.5-2.3,3.9-3.2c3.6-2.4,7.9-3.7,12.3-3.7h122.4c4.6,0,8.8,1.4,12.3,3.7
			c5.1,3.4,8.8,8.7,9.8,15c0.2,1.2,0.3,2.5,0.3,3.8v11.2v31.6c0,12.4-10.1,22.5-22.5,22.5c-12.399,0-22.5-10.1-22.5-22.5v-20.3
			h-77.5c-0.6,17.6-2.5,43.8-7.699,74.2h42.5c9.199,0,17.199,5.601,20.6,13.5c1.2,2.801,1.9,5.801,1.9,9
			c0,12.4-10.101,22.5-22.5,22.5h-52.2c-6.4,24.2-15.101,49.5-27,74.2h162c12.399,0,22.5,10.101,22.5,22.5
			c0,12.4-10.101,22.5-22.5,22.5H285.6c-8.2,0-15.8-4.5-19.7-11.699c-4-7.199-3.7-16,0.7-22.9c17-26.7,28.9-56.1,37.3-84.6H286.4z"
			/>
	</g>
</g>
</svg>