<svg xmlns="http://www.w3.org/2000/svg" width="24" height="25" fill="none" viewBox="0 0 24 25">
  <g clip-path="url(#a)">
    <path fill="#f4f8fb" d="M0 .891h24v24H0z"/>
    <path fill="#0857A0" fill-rule="evenodd" d="M24 12.891c0 6.628-5.373 12-12 12s-12-5.372-12-12c0-6.627 5.373-12 12-12s12 5.373 12 12Zm-11.57-3.14c-1.167.485-3.5 1.49-6.998 3.014-.568.226-.866.447-.893.663-.046.365.412.509 1.035.704l.262.084c.613.2 1.437.432 1.865.441.389.009.823-.151 1.302-.48 3.268-2.207 4.955-3.322 5.061-3.346.075-.017.179-.038.249.024.07.063.063.18.056.212-.046.194-1.84 1.863-2.77 2.726-.29.27-.495.46-.537.504-.094.098-.19.19-.282.279-.57.549-.996.96.024 1.632.49.323.882.59 1.273.857.427.29.853.58 1.405.942.14.092.274.188.405.28.497.355.944.674 1.496.623.32-.03.652-.331.82-1.23.397-2.125 1.179-6.73 1.36-8.628a2.112 2.112 0 0 0-.02-.472.506.506 0 0 0-.172-.325c-.143-.117-.365-.141-.465-.14-.451.008-1.143.25-4.476 1.635Z" clip-rule="evenodd"/>
  </g>
  <defs>
    <clipPath id="a">
      <path fill="#f4f8fb" d="M0 0h24v24H0z" transform="translate(0 .891)"/>
    </clipPath>
  </defs>
</svg>
