<svg xmlns="http://www.w3.org/2000/svg" width="24" height="25" fill="none" viewBox="0 0 24 25">
  <g clip-path="url(#a)">
    <path fill="#f4f8fb" d="M0 .891h24v24H0z"/>
    <path fill="#0857A0" d="M17.073.891h-4.045V17.24c0 1.948-1.556 3.548-3.492 3.548s-3.491-1.6-3.491-3.548c0-1.913 1.52-3.478 3.388-3.548V9.587C5.319 9.657 2 13.031 2 17.239c0 4.244 3.388 7.652 7.57 7.652 4.184 0 7.572-3.443 7.572-7.652V8.857a9.366 9.366 0 0 0 5.358 1.808V6.561c-3.042-.104-5.427-2.609-5.427-5.67Z"/>
  </g>
  <defs>
    <clipPath id="a">
      <path fill="#f4f8fb" d="M0 0h24v24H0z" transform="translate(0 .891)"/>
    </clipPath>
  </defs>
</svg>
