<svg xmlns="http://www.w3.org/2000/svg" width="24" height="25" fill="none" viewBox="0 0 24 25">
  <path fill="#f4f8fb" d="M0 .891h24v24H0z"/>
  <path fill="#0857A0" d="M7.55 22.641c9.055 0 14.008-7.503 14.008-14.008 0-.21-.004-.426-.014-.637A9.999 9.999 0 0 0 24 5.446c-.898.4-1.85.66-2.826.774a4.95 4.95 0 0 0 2.165-2.723 9.897 9.897 0 0 1-3.126 1.195 4.93 4.93 0 0 0-8.394 4.49A13.985 13.985 0 0 1 1.673 4.04a4.93 4.93 0 0 0 1.523 6.57 4.93 4.93 0 0 1-2.23-.614v.061a4.922 4.922 0 0 0 3.95 4.828 4.893 4.893 0 0 1-2.221.085 4.934 4.934 0 0 0 4.597 3.422A9.875 9.875 0 0 1 0 20.43a13.969 13.969 0 0 0 7.55 2.211Z"/>
</svg>
