<svg xmlns="http://www.w3.org/2000/svg" width="720" height="825" fill="none" viewBox="0 0 720 825">
  <path fill="#000" d="M374.201 777.898c172.121 0 311.871 3.5 311.871 7.811s-139.75 7.812-311.871 7.812c-172.121 0-311.87-3.501-311.87-7.812s139.749-7.811 311.87-7.811Z" opacity=".08"/>
  <path fill="#4B98E1" d="M719.991 18.989v711.039l-237.464 18.037-15.241 1.173V.32l34.812 2.525 17.767 1.353 108.766 8.027 19.932 1.443 5.591.45 32.378 2.345 33.459 2.526Z"/>
  <path fill="#fff" d="M695.551 45.774v657.558l-213.023 16.054-19.932 1.533-2.525.18-91.45-21.555-18.768-4.329-50.406-11.904H24.735V67.149h274.712l1.713-.451 27.237-6.494 13.708-3.337 19.12-4.6 1.443-.36 8.388-1.984 89.015-21.465 42.027 3.067 17.677 1.353 108.676 7.936 19.932 1.443.992.09 32.287 2.435 13.889.992Z"/>
  <path fill="#D9DFE6" d="m24.735 268.538-24.44-.451v-58.532l24.44.722 1.624.09c.27-44.282.54-94.607.631-143.218.09-8.388.09-16.775.09-24.982h39.773v8.568c0 5.501 0 10.913-.09 16.414-.361 85.137-.902 166.125-.902 173.07v.451l-.18 28.679-40.946-.811Zm670.816 271.113v51.046l-147.737 6.854-65.287-118.155-13.437-24.35-1.813-3.247v-.081l-7.206-12.906-55.015-99.657-1.632-2.796-1.254-2.336-79.094-.541-13.348-.099-14.791-.091-37.707-.261-60.417 122.015-7.404 14.89 105.528-1.984 73.684-1.443v259.37l-18.768-4.509V495.991l-54.916 1.362-22.005.532-47.448 1.262-51.137 1.263-90.548 182.901-12.437 25.072h-48.16l12.536-25.072 90.819-181.728-101.822 2.534-24.44.532v-31.106l24.44-.46 53.21-1.073 63.935-1.172 7.945-15.792 89.007-178.121 56.105.983 77.021 1.362-77.021-139.34-40.223-72.772-13.799-24.982h46.798l7.224 13.258 5.772 10.461.451.812 54.194 99.107.099.099 62.5 114.178 13.438.27h.09l28.59.442 7.206.181 11.634.189 23.638.451c-.09-10.552-.09-23.728-.09-38.7v-.081c-.099-31.295-.271-70.346-.361-109.307-.09-40.675-.09-74.955 0-102.011l17.677 1.362c-.09 63.401.171 156.556.361 236.003.09 4.338.09 8.667.09 13.005l8.928.171 79.447 1.443a100987.49 100987.49 0 0 1 19.85-117.415c6.764-40.404 13.889-82.26 19.932-117.614v-.081c.36-1.984.721-4.059.992-6.043l32.287 2.426c-8.658 51.588-21.203 126.001-33.009 195.987v.081c-4.419 26.425-8.757 52.138-12.716 75.857l-3.157 18.93-165.503-1.163h-7.206l-12.356-.099 2.616 4.78 9.74 17.767 7.206 13.176 95.427 174.324 93.245-3.328 39.602-1.443Z"/>
  <path fill="#4B98E1" d="M294.937 708.383H.294V42.167h294.643v666.216Z"/>
  <path fill="#fff" d="M460.071 28.458V721.1l-60.155-14.159-11.905-2.805-88.564-20.824H24.735V67.149h274.712l15.873-3.788 13.077-3.157 13.709-3.337 28.95-6.944 89.015-21.465Z"/>
  <path fill="#D9DFE6" d="m364.652 113.325-36.255-53.12 13.708-3.337 19.12-4.6 1.443-.36 8.388-1.985.09.09 88.925 130.682 7.215 10.552v72.781l-7.215-10.552-95.238-139.881-.181-.27Zm117.876 606.061V457.481a2.427 2.427 0 0 0-2.445-2.435h-177.66c-1.894 0-2.976-2.075-2.074-3.608l65.386-111.021c.451-.811 1.253-1.262 2.074-1.262h99.477v-47.619H349.131c-.893 0-1.614.451-2.074 1.172l-23.981 40.765-27.958 47.439-.181.27-42.839 72.691c-.451.722-1.172 1.173-2.074 1.173H100.222c-1.262 0-2.344-1.082-2.344-2.435V290.273c0-1.353 1.082-2.435 2.344-2.435H175.7a2.427 2.427 0 0 0 2.444-2.435l.181-21.194c0-.722.541-78.824.902-156.476 0-14.43.09-27.958 0-40.584h-37.428c-.099 53.752-.361 117.424-.722 170.635a2.425 2.425 0 0 1-2.435 2.435H24.735v47.619h50.776a2.425 2.425 0 0 1 2.435 2.435v187.68a2.425 2.425 0 0 0 2.435 2.435h151.876c1.885 0 3.066 2.075 2.065 3.698l-8.829 15.061-108.595 184.164h46.816l109.218-185.426 9.65-16.324c.451-.722 1.262-1.173 2.074-1.173h175.505a2.427 2.427 0 0 1 2.435 2.445v238.086l19.932-1.533Z"/>
  <path fill="#4B98E1" d="M467.286.32v748.918l-4.69-1.083-93.975-22.276-18.759-4.509-54.925-12.987V42.167L467.286.32Z"/>
  <path fill="#D9DFE6" d="m467.322 721.099-172.385-37.806V67.176l172.385-38.7V721.1Z"/>
  <path fill="#A2A8AE" d="m460.071 334.735-6.855.181 6.855 17.135 7.215 18.038v81.62l-7.215-18.398-38.15-97.493-88.744 2.525-36.526 116.973 103.265 5.682V706.94l-11.905-2.805V487.333l-93.074-6.764v-99.116l28.049-91.36 79.094-4.961-86.76-221.771 13.077-3.156 13.708-3.337 90.459 226.28 27.507-1.713 7.215-.451v53.571l-7.215.18Z"/>
  <path fill="#D9DFE6" d="M481.445 291.536h-14.159v-27.508l11.634 17.136 4.509 6.584c1.173 1.623 0 3.788-1.984 3.788Zm1.082 427.85V457.481a2.427 2.427 0 0 0-2.444-2.435h-12.797v265.512l15.241-1.172Z"/>
  <path fill="#46A6FB" d="M600.775 621.648c-7.993 0-14.463 6.475-14.463 14.468 0 6.189 8.66 17.468 12.582 22.262a2.436 2.436 0 0 0 3.768 0c3.922-4.794 12.587-16.073 12.587-22.262 0-7.993-6.475-14.468-14.474-14.468Zm0 22.543c-4.455 0-8.064-3.614-8.064-8.075 0-4.455 3.609-8.07 8.064-8.07 4.461 0 8.076 3.615 8.076 8.07a8.074 8.074 0 0 1-8.076 8.075Zm2.959 21.221a2.961 2.961 0 0 1-2.959 2.964 2.96 2.96 0 0 1-2.958-2.964 2.955 2.955 0 0 1 2.958-2.953 2.955 2.955 0 0 1 2.959 2.953ZM81.317 135.468c-8.339 0-15.09 6.756-15.09 15.096 0 6.456 9.035 18.224 13.127 23.225a2.541 2.541 0 0 0 3.932 0c4.092-5.001 13.132-16.769 13.132-23.225 0-8.34-6.756-15.096-15.1-15.096Zm0 23.52c-4.648 0-8.414-3.771-8.414-8.424 0-4.649 3.766-8.42 8.414-8.42 4.654 0 8.425 3.771 8.425 8.42a8.424 8.424 0 0 1-8.425 8.424Zm3.087 22.14a3.088 3.088 0 0 1-3.087 3.092 3.088 3.088 0 0 1-3.086-3.092 3.083 3.083 0 0 1 3.086-3.081 3.083 3.083 0 0 1 3.087 3.081Zm174.234 70.104c-8.968 0-16.227 7.265-16.227 16.233 0 6.943 9.715 19.598 14.116 24.976a2.731 2.731 0 0 0 4.227 0c4.401-5.378 14.122-18.033 14.122-24.976 0-8.968-7.265-16.233-16.238-16.233Zm0 25.293c-4.999 0-9.049-4.055-9.049-9.06 0-4.998 4.05-9.054 9.049-9.054a9.058 9.058 0 1 1 0 18.114Zm3.319 23.808a3.322 3.322 0 0 1-3.319 3.325 3.322 3.322 0 0 1-3.319-3.325 3.315 3.315 0 0 1 3.319-3.313 3.315 3.315 0 0 1 3.319 3.313Z"/>
  <path fill="#91C7F7" d="M118.469 432.029c.826 4.699 4.378 24.706 4.535 25.714.63 4.189 1.913 13.015 3.603 21.624l.015.065c.589 2.963 1.503 8.242 2.349 13.408.952 5.646 2.08 12.768 2.565 13.828.151.144.425.387.819.713 2.161 1.939 6.451 7.014 8.263 9.309 1.068 1.444 3.441 5.218 1.621 6.216-2.926 1.605-3.604-3.103-6.237-4.783.342 1.925 1.11 5.643 2.315 9.206l3.501 7.921c.236.57 3.037 4.43.988 5.552l-.067.033c-1.942.908-4.256-3.6-8.993-10.695.216.977.531 2.128.869 3.197.287.54 1.118 2.983 1.468 4.349 1.534 1.898 3.034 5.297.695 6.179-1.174.494-3.524-4.237-3.524-4.237-.32-.61-2.86-5.544-3.373-6.511.627 1.763 3.48 9.272 1.777 10.2-1.408.772-2.514-1.039-3.257-2.586-.484-.914-3.621-8.955-4.007-9.841-.041 1.51 2.666 8.617 2.025 8.967-2.756 1.513-6.79-8.545-7.102-11.574-.015-.306-.162-.854-.361-1.518-.608-1.853-1.499-4.968-1.379-8.314.061-4.019-.097-10.18-.132-11.098-.565-1.64-2.569-7.576-5.192-14.96-1.07-3.167-2.302-6.629-3.539-10.253-.136-.396-.378-1.273-.928-3.166-.513-1.978-1.37-5.024-2.657-9.87-1.545-5.797-4.779-16.448-7.956-26.581-1.891-3.571-3.61-9.113-4.654-14.797-.585-3.265-.948-6.505-.94-9.482-.11-5.333.897-9.713 3.477-11.125 6.566-3.602 15.814 1.022 20.726 10.288 2.63 4.964 3.454 10.213 2.687 14.622ZM185.95 786.18s-1.157 19.195-1.157 19.228c-.421 2.445-2.114 8.466-2.114 10.68 0 8.325 39.529-7.062 30.667-10.754-.793-.339-5.005-2.866-5.269-5.699-.405-4.361-1.438-13.198-1.438-13.198l-20.689-.257Z"/>
  <path fill="#20262B" d="M214.643 804.64s-9.449 2.841-14.281 3.552c-4.831.71-11.216-5.27-14.635-3.651-3.766 1.776-3.618 17.799-3.618 17.799s50.647 4.559 64.894-.157c5.641-1.867-13.05-10.919-32.36-17.543Z"/>
  <path fill="#91C7F7" d="M105.107 786.18s-1.148 19.195-1.156 19.228c-.43 2.445-2.114 8.466-2.114 10.68 0 8.325 39.529-7.062 30.667-10.754-.802-.339-6.253-4.749-6.517-7.582-.405-4.361-.19-11.315-.19-11.315l-20.69-.257Z"/>
  <path fill="#20262B" d="M132.338 804.648s-9.448 2.833-14.28 3.544c-4.84.71-11.216-5.27-14.636-3.651-3.774 1.776-3.923 17.807-3.923 17.807s50.886 5.311 65.191-.165c5.559-2.123-13.041-10.911-32.352-17.535ZM114.06 483.426s-6.698 32.376-3.964 56.931c2.726 24.547 2.94 111.766 2.94 111.766l-10.415 139.533 24.712.537s29.304-139.467 28.759-135.883c-.545 3.569 9.829-98.211 9.829-98.211l-34.937-77.746-16.924 3.073Z"/>
  <path fill="#333537" d="M120.61 481.898s-4.361 29.155 1.09 41.941c5.46 12.785 46.823 138.245 47.368 148.478.545 10.225 14.305 123.279 14.305 123.279l28.734-.801 6.228-125.699-13.034-158.001-12.636-39.943-72.055 10.746Z"/>
  <path fill="#91C7F7" d="M220.059 374.033c3.21-3.53 16.854-18.59 17.556-19.331 2.929-3.061 9.128-9.476 14.897-16.086l.042-.052c1.981-2.282 5.596-6.236 9.164-10.067 3.883-4.21 8.827-9.461 9.361-10.498.018-.21.037-.58.046-1.097.167-2.925 1.474-9.482 2.146-12.344.468-1.742 1.96-5.957 3.911-5.096 3.136 1.384-.176 4.801.163 7.95 1.313-1.448 3.78-4.335 5.845-7.479l4.071-7.654c.303-.537 1.591-5.151 3.785-4.181l.069.034c1.956 1.015-.156 5.63-2.784 13.779a38.493 38.493 0 0 0 1.989-2.65c.247-.561 1.66-2.721 2.523-3.836.534-2.396 2.281-5.678 4.47-4.327 1.139.647-1.128 5.428-1.128 5.428-.281.63-2.588 5.687-3.03 6.691 1.002-1.581 5.157-8.46 6.978-7.651 1.508.666.771 2.663.014 4.205-.419.948-4.816 8.382-5.274 9.233 1.226-.888 5.153-7.404 5.839-7.099 2.955 1.303-2.475 10.689-4.684 12.787-.234.198-.576.65-.977 1.216-1.086 1.62-2.996 4.237-5.732 6.18-3.233 2.4-8.03 6.282-8.737 6.869-.944 1.456-4.389 6.692-8.591 13.309-1.836 2.794-3.805 5.898-5.899 9.105-.229.352-.772 1.081-1.926 2.679-1.247 1.62-3.123 4.168-6.157 8.16-3.625 4.781-10.036 13.882-16.07 22.622-1.636 3.703-4.949 8.467-8.803 12.775-2.223 2.461-4.568 4.729-6.94 6.537-4.168 3.338-8.29 5.195-11.052 3.972-7.038-3.106-9.241-13.39-4.999-23.002 2.273-5.149 5.921-9.013 9.914-11.081Z"/>
  <path fill="#90C7F7" d="M93.1 408.164c.585 2.02.925 2.686 1.664 4.041 4.803 8.73 15.926 21.192 15.926 21.192l8.617-19.391s-1.412-6.101-3.846-14.799c-8.316 2.166-16.227 3.416-22.36 8.957Z"/>
  <path fill="#0857A0" d="M142.454 391.353s-48.007 20.673-49.557 20.284c-1.006-.26-19.699-31.553-19.902-60.981-.089-13.582 14.028-29.938 29.769-26.701 7.926 1.631 7.805 3.846 19.537 20.884 11.723 17.046 20.153 46.514 20.153 46.514Z"/>
  <path fill="#91C7F7" d="m107.632 293.197-4.406 27.837s16.762 13.461 26.539 10.621c8.203-2.385 2.588-13.103 2.588-13.103s-4.365-14.872-3.026-22.661c1.339-7.781-21.695-2.694-21.695-2.694Z"/>
  <path fill="#5CB2FE" d="M110.788 301.603c4.203 1.988 12.511 4.697 18.977 5.355-.617-3.895-.965-8.025-.446-11.067.616-3.594-3.951-4.446-9.055-4.325a166.995 166.995 0 0 0-12.64 1.615l-.844 5.363c1.274 1.339 2.604 2.393 4.008 3.059Z"/>
  <path fill="#91C7F7" d="M86.464 261.084c-.698 0 6.62 31.099 17.955 36.446 11.326 5.347 28.226 2.572 31.399-5.809 3.513-9.258-9.29-40.989-25.217-45.022-15.934-4.032-24.137 14.385-24.137 14.385Z"/>
  <path fill="#17263A" d="M99.575 232.509c-9.054 5.217-13.209 12.965-14.604 16.138-4.251 2.02-9.387 6.369-11.854 18.117-3.034 14.442 7.749 25.581 19.188 28.932 11.432 3.343 13.193 10.913 13.193 10.913l1.306-8.146s-2.547-7.083-6.377-10.629c-3.821-3.545 1.817-8.73 2.312-12.941.382-3.253-2.004-9.549-1.492-14.88 0 0 6.352-9.638 12.616-12.016 10.677-4.056-2.677-22.19-14.288-15.488Z"/>
  <path fill="#91C7F7" d="M104.386 280.313c1.485 3.594.877 7.156-1.347 7.968-2.223.803-5.24-1.453-6.717-5.047-1.485-3.594-.877-7.156 1.355-7.959 2.223-.812 5.233 1.452 6.709 5.038Zm-1.168 40.721s6.961 4.56 13.452 4.041c6.499-.536 15.675-6.523 15.675-6.523l-1.274-4.325s-16.795-2.45-17.216-2.182c-.422.267-10.637 8.989-10.637 8.989Z"/>
  <path fill="#90C7F7" d="M177.415 388.806s24.949 23.545 36.21 19.529c11.261-4.016 15.919-17.76-11.562-37.857-24.583-17.996-24.648 18.328-24.648 18.328Z"/>
  <path fill="#4B98E1" d="M194.323 417.876c-3.7-20.162-30.571-82.903-32.713-94.464-1.038-5.615-15.521-5.736-29.322-5.006-14.571.77-29.062 2.62-29.062 2.62s-12.9 2.118-18.588 7.432c-5.671 5.322-7.172 20.04.998 47.967 6.434 22.044 14.418 34.149 18.361 50.205.803 5.388 1.501 10.702 2.409 16.909 1.452 24.007-.016 55.731-.016 55.731s70.23 14.572 96.509-7.537c0 0-4.771-53.2-8.576-73.857Z"/>
  <path fill="#3084D3" d="M212.23 374.526s-27.562 22.75-29.176 22.75c-1.031 0-39.326-28.17-48.169-51.317-4.893-12.795 5.363-27.107 17.07-27.058 8.114.024 11.732 2.117 27.813 15.683 16.081 13.574 32.462 39.942 32.462 39.942Z"/>
  <path fill="#fff" d="m132.872 281.465-10.32 4.641s2.004 3.814 6.596 1.907c5.607-2.337 3.724-6.548 3.724-6.548Z"/>
  <path fill="#000" d="M119.649 263.515a3.242 3.242 0 0 1 4.218 1.791 3.242 3.242 0 0 1-1.791 4.218 3.242 3.242 0 0 1-4.218-1.791 3.242 3.242 0 0 1 1.791-4.218Z"/>
</svg>
